<?xml version="1.0" standalone="no"?>
<!DOCTYPE svg PUBLIC "-//W3C//DTD SVG 1.1//EN" "http://www.w3.org/Graphics/SVG/1.1/DTD/svg11.dtd" >
<svg xmlns="http://www.w3.org/2000/svg" xmlns:xlink="http://www.w3.org/1999/xlink" version="1.1">
<metadata></metadata>
<defs>
<font id="pf_dintext_stdregular" horiz-adv-x="500" >
<font-face units-per-em="1000" ascent="750" descent="-250" />
<missing-glyph horiz-adv-x="224" />
<glyph unicode="ff" horiz-adv-x="520" d="M452 731h63v-76h-55c-43 0 -53 -29 -53 -64v-95h104v-72h-104v-424h-83v424h-158v-424h-83v424h-61v72h61v60c0 126 82 160 172 160c39 0 73 -7 102 -21c23 24 57 36 95 36zM166 558v-62h158v105c0 7 0 14 1 21c-19 11 -44 17 -75 17c-57 0 -84 -27 -84 -81z" />
<glyph unicode="fi" horiz-adv-x="478" d="M407 0h-83v424h-158v-424h-83v424h-61v72h61v80c0 126 82 160 172 160c68 0 122 -21 159 -64l-56 -56c-22 26 -55 43 -108 43c-57 0 -84 -27 -84 -81v-82h241v-496z" />
<glyph unicode="fl" horiz-adv-x="501" d="M482 0h-35c-72 0 -122 30 -122 115v531c-29 10 -47 13 -75 13c-57 0 -84 -27 -84 -81v-82h107v-72h-107v-424h-83v424h-61v72h61v80c0 126 82 160 172 160c27 0 85 -5 152 -34v-580c0 -30 17 -47 51 -47h24v-75z" />
<glyph unicode="ffi" horiz-adv-x="727" d="M648 0h-83v424h-158v-424h-83v424h-158v-424h-83v424h-61v72h61v60c0 126 82 160 172 160c41 0 78 -8 108 -24c33 33 81 44 133 44c68 0 122 -21 159 -64l-56 -56c-22 26 -55 43 -108 43c-57 0 -84 -27 -84 -81v-82h241v-496zM250 639c-57 0 -84 -27 -84 -81v-62h158v80 c0 16 1 31 4 45c-20 11 -45 18 -78 18z" />
<glyph unicode="ffl" horiz-adv-x="741" d="M255 716c41 0 78 -8 108 -24c33 33 81 44 133 44c27 0 85 -5 152 -34v-580c0 -30 17 -47 51 -47h24v-75h-35c-72 0 -122 30 -122 115v531c-29 10 -47 13 -75 13c-57 0 -84 -27 -84 -81v-82h105v-72h-105v-424h-83v424h-158v-424h-83v424h-61v72h61v60 c0 126 82 160 172 160zM250 639c-57 0 -84 -27 -84 -81v-62h158v80c0 16 1 31 4 45c-20 11 -45 18 -78 18z" />
<glyph unicode="ft" horiz-adv-x="512" d="M324 425l-158 -1v-424h-83v424h-61v72h61v105c0 88 56 130 128 130h59v-76h-51c-43 0 -53 -29 -53 -64v-95h158v123h82v-123h76v-71h-76v-289c0 -31 8 -62 49 -62h43v-74h-59c-67 0 -115 41 -115 116v309z" />
<glyph unicode="fj" horiz-adv-x="478" d="M22 496h61v80c0 126 82 160 172 160c68 0 122 -21 159 -64l-56 -56c-22 26 -55 43 -108 43c-57 0 -84 -27 -84 -81v-82h241v-563c0 -80 -58 -135 -141 -135h-30v75c4 0 28 -1 30 1c36 1 58 24 58 65v485h-158v-424h-83v424h-61v72z" />
<glyph unicode="ffj" horiz-adv-x="727" d="M407 578v-82h241v-563c0 -80 -58 -135 -141 -135h-30v75c4 0 28 -1 30 1c36 1 58 24 58 65v485h-158v-424h-83v424h-158v-424h-83v424h-61v72h61v60c0 126 82 160 172 160c41 0 78 -8 108 -24c33 33 81 44 133 44c68 0 122 -21 159 -64l-56 -56c-22 26 -55 43 -108 43 c-57 0 -84 -27 -84 -81zM250 639c-57 0 -84 -27 -84 -81v-62h158v80c0 16 1 31 4 45c-20 11 -45 18 -78 18z" />
<glyph unicode="&#x22;" horiz-adv-x="309" d="M246 494h-64v202h64v-202zM125 494h-64v202h64v-202z" />
<glyph unicode="#" d="M15 216v57h100l21 152h-92v57h100l29 212h61l-29 -212h113l29 212h61l-29 -212h99v-57h-107l-21 -152h99v-57h-107l-29 -216h-61l29 216h-113l-29 -216h-61l29 216h-92zM197 425l-21 -152h113l21 152h-113z" />
<glyph unicode="$" d="M232 -116v111c-70 4 -143 30 -197 80c16 20 33 46 49 66c39 -36 91 -62 148 -68v236c-95 27 -181 75 -181 186c0 107 71 187 181 195v82h50v-83c56 -5 115 -24 157 -55c-13 -21 -27 -48 -40 -69c-34 23 -75 40 -117 46v-228c110 -30 183 -71 183 -195 c0 -112 -75 -183 -183 -193v-111h-50zM378 187c0 66 -47 93 -96 109v-222c61 9 96 51 96 113zM138 493c0 -53 49 -81 94 -96v216c-54 -7 -94 -48 -94 -120z" />
<glyph unicode="&#x26;" horiz-adv-x="636" d="M510 0l-60 75c-51 -49 -115 -81 -182 -81c-134 0 -196 81 -196 173c0 87 43 152 143 216c-10 12 -20 26 -30 39c-29 38 -51 74 -51 120c0 91 60 163 183 163c54 0 114 -18 163 -61l-51 -59c-49 38 -77 44 -124 44c-63 0 -89 -38 -89 -85c0 -31 11 -47 36 -82 c66 -87 136 -177 202 -265c25 43 38 80 47 121l78 -12c-14 -60 -36 -119 -75 -173c33 -42 71 -92 104 -133h-98zM404 135c-49 64 -96 127 -146 191c-69 -42 -104 -91 -104 -154c0 -57 40 -101 117 -101c50 0 104 35 133 64z" />
<glyph unicode="'" horiz-adv-x="241" d="M148 494h-63v202h63v-202z" />
<glyph unicode="(" horiz-adv-x="290" d="M238 -120c-98 106 -187 258 -187 425c0 171 86 319 184 425l46 -28c-84 -110 -140 -258 -140 -392c0 -145 59 -291 139 -398z" />
<glyph unicode=")" horiz-adv-x="290" d="M62 -120l-42 32c81 107 139 253 139 398c0 134 -55 282 -139 392l45 28c98 -106 185 -254 185 -425c0 -167 -90 -319 -188 -425z" />
<glyph unicode="*" horiz-adv-x="361" d="M222 532l78 -90c-19 -15 -36 -29 -56 -43l-62 104l-63 -105c-18 14 -38 28 -56 43l78 91c-37 9 -76 21 -113 30l19 65l111 -47l-10 120h68l-10 -120c36 15 75 31 111 47l19 -66z" />
<glyph unicode="+" d="M470 262h-188v-192h-64v192h-189v64h189v190h64v-190h188v-64z" />
<glyph unicode="," horiz-adv-x="252" d="M171 2l-56 -115h-51l32 113h-28v111h103v-109z" />
<glyph unicode="-" horiz-adv-x="392" d="M340 230h-288v75h288v-75z" />
<glyph unicode="." horiz-adv-x="243" d="M173 0h-103v111h103v-111z" />
<glyph unicode="/" horiz-adv-x="317" d="M315 725l-251 -767h-65l251 767h65z" />
<glyph unicode="0" d="M444 190c0 -126 -93 -196 -194 -196s-194 70 -194 196v316c0 125 93 196 194 196s194 -71 194 -196v-316zM362 196v304c0 75 -45 121 -112 121c-68 0 -112 -46 -112 -121v-304c0 -75 44 -121 112 -121c67 0 112 46 112 121z" />
<glyph unicode="1" d="M299 696v-696h-82v610l-91 -66l1 87l89 65h83z" />
<glyph unicode="2" d="M440 0h-390v82l270 341c26 33 39 65 39 99c0 53 -34 100 -106 100c-59 0 -104 -44 -113 -108l-84 12c16 108 100 174 199 174c108 0 192 -60 192 -176c0 -41 -18 -95 -51 -136l-243 -307h287v-81z" />
<glyph unicode="3" d="M451 210c0 -127 -85 -216 -210 -216c-83 0 -170 37 -190 151l81 12c13 -59 58 -87 111 -87c76 0 124 60 124 137c0 78 -50 123 -119 123h-50v72h41c70 0 120 46 120 111s-49 111 -112 111c-46 0 -93 -32 -108 -90l-82 11c18 92 97 157 190 157c136 0 195 -88 195 -187 c0 -52 -20 -106 -86 -148c70 -40 95 -102 95 -157z" />
<glyph unicode="4" d="M470 106h-58v-106h-81v106h-302v80l239 510h91l-242 -513h214v205h81v-205h58v-77z" />
<glyph unicode="5" d="M446 264v-44c0 -126 -69 -225 -205 -225c-93 0 -172 34 -195 150l82 14c12 -64 56 -91 113 -91c108 0 123 101 123 172c0 77 -18 152 -115 152c-42 0 -76 -25 -99 -62h-81v366h363v-78h-286v-194c45 40 83 46 125 46c113 0 175 -84 175 -206z" />
<glyph unicode="6" d="M450 210c0 -150 -101 -216 -203 -216c-115 0 -194 71 -194 208c0 41 10 95 37 148l180 346h91l-155 -303l3 -1c18 8 43 12 64 12c106 0 177 -89 177 -194zM363 204c0 83 -51 129 -114 129c-57 0 -114 -46 -114 -129c0 -82 44 -134 114 -134c67 0 114 53 114 134z" />
<glyph unicode="7" d="M444 611l-241 -611h-92l243 615h-217v-104h-82v185h389v-85z" />
<glyph unicode="8" d="M459 199c0 -121 -95 -205 -209 -205s-209 84 -209 205c0 64 36 132 98 160c-60 29 -85 88 -85 146c0 110 85 197 196 197c122 0 196 -87 196 -197c0 -61 -32 -115 -82 -146c65 -26 95 -96 95 -160zM364 507c0 75 -57 117 -114 117c-58 0 -114 -42 -114 -117 c0 -74 56 -113 114 -113c57 0 114 38 114 113zM377 200c0 72 -60 124 -127 124s-128 -52 -128 -124s61 -128 128 -128s127 56 127 128z" />
<glyph unicode="9" d="M51 482c0 156 98 219 204 219c96 0 194 -71 194 -208c0 -41 -8 -80 -26 -115l-195 -379h-91l162 312l-3 1c-16 -10 -46 -16 -67 -16c-107 0 -178 77 -178 186zM133 491c0 -83 53 -129 116 -129s114 46 114 129c0 82 -44 134 -114 134c-67 0 -116 -53 -116 -134z" />
<glyph unicode=":" horiz-adv-x="238" d="M167 0h-103v111h103v-111zM167 285h-103v111h103v-111z" />
<glyph unicode=";" horiz-adv-x="238" d="M170 285h-103v111h103v-111zM170 2l-56 -115h-51l32 113h-28v111h103v-109z" />
<glyph unicode="&#x3c;" d="M450 134v-71l-407 202v60l407 203v-71l-326 -162z" />
<glyph unicode="=" d="M470 357h-441v67h441v-67zM470 165h-441v67h441v-67z" />
<glyph unicode="&#x3e;" d="M44 63v71l326 161l-326 162v71l407 -203v-60z" />
<glyph unicode="?" horiz-adv-x="497" d="M457 517c-3 -80 -45 -124 -88 -169c-35 -36 -67 -69 -67 -114v-50h-87v52c0 46 19 87 51 120c40 42 100 97 100 153c0 39 -21 109 -114 109c-82 0 -120 -86 -125 -125l-85 15c31 132 119 192 220 192c118 0 195 -79 195 -183zM302 0h-90v98h90v-98z" />
<glyph unicode="@" horiz-adv-x="827" d="M542 417v-155c0 -40 26 -64 56 -64c50 0 108 31 108 186c0 167 -138 261 -276 261c-181 0 -316 -135 -316 -309c0 -191 127 -317 319 -317c79 0 137 11 207 45l21 -58c-67 -26 -142 -45 -223 -45c-225 0 -392 143 -392 375c0 208 160 369 380 369 c196 0 349 -135 349 -321c0 -183 -90 -245 -184 -245c-26 0 -87 21 -99 63h-5c-16 -29 -61 -52 -113 -52c-74 0 -135 37 -135 113c0 58 40 111 122 111h118v44c0 41 -32 63 -89 63c-39 0 -66 -21 -85 -39l-46 38c30 35 83 60 137 60c90 0 146 -29 146 -123zM298 267 c0 -33 27 -58 83 -58c62 0 98 23 98 70v43h-104c-49 0 -77 -18 -77 -55z" />
<glyph unicode="A" horiz-adv-x="598" d="M592 0h-93l-56 160h-289l-56 -160h-92l255 696h76zM418 236l-67 195l-51 148h-3l-49 -144l-69 -199h239z" />
<glyph unicode="B" horiz-adv-x="598" d="M560 193c0 -118 -89 -193 -192 -193h-292v696h263c135 0 205 -75 205 -182c0 -55 -29 -125 -105 -152v-3c81 -19 121 -97 121 -166zM328 619h-164v-225h164c85 0 128 50 128 113c0 62 -43 112 -128 112zM343 318h-179v-237h179c88 0 129 57 129 119s-41 118 -129 118z " />
<glyph unicode="C" horiz-adv-x="543" d="M446 182l82 -40c-35 -93 -117 -148 -229 -148c-166 0 -247 119 -247 258v192c0 136 81 257 247 257c112 0 192 -58 228 -147l-82 -37c-23 59 -74 99 -145 99c-108 0 -161 -87 -161 -176v-181c0 -92 53 -181 161 -181c71 0 123 42 146 104z" />
<glyph unicode="D" horiz-adv-x="618" d="M76 696h228c104 0 193 -38 237 -129c25 -51 27 -121 27 -207c0 -97 -2 -168 -25 -222c-46 -105 -144 -138 -256 -138h-211v696zM480 279v133c0 153 -74 203 -180 203h-136v-534h136c132 0 180 78 180 198z" />
<glyph unicode="E" horiz-adv-x="543" d="M516 0h-440v696h440v-81h-352v-225h300v-77h-300v-232h352v-81z" />
<glyph unicode="F" horiz-adv-x="524" d="M516 615h-352v-230h300v-77h-300v-308h-88v696h440v-81z" />
<glyph unicode="G" horiz-adv-x="598" d="M299 72c91 0 159 79 159 166v55h-147v80h235v-135c0 -142 -102 -245 -248 -245c-169 0 -247 120 -247 259v192c0 136 76 257 242 257c112 0 192 -58 228 -147l-82 -37c-23 59 -76 99 -147 99c-108 0 -154 -87 -154 -176v-187c0 -92 53 -181 161 -181z" />
<glyph unicode="H" horiz-adv-x="636" d="M560 0h-88v313h-308v-313h-88v696h88v-306h308v306h88v-696z" />
<glyph unicode="I" horiz-adv-x="241" d="M164 0h-88v696h88v-696z" />
<glyph unicode="J" horiz-adv-x="467" d="M399 696v-474c0 -170 -95 -228 -213 -228c-70 0 -134 29 -172 72l58 65c24 -24 73 -54 111 -54c67 0 128 26 128 146v473h88z" />
<glyph unicode="K" horiz-adv-x="618" d="M612 0h-102l-212 353l-134 -161v-192h-88v696h89v-377l3 1l128 156l183 220h102l-227 -274z" />
<glyph unicode="L" horiz-adv-x="543" d="M516 0h-440v696h88v-615h352v-81z" />
<glyph unicode="M" horiz-adv-x="748" d="M683 0h-88v496l-3 -2l-54 -131l-120 -260h-77l-122 268l-52 125l-3 -2v-494h-88v696h88l147 -325l69 -162h3l69 161l145 326h86v-696z" />
<glyph unicode="N" horiz-adv-x="673" d="M599 0h-86l-254 392l-92 152l-3 -1v-543h-88v696h87l245 -379l101 -167l3 2v544h87v-696z" />
<glyph unicode="O" horiz-adv-x="595" d="M297 701c153 0 248 -109 248 -257v-192c0 -158 -97 -258 -248 -258c-166 0 -247 119 -247 258v192c0 136 81 257 247 257zM298 618c-108 0 -161 -87 -161 -176v-185c0 -92 53 -181 161 -181c98 0 159 78 159 181v185c0 97 -60 176 -159 176z" />
<glyph unicode="P" horiz-adv-x="572" d="M561 485c0 -97 -79 -205 -216 -205h-181v-280h-88v696h255c115 0 230 -61 230 -211zM469 488c0 85 -58 127 -136 127h-169v-254h173c89 0 132 66 132 127z" />
<glyph unicode="Q" horiz-adv-x="598" d="M298 701c153 0 248 -109 248 -257v-192c0 -51 -10 -96 -29 -134l91 -73l-48 -60l-89 71c-43 -40 -102 -62 -173 -62c-166 0 -247 119 -247 258v192c0 136 81 257 247 257zM299 616c-108 0 -161 -87 -161 -176v-181c0 -92 53 -181 161 -181c40 0 74 13 100 35l-97 78 l51 59l90 -73c9 25 15 52 15 82v181c0 97 -60 176 -159 176z" />
<glyph unicode="R" horiz-adv-x="598" d="M552 0h-98l-133 306h-157v-306h-88v696h284c113 0 201 -77 201 -190c0 -95 -61 -164 -150 -191zM473 506c0 78 -53 113 -129 113h-180v-236h176c76 0 133 44 133 123z" />
<glyph unicode="S" horiz-adv-x="544" d="M519 198c0 -127 -102 -204 -250 -204c-88 0 -195 32 -267 95l56 71c55 -53 132 -82 215 -82c88 0 155 35 155 121c0 79 -74 98 -161 115c-109 21 -225 41 -225 193c0 128 107 196 231 196c94 0 165 -21 223 -67l-49 -75c-51 34 -109 56 -174 56c-93 0 -144 -41 -144 -110 c0 -73 69 -93 195 -118c89 -18 194 -45 195 -191z" />
<glyph unicode="T" horiz-adv-x="486" d="M485 619h-198v-619h-88v619h-198v77h484v-77z" />
<glyph unicode="U" horiz-adv-x="618" d="M469 696h88v-444c0 -158 -97 -258 -248 -258c-166 0 -247 119 -247 258v444h87v-437c0 -92 53 -181 161 -181c98 0 159 65 159 181v437z" />
<glyph unicode="V" horiz-adv-x="543" d="M269 150l5 1c18 64 39 128 57 192l109 353h97l-231 -696h-72l-231 696h96l111 -355z" />
<glyph unicode="W" horiz-adv-x="823" d="M410 532l-4 -1l-45 -172l-97 -359h-77l-175 696h96l78 -341l42 -188l4 -1l46 187l95 343h72l98 -349l48 -182h3c12 56 24 124 36 179l80 352h96l-176 -696h-76l-94 346z" />
<glyph unicode="X" horiz-adv-x="523" d="M524 0h-98l-165 289l-164 -289h-98l214 357l-200 339h98l150 -271l151 271h98l-200 -339z" />
<glyph unicode="Y" horiz-adv-x="508" d="M504 696l-209 -420v-276h-84v276l-209 420h93l97 -193l62 -133l65 139l94 187h91z" />
<glyph unicode="Z" horiz-adv-x="505" d="M473 0h-440v77l339 542h-326v77h427v-70l-341 -545h341v-81z" />
<glyph unicode="[" horiz-adv-x="261" d="M242 -105h-169v803h169v-56h-94v-691h94v-56z" />
<glyph unicode="\" horiz-adv-x="317" d="M250 -42l-251 767h65l251 -767h-65z" />
<glyph unicode="]" horiz-adv-x="261" d="M195 -105h-168v56h93v691h-93v56h168v-803z" />
<glyph unicode="^" d="M94 328h-71l202 367h60l203 -367h-71l-162 295z" />
<glyph unicode="_" d="M500 -129h-500v60h500v-60z" />
<glyph unicode="`" horiz-adv-x="491" d="M347 571l-53 -20l-100 172l81 25z" />
<glyph unicode="a" horiz-adv-x="482" d="M232 501c107 0 200 -34 200 -160v-341h-83v43l-1 1c-18 -29 -70 -50 -137 -50c-113 0 -176 62 -176 147c0 77 52 146 158 146h156v56c0 54 -34 81 -114 81c-62 0 -96 -17 -118 -43l-52 55c37 43 99 65 167 65zM113 146c0 -47 35 -77 108 -77c64 0 128 18 128 92v58h-136 c-64 0 -100 -27 -100 -73z" />
<glyph unicode="b" horiz-adv-x="496" d="M455 255c0 -126 -28 -261 -177 -261c-48 0 -102 12 -135 61h-2v-55h-82v726h82v-286h2c42 46 87 61 135 61c141 0 175 -124 177 -246zM370 248c0 80 -13 171 -115 171c-100 0 -114 -96 -114 -171c0 -73 12 -179 114 -179c104 0 115 102 115 179z" />
<glyph unicode="c" horiz-adv-x="431" d="M416 64c-42 -42 -96 -70 -163 -70c-114 0 -225 71 -225 253c0 183 111 254 225 254c66 0 120 -28 162 -69l-53 -60c-27 30 -66 50 -105 50c-93 0 -147 -57 -147 -175c0 -117 54 -175 147 -175c42 0 81 25 105 51z" />
<glyph unicode="d" horiz-adv-x="496" d="M443 0h-82v48l-3 1c-44 -42 -90 -55 -139 -55c-142 0 -173 115 -173 249c0 128 37 258 193 258c49 0 95 -17 120 -50h2v275h82v-726zM361 248c0 75 -12 171 -112 171c-103 0 -117 -91 -117 -171c0 -92 12 -173 113 -173c99 0 116 100 116 173z" />
<glyph unicode="e" horiz-adv-x="481" d="M444 220h-319v-8c0 -78 43 -142 128 -142c32 0 79 17 112 47l53 -59c-47 -45 -108 -64 -169 -64c-101 0 -210 47 -210 252c0 196 113 256 207 256c109 0 198 -80 198 -218v-64zM242 424c-67 0 -112 -49 -117 -135h233c-4 89 -49 135 -116 135z" />
<glyph unicode="f" horiz-adv-x="279" d="M270 424h-104v-424h-83v424h-61v72h61v105c0 88 56 130 128 130h59v-76h-51c-43 0 -53 -29 -53 -64v-95h104v-72z" />
<glyph unicode="g" horiz-adv-x="511" d="M443 9c0 -149 -101 -214 -215 -214c-56 0 -117 16 -160 57l49 67c26 -23 74 -45 113 -45c74 0 130 44 130 124v58h-2c-41 -46 -86 -61 -135 -61c-141 0 -177 120 -177 242c0 128 27 265 185 265c48 0 100 -22 127 -61h2v55h83v-487zM131 248c0 -91 11 -171 113 -171 c100 0 116 96 116 171c0 67 -6 173 -114 173c-104 0 -115 -94 -115 -173z" />
<glyph unicode="h" horiz-adv-x="506" d="M449 0h-82v297c0 76 -26 123 -109 123c-66 0 -120 -47 -120 -123v-297h-82v726h82v-292h3c34 43 85 67 138 67c95 0 170 -57 170 -172v-329z" />
<glyph unicode="i" horiz-adv-x="224" d="M153 614h-82v82h82v-82zM153 0h-82v496h82v-496z" />
<glyph unicode="j" horiz-adv-x="243" d="M164 614h-83v82h83v-82zM164 496v-563c0 -80 -44 -135 -127 -135h-44v75h30c36 1 58 25 58 66v557h83z" />
<glyph unicode="k" horiz-adv-x="506" d="M499 0h-95l-164 249l-90 -99v-150h-82v726h82v-469h3l214 239h97l-169 -187z" />
<glyph unicode="l" horiz-adv-x="243" d="M225 0h-35c-72 0 -122 30 -122 115v611h82v-604c0 -30 17 -47 51 -47h24v-75z" />
<glyph unicode="m" horiz-adv-x="817" d="M760 0h-82v297c0 76 -28 125 -114 125c-66 0 -114 -49 -114 -125v-297h-83v297c0 76 -29 125 -114 125c-66 0 -114 -49 -114 -125v-297h-83v496h83v-61h2c33 43 85 66 138 66c67 0 112 -27 147 -71c0 1 1 0 1 0c46 50 98 71 163 71c96 0 170 -61 170 -171v-330z" />
<glyph unicode="n" horiz-adv-x="506" d="M449 0h-82v297c0 76 -26 123 -113 123c-66 0 -116 -47 -116 -123v-297h-82v497h82v-63h3c34 43 90 67 143 67c95 0 165 -57 165 -172v-329z" />
<glyph unicode="o" horiz-adv-x="514" d="M263 500c71 0 130 -30 164 -83c23 -36 34 -88 34 -152c0 -85 -8 -141 -31 -180c-34 -58 -100 -91 -178 -91c-71 0 -130 25 -164 75c-27 41 -37 98 -37 177c0 56 6 103 25 142c33 71 101 112 187 112zM260 426c-49 0 -89 -26 -109 -70c-14 -30 -17 -67 -18 -111 c0 -44 2 -79 15 -108c19 -43 56 -68 105 -68c53 0 98 27 117 88c7 24 8 52 8 105c0 38 -3 68 -13 92c-19 49 -58 72 -105 72z" />
<glyph unicode="p" horiz-adv-x="499" d="M56 496h82v-55l3 -1c38 44 86 61 135 61c142 0 177 -126 177 -249c0 -128 -37 -258 -193 -258c-49 0 -91 16 -120 50h-2v-242h-82v694zM138 247c0 -75 12 -171 112 -171c103 0 117 91 117 171c0 77 -8 173 -112 173c-101 0 -117 -100 -117 -173z" />
<glyph unicode="q" horiz-adv-x="511" d="M56 240c0 146 45 261 192 261c48 0 94 -23 120 -63h2v58h82v-697h-82v256h-2c-42 -46 -91 -61 -139 -61c-141 0 -171 124 -173 246zM141 247c0 -80 13 -171 115 -171c100 0 114 96 114 171c0 73 -12 179 -114 179c-104 0 -115 -102 -115 -179z" />
<glyph unicode="r" horiz-adv-x="365" d="M368 480l-35 -79c-20 13 -44 19 -70 19c-65 0 -113 -41 -113 -120v-300h-82v496h82v-63h4c35 51 77 68 130 68c34 0 65 -8 84 -21z" />
<glyph unicode="s" horiz-adv-x="457" d="M421 147c0 -92 -81 -153 -195 -153c-72 0 -148 21 -207 72l50 63c46 -40 96 -61 161 -61c60 0 109 25 109 77c0 51 -46 63 -114 70c-77 8 -176 22 -176 135c0 93 84 151 181 151c75 0 131 -19 177 -54l-44 -66c-39 26 -80 44 -133 44c-63 0 -101 -29 -101 -73 c0 -45 46 -59 136 -68c70 -7 156 -37 156 -137z" />
<glyph unicode="t" horiz-adv-x="308" d="M268 0h-59c-67 0 -115 41 -115 116v309h-59v71h59v123h82v-123h76v-71h-76v-289c0 -31 8 -62 49 -62h43v-74z" />
<glyph unicode="u" horiz-adv-x="514" d="M449 0h-82v56h-3c-33 -43 -85 -62 -136 -62c-102 0 -172 50 -172 173v329h82v-298c0 -86 23 -126 114 -126c65 0 115 50 115 126v298h82v-496z" />
<glyph unicode="v" horiz-adv-x="452" d="M227 115h4c16 49 38 115 52 164c24 70 48 147 72 217h91l-183 -496h-72l-184 496h90c24 -69 48 -147 72 -216z" />
<glyph unicode="w" horiz-adv-x="719" d="M511 118h5c11 39 22 82 32 120l72 258h91l-159 -496h-78l-74 239l-43 138l-40 -137l-74 -240h-79l-158 496h90l75 -261l32 -111h4c10 36 22 73 32 108l82 264h76l80 -261z" />
<glyph unicode="x" horiz-adv-x="463" d="M448 0h-99l-117 193l-117 -193h-99l169 254l-161 242h98l110 -186l110 186h99l-162 -243z" />
<glyph unicode="y" horiz-adv-x="438" d="M438 496l-213 -601c-29 -81 -77 -95 -131 -95h-42v72h41c27 0 48 13 62 56l27 82l-182 486h91l79 -225l51 -156h3l51 155l77 226h86z" />
<glyph unicode="z" horiz-adv-x="434" d="M400 0h-366v68l270 356h-255v72h351v-71l-268 -349h268v-76z" />
<glyph unicode="{" horiz-adv-x="261" d="M253 -103h-68c-52 0 -92 42 -92 107v139c0 70 -25 122 -78 128v51c53 7 78 66 78 130v136c0 66 40 108 92 108h68v-54h-41c-36 0 -46 -47 -46 -87v-125c0 -86 -54 -124 -75 -131v-3c21 -7 75 -46 75 -129v-130c0 -40 10 -87 46 -87h41v-53z" />
<glyph unicode="|" horiz-adv-x="204" d="M135 -162h-65v878h65v-878z" />
<glyph unicode="}" horiz-adv-x="261" d="M249 271c-53 -6 -77 -58 -77 -128v-139c0 -65 -40 -107 -92 -107h-69v53h42c35 0 46 47 46 87v130c0 83 53 122 75 129v3c-22 7 -75 45 -75 131v125c0 40 0 87 -46 87h-42v50h66c64 0 95 -44 95 -104v-136c0 -64 24 -123 77 -130v-51z" />
<glyph unicode="~" d="M477 312c-37 -59 -74 -91 -135 -91c-53 0 -128 65 -183 65c-36 0 -50 -17 -76 -51l-57 39c36 61 82 86 134 86c62 0 127 -65 183 -65c33 0 51 24 77 60z" />
<glyph unicode="&#xc4;" horiz-adv-x="598" d="M592 0h-93l-56 160h-289l-56 -160h-92l255 696h76zM418 236l-67 195l-51 148h-3l-49 -144l-69 -199h239zM432 770h-88v88h88v-88zM252 770h-88v88h88v-88z" />
<glyph unicode="&#xc9;" horiz-adv-x="543" d="M516 0h-440v696h440v-81h-352v-225h300v-77h-300v-232h352v-81zM267 738l-37 42l148 122l59 -61z" />
<glyph unicode="&#xd6;" horiz-adv-x="595" d="M297 701c153 0 248 -109 248 -257v-192c0 -158 -97 -258 -248 -258c-166 0 -247 119 -247 258v192c0 136 81 257 247 257zM298 618c-108 0 -161 -87 -161 -176v-185c0 -92 53 -181 161 -181c98 0 159 78 159 181v185c0 97 -60 176 -159 176zM427 770h-88v88h88v-88z M247 770h-88v88h88v-88z" />
<glyph unicode="&#xdc;" horiz-adv-x="618" d="M469 696h88v-444c0 -158 -97 -258 -248 -258c-166 0 -247 119 -247 258v444h87v-437c0 -92 53 -181 161 -181c98 0 159 65 159 181v437zM444 770h-88v88h88v-88zM264 770h-88v88h88v-88z" />
<glyph unicode="&#x385;" horiz-adv-x="391" d="M379 589h-87v89h87v-89zM94 589h-87v89h87v-89zM180 551l-53 20l72 177l81 -25z" />
<glyph unicode="&#xe0;" horiz-adv-x="482" d="M232 501c107 0 200 -34 200 -160v-341h-83v43l-1 1c-18 -29 -70 -50 -137 -50c-113 0 -176 62 -176 147c0 77 52 146 158 146h156v56c0 54 -34 81 -114 81c-62 0 -96 -17 -118 -43l-52 55c37 43 99 65 167 65zM113 146c0 -47 35 -77 108 -77c64 0 128 18 128 92v58h-136 c-64 0 -100 -27 -100 -73zM287 571l-53 -20l-100 172l81 25z" />
<glyph unicode="&#xe2;" horiz-adv-x="482" d="M232 501c107 0 200 -34 200 -160v-341h-83v43l-1 1c-18 -29 -70 -50 -137 -50c-113 0 -176 62 -176 147c0 77 52 146 158 146h156v56c0 54 -34 81 -114 81c-62 0 -96 -17 -118 -43l-52 55c37 43 99 65 167 65zM113 146c0 -47 35 -77 108 -77c64 0 128 18 128 92v58h-136 c-64 0 -100 -27 -100 -73zM375 553l-133 106l-134 -107l-39 38l150 153h53l143 -151z" />
<glyph unicode="&#xe4;" horiz-adv-x="482" d="M232 501c107 0 200 -34 200 -160v-341h-83v43l-1 1c-18 -29 -70 -50 -137 -50c-113 0 -176 62 -176 147c0 77 52 146 158 146h156v56c0 54 -34 81 -114 81c-62 0 -96 -17 -118 -43l-52 55c37 43 99 65 167 65zM113 146c0 -47 35 -77 108 -77c64 0 128 18 128 92v58h-136 c-64 0 -100 -27 -100 -73zM380 597h-88v88h88v-88zM200 597h-88v88h88v-88z" />
<glyph unicode="&#x384;" horiz-adv-x="491" d="M246 551l-53 20l72 177l81 -25z" />
<glyph unicode="&#xa8;" horiz-adv-x="491" d="M377 597h-88v88h88v-88zM197 597h-88v88h88v-88z" />
<glyph unicode="&#xe7;" horiz-adv-x="431" d="M416 64c-42 -42 -96 -70 -163 -70h-2l-10 -33c77 -4 100 -52 100 -84c0 -35 -26 -83 -108 -83c-26 0 -54 3 -87 18l17 43c28 -12 51 -15 70 -15c26 0 47 15 47 36c0 25 -23 40 -58 40h-14l-20 21l19 61c-96 17 -179 91 -179 249c0 183 111 254 225 254 c66 0 120 -28 162 -69l-53 -60c-27 30 -66 50 -105 50c-93 0 -147 -57 -147 -175c0 -117 54 -175 147 -175c42 0 81 25 105 51z" />
<glyph unicode="&#xe9;" horiz-adv-x="481" d="M444 220h-319v-8c0 -78 43 -142 128 -142c32 0 79 17 112 47l53 -59c-47 -45 -108 -64 -169 -64c-101 0 -210 47 -210 252c0 196 113 256 207 256c109 0 198 -80 198 -218v-64zM242 424c-67 0 -112 -49 -117 -135h233c-4 89 -49 135 -116 135zM255 551l-53 20l72 177 l81 -25z" />
<glyph unicode="&#xe8;" horiz-adv-x="481" d="M444 220h-319v-8c0 -78 43 -142 128 -142c32 0 79 17 112 47l53 -59c-47 -45 -108 -64 -169 -64c-101 0 -210 47 -210 252c0 196 113 256 207 256c109 0 198 -80 198 -218v-64zM242 424c-67 0 -112 -49 -117 -135h233c-4 89 -49 135 -116 135zM294 571l-53 -20l-100 172 l81 25z" />
<glyph unicode="&#xea;" horiz-adv-x="481" d="M444 220h-319v-8c0 -78 43 -142 128 -142c32 0 79 17 112 47l53 -59c-47 -45 -108 -64 -169 -64c-101 0 -210 47 -210 252c0 196 113 256 207 256c109 0 198 -80 198 -218v-64zM242 424c-67 0 -112 -49 -117 -135h233c-4 89 -49 135 -116 135zM385 553l-133 106 l-134 -107l-39 38l150 153h53l143 -151z" />
<glyph unicode="&#xeb;" horiz-adv-x="481" d="M444 220h-319v-8c0 -78 43 -142 128 -142c32 0 79 17 112 47l53 -59c-47 -45 -108 -64 -169 -64c-101 0 -210 47 -210 252c0 196 113 256 207 256c109 0 198 -80 198 -218v-64zM242 424c-67 0 -112 -49 -117 -135h233c-4 89 -49 135 -116 135zM387 597h-88v88h88v-88z M207 597h-88v88h88v-88z" />
<glyph unicode="&#xa3;" d="M44 294v68h69c-14 53 -41 103 -41 159c0 92 69 179 185 179c92 0 142 -16 201 -95l-72 -51c-37 56 -85 69 -131 69c-37 0 -90 -29 -90 -102c0 -56 29 -105 40 -159h159v-68h-152c-2 -72 -14 -148 -61 -218h306v-76h-413v64c48 63 84 143 87 230h-87z" />
<glyph unicode="&#x2122;" horiz-adv-x="844" d="M786 292h-63l-1 254l-99 -195h-53l-100 195v-254h-62v403h62l129 -258l126 258h61v-403zM348 638h-124v-345h-63v345h-124v58h311v-58z" />
<glyph unicode="&#xee;" horiz-adv-x="306" d="M198 0h-88v495h88v-495zM286 553l-133 106l-134 -107l-39 38l150 153h53l143 -151z" />
<glyph unicode="&#xef;" horiz-adv-x="228" d="M159 0h-88v495h88v-495zM248 597h-88v88h88v-88zM68 597h-88v88h88v-88z" />
<glyph unicode="&#x2022;" horiz-adv-x="408" d="M338 267c0 -72 -59 -131 -132 -131s-131 59 -131 131s58 131 131 131s132 -59 132 -131z" />
<glyph unicode="&#xf4;" horiz-adv-x="514" d="M263 500c71 0 130 -30 164 -83c23 -36 34 -88 34 -152c0 -85 -8 -141 -31 -180c-34 -58 -100 -91 -178 -91c-71 0 -130 25 -164 75c-27 41 -37 98 -37 177c0 56 6 103 25 142c33 71 101 112 187 112zM260 426c-49 0 -89 -26 -109 -70c-14 -30 -17 -67 -18 -111 c0 -44 2 -79 15 -108c19 -43 56 -68 105 -68c53 0 98 27 117 88c7 24 8 52 8 105c0 38 -3 68 -13 92c-19 49 -58 72 -105 72zM388 553l-133 106l-134 -107l-39 38l150 153h53l143 -151z" />
<glyph unicode="&#xf6;" horiz-adv-x="514" d="M263 500c71 0 130 -30 164 -83c23 -36 34 -88 34 -152c0 -85 -8 -141 -31 -180c-34 -58 -100 -91 -178 -91c-71 0 -130 25 -164 75c-27 41 -37 98 -37 177c0 56 6 103 25 142c33 71 101 112 187 112zM260 426c-49 0 -89 -26 -109 -70c-14 -30 -17 -67 -18 -111 c0 -44 2 -79 15 -108c19 -43 56 -68 105 -68c53 0 98 27 117 88c7 24 8 52 8 105c0 38 -3 68 -13 92c-19 49 -58 72 -105 72zM387 597h-88v88h88v-88zM207 597h-88v88h88v-88z" />
<glyph unicode="&#xad;" horiz-adv-x="392" d="M340 230h-288v75h288v-75z" />
<glyph unicode="&#xf9;" horiz-adv-x="514" d="M449 0h-82v56h-3c-33 -43 -85 -62 -136 -62c-102 0 -172 50 -172 173v329h82v-298c0 -86 23 -126 114 -126c65 0 115 50 115 126v298h82v-496zM297 571l-53 -20l-100 172l81 25z" />
<glyph unicode="&#xfb;" horiz-adv-x="514" d="M449 0h-82v56h-3c-33 -43 -85 -62 -136 -62c-102 0 -172 50 -172 173v329h82v-298c0 -86 23 -126 114 -126c65 0 115 50 115 126v298h82v-496zM385 553l-133 106l-134 -107l-39 38l150 153h53l143 -151z" />
<glyph unicode="&#xfc;" horiz-adv-x="514" d="M449 0h-82v56h-3c-33 -43 -85 -62 -136 -62c-102 0 -172 50 -172 173v329h82v-298c0 -86 23 -126 114 -126c65 0 115 50 115 126v298h82v-496zM377 597h-88v88h88v-88zM197 597h-88v88h88v-88z" />
<glyph unicode="&#x2020;" horiz-adv-x="466" d="M443 390h-170v-576h-80v576h-170v66h170v240h80v-240h170v-66z" />
<glyph unicode="&#x2206;" horiz-adv-x="598" d="M592 0h-586l255 696h76zM472 77l-120 351l-52 161h-3l-52 -162l-120 -350h347z" />
<glyph unicode="&#xdf;" horiz-adv-x="517" d="M465 231c0 -113 -51 -234 -200 -234h-38v71h36c88 0 115 79 115 165c0 67 -29 141 -106 141h-35v71h31c55 0 91 50 91 104c-1 56 -29 110 -104 110c-85 0 -107 -66 -107 -119v-540h-82v536c0 119 78 194 194 194c117 0 181 -87 181 -173c0 -54 -24 -121 -79 -146 c75 -20 103 -104 103 -180z" />
<glyph unicode="&#xae;" horiz-adv-x="560" d="M488 492c0 -119 -90 -207 -209 -207c-118 0 -209 88 -209 207c0 120 91 210 209 210c119 0 209 -90 209 -210zM448 492c0 99 -73 172 -169 172s-169 -73 -169 -172c0 -97 73 -170 169 -170s169 73 169 170zM335 371l-51 101h-42v-101h-41v242h100c40 0 72 -27 72 -69 c0 -31 -19 -55 -47 -66l56 -107h-47zM295 576h-53v-66h52c22 0 38 13 38 34c0 22 -14 32 -37 32z" />
<glyph unicode="&#xa9;" horiz-adv-x="803" d="M493 243l60 -28c-24 -61 -75 -98 -146 -98c-102 0 -154 74 -154 161v116c0 85 52 160 154 160c71 0 122 -38 145 -97l-59 -26c-15 36 -45 62 -85 62c-62 0 -92 -50 -92 -102v-109c0 -52 30 -105 92 -105c41 0 71 27 85 66zM404 -8c-202 0 -348 150 -348 349 c0 201 151 351 348 351c198 0 349 -150 349 -351c0 -199 -151 -349 -349 -349zM404 631c-162 0 -285 -124 -285 -290c0 -164 123 -288 285 -288c163 0 285 124 285 288c0 166 -122 290 -285 290z" />
<glyph unicode="&#xa7;" horiz-adv-x="466" d="M440 285c0 -39 -15 -78 -42 -108c17 -24 34 -56 34 -92c0 -94 -76 -161 -196 -161c-74 0 -148 32 -189 78l47 52c40 -43 92 -59 142 -59c71 0 116 26 116 89c0 48 -48 74 -123 99c-107 35 -169 72 -169 162c0 40 20 80 47 109c-23 25 -39 53 -39 94c0 92 78 154 179 154 c68 0 126 -19 173 -60l-45 -58c-46 36 -90 47 -130 47c-63 0 -98 -32 -98 -77c0 -120 293 -63 293 -269zM170 415c-23 -15 -37 -38 -37 -64c0 -76 140 -94 206 -129c18 15 29 37 29 64c0 57 -52 76 -134 104c-22 7 -33 12 -64 25z" />
<glyph unicode="&#xb0;" horiz-adv-x="385" d="M326 568c0 -74 -60 -134 -134 -134s-134 60 -134 134s60 134 134 134s134 -60 134 -134zM272 568c0 44 -35 80 -80 80c-44 0 -80 -36 -80 -80s36 -80 80 -80c45 0 80 36 80 80z" />
<glyph unicode="&#xb7;" horiz-adv-x="238" d="M170 212h-103v111h103v-111z" />
<glyph unicode="&#xb1;" d="M469 291h-183v-174h-64v174h-184v64h184v174h64v-174h183v-64zM469 0h-431v64h431v-64z" />
<glyph unicode="&#xa5;" d="M249 365h5l138 331h88l-151 -334h119v-54h-145l-11 -26v-70h156v-54h-156v-158h-80v158h-155v54h155v70l-10 26h-145v54h118l-156 334h87z" />
<glyph unicode="&#xab;" horiz-adv-x="459" d="M421 46h-78l-127 186l127 186h78l-123 -186zM249 46h-78l-127 186l127 186h78l-124 -186z" />
<glyph unicode="&#xbb;" horiz-adv-x="459" d="M123 46h-78l123 186l-123 186h78l127 -186zM295 46h-78l124 186l-124 186h78l127 -186z" />
<glyph unicode="&#x2026;" horiz-adv-x="809" d="M186 0h-103v111h103v-111zM449 0h-103v111h103v-111zM719 0h-103v111h103v-111z" />
<glyph unicode="&#x153;" horiz-adv-x="828" d="M249 500c71 0 130 -29 165 -82v-1c41 61 104 84 162 84c108 0 203 -80 203 -217v-63h-325c0 -34 5 -61 18 -86c22 -41 63 -65 118 -65c33 0 81 17 113 46l52 -59c-46 -44 -103 -63 -163 -63c-64 0 -135 19 -178 84c-38 -58 -101 -84 -168 -84c-71 0 -129 25 -163 75 c-29 43 -40 103 -40 177c0 56 4 103 22 142c32 71 98 112 184 112zM695 288c-3 91 -50 137 -118 137c-69 0 -119 -48 -123 -137h241zM248 426c-49 0 -88 -26 -108 -70c-13 -30 -15 -67 -15 -111s3 -79 16 -108c20 -43 58 -68 107 -68c53 0 97 27 115 88c7 24 7 52 7 89 c0 46 -4 81 -15 108c-20 49 -60 72 -107 72z" />
<glyph unicode="&#x2013;" d="M480 229h-460v77h460v-77z" />
<glyph unicode="&#x2015;" horiz-adv-x="1000" d="M980 230h-960v77h960v-77z" />
<glyph unicode="&#x201c;" horiz-adv-x="307" d="M28 622l56 115h51l-32 -113h28v-111h-103v109zM171 622l56 115h51l-32 -113h28v-111h-103v109z" />
<glyph unicode="&#x201d;" horiz-adv-x="307" d="M288 628l-56 -115h-51l32 113h-28v111h103v-109zM145 628l-56 -115h-51l32 113h-28v111h103v-109z" />
<glyph unicode="&#x2018;" horiz-adv-x="220" d="M58 622l56 115h51l-32 -113h28v-111h-103v109z" />
<glyph unicode="&#x2019;" horiz-adv-x="220" d="M165 628l-56 -115h-51l32 113h-28v111h103v-109z" />
<glyph unicode="&#xf7;" d="M311 473c0 -31 -26 -57 -57 -57c-32 0 -57 26 -57 57s25 57 57 57c31 0 57 -26 57 -57zM479 262h-451v63h451v-63zM254 172c31 0 57 -25 57 -56c0 -32 -26 -57 -57 -57c-32 0 -57 25 -57 57c0 31 25 56 57 56z" />
<glyph unicode="&#xb5;" horiz-adv-x="522" d="M461 0h-82v56h-3c-33 -43 -85 -62 -137 -62c-29 0 -60 9 -86 27l-3 -1v-220h-82v696h82v-298c0 -76 29 -122 115 -122c65 0 114 46 114 122v298h82v-496z" />
<glyph unicode=" "  horiz-adv-x="224" />
<glyph unicode="&#x09;" horiz-adv-x="224" />
<glyph unicode="&#xa0;" horiz-adv-x="224" />
<glyph unicode="&#x20ac;" d="M355 375h-210v-56h210v-54h-210v-26c0 -100 53 -168 138 -168c69 0 105 34 140 95l74 -43c-47 -79 -113 -129 -215 -129c-144 0 -224 103 -224 251v20h-44v54h44v56h-44v54h44v23c0 136 83 249 224 249c102 0 177 -47 210 -136l-81 -33c-23 57 -70 90 -128 90 c-96 0 -138 -85 -138 -174v-19h210v-54z" />
<glyph unicode="&#xac;" d="M470 326l-1 -256h-64v192h-376v64h441z" />
<glyph unicode="&#xa6;" horiz-adv-x="204" d="M135 304h-65v412h65v-412zM70 246h65v-408h-65v408z" />
<glyph unicode="!" horiz-adv-x="241" d="M160 696l-10 -519h-60l-9 519h79zM167 0h-90v98h90v-98z" />
<glyph unicode="&#xe6;" horiz-adv-x="799" d="M766 221h-325c0 -34 5 -61 18 -86c22 -41 63 -65 118 -65c33 0 81 17 113 46l52 -59c-46 -44 -103 -63 -163 -63c-63 0 -132 17 -175 78c-32 -51 -97 -78 -183 -78c-113 0 -176 62 -176 147c0 77 52 146 158 146h156v56c0 54 -34 81 -114 81c-62 0 -96 -17 -118 -43 l-52 55c37 43 99 65 167 65c70 0 141 -15 177 -61c40 44 94 61 144 61c108 0 203 -80 203 -217v-63zM123 146c0 -47 35 -77 108 -77c64 0 128 18 128 92v60h-136c-64 0 -100 -29 -100 -75zM682 288c-3 91 -50 137 -118 137c-69 0 -119 -48 -123 -137h241z" />
<glyph unicode="&#xf0;" horiz-adv-x="491" d="M409 87c-38 -64 -103 -93 -174 -93s-128 25 -161 75c-29 43 -39 103 -37 177c1 56 10 90 24 118c34 71 98 112 184 112c36 0 100 -19 129 -66h4c-1 47 -10 119 -37 153l-62 -44l-23 33l58 42c-20 24 -54 50 -137 67l14 67c85 -7 151 -42 187 -83l76 56l27 -34l-75 -54 c53 -81 54 -187 54 -310c0 -42 -13 -153 -51 -216zM244 402c-49 0 -88 -26 -109 -70c-7 -15 -16 -50 -16 -87c0 -44 1 -79 14 -108c19 -43 57 -68 106 -68c53 0 99 27 118 88c8 24 11 56 11 89c0 46 -8 70 -14 84c-19 49 -63 72 -110 72z" />
<glyph unicode="&#xd7;" d="M455 436l-161 -162l164 -164l-45 -45l-164 164l-162 -162l-45 45l162 162l-163 163l45 45l163 -162l161 161z" />
<glyph unicode="&#xb8;" horiz-adv-x="431" d="M220 40l45 -4l-24 -75c77 -4 100 -52 100 -84c0 -35 -26 -83 -108 -83c-26 0 -54 3 -87 18l17 43c28 -12 51 -15 70 -15c26 0 47 15 47 36c0 25 -23 40 -58 40h-14l-20 21z" />
<glyph unicode="&#x192;" d="M121 351v69h97l11 73c14 92 54 207 187 207c30 0 60 -6 80 -14c-6 -26 -13 -48 -19 -75c-19 7 -46 10 -65 10c-61 0 -86 -59 -95 -123l-11 -78h106v-69h-116l-32 -228c-18 -127 -59 -213 -170 -213c-28 0 -67 8 -95 19c9 27 16 41 25 67c23 -9 43 -13 60 -13 c56 0 79 56 91 139l33 229h-87z" />
<glyph unicode="&#x2c6;" horiz-adv-x="491" d="M385 553l-133 106l-134 -107l-39 38l150 153h53l143 -151z" />
<glyph unicode="&#x2c7;" horiz-adv-x="491" d="M252 637l133 106l40 -39l-143 -151h-53l-150 153l39 38z" />
<glyph unicode="&#x2d8;" horiz-adv-x="511" d="M127 697h73c2 -27 28 -63 71 -63c48 0 72 36 72 63h71c-5 -52 -34 -129 -143 -129s-143 77 -144 129z" />
<glyph unicode="&#x2dc;" horiz-adv-x="491" d="M178 699c48 0 99 -47 134 -47c20 0 40 13 61 45l52 -29c-29 -61 -65 -89 -107 -89c-48 0 -94 42 -133 42c-23 0 -38 -10 -63 -40l-52 29c27 56 68 89 108 89z" />
<glyph unicode="&#xd1;" horiz-adv-x="673" d="M599 0h-86l-254 392l-92 152l-3 -1v-543h-88v696h87l245 -379l101 -167l3 2v544h87v-696zM270 869c48 0 99 -47 134 -47c20 0 40 13 61 45l52 -29c-29 -61 -65 -89 -107 -89c-48 0 -94 42 -133 42c-23 0 -38 -10 -63 -40l-52 29c27 56 68 89 108 89z" />
<glyph unicode="&#xf5;" horiz-adv-x="514" d="M263 500c71 0 130 -30 164 -83c23 -36 34 -88 34 -152c0 -85 -8 -141 -31 -180c-34 -58 -100 -91 -178 -91c-71 0 -130 25 -164 75c-27 41 -37 98 -37 177c0 56 6 103 25 142c33 71 101 112 187 112zM260 426c-49 0 -89 -26 -109 -70c-14 -30 -17 -67 -18 -111 c0 -44 2 -79 15 -108c19 -43 56 -68 105 -68c53 0 98 27 117 88c7 24 8 52 8 105c0 38 -3 68 -13 92c-19 49 -58 72 -105 72zM197 699c48 0 99 -47 134 -47c20 0 40 13 61 45l52 -29c-29 -61 -65 -89 -107 -89c-48 0 -94 42 -133 42c-23 0 -38 -10 -63 -40l-52 29 c27 56 68 89 108 89z" />
<glyph unicode="&#xc7;" horiz-adv-x="543" d="M446 182l82 -40c-35 -92 -116 -147 -226 -148l-10 -33c77 -4 100 -52 100 -84c0 -35 -26 -83 -108 -83c-26 0 -54 3 -87 18l17 43c28 -12 51 -15 70 -15c26 0 47 15 47 36c0 25 -23 40 -58 40h-14l-20 21l18 60c-138 17 -205 128 -205 255v192c0 136 81 257 247 257 c112 0 192 -58 228 -147l-82 -37c-23 59 -74 99 -145 99c-108 0 -161 -87 -161 -176v-181c0 -92 53 -181 161 -181c71 0 123 42 146 104z" />
<glyph unicode="&#xb4;" horiz-adv-x="491" d="M246 551l-53 20l72 177l81 -25z" />
<glyph unicode="&#xf6cb;" horiz-adv-x="598" d="M432 770h-88v88h88v-88zM252 770h-88v88h88v-88z" />
<glyph unicode="&#xc6;" horiz-adv-x="977" d="M932 0h-441v204h-259l-130 -204h-92l444 696h478v-81h-352v-225h300v-77h-300v-232h352v-81zM491 612l-211 -332h211v332z" />
<glyph unicode="&#x201a;" horiz-adv-x="252" d="M171 2l-56 -115h-41l32 113h-28v111h93v-109z" />
<glyph unicode="&#x201e;" horiz-adv-x="405" d="M324 2l-56 -115h-51l32 113h-28v111h103v-109zM181 2l-56 -115h-51l32 113h-28v111h103v-109z" />
<glyph unicode="&#x2021;" horiz-adv-x="466" d="M193 200v190h-170v66h170v240h80v-240h170v-66h-170v-190h170v-66h-170v-320h-80v320h-170v66h170z" />
<glyph unicode="&#x2039;" horiz-adv-x="300" d="M251 46h-78l-127 186l127 186h78l-123 -186z" />
<glyph unicode="&#x2014;" horiz-adv-x="1000" d="M980 230h-960v77h960v-77z" />
<glyph unicode="&#x203a;" horiz-adv-x="300" d="M123 46h-78l123 186l-123 186h78l127 -186z" />
<glyph unicode="&#xa1;" horiz-adv-x="241" d="M84 -206l5 519h70l4 -519h-79zM77 490h90v-98h-90v98z" />
<glyph unicode="&#xa4;" horiz-adv-x="556" d="M142 319c0 -73 59 -133 133 -133c75 0 134 60 134 133c0 75 -59 134 -134 134c-74 0 -133 -60 -133 -134zM109 437l-69 68c17 18 32 32 49 49l68 -68c38 25 76 38 119 38s81 -13 119 -38l67 68l49 -50l-68 -67c25 -38 38 -77 38 -118s-13 -79 -38 -118 c21 -20 47 -44 68 -66l-49 -50l-67 68c-37 -26 -76 -39 -119 -39s-82 13 -119 39l-68 -68c-13 14 -37 37 -49 49l69 67c-25 39 -38 77 -38 118s13 80 38 118z" />
<glyph unicode="&#xb6;" horiz-adv-x="563" d="M236 -82v406h-39c-101 0 -154 92 -154 184c0 97 58 197 179 197h291v-65h-43v-722h-74v722h-85v-722h-75z" />
<glyph unicode="&#xbf;" horiz-adv-x="449" d="M20 -26c3 80 45 124 88 169c35 36 67 69 67 114v50h87v-52c0 -46 -19 -87 -51 -120c-40 -42 -100 -97 -100 -153c0 -39 21 -109 114 -109c82 0 120 86 125 125l85 -15c-31 -132 -119 -192 -220 -192c-118 0 -195 79 -195 183zM175 491h90v-98h-90v98z" />
<glyph unicode="&#xf8;" horiz-adv-x="514" d="M263 500c45 0 86 -13 118 -35l42 59l38 -27l-46 -64l12 -16c23 -36 34 -88 34 -152c0 -85 -8 -141 -31 -180c-34 -58 -100 -91 -178 -91c-48 0 -90 11 -123 33l-37 -52l-37 28l40 56c-3 3 -5 6 -7 10c-27 41 -37 98 -37 177c0 56 6 103 25 142c33 71 101 112 187 112z M365 354c-1 1 -2 3 -2 4l-186 -262c20 -18 46 -27 76 -27c53 0 98 27 117 88c7 24 8 52 8 105c0 38 -3 68 -13 92zM260 426c-49 0 -89 -26 -109 -70c-14 -30 -17 -67 -18 -111c0 -44 2 -79 15 -108v-2l187 264c-20 18 -46 27 -75 27z" />
<glyph unicode="&#xde;" horiz-adv-x="572" d="M76 0l-1 693h89v-126h167c115 0 230 -61 230 -211c0 -97 -79 -205 -216 -205h-181v-151h-88zM469 359c0 85 -58 127 -136 127h-169v-254h173c89 0 132 66 132 127z" />
<glyph unicode="&#xd0;" horiz-adv-x="618" d="M6 328v63h70v305h228c104 0 193 -38 237 -129c25 -51 27 -121 27 -207c0 -97 -2 -168 -25 -222c-46 -105 -144 -138 -256 -138h-211v328h-70zM480 279v133c0 153 -74 203 -180 203h-136v-224h105v-63h-105v-247h136c132 0 180 78 180 198z" />
<glyph unicode="&#xd8;" horiz-adv-x="595" d="M297 701c65 0 120 -20 162 -55l36 53l43 -29l-43 -63c32 -43 50 -100 50 -163v-192c0 -158 -97 -258 -248 -258c-76 0 -135 25 -175 65l-42 -61l-42 29l50 74c-26 43 -38 95 -38 151v192c0 136 81 257 247 257zM457 442c0 30 -6 59 -17 84l-266 -390 c26 -36 68 -60 124 -60c98 0 159 78 159 181v185zM298 618c-108 0 -161 -87 -161 -176v-185c0 -24 3 -47 10 -69l262 384c-27 28 -65 46 -111 46z" />
<glyph unicode="&#xf6c9;" horiz-adv-x="598" d="M287 738l-37 42l148 122l59 -61z" />
<glyph unicode="&#xf6ca;" horiz-adv-x="598" d="M296 822l143 86l30 -39l-143 -127h-53l-150 129l29 38z" />
<glyph unicode="&#xf6cc;" horiz-adv-x="391" d="M379 774h-87v89h87v-89zM94 774h-87v89h87v-89zM154 747l-45 31l113 155l71 -45z" />
<glyph unicode="&#xf6cd;" horiz-adv-x="391" d="M94 774h-87v89h87v-89zM379 774h-87v89h87v-89zM277 778l-45 -31l-139 141l71 45z" />
<glyph unicode="&#xf6ce;" horiz-adv-x="598" d="M351 780l-37 -42l-170 103l59 61z" />
<glyph unicode="&#xf6cf;" horiz-adv-x="598" d="M347 738l-37 42l148 122l59 -61zM194 738l-37 42l148 122l59 -61z" />
<glyph unicode="&#xf6d0;" horiz-adv-x="598" d="M433 780h-268v75h268v-75z" />
<glyph unicode="&#xf6d1;" horiz-adv-x="598" d="M156 860h73c2 -27 28 -63 71 -63c48 0 72 36 72 63h71c-5 -52 -34 -129 -143 -129s-143 77 -144 129z" />
<glyph unicode="&#xf6d4;" horiz-adv-x="511" d="M127 707h73c2 -27 28 -63 71 -63c48 0 72 36 72 63h71c-5 -52 -34 -129 -143 -129s-143 77 -144 129z" />
<glyph unicode="&#xaf;" horiz-adv-x="491" d="M395 600h-268v75h268v-75z" />
<glyph unicode="&#x2da;" horiz-adv-x="491" d="M274 546c-55 0 -99 44 -99 98s44 98 99 98c54 0 98 -44 98 -98s-44 -98 -98 -98zM274 699c-31 0 -55 -25 -55 -55c0 -31 24 -55 55 -55s55 24 55 55c0 30 -24 55 -55 55z" />
<glyph unicode="&#x2d9;" horiz-adv-x="491" d="M292 597h-88v88h88v-88z" />
<glyph unicode="&#x2db;" horiz-adv-x="281" d="M59 -92c0 27 10 55 38 94h58l1 -2c-22 -31 -32 -54 -32 -77c0 -28 18 -44 48 -44c16 0 34 3 58 13l19 -48c-20 -13 -54 -24 -87 -24c-63 0 -103 40 -103 88z" />
<glyph unicode="&#x2dd;" horiz-adv-x="563" d="M206 551l-53 20l72 177l81 -25zM336 551l-53 20l72 177l81 -25z" />
<glyph unicode="&#xf6c3;" horiz-adv-x="592" d="M355 -167l-56 -90h-51l39 88h-35v111h103v-109z" />
<glyph unicode="&#xc0;" horiz-adv-x="598" d="M592 0h-93l-56 160h-289l-56 -160h-92l255 696h76zM418 236l-67 195l-51 148h-3l-49 -144l-69 -199h239zM329 780l-37 -42l-170 103l59 61z" />
<glyph unicode="&#xc1;" horiz-adv-x="598" d="M592 0h-93l-56 160h-289l-56 -160h-92l255 696h76zM418 236l-67 195l-51 148h-3l-49 -144l-69 -199h239zM287 738l-37 42l148 122l59 -61z" />
<glyph unicode="&#xc2;" horiz-adv-x="598" d="M592 0h-93l-56 160h-289l-56 -160h-92l255 696h76zM418 236l-67 195l-51 148h-3l-49 -144l-69 -199h239zM443 740l-143 86l-144 -87l-29 38l150 128h53l143 -126z" />
<glyph unicode="&#xc3;" horiz-adv-x="598" d="M592 0h-93l-56 160h-289l-56 -160h-92l255 696h76zM418 236l-67 195l-51 148h-3l-49 -144l-69 -199h239zM230 869c48 0 99 -47 134 -47c20 0 40 13 61 45l52 -29c-29 -61 -65 -89 -107 -89c-48 0 -94 42 -133 42c-23 0 -38 -10 -63 -40l-52 29c27 56 68 89 108 89z" />
<glyph unicode="&#xc5;" horiz-adv-x="598" d="M592 0h-93l-56 160h-289l-56 -160h-92l255 696h76zM418 236l-67 195l-51 148h-3l-49 -144l-69 -199h239zM299 714c-55 0 -99 44 -99 98s44 98 99 98c54 0 98 -44 98 -98s-44 -98 -98 -98zM299 867c-31 0 -55 -25 -55 -55c0 -31 24 -55 55 -55s55 24 55 55 c0 30 -24 55 -55 55z" />
<glyph unicode="&#xf6c0;" horiz-adv-x="600" d="M443 740l-143 86l-144 -87l-29 38l150 128h53l143 -126z" />
<glyph unicode="&#xc8;" horiz-adv-x="543" d="M516 0h-440v696h440v-81h-352v-225h300v-77h-300v-232h352v-81zM347 780l-37 -42l-170 103l59 61z" />
<glyph unicode="&#xca;" horiz-adv-x="543" d="M516 0h-440v696h440v-81h-352v-225h300v-77h-300v-232h352v-81zM443 740l-143 86l-144 -87l-29 38l150 128h53l143 -126z" />
<glyph unicode="&#xcb;" horiz-adv-x="543" d="M516 0h-440v696h440v-81h-352v-225h300v-77h-300v-232h352v-81zM427 767h-88v88h88v-88zM247 767h-88v88h88v-88z" />
<glyph unicode="&#xcc;" horiz-adv-x="241" d="M164 0h-88v696h88v-696zM163 780l-37 -42l-170 103l59 61z" />
<glyph unicode="&#xcd;" horiz-adv-x="241" d="M164 0h-88v696h88v-696zM125 738l-37 42l148 122l59 -61z" />
<glyph unicode="&#xce;" horiz-adv-x="241" d="M164 0h-88v696h88v-696zM265 740l-143 86l-144 -87l-29 38l150 128h53l143 -126z" />
<glyph unicode="&#xcf;" horiz-adv-x="241" d="M164 0h-88v696h88v-696zM257 767h-88v88h88v-88zM77 767h-88v88h88v-88z" />
<glyph unicode="&#xd2;" horiz-adv-x="595" d="M297 701c153 0 248 -109 248 -257v-192c0 -158 -97 -258 -248 -258c-166 0 -247 119 -247 258v192c0 136 81 257 247 257zM298 618c-108 0 -161 -87 -161 -176v-185c0 -92 53 -181 161 -181c98 0 159 78 159 181v185c0 97 -60 176 -159 176zM359 780l-37 -42l-170 103 l59 61z" />
<glyph unicode="&#xd3;" horiz-adv-x="595" d="M297 701c153 0 248 -109 248 -257v-192c0 -158 -97 -258 -248 -258c-166 0 -247 119 -247 258v192c0 136 81 257 247 257zM298 618c-108 0 -161 -87 -161 -176v-185c0 -92 53 -181 161 -181c98 0 159 78 159 181v185c0 97 -60 176 -159 176zM295 738l-37 42l148 122 l59 -61z" />
<glyph unicode="&#xd4;" horiz-adv-x="595" d="M297 701c153 0 248 -109 248 -257v-192c0 -158 -97 -258 -248 -258c-166 0 -247 119 -247 258v192c0 136 81 257 247 257zM298 618c-108 0 -161 -87 -161 -176v-185c0 -92 53 -181 161 -181c98 0 159 78 159 181v185c0 97 -60 176 -159 176zM441 740l-143 86l-144 -87 l-29 38l150 128h53l143 -126z" />
<glyph unicode="&#xd5;" horiz-adv-x="595" d="M297 701c153 0 248 -109 248 -257v-192c0 -158 -97 -258 -248 -258c-166 0 -247 119 -247 258v192c0 136 81 257 247 257zM298 618c-108 0 -161 -87 -161 -176v-185c0 -92 53 -181 161 -181c98 0 159 78 159 181v185c0 97 -60 176 -159 176zM236 869c48 0 99 -47 134 -47 c20 0 40 13 61 45l52 -29c-29 -61 -65 -89 -107 -89c-48 0 -94 42 -133 42c-23 0 -38 -10 -63 -40l-52 29c27 56 68 89 108 89z" />
<glyph unicode="&#xd9;" horiz-adv-x="618" d="M469 696h88v-444c0 -158 -97 -258 -248 -258c-166 0 -247 119 -247 258v444h87v-437c0 -92 53 -181 161 -181c98 0 159 65 159 181v437zM351 780l-37 -42l-170 103l59 61z" />
<glyph unicode="&#xda;" horiz-adv-x="618" d="M469 696h88v-444c0 -158 -97 -258 -248 -258c-166 0 -247 119 -247 258v444h87v-437c0 -92 53 -181 161 -181c98 0 159 65 159 181v437zM287 738l-37 42l148 122l59 -61z" />
<glyph unicode="&#xdb;" horiz-adv-x="618" d="M469 696h88v-444c0 -158 -97 -258 -248 -258c-166 0 -247 119 -247 258v444h87v-437c0 -92 53 -181 161 -181c98 0 159 65 159 181v437zM452 740l-143 86l-144 -87l-29 38l150 128h53l143 -126z" />
<glyph unicode="&#xdd;" horiz-adv-x="508" d="M504 696l-209 -420v-276h-84v276l-209 420h93l97 -193l62 -133l65 139l94 187h91zM230 738l-37 42l148 122l59 -61z" />
<glyph unicode="&#xe1;" horiz-adv-x="482" d="M232 501c107 0 200 -34 200 -160v-341h-83v43l-1 1c-18 -29 -70 -50 -137 -50c-113 0 -176 62 -176 147c0 77 52 146 158 146h156v56c0 54 -34 81 -114 81c-62 0 -96 -17 -118 -43l-52 55c37 43 99 65 167 65zM113 146c0 -47 35 -77 108 -77c64 0 128 18 128 92v58h-136 c-64 0 -100 -27 -100 -73zM279 551l-53 20l72 177l81 -25z" />
<glyph unicode="&#xe3;" horiz-adv-x="482" d="M232 501c107 0 200 -34 200 -160v-341h-83v43l-1 1c-18 -29 -70 -50 -137 -50c-113 0 -176 62 -176 147c0 77 52 146 158 146h156v56c0 54 -34 81 -114 81c-62 0 -96 -17 -118 -43l-52 55c37 43 99 65 167 65zM113 146c0 -47 35 -77 108 -77c64 0 128 18 128 92v58h-136 c-64 0 -100 -27 -100 -73zM179 699c48 0 99 -47 134 -47c20 0 40 13 61 45l52 -29c-29 -61 -65 -89 -107 -89c-48 0 -94 42 -133 42c-23 0 -38 -10 -63 -40l-52 29c27 56 68 89 108 89z" />
<glyph unicode="&#xec;" horiz-adv-x="200" d="M144 0h-88v495h88v-495zM148 571l-53 -20l-100 172l81 25z" />
<glyph unicode="&#xed;" horiz-adv-x="200" d="M144 0h-88v495h88v-495zM130 551l-53 20l72 177l81 -25z" />
<glyph unicode="&#xf1;" horiz-adv-x="506" d="M449 0h-82v297c0 76 -26 123 -113 123c-66 0 -116 -47 -116 -123v-297h-82v497h82v-63h3c34 43 90 67 143 67c95 0 165 -57 165 -172v-329zM172 699c48 0 99 -47 134 -47c20 0 40 13 61 45l52 -29c-29 -61 -65 -89 -107 -89c-48 0 -94 42 -133 42c-23 0 -38 -10 -63 -40 l-52 29c27 56 68 89 108 89z" />
<glyph unicode="&#xf2;" horiz-adv-x="514" d="M263 500c71 0 130 -30 164 -83c23 -36 34 -88 34 -152c0 -85 -8 -141 -31 -180c-34 -58 -100 -91 -178 -91c-71 0 -130 25 -164 75c-27 41 -37 98 -37 177c0 56 6 103 25 142c33 71 101 112 187 112zM260 426c-49 0 -89 -26 -109 -70c-14 -30 -17 -67 -18 -111 c0 -44 2 -79 15 -108c19 -43 56 -68 105 -68c53 0 98 27 117 88c7 24 8 52 8 105c0 38 -3 68 -13 92c-19 49 -58 72 -105 72zM305 571l-53 -20l-100 172l81 25z" />
<glyph unicode="&#xf3;" horiz-adv-x="514" d="M263 500c71 0 130 -30 164 -83c23 -36 34 -88 34 -152c0 -85 -8 -141 -31 -180c-34 -58 -100 -91 -178 -91c-71 0 -130 25 -164 75c-27 41 -37 98 -37 177c0 56 6 103 25 142c33 71 101 112 187 112zM260 426c-49 0 -89 -26 -109 -70c-14 -30 -17 -67 -18 -111 c0 -44 2 -79 15 -108c19 -43 56 -68 105 -68c53 0 98 27 117 88c7 24 8 52 8 105c0 38 -3 68 -13 92c-19 49 -58 72 -105 72zM283 551l-53 20l72 177l81 -25z" />
<glyph unicode="&#xfa;" horiz-adv-x="514" d="M449 0h-82v56h-3c-33 -43 -85 -62 -136 -62c-102 0 -172 50 -172 173v329h82v-298c0 -86 23 -126 114 -126c65 0 115 50 115 126v298h82v-496zM265 551l-53 20l72 177l81 -25z" />
<glyph unicode="&#xfd;" horiz-adv-x="438" d="M438 496l-213 -601c-29 -81 -77 -95 -131 -95h-42v72h41c27 0 48 13 62 56l27 82l-182 486h91l79 -225l51 -156h3l51 155l77 226h86zM240 551l-53 20l72 177l81 -25z" />
<glyph unicode="&#xff;" horiz-adv-x="438" d="M438 496l-213 -601c-29 -81 -77 -95 -131 -95h-42v72h41c27 0 48 13 62 56l27 82l-182 486h91l79 -225l51 -156h3l51 155l77 226h86zM363 597h-88v88h88v-88zM183 597h-88v88h88v-88z" />
<glyph unicode="&#xe5;" horiz-adv-x="482" d="M232 501c107 0 200 -34 200 -160v-341h-83v43l-1 1c-18 -29 -70 -50 -137 -50c-113 0 -176 62 -176 147c0 77 52 146 158 146h156v56c0 54 -34 81 -114 81c-62 0 -96 -17 -118 -43l-52 55c37 43 99 65 167 65zM113 146c0 -47 35 -77 108 -77c64 0 128 18 128 92v58h-136 c-64 0 -100 -27 -100 -73zM254 546c-55 0 -99 44 -99 98s44 98 99 98c54 0 98 -44 98 -98s-44 -98 -98 -98zM254 699c-31 0 -55 -25 -55 -55c0 -31 24 -55 55 -55s55 24 55 55c0 30 -24 55 -55 55z" />
<glyph unicode="&#xfe;" horiz-adv-x="514" d="M56 696h82v-255l3 -1c38 44 86 61 135 61c142 0 177 -126 177 -249c0 -128 -37 -258 -193 -258c-49 0 -81 13 -120 50h-2v-242h-82v894zM138 247c0 -75 14 -171 114 -171c103 0 115 91 115 171c0 77 -11 173 -115 173c-101 0 -114 -100 -114 -173z" />
<glyph unicode="&#x152;" horiz-adv-x="811" d="M784 0h-435c-19 -4 -39 -6 -60 -6c-166 0 -247 119 -247 258v192c0 136 81 257 247 257c19 0 37 -2 55 -5h440v-81h-352v-225h300v-77h-300v-232h352v-81zM290 76c19 0 37 3 54 9v524c-17 6 -35 9 -54 9c-108 0 -161 -87 -161 -176v-185c0 -92 53 -181 161 -181z" />
<glyph unicode="&#x178;" horiz-adv-x="508" d="M504 696l-209 -420v-276h-84v276l-209 420h93l97 -193l62 -133l65 139l94 187h91zM388 770h-88v88h88v-88zM208 770h-88v88h88v-88z" />
<glyph unicode="&#x100;" horiz-adv-x="598" d="M592 0h-93l-56 160h-289l-56 -160h-92l255 696h76zM418 236l-67 195l-51 148h-3l-49 -144l-69 -199h239zM433 780h-268v75h268v-75z" />
<glyph unicode="&#x101;" horiz-adv-x="482" d="M232 501c107 0 200 -34 200 -160v-341h-83v43l-1 1c-18 -29 -70 -50 -137 -50c-113 0 -176 62 -176 147c0 77 52 146 158 146h156v56c0 54 -34 81 -114 81c-62 0 -96 -17 -118 -43l-52 55c37 43 99 65 167 65zM113 146c0 -47 35 -77 108 -77c64 0 128 18 128 92v58h-136 c-64 0 -100 -27 -100 -73zM385 600h-268v75h268v-75z" />
<glyph unicode="&#x102;" horiz-adv-x="598" d="M592 0h-93l-56 160h-289l-56 -160h-92l255 696h76zM418 236l-67 195l-51 148h-3l-49 -144l-69 -199h239zM156 860h73c2 -27 28 -63 71 -63c48 0 72 36 72 63h71c-5 -52 -34 -129 -143 -129s-143 77 -144 129z" />
<glyph unicode="&#x103;" horiz-adv-x="482" d="M232 501c107 0 200 -34 200 -160v-341h-83v43l-1 1c-18 -29 -70 -50 -137 -50c-113 0 -176 62 -176 147c0 77 52 146 158 146h156v56c0 54 -34 81 -114 81c-62 0 -96 -17 -118 -43l-52 55c37 43 99 65 167 65zM113 146c0 -47 35 -77 108 -77c64 0 128 18 128 92v58h-136 c-64 0 -100 -27 -100 -73zM117 697h73c2 -27 28 -63 71 -63c48 0 72 36 72 63h71c-5 -52 -34 -129 -143 -129s-143 77 -144 129z" />
<glyph unicode="&#x104;" horiz-adv-x="598" d="M462 -92c0 27 10 55 37 92l-56 160h-289l-56 -160h-92l255 696h76l255 -696h-33c-22 -31 -32 -54 -32 -77c0 -28 18 -44 48 -44c16 0 34 3 58 13l19 -48c-20 -13 -54 -24 -87 -24c-63 0 -103 40 -103 88zM418 236l-67 195l-51 148h-3l-49 -144l-69 -199h239z" />
<glyph unicode="&#x105;" horiz-adv-x="482" d="M312 -92c0 27 10 55 37 92v43l-1 1c-18 -29 -70 -50 -137 -50c-113 0 -176 62 -176 147c0 77 52 146 158 146h156v56c0 54 -34 81 -114 81c-62 0 -96 -17 -118 -43l-52 55c37 43 99 65 167 65c107 0 200 -34 200 -160v-341h-23c-22 -31 -32 -54 -32 -77 c0 -28 18 -44 48 -44c16 0 34 3 58 13l19 -48c-20 -13 -54 -24 -87 -24c-63 0 -103 40 -103 88zM113 146c0 -47 35 -77 108 -77c64 0 128 18 128 92v58h-136c-64 0 -100 -27 -100 -73z" />
<glyph unicode="&#x106;" horiz-adv-x="543" d="M446 182l82 -40c-35 -93 -117 -148 -229 -148c-166 0 -247 119 -247 258v192c0 136 81 257 247 257c112 0 192 -58 228 -147l-82 -37c-23 59 -74 99 -145 99c-108 0 -161 -87 -161 -176v-181c0 -92 53 -181 161 -181c71 0 123 42 146 104zM267 738l-37 42l148 122l59 -61 z" />
<glyph unicode="&#x107;" horiz-adv-x="431" d="M416 64c-42 -42 -96 -70 -163 -70c-114 0 -225 71 -225 253c0 183 111 254 225 254c66 0 120 -28 162 -69l-53 -60c-27 30 -66 50 -105 50c-93 0 -147 -57 -147 -175c0 -117 54 -175 147 -175c42 0 81 25 105 51zM246 551l-53 20l72 177l81 -25z" />
<glyph unicode="&#x108;" horiz-adv-x="543" d="M446 182l82 -40c-35 -93 -117 -148 -229 -148c-166 0 -247 119 -247 258v192c0 136 81 257 247 257c112 0 192 -58 228 -147l-82 -37c-23 59 -74 99 -145 99c-108 0 -161 -87 -161 -176v-181c0 -92 53 -181 161 -181c71 0 123 42 146 104zM443 740l-143 86l-144 -87 l-29 38l150 128h53l143 -126z" />
<glyph unicode="&#x109;" horiz-adv-x="431" d="M416 64c-42 -42 -96 -70 -163 -70c-114 0 -225 71 -225 253c0 183 111 254 225 254c66 0 120 -28 162 -69l-53 -60c-27 30 -66 50 -105 50c-93 0 -147 -57 -147 -175c0 -117 54 -175 147 -175c42 0 81 25 105 51zM375 553l-133 106l-134 -107l-39 38l150 153h53l143 -151 z" />
<glyph unicode="&#x10a;" horiz-adv-x="543" d="M446 182l82 -40c-35 -93 -117 -148 -229 -148c-166 0 -247 119 -247 258v192c0 136 81 257 247 257c112 0 192 -58 228 -147l-82 -37c-23 59 -74 99 -145 99c-108 0 -161 -87 -161 -176v-181c0 -92 53 -181 161 -181c71 0 123 42 146 104zM335 767h-88v88h88v-88z" />
<glyph unicode="&#x10b;" horiz-adv-x="431" d="M416 64c-42 -42 -96 -70 -163 -70c-114 0 -225 71 -225 253c0 183 111 254 225 254c66 0 120 -28 162 -69l-53 -60c-27 30 -66 50 -105 50c-93 0 -147 -57 -147 -175c0 -117 54 -175 147 -175c42 0 81 25 105 51zM295 597h-88v88h88v-88z" />
<glyph unicode="&#x10c;" horiz-adv-x="543" d="M446 182l82 -40c-35 -93 -117 -148 -229 -148c-166 0 -247 119 -247 258v192c0 136 81 257 247 257c112 0 192 -58 228 -147l-82 -37c-23 59 -74 99 -145 99c-108 0 -161 -87 -161 -176v-181c0 -92 53 -181 161 -181c71 0 123 42 146 104zM296 822l143 86l30 -39 l-143 -127h-53l-150 129l29 38z" />
<glyph unicode="&#x10d;" horiz-adv-x="431" d="M416 64c-42 -42 -96 -70 -163 -70c-114 0 -225 71 -225 253c0 183 111 254 225 254c66 0 120 -28 162 -69l-53 -60c-27 30 -66 50 -105 50c-93 0 -147 -57 -147 -175c0 -117 54 -175 147 -175c42 0 81 25 105 51zM242 637l133 106l40 -39l-143 -151h-53l-150 153l39 38z " />
<glyph unicode="&#x10e;" horiz-adv-x="618" d="M76 696h228c104 0 193 -38 237 -129c25 -51 27 -121 27 -207c0 -97 -2 -168 -25 -222c-46 -105 -144 -138 -256 -138h-211v696zM480 279v133c0 153 -74 203 -180 203h-136v-534h136c132 0 180 78 180 198zM275 822l143 86l30 -39l-143 -127h-53l-150 129l29 38z" />
<glyph unicode="&#x10f;" horiz-adv-x="613" d="M606 615l-56 -90h-51l39 88h-35v111h103v-109zM443 0h-82v48l-3 1c-44 -42 -90 -55 -139 -55c-142 0 -173 115 -173 249c0 128 37 258 193 258c49 0 95 -17 120 -50h2v275h82v-726zM361 248c0 75 -12 171 -112 171c-103 0 -117 -91 -117 -171c0 -92 12 -173 113 -173 c99 0 116 100 116 173z" />
<glyph unicode="&#x110;" horiz-adv-x="618" d="M6 328v63h70v305h228c104 0 193 -38 237 -129c25 -51 27 -121 27 -207c0 -97 -2 -168 -25 -222c-46 -105 -144 -138 -256 -138h-211v328h-70zM480 279v133c0 153 -74 203 -180 203h-136v-224h105v-63h-105v-247h136c132 0 180 78 180 198z" />
<glyph unicode="&#x111;" horiz-adv-x="496" d="M274 567v57h87v102h82v-102h53v-57h-53v-567h-82v48l-3 1c-44 -42 -90 -55 -139 -55c-142 0 -173 115 -173 249c0 128 37 258 193 258c49 0 95 -17 120 -50h2v116h-87zM361 248c0 75 -12 171 -112 171c-103 0 -117 -91 -117 -171c0 -92 12 -173 113 -173 c99 0 116 100 116 173z" />
<glyph unicode="&#x112;" horiz-adv-x="543" d="M516 0h-440v696h440v-81h-352v-225h300v-77h-300v-232h352v-81zM433 780h-268v75h268v-75z" />
<glyph unicode="&#x113;" horiz-adv-x="481" d="M444 220h-319v-8c0 -78 43 -142 128 -142c32 0 79 17 112 47l53 -59c-47 -45 -108 -64 -169 -64c-101 0 -210 47 -210 252c0 196 113 256 207 256c109 0 198 -80 198 -218v-64zM242 424c-67 0 -112 -49 -117 -135h233c-4 89 -49 135 -116 135zM385 600h-268v75h268v-75z " />
<glyph unicode="&#x114;" horiz-adv-x="543" d="M516 0h-440v696h440v-81h-352v-225h300v-77h-300v-232h352v-81zM156 860h73c2 -27 28 -63 71 -63c48 0 72 36 72 63h71c-5 -52 -34 -129 -143 -129s-143 77 -144 129z" />
<glyph unicode="&#x115;" horiz-adv-x="481" d="M444 220h-319v-8c0 -78 43 -142 128 -142c32 0 79 17 112 47l53 -59c-47 -45 -108 -64 -169 -64c-101 0 -210 47 -210 252c0 196 113 256 207 256c109 0 198 -80 198 -218v-64zM242 424c-67 0 -112 -49 -117 -135h233c-4 89 -49 135 -116 135zM107 697h73 c2 -27 28 -63 71 -63c48 0 72 36 72 63h71c-5 -52 -34 -129 -143 -129s-143 77 -144 129z" />
<glyph unicode="&#x116;" horiz-adv-x="543" d="M516 0h-440v696h440v-81h-352v-225h300v-77h-300v-232h352v-81zM335 767h-88v88h88v-88z" />
<glyph unicode="&#x117;" horiz-adv-x="481" d="M444 220h-319v-8c0 -78 43 -142 128 -142c32 0 79 17 112 47l53 -59c-47 -45 -108 -64 -169 -64c-101 0 -210 47 -210 252c0 196 113 256 207 256c109 0 198 -80 198 -218v-64zM242 424c-67 0 -112 -49 -117 -135h233c-4 89 -49 135 -116 135zM292 597h-88v88h88v-88z " />
<glyph unicode="&#x118;" horiz-adv-x="543" d="M419 -92c0 27 9 54 36 92h-379v696h440v-81h-352v-225h300v-77h-300v-232h352v-81c-22 -31 -32 -54 -32 -77c0 -28 18 -44 48 -44c16 0 34 3 58 13l19 -48c-20 -13 -54 -24 -87 -24c-63 0 -103 40 -103 88z" />
<glyph unicode="&#x119;" horiz-adv-x="481" d="M289 -65c0 20 5 41 19 65c-19 -4 -39 -6 -59 -6c-101 0 -210 47 -210 252c0 196 113 256 207 256c109 0 198 -80 198 -218v-64h-319v-8c0 -78 43 -142 128 -142c32 0 79 17 112 47l53 -59c-12 -12 -24 -21 -38 -29h5l1 -2c-22 -31 -32 -54 -32 -77c0 -28 18 -44 48 -44 c16 0 34 3 58 13l19 -48c-20 -13 -54 -24 -87 -24c-63 0 -103 40 -103 88zM242 424c-67 0 -112 -49 -117 -135h233c-4 89 -49 135 -116 135z" />
<glyph unicode="&#x11a;" horiz-adv-x="543" d="M516 0h-440v696h440v-81h-352v-225h300v-77h-300v-232h352v-81zM289 822l143 86l30 -39l-143 -127h-53l-150 129l29 38z" />
<glyph unicode="&#x11b;" horiz-adv-x="481" d="M444 220h-319v-8c0 -78 43 -142 128 -142c32 0 79 17 112 47l53 -59c-47 -45 -108 -64 -169 -64c-101 0 -210 47 -210 252c0 196 113 256 207 256c109 0 198 -80 198 -218v-64zM242 424c-67 0 -112 -49 -117 -135h233c-4 89 -49 135 -116 135zM248 637l133 106l40 -39 l-143 -151h-53l-150 153l39 38z" />
<glyph unicode="&#x11c;" horiz-adv-x="598" d="M299 72c91 0 159 79 159 166v55h-147v80h235v-135c0 -142 -102 -245 -248 -245c-169 0 -247 120 -247 259v192c0 136 76 257 242 257c112 0 192 -58 228 -147l-82 -37c-23 59 -76 99 -147 99c-108 0 -154 -87 -154 -176v-187c0 -92 53 -181 161 -181zM443 740l-143 86 l-144 -87l-29 38l150 128h53l143 -126z" />
<glyph unicode="&#x11d;" horiz-adv-x="511" d="M443 9c0 -149 -101 -214 -215 -214c-56 0 -117 16 -160 57l49 67c26 -23 74 -45 113 -45c74 0 130 44 130 124v58h-2c-41 -46 -86 -61 -135 -61c-141 0 -177 120 -177 242c0 128 27 265 185 265c48 0 100 -22 127 -61h2v55h83v-487zM131 248c0 -91 11 -171 113 -171 c100 0 116 96 116 171c0 67 -6 173 -114 173c-104 0 -115 -94 -115 -173zM385 553l-133 106l-134 -107l-39 38l150 153h53l143 -151z" />
<glyph unicode="&#x11e;" horiz-adv-x="598" d="M299 72c91 0 159 79 159 166v55h-147v80h235v-135c0 -142 -102 -245 -248 -245c-169 0 -247 120 -247 259v192c0 136 76 257 242 257c112 0 192 -58 228 -147l-82 -37c-23 59 -76 99 -147 99c-108 0 -154 -87 -154 -176v-187c0 -92 53 -181 161 -181zM156 860h73 c2 -27 28 -63 71 -63c48 0 72 36 72 63h71c-5 -52 -34 -129 -143 -129s-143 77 -144 129z" />
<glyph unicode="&#x11f;" horiz-adv-x="511" d="M443 9c0 -149 -101 -214 -215 -214c-56 0 -117 16 -160 57l49 67c26 -23 74 -45 113 -45c74 0 130 44 130 124v58h-2c-41 -46 -86 -61 -135 -61c-141 0 -177 120 -177 242c0 128 27 265 185 265c48 0 100 -22 127 -61h2v55h83v-487zM131 248c0 -91 11 -171 113 -171 c100 0 116 96 116 171c0 67 -6 173 -114 173c-104 0 -115 -94 -115 -173zM127 697h73c2 -27 28 -63 71 -63c48 0 72 36 72 63h71c-5 -52 -34 -129 -143 -129s-143 77 -144 129z" />
<glyph unicode="&#x120;" horiz-adv-x="598" d="M299 72c91 0 159 79 159 166v55h-147v80h235v-135c0 -142 -102 -245 -248 -245c-169 0 -247 120 -247 259v192c0 136 76 257 242 257c112 0 192 -58 228 -147l-82 -37c-23 59 -76 99 -147 99c-108 0 -154 -87 -154 -176v-187c0 -92 53 -181 161 -181zM347 767h-88v88h88 v-88z" />
<glyph unicode="&#x121;" horiz-adv-x="511" d="M443 9c0 -149 -101 -214 -215 -214c-56 0 -117 16 -160 57l49 67c26 -23 74 -45 113 -45c74 0 130 44 130 124v58h-2c-41 -46 -86 -61 -135 -61c-141 0 -177 120 -177 242c0 128 27 265 185 265c48 0 100 -22 127 -61h2v55h83v-487zM131 248c0 -91 11 -171 113 -171 c100 0 116 96 116 171c0 67 -6 173 -114 173c-104 0 -115 -94 -115 -173zM302 597h-88v88h88v-88z" />
<glyph unicode="&#x122;" horiz-adv-x="598" d="M299 72c91 0 159 79 159 166v55h-147v80h235v-135c0 -142 -102 -245 -248 -245c-169 0 -247 120 -247 259v192c0 136 76 257 242 257c112 0 192 -58 228 -147l-82 -37c-23 59 -76 99 -147 99c-108 0 -154 -87 -154 -176v-187c0 -92 53 -181 161 -181zM355 -167l-56 -90 h-51l39 88h-35v111h103v-109z" />
<glyph unicode="&#x123;" horiz-adv-x="511" d="M210 662l56 90h51l-39 -88h35v-111h-103v109zM443 9c0 -149 -101 -214 -215 -214c-56 0 -117 16 -160 57l49 67c26 -23 74 -45 113 -45c74 0 130 44 130 124v58h-2c-41 -46 -86 -61 -135 -61c-141 0 -177 120 -177 242c0 128 27 265 185 265c48 0 100 -22 127 -61h2v55 h83v-487zM131 248c0 -91 11 -171 113 -171c100 0 116 96 116 171c0 67 -6 173 -114 173c-104 0 -115 -94 -115 -173z" />
<glyph unicode="&#x124;" horiz-adv-x="636" d="M560 0h-88v313h-308v-313h-88v696h88v-306h308v306h88v-696zM459 740l-143 86l-144 -87l-29 38l150 128h53l143 -126z" />
<glyph unicode="&#x125;" horiz-adv-x="551" d="M494 0h-82v297c0 76 -26 123 -109 123c-66 0 -120 -47 -120 -123v-297h-82v726h82v-292h3c34 43 85 67 138 67c95 0 170 -57 170 -172v-329zM281 740l-143 86l-144 -87l-29 38l150 128h53l143 -126z" />
<glyph unicode="&#x126;" horiz-adv-x="636" d="M560 0h-88v313h-308v-313h-88v535h-50v60h50v101h88v-101h308v101h88v-101h51v-60h-51v-535zM164 390h308v145h-308v-145z" />
<glyph unicode="&#x127;" horiz-adv-x="521" d="M13 572v67h61v87h82v-87h216v-67h-216v-144h3c34 43 88 67 141 67c95 0 167 -57 167 -172v-323h-82v291c0 76 -26 123 -109 123c-66 0 -120 -47 -120 -123v-291h-82v572h-61z" />
<glyph unicode="&#x128;" horiz-adv-x="241" d="M164 0h-88v696h88v-696zM52 869c48 0 99 -47 134 -47c20 0 40 13 61 45l52 -29c-29 -61 -65 -89 -107 -89c-48 0 -94 42 -133 42c-23 0 -38 -10 -63 -40l-52 29c27 56 68 89 108 89z" />
<glyph unicode="&#x129;" horiz-adv-x="315" d="M201 0h-88v495h88v-495zM88 699c48 0 99 -47 134 -47c20 0 40 13 61 45l52 -29c-29 -61 -65 -89 -107 -89c-48 0 -94 42 -133 42c-23 0 -38 -10 -63 -40l-52 29c27 56 68 89 108 89z" />
<glyph unicode="&#x12a;" horiz-adv-x="241" d="M164 0h-88v696h88v-696zM257 780h-268v75h268v-75z" />
<glyph unicode="&#x12b;" horiz-adv-x="248" d="M168 0h-88v495h88v-495zM259 600h-268v75h268v-75z" />
<glyph unicode="&#x12c;" horiz-adv-x="271" d="M-5 860h73c2 -27 28 -63 71 -63c48 0 72 36 72 63h71c-5 -52 -34 -129 -143 -129s-143 77 -144 129zM180 0h-88v696h88v-696z" />
<glyph unicode="&#x12d;" horiz-adv-x="247" d="M167 0h-88v495h88v-495zM-20 703h73c2 -27 28 -63 71 -63c48 0 72 36 72 63h71c-5 -52 -34 -129 -143 -129s-143 77 -144 129z" />
<glyph unicode="&#x12e;" horiz-adv-x="241" d="M39 -92c0 27 10 55 37 92v696h88v-696h-28c-22 -31 -32 -54 -32 -77c0 -28 18 -44 48 -44c16 0 34 3 58 13l19 -48c-20 -13 -54 -24 -87 -24c-63 0 -103 40 -103 88z" />
<glyph unicode="&#x12f;" horiz-adv-x="224" d="M35 -91c0 27 9 54 36 91v496h82v-496h-22c-21 -30 -31 -53 -31 -76c0 -28 18 -44 48 -44c16 0 34 3 58 13l19 -48c-20 -13 -54 -24 -87 -24c-63 0 -103 40 -103 88zM153 614h-82v82h82v-82z" />
<glyph unicode="&#x130;" horiz-adv-x="241" d="M164 0h-88v696h88v-696zM163 767h-88v88h88v-88z" />
<glyph unicode="&#x131;" horiz-adv-x="200" d="M144 0h-88v495h88v-495z" />
<glyph unicode="&#x132;" horiz-adv-x="674" d="M163 0h-88v696h88v-696zM606 696v-474c0 -170 -95 -228 -213 -228c-70 0 -134 29 -172 72l58 65c24 -24 73 -54 111 -54c67 0 128 26 128 146v473h88z" />
<glyph unicode="&#x133;" horiz-adv-x="438" d="M153 614h-82v82h82v-82zM153 0h-82v496h82v-496zM359 614h-83v82h83v-82zM359 496v-563c0 -80 -44 -135 -127 -135h-44v75h30c36 1 58 25 58 66v557h83z" />
<glyph unicode="&#x134;" horiz-adv-x="467" d="M399 697v-474c0 -170 -95 -228 -213 -228c-70 0 -134 29 -172 72l58 65c24 -24 73 -54 111 -54c67 0 128 26 128 146v473h88zM496 742l-143 86l-144 -87l-29 38l150 128h53l143 -126z" />
<glyph unicode="&#x135;" horiz-adv-x="306" d="M194 495v-562c0 -80 -58 -135 -141 -135h-30v75c4 0 28 -1 30 1c36 1 58 24 58 65v556h83zM286 553l-133 106l-134 -107l-39 38l150 153h53l143 -151z" />
<glyph unicode="&#x137;" horiz-adv-x="506" d="M499 0h-95l-164 249l-90 -99v-150h-82v726h82v-469h3l214 239h97l-169 -187zM319 -167l-56 -90h-51l39 88h-35v111h103v-109z" />
<glyph unicode="&#x138;" horiz-adv-x="506" d="M499 0h-95l-164 249l-90 -99v-150h-82v496h82v-239h3l214 239h97l-169 -187z" />
<glyph unicode="&#x139;" horiz-adv-x="543" d="M516 0h-440v696h88v-615h352v-81zM117 738l-37 42l148 122l59 -61z" />
<glyph unicode="&#x13a;" horiz-adv-x="243" d="M225 0h-35c-72 0 -122 30 -122 115v611h82v-604c0 -30 17 -47 51 -47h24v-75zM107 748l-37 42l148 122l59 -61z" />
<glyph unicode="&#x13b;" horiz-adv-x="543" d="M516 0h-440v696h88v-615h352v-81zM345 -167l-56 -90h-51l39 88h-35v111h103v-109z" />
<glyph unicode="&#x13c;" horiz-adv-x="243" d="M225 0h-35c-72 0 -122 30 -122 115v611h82v-604c0 -30 17 -47 51 -47h24v-75zM197 -167l-56 -90h-51l39 88h-35v111h103v-109z" />
<glyph unicode="&#x13d;" horiz-adv-x="543" d="M516 0h-440v696h88v-615h352v-81zM446 587l-56 -90h-51l39 88h-35v111h103v-109z" />
<glyph unicode="&#x13e;" horiz-adv-x="313" d="M313 616l-56 -90h-51l39 88h-35v111h103v-109zM225 0h-35c-72 0 -122 30 -122 115v611h82v-604c0 -30 17 -47 51 -47h24v-75z" />
<glyph unicode="&#x13f;" horiz-adv-x="543" d="M516 0h-440v696h88v-615h352v-81zM398 311h-88v88h88v-88z" />
<glyph unicode="&#x140;" horiz-adv-x="322" d="M313 338h-88v88h88v-88zM225 0h-35c-72 0 -122 30 -122 115v611h82v-604c0 -30 17 -47 51 -47h24v-75z" />
<glyph unicode="&#x141;" horiz-adv-x="574" d="M547 0h-440v242l-82 -47l-33 58l115 67v376h88v-325l127 74l33 -58l-160 -93v-213h352v-81z" />
<glyph unicode="&#x142;" horiz-adv-x="326" d="M269 0h-35c-72 0 -122 30 -122 115v175l-79 -45l-33 58l112 64v359h82v-311l99 57l33 -58l-132 -76v-216c0 -30 17 -47 51 -47h24v-75z" />
<glyph unicode="&#x143;" horiz-adv-x="673" d="M599 0h-86l-254 392l-92 152l-3 -1v-543h-88v696h87l245 -379l101 -167l3 2v544h87v-696zM317 738l-37 42l148 122l59 -61z" />
<glyph unicode="&#x144;" horiz-adv-x="506" d="M449 0h-82v297c0 76 -26 123 -113 123c-66 0 -116 -47 -116 -123v-297h-82v497h82v-63h3c34 43 90 67 143 67c95 0 165 -57 165 -172v-329zM246 551l-53 20l72 177l81 -25z" />
<glyph unicode="&#x145;" horiz-adv-x="673" d="M599 0h-86l-254 392l-92 152l-3 -1v-543h-88v696h87l245 -379l101 -167l3 2v544h87v-696zM385 -147l-56 -90h-51l39 88h-35v111h103v-109z" />
<glyph unicode="&#x146;" horiz-adv-x="506" d="M449 0h-82v297c0 76 -26 123 -113 123c-66 0 -116 -47 -116 -123v-297h-82v497h82v-63h3c34 43 90 67 143 67c95 0 165 -57 165 -172v-329zM301 -167l-56 -90h-51l39 88h-35v111h103v-109z" />
<glyph unicode="&#x147;" horiz-adv-x="673" d="M599 0h-86l-254 392l-92 152l-3 -1v-543h-88v696h87l245 -379l101 -167l3 2v544h87v-696zM336 822l143 86l30 -39l-143 -127h-53l-150 129l29 38z" />
<glyph unicode="&#x148;" horiz-adv-x="506" d="M449 0h-82v297c0 76 -26 123 -113 123c-66 0 -116 -47 -116 -123v-297h-82v497h82v-63h3c34 43 90 67 143 67c95 0 165 -57 165 -172v-329zM242 637l133 106l40 -39l-143 -151h-53l-150 153l39 38z" />
<glyph unicode="&#x149;" horiz-adv-x="587" d="M530 0h-82v297c0 76 -26 123 -113 123c-66 0 -116 -47 -116 -123v-297h-82v497h82v-63h3c34 43 90 67 143 67c95 0 165 -57 165 -172v-329zM117 560l-56 -90h-51l39 88h-35v111h103v-109z" />
<glyph unicode="&#x14a;" horiz-adv-x="673" d="M599 696v-768c0 -75 -45 -106 -102 -106c-28 0 -58 7 -88 21l21 59c22 -6 40 -11 54 -11c22 0 33 11 33 41v63l-258 397l-92 152l-3 -1v-543h-88v696h87l245 -379l101 -167l3 2v544h87z" />
<glyph unicode="&#x14b;" horiz-adv-x="506" d="M449 330v-402c0 -75 -45 -106 -102 -106c-28 0 -58 7 -88 21l21 59c22 -6 40 -11 54 -11c22 0 33 11 33 41v365c0 76 -33 122 -114 122c-66 0 -114 -49 -114 -122v-297h-83v496h83v-60h4c33 43 87 65 140 65c91 0 166 -61 166 -171z" />
<glyph unicode="&#x14c;" horiz-adv-x="595" d="M297 701c153 0 248 -109 248 -257v-192c0 -158 -97 -258 -248 -258c-166 0 -247 119 -247 258v192c0 136 81 257 247 257zM298 618c-108 0 -161 -87 -161 -176v-185c0 -92 53 -181 161 -181c98 0 159 78 159 181v185c0 97 -60 176 -159 176zM441 780h-268v75h268v-75z " />
<glyph unicode="&#x14d;" horiz-adv-x="514" d="M263 500c71 0 130 -30 164 -83c23 -36 34 -88 34 -152c0 -85 -8 -141 -31 -180c-34 -58 -100 -91 -178 -91c-71 0 -130 25 -164 75c-27 41 -37 98 -37 177c0 56 6 103 25 142c33 71 101 112 187 112zM260 426c-49 0 -89 -26 -109 -70c-14 -30 -17 -67 -18 -111 c0 -44 2 -79 15 -108c19 -43 56 -68 105 -68c53 0 98 27 117 88c7 24 8 52 8 105c0 38 -3 68 -13 92c-19 49 -58 72 -105 72zM395 600h-268v75h268v-75z" />
<glyph unicode="&#x14e;" horiz-adv-x="595" d="M297 701c153 0 248 -109 248 -257v-192c0 -158 -97 -258 -248 -258c-166 0 -247 119 -247 258v192c0 136 81 257 247 257zM298 618c-108 0 -161 -87 -161 -176v-185c0 -92 53 -181 161 -181c98 0 159 78 159 181v185c0 97 -60 176 -159 176zM159 860h73 c2 -27 28 -63 71 -63c48 0 72 36 72 63h71c-5 -52 -34 -129 -143 -129s-143 77 -144 129z" />
<glyph unicode="&#x14f;" horiz-adv-x="514" d="M263 500c71 0 130 -30 164 -83c23 -36 34 -88 34 -152c0 -85 -8 -141 -31 -180c-34 -58 -100 -91 -178 -91c-71 0 -130 25 -164 75c-27 41 -37 98 -37 177c0 56 6 103 25 142c33 71 101 112 187 112zM260 426c-49 0 -89 -26 -109 -70c-14 -30 -17 -67 -18 -111 c0 -44 2 -79 15 -108c19 -43 56 -68 105 -68c53 0 98 27 117 88c7 24 8 52 8 105c0 38 -3 68 -13 92c-19 49 -58 72 -105 72zM117 697h73c2 -27 28 -63 71 -63c48 0 72 36 72 63h71c-5 -52 -34 -129 -143 -129s-143 77 -144 129z" />
<glyph unicode="&#x150;" horiz-adv-x="595" d="M297 701c153 0 248 -109 248 -257v-192c0 -158 -97 -258 -248 -258c-166 0 -247 119 -247 258v192c0 136 81 257 247 257zM298 618c-108 0 -161 -87 -161 -176v-185c0 -92 53 -181 161 -181c98 0 159 78 159 181v185c0 97 -60 176 -159 176zM365 738l-37 42l148 122 l59 -61zM212 738l-37 42l148 122l59 -61z" />
<glyph unicode="&#x151;" horiz-adv-x="514" d="M263 500c71 0 130 -30 164 -83c23 -36 34 -88 34 -152c0 -85 -8 -141 -31 -180c-34 -58 -100 -91 -178 -91c-71 0 -130 25 -164 75c-27 41 -37 98 -37 177c0 56 6 103 25 142c33 71 101 112 187 112zM260 426c-49 0 -89 -26 -109 -70c-14 -30 -17 -67 -18 -111 c0 -44 2 -79 15 -108c19 -43 56 -68 105 -68c53 0 98 27 117 88c7 24 8 52 8 105c0 38 -3 68 -13 92c-19 49 -58 72 -105 72zM206 551l-53 20l72 177l81 -25zM336 551l-53 20l72 177l81 -25z" />
<glyph unicode="&#x154;" horiz-adv-x="598" d="M552 0h-98l-133 306h-157v-306h-88v696h284c113 0 201 -77 201 -190c0 -95 -61 -164 -150 -191zM473 506c0 78 -53 113 -129 113h-180v-236h176c76 0 133 44 133 123zM267 738l-37 42l148 122l59 -61z" />
<glyph unicode="&#x155;" horiz-adv-x="365" d="M368 480l-35 -79c-20 13 -44 19 -70 19c-65 0 -113 -41 -113 -120v-300h-82v496h82v-63h4c35 51 77 68 130 68c34 0 65 -8 84 -21zM203 551l-53 20l72 177l81 -25z" />
<glyph unicode="&#x156;" horiz-adv-x="598" d="M552 0h-98l-133 306h-157v-306h-88v696h284c113 0 201 -77 201 -190c0 -95 -61 -164 -150 -191zM473 506c0 78 -53 113 -129 113h-180v-236h176c76 0 133 44 133 123zM355 -147l-56 -90h-51l39 88h-35v111h103v-109z" />
<glyph unicode="&#x157;" horiz-adv-x="365" d="M368 480l-35 -79c-20 13 -44 19 -70 19c-65 0 -113 -41 -113 -120v-300h-82v496h82v-63h4c35 51 77 68 130 68c34 0 65 -8 84 -21zM167 -167l-56 -90h-51l39 88h-35v111h103v-109z" />
<glyph unicode="&#x158;" horiz-adv-x="598" d="M552 0h-98l-133 306h-157v-306h-88v696h284c113 0 201 -77 201 -190c0 -95 -61 -164 -150 -191zM473 506c0 78 -53 113 -129 113h-180v-236h176c76 0 133 44 133 123zM276 822l143 86l30 -39l-143 -127h-53l-150 129l29 38z" />
<glyph unicode="&#x159;" horiz-adv-x="365" d="M368 480l-35 -79c-20 13 -44 19 -70 19c-65 0 -113 -41 -113 -120v-300h-82v496h82v-63h4c35 51 77 68 130 68c34 0 65 -8 84 -21zM189 637l133 106l40 -39l-143 -151h-53l-150 153l39 38z" />
<glyph unicode="&#x15a;" horiz-adv-x="544" d="M519 198c0 -127 -102 -204 -250 -204c-88 0 -195 32 -267 95l56 71c55 -53 132 -82 215 -82c88 0 155 35 155 121c0 79 -74 98 -161 115c-109 21 -225 41 -225 193c0 128 107 196 231 196c94 0 165 -21 223 -67l-49 -75c-51 34 -109 56 -174 56c-93 0 -144 -41 -144 -110 c0 -73 69 -93 195 -118c89 -18 194 -45 195 -191zM247 738l-37 42l148 122l59 -61z" />
<glyph unicode="&#x15b;" horiz-adv-x="457" d="M421 147c0 -92 -81 -153 -195 -153c-72 0 -148 21 -207 72l50 63c46 -40 96 -61 161 -61c60 0 109 25 109 77c0 51 -46 63 -114 70c-77 8 -176 22 -176 135c0 93 84 151 181 151c75 0 131 -19 177 -54l-44 -66c-39 26 -80 44 -133 44c-63 0 -101 -29 -101 -73 c0 -45 46 -59 136 -68c70 -7 156 -37 156 -137zM246 551l-53 20l72 177l81 -25z" />
<glyph unicode="&#x15c;" horiz-adv-x="544" d="M519 198c0 -127 -102 -204 -250 -204c-88 0 -195 32 -267 95l56 71c55 -53 132 -82 215 -82c88 0 155 35 155 121c0 79 -74 98 -161 115c-109 21 -225 41 -225 193c0 128 107 196 231 196c94 0 165 -21 223 -67l-49 -75c-51 34 -109 56 -174 56c-93 0 -144 -41 -144 -110 c0 -73 69 -93 195 -118c89 -18 194 -45 195 -191zM413 740l-143 86l-144 -87l-29 38l150 128h53l143 -126z" />
<glyph unicode="&#x15d;" horiz-adv-x="457" d="M421 147c0 -92 -81 -153 -195 -153c-72 0 -148 21 -207 72l50 63c46 -40 96 -61 161 -61c60 0 109 25 109 77c0 51 -46 63 -114 70c-77 8 -176 22 -176 135c0 93 84 151 181 151c75 0 131 -19 177 -54l-44 -66c-39 26 -80 44 -133 44c-63 0 -101 -29 -101 -73 c0 -45 46 -59 136 -68c70 -7 156 -37 156 -137zM365 553l-133 106l-134 -107l-39 38l150 153h53l143 -151z" />
<glyph unicode="&#x15e;" horiz-adv-x="544" d="M519 198c0 -124 -97 -200 -240 -204l-10 -33c77 -4 100 -52 100 -84c0 -35 -26 -83 -108 -83c-26 0 -54 3 -87 18l17 43c28 -12 51 -15 70 -15c26 0 47 15 47 36c0 25 -23 40 -58 40h-14l-20 21l18 59c-80 6 -170 38 -232 93l56 71c55 -53 132 -82 215 -82 c88 0 155 35 155 121c0 79 -74 98 -161 115c-109 21 -225 41 -225 193c0 128 107 196 231 196c94 0 165 -21 223 -67l-49 -75c-51 34 -109 56 -174 56c-93 0 -144 -41 -144 -110c0 -73 69 -93 195 -118c89 -18 194 -45 195 -191z" />
<glyph unicode="&#x15f;" horiz-adv-x="457" d="M421 147c0 -90 -78 -150 -188 -153l-10 -33c77 -4 100 -52 100 -84c0 -35 -26 -83 -108 -83c-26 0 -54 3 -87 18l17 43c28 -12 51 -15 70 -15c26 0 47 15 47 36c0 25 -23 40 -58 40h-14l-20 21l18 59c-60 6 -120 28 -169 70l50 63c46 -40 96 -61 161 -61 c60 0 109 25 109 77c0 51 -46 63 -114 70c-77 8 -176 22 -176 135c0 93 84 151 181 151c75 0 131 -19 177 -54l-44 -66c-39 26 -80 44 -133 44c-63 0 -101 -29 -101 -73c0 -45 46 -59 136 -68c70 -7 156 -37 156 -137z" />
<glyph unicode="&#x162;" horiz-adv-x="486" d="M485 619h-198v-619h-22l-12 -39c77 -4 100 -52 100 -84c0 -35 -26 -83 -108 -83c-26 0 -54 3 -87 18l17 43c28 -12 51 -15 70 -15c26 0 47 15 47 36c0 25 -23 40 -58 40h-14l-20 21l19 63h-20v619h-198v77h484v-77z" />
<glyph unicode="&#x163;" horiz-adv-x="298" d="M268 0h-59c-16 0 -31 2 -45 7l-14 -46c77 -4 100 -52 100 -84c0 -35 -26 -83 -108 -83c-26 0 -54 3 -87 18l17 43c28 -12 51 -15 70 -15c26 0 47 15 47 36c0 25 -23 40 -58 40h-14l-20 21l29 93c-20 20 -32 49 -32 86v309h-59v71h59v123h82v-123h76v-71h-76v-289 c0 -31 8 -62 49 -62h43v-74z" />
<glyph unicode="&#x164;" horiz-adv-x="486" d="M485 619h-198v-619h-88v619h-198v77h484v-77zM243 822l143 86l30 -39l-143 -127h-53l-150 129l29 38z" />
<glyph unicode="&#x165;" horiz-adv-x="342" d="M344 642l-56 -90h-51l39 88h-35v111h103v-109zM268 0h-59c-67 0 -115 41 -115 116v309h-59v71h59v123h82v-123h76v-71h-76v-289c0 -31 8 -62 49 -62h43v-74z" />
<glyph unicode="&#x166;" horiz-adv-x="486" d="M485 619h-198v-216h144v-70h-144v-333h-88v333h-146v70h146v216h-198v77h484v-77z" />
<glyph unicode="&#x167;" horiz-adv-x="298" d="M268 0h-59c-67 0 -115 41 -115 116v128h-57v67h57v114h-59v71h59v123h82v-123h76v-71h-76v-114h78v-67h-78v-108c0 -31 8 -62 49 -62h43v-74z" />
<glyph unicode="&#x168;" horiz-adv-x="618" d="M469 696h88v-444c0 -158 -97 -258 -248 -258c-166 0 -247 119 -247 258v444h87v-437c0 -92 53 -181 161 -181c98 0 159 65 159 181v437zM238 869c48 0 99 -47 134 -47c20 0 40 13 61 45l52 -29c-29 -61 -65 -89 -107 -89c-48 0 -94 42 -133 42c-23 0 -38 -10 -63 -40 l-52 29c27 56 68 89 108 89z" />
<glyph unicode="&#x169;" horiz-adv-x="514" d="M449 0h-82v56h-3c-33 -43 -85 -62 -136 -62c-102 0 -172 50 -172 173v329h82v-298c0 -86 23 -126 114 -126c65 0 115 50 115 126v298h82v-496zM178 699c48 0 99 -47 134 -47c20 0 40 13 61 45l52 -29c-29 -61 -65 -89 -107 -89c-48 0 -94 42 -133 42 c-23 0 -38 -10 -63 -40l-52 29c27 56 68 89 108 89z" />
<glyph unicode="&#x16a;" horiz-adv-x="618" d="M469 696h88v-444c0 -158 -97 -258 -248 -258c-166 0 -247 119 -247 258v444h87v-437c0 -92 53 -181 161 -181c98 0 159 65 159 181v437zM433 780h-268v75h268v-75z" />
<glyph unicode="&#x16b;" horiz-adv-x="514" d="M449 0h-82v56h-3c-33 -43 -85 -62 -136 -62c-102 0 -172 50 -172 173v329h82v-298c0 -86 23 -126 114 -126c65 0 115 50 115 126v298h82v-496zM395 600h-268v75h268v-75z" />
<glyph unicode="&#x16c;" horiz-adv-x="618" d="M469 696h88v-444c0 -158 -97 -258 -248 -258c-166 0 -247 119 -247 258v444h87v-437c0 -92 53 -181 161 -181c98 0 159 65 159 181v437zM168 847h73c2 -27 28 -63 71 -63c48 0 72 36 72 63h71c-5 -52 -34 -129 -143 -129s-143 77 -144 129z" />
<glyph unicode="&#x16d;" horiz-adv-x="514" d="M449 0h-82v56h-3c-33 -43 -85 -62 -136 -62c-102 0 -172 50 -172 173v329h82v-298c0 -86 23 -126 114 -126c65 0 115 50 115 126v298h82v-496zM111 697h73c2 -27 28 -63 71 -63c48 0 72 36 72 63h71c-5 -52 -34 -129 -143 -129s-143 77 -144 129z" />
<glyph unicode="&#x16e;" horiz-adv-x="618" d="M469 696h88v-444c0 -158 -97 -258 -248 -258c-166 0 -247 119 -247 258v444h87v-437c0 -92 53 -181 161 -181c98 0 159 65 159 181v437zM313 708c-55 0 -99 44 -99 98s44 98 99 98c54 0 98 -44 98 -98s-44 -98 -98 -98zM313 861c-31 0 -55 -25 -55 -55 c0 -31 24 -55 55 -55s55 24 55 55c0 30 -24 55 -55 55z" />
<glyph unicode="&#x16f;" horiz-adv-x="514" d="M449 0h-82v56h-3c-33 -43 -85 -62 -136 -62c-102 0 -172 50 -172 173v329h82v-298c0 -86 23 -126 114 -126c65 0 115 50 115 126v298h82v-496zM255 546c-55 0 -99 44 -99 98s44 98 99 98c54 0 98 -44 98 -98s-44 -98 -98 -98zM255 699c-31 0 -55 -25 -55 -55 c0 -31 24 -55 55 -55s55 24 55 55c0 30 -24 55 -55 55z" />
<glyph unicode="&#x170;" horiz-adv-x="618" d="M469 696h88v-444c0 -158 -97 -258 -248 -258c-166 0 -247 119 -247 258v444h87v-437c0 -92 53 -181 161 -181c98 0 159 65 159 181v437zM347 738l-37 42l148 122l59 -61zM194 738l-37 42l148 122l59 -61z" />
<glyph unicode="&#x171;" horiz-adv-x="514" d="M449 0h-82v56h-3c-33 -43 -85 -62 -136 -62c-102 0 -172 50 -172 173v329h82v-298c0 -86 23 -126 114 -126c65 0 115 50 115 126v298h82v-496zM206 551l-53 20l72 177l81 -25zM336 551l-53 20l72 177l81 -25z" />
<glyph unicode="&#x172;" horiz-adv-x="618" d="M256 -90c0 25 8 51 31 85c-151 9 -225 124 -225 257v444h87v-437c0 -92 53 -181 161 -181c98 0 159 65 159 181v437h88v-444c0 -144 -80 -239 -208 -255c-19 -29 -28 -50 -28 -72c0 -28 18 -44 48 -44c16 0 34 3 58 13l19 -48c-20 -13 -54 -24 -87 -24 c-63 0 -103 40 -103 88z" />
<glyph unicode="&#x173;" horiz-adv-x="514" d="M331 -90c0 27 9 54 36 91v55h-3c-33 -43 -85 -62 -136 -62c-102 0 -172 50 -172 173v329h82v-298c0 -86 23 -126 114 -126c65 0 115 50 115 126v298h82v-496h-23c-21 -30 -30 -52 -30 -75c0 -28 18 -44 48 -44c16 0 34 3 58 13l19 -48c-20 -13 -54 -24 -87 -24 c-63 0 -103 40 -103 88z" />
<glyph unicode="&#x174;" horiz-adv-x="823" d="M410 532l-4 -1l-45 -172l-97 -359h-77l-175 696h96l78 -341l42 -188l4 -1l46 187l95 343h72l98 -349l48 -182h3c12 56 24 124 36 179l80 352h96l-176 -696h-76l-94 346zM555 740l-143 86l-144 -87l-29 38l150 128h53l143 -126z" />
<glyph unicode="&#x175;" horiz-adv-x="719" d="M511 118h5c11 39 22 82 32 120l72 258h91l-159 -496h-78l-74 239l-43 138l-40 -137l-74 -240h-79l-158 496h90l75 -261l32 -111h4c10 36 22 73 32 108l82 264h76l80 -261zM490 553l-133 106l-134 -107l-39 38l150 153h53l143 -151z" />
<glyph unicode="&#x176;" horiz-adv-x="508" d="M504 696l-209 -420v-276h-84v276l-209 420h93l97 -193l62 -133l65 139l94 187h91zM395 740l-143 86l-144 -87l-29 38l150 128h53l143 -126z" />
<glyph unicode="&#x177;" horiz-adv-x="438" d="M438 496l-213 -601c-29 -81 -77 -95 -131 -95h-42v72h41c27 0 48 13 62 56l27 82l-182 486h91l79 -225l51 -156h3l51 155l77 226h86zM354 553l-133 106l-134 -107l-39 38l150 153h53l143 -151z" />
<glyph unicode="&#x179;" horiz-adv-x="505" d="M473 0h-440v77l339 542h-326v77h427v-70l-341 -545h341v-81zM229 738l-37 42l148 122l59 -61z" />
<glyph unicode="&#x17a;" horiz-adv-x="434" d="M400 0h-366v68l270 356h-255v72h351v-71l-268 -349h268v-76zM246 551l-53 20l72 177l81 -25z" />
<glyph unicode="&#x17b;" horiz-adv-x="505" d="M473 0h-440v77l339 542h-326v77h427v-70l-341 -545h341v-81zM313 767h-88v88h88v-88z" />
<glyph unicode="&#x17c;" horiz-adv-x="434" d="M400 0h-366v68l270 356h-255v72h351v-71l-268 -349h268v-76zM267 597h-88v88h88v-88z" />
<glyph unicode="&#x1fc;" horiz-adv-x="977" d="M932 0h-441v204h-259l-130 -204h-92l444 696h478v-81h-352v-225h300v-77h-300v-232h352v-81zM491 612l-211 -332h211v332zM636 738l-37 42l148 122l59 -61z" />
<glyph unicode="&#x1fd;" horiz-adv-x="799" d="M766 221h-325c0 -34 5 -61 18 -86c22 -41 63 -65 118 -65c33 0 81 17 113 46l52 -59c-46 -44 -103 -63 -163 -63c-63 0 -132 17 -175 78c-32 -51 -97 -78 -183 -78c-113 0 -176 62 -176 147c0 77 52 146 158 146h156v56c0 54 -34 81 -114 81c-62 0 -96 -17 -118 -43 l-52 55c37 43 99 65 167 65c70 0 141 -15 177 -61c40 44 94 61 144 61c108 0 203 -80 203 -217v-63zM123 146c0 -47 35 -77 108 -77c64 0 128 18 128 92v60h-136c-64 0 -100 -29 -100 -75zM682 288c-3 91 -50 137 -118 137c-69 0 -119 -48 -123 -137h241zM446 551l-53 20 l72 177l81 -25z" />
<glyph unicode="&#x1fe;" horiz-adv-x="595" d="M297 701c65 0 120 -20 162 -55l36 53l43 -29l-43 -63c32 -43 50 -100 50 -163v-192c0 -158 -97 -258 -248 -258c-76 0 -135 25 -175 65l-42 -61l-42 29l50 74c-26 43 -38 95 -38 151v192c0 136 81 257 247 257zM457 442c0 30 -6 59 -17 84l-266 -390 c26 -36 68 -60 124 -60c98 0 159 78 159 181v185zM298 618c-108 0 -161 -87 -161 -176v-185c0 -24 3 -47 10 -69l262 384c-27 28 -65 46 -111 46zM295 738l-37 42l148 122l59 -61z" />
<glyph unicode="&#x1ff;" horiz-adv-x="514" d="M263 500c45 0 86 -13 118 -35l42 59l38 -27l-46 -64l12 -16c23 -36 34 -88 34 -152c0 -85 -8 -141 -31 -180c-34 -58 -100 -91 -178 -91c-48 0 -90 11 -123 33l-37 -52l-37 28l40 56c-3 3 -5 6 -7 10c-27 41 -37 98 -37 177c0 56 6 103 25 142c33 71 101 112 187 112z M365 354c-1 1 -2 3 -2 4l-186 -262c20 -18 46 -27 76 -27c53 0 98 27 117 88c7 24 8 52 8 105c0 38 -3 68 -13 92zM260 426c-49 0 -89 -26 -109 -70c-14 -30 -17 -67 -18 -111c0 -44 2 -79 15 -108v-2l187 264c-20 18 -46 27 -75 27zM266 551l-53 20l72 177l81 -25z" />
<glyph unicode="&#x160;" horiz-adv-x="544" d="M519 198c0 -127 -102 -204 -250 -204c-88 0 -195 32 -267 95l56 71c55 -53 132 -82 215 -82c88 0 155 35 155 121c0 79 -74 98 -161 115c-109 21 -225 41 -225 193c0 128 107 196 231 196c94 0 165 -21 223 -67l-49 -75c-51 34 -109 56 -174 56c-93 0 -144 -41 -144 -110 c0 -73 69 -93 195 -118c89 -18 194 -45 195 -191zM276 822l143 86l30 -39l-143 -127h-53l-150 129l29 38z" />
<glyph unicode="&#x17d;" horiz-adv-x="505" d="M473 0h-440v77l339 542h-326v77h427v-70l-341 -545h341v-81zM262 822l143 86l30 -39l-143 -127h-53l-150 129l29 38z" />
<glyph unicode="&#x161;" horiz-adv-x="457" d="M421 147c0 -92 -81 -153 -195 -153c-72 0 -148 21 -207 72l50 63c46 -40 96 -61 161 -61c60 0 109 25 109 77c0 51 -46 63 -114 70c-77 8 -176 22 -176 135c0 93 84 151 181 151c75 0 131 -19 177 -54l-44 -66c-39 26 -80 44 -133 44c-63 0 -101 -29 -101 -73 c0 -45 46 -59 136 -68c70 -7 156 -37 156 -137zM225 637l133 106l40 -39l-143 -151h-53l-150 153l39 38z" />
<glyph unicode="&#x17e;" horiz-adv-x="434" d="M400 0h-366v68l270 356h-255v72h351v-71l-268 -349h268v-76zM222 637l133 106l40 -39l-143 -151h-53l-150 153l39 38z" />
<glyph unicode="&#x136;" horiz-adv-x="618" d="M612 0h-102l-212 353l-134 -161v-192h-88v696h89v-377l3 1l128 156l183 220h102l-227 -274zM375 -147l-56 -90h-51l39 88h-35v111h103v-109z" />
<glyph unicode="&#xf6da;" horiz-adv-x="516" d="M245 554l-139 209l99 17l86 -210z" />
<glyph unicode="&#xf6db;" horiz-adv-x="516" d="M417 763l-139 -209l-46 16l90 210z" />
<glyph unicode="&#xf6dc;" horiz-adv-x="518" d="M195 716c48 0 99 -47 134 -47c20 0 40 13 61 45l52 -29c-29 -61 -65 -89 -107 -89c-48 0 -98 45 -137 45c-23 0 -38 -10 -63 -40l-48 26c27 56 68 89 108 89z" />
<glyph unicode="&#xa2;" d="M290 -117h-45v114c-101 13 -189 87 -189 250s88 237 189 251v103h45v-100c62 -3 113 -30 153 -69l-53 -60c-26 29 -63 48 -100 50v-350c40 2 77 26 100 51l54 -59c-40 -40 -91 -67 -154 -70v-111zM138 247c0 -99 39 -156 107 -171v342c-68 -15 -107 -71 -107 -171z" />
<glyph unicode="&#xe001;" horiz-adv-x="417" d="M269 696v-696h-82v610l-91 -66l1 87l89 65h83z" />
<glyph unicode="&#xe002;" horiz-adv-x="478" d="M431 0h-390v82l270 341c26 33 39 65 39 99c0 53 -34 100 -106 100c-59 0 -104 -44 -113 -108l-84 12c16 108 100 174 199 174c108 0 192 -60 192 -176c0 -41 -18 -95 -51 -136l-243 -307h287v-81z" />
<glyph unicode="&#xe003;" horiz-adv-x="484" d="M440 210c0 -127 -85 -216 -210 -216c-83 0 -170 37 -190 151l81 12c13 -59 58 -87 111 -87c76 0 124 60 124 137c0 78 -50 123 -119 123h-50v72h41c70 0 120 46 120 111s-49 111 -112 111c-46 0 -93 -32 -108 -90l-82 11c18 92 97 157 190 157c136 0 195 -88 195 -187 c0 -52 -20 -106 -86 -148c70 -40 95 -102 95 -157z" />
<glyph unicode="&#xe004;" horiz-adv-x="495" d="M468 106h-58v-106h-81v106h-302v80l239 510h91l-242 -513h214v205h81v-205h58v-77z" />
<glyph unicode="&#xe005;" horiz-adv-x="473" d="M429 264v-44c0 -126 -69 -225 -205 -225c-93 0 -172 34 -195 150l82 14c12 -64 56 -91 113 -91c108 0 123 101 123 172c0 77 -18 152 -115 152c-42 0 -76 -25 -99 -62h-81v366h363v-78h-286v-194c45 40 83 46 125 46c113 0 175 -84 175 -206z" />
<glyph unicode="&#xe006;" horiz-adv-x="478" d="M439 210c0 -150 -101 -216 -203 -216c-115 0 -194 71 -194 208c0 41 10 95 37 148l180 346h91l-155 -303l3 -1c18 8 43 12 64 12c106 0 177 -89 177 -194zM352 204c0 83 -51 129 -114 129c-57 0 -114 -46 -114 -129c0 -82 44 -134 114 -134c67 0 114 53 114 134z" />
<glyph unicode="&#xe007;" horiz-adv-x="437" d="M417 611l-241 -611h-92l243 615h-217v-104h-82v185h389v-85z" />
<glyph unicode="&#xe008;" horiz-adv-x="484" d="M451 199c0 -121 -95 -205 -209 -205s-209 84 -209 205c0 64 36 132 98 160c-60 29 -85 88 -85 146c0 110 85 197 196 197c122 0 196 -87 196 -197c0 -61 -32 -115 -82 -146c65 -26 95 -96 95 -160zM356 507c0 75 -57 117 -114 117c-58 0 -114 -42 -114 -117 c0 -74 56 -113 114 -113c57 0 114 38 114 113zM369 200c0 72 -60 124 -127 124s-128 -52 -128 -124s61 -128 128 -128s127 56 127 128z" />
<glyph unicode="&#xe009;" horiz-adv-x="473" d="M39 482c0 156 98 219 204 219c96 0 194 -71 194 -208c0 -41 -8 -80 -26 -115l-195 -379h-91l162 312l-3 1c-16 -10 -46 -16 -67 -16c-107 0 -178 77 -178 186zM121 491c0 -83 53 -129 116 -129s114 46 114 129c0 82 -44 134 -114 134c-67 0 -116 -53 -116 -134z" />
<glyph unicode="&#xe00a;" horiz-adv-x="484" d="M15 216v57h100l21 152h-92v57h100l29 212h61l-29 -212h113l29 212h61l-29 -212h99v-57h-107l-21 -152h99v-57h-107l-29 -216h-61l29 216h-113l-29 -216h-61l29 216h-92zM197 425l-21 -152h113l21 152h-113z" />
<glyph unicode="&#xe00b;" horiz-adv-x="467" d="M212 -116v111c-70 4 -143 30 -197 80c16 20 33 46 49 66c39 -36 91 -62 148 -68v236c-95 27 -181 75 -181 186c0 107 71 187 181 195v82h50v-83c56 -5 115 -24 157 -55c-13 -21 -27 -48 -40 -69c-34 23 -75 40 -117 46v-228c110 -30 183 -71 183 -195 c0 -112 -75 -183 -183 -193v-111h-50zM358 187c0 66 -47 93 -96 109v-222c61 9 96 51 96 113zM118 493c0 -53 49 -81 94 -96v216c-54 -7 -94 -48 -94 -120z" />
<glyph unicode="&#xe00c;" horiz-adv-x="489" d="M345 375h-210v-56h210v-54h-210v-26c0 -100 53 -168 138 -168c69 0 105 34 140 95l74 -43c-47 -79 -113 -129 -215 -129c-144 0 -224 103 -224 251v20h-44v54h44v56h-44v54h44v23c0 136 83 249 224 249c102 0 177 -47 210 -136l-81 -33c-23 57 -70 90 -128 90 c-96 0 -138 -85 -138 -174v-19h210v-54z" />
<glyph unicode="&#xe00d;" horiz-adv-x="461" d="M107 351v69h97l11 73c14 92 54 207 187 207c30 0 60 -6 80 -14c-6 -26 -13 -48 -19 -75c-19 7 -46 10 -65 10c-61 0 -86 -59 -95 -123l-11 -78h106v-69h-116l-32 -228c-18 -127 -59 -213 -170 -213c-28 0 -67 8 -95 19c9 27 16 41 25 67c23 -9 43 -13 60 -13 c56 0 79 56 91 139l33 229h-87z" />
<glyph unicode="&#xe00e;" horiz-adv-x="476" d="M44 294v68h69c-14 53 -41 103 -41 159c0 92 69 179 185 179c92 0 142 -16 201 -95l-72 -51c-37 56 -85 69 -131 69c-37 0 -90 -29 -90 -102c0 -56 29 -105 40 -159h159v-68h-152c-2 -72 -14 -148 -61 -218h306v-76h-413v64c48 63 84 143 87 230h-87z" />
<glyph unicode="&#xe00f;" d="M290 -117h-45v114c-101 13 -189 87 -189 250s88 237 189 251v103h45v-100c62 -3 113 -30 153 -69l-53 -60c-26 29 -63 48 -100 50v-350c40 2 77 26 100 51l54 -59c-40 -40 -91 -67 -154 -70v-111zM138 247c0 -99 39 -156 107 -171v342c-68 -15 -107 -71 -107 -171z" />
<glyph unicode="&#xe010;" horiz-adv-x="478" d="M239 365h5l138 331h88l-151 -334h119v-54h-145l-11 -26v-70h156v-54h-156v-158h-80v158h-155v54h155v70l-10 26h-145v54h118l-156 334h87z" />
<glyph unicode="&#xe000;" horiz-adv-x="483" d="M437 190c0 -126 -93 -196 -194 -196s-194 70 -194 196v316c0 125 93 196 194 196s194 -71 194 -196v-316zM355 196v304c0 75 -45 121 -112 121c-68 0 -112 -46 -112 -121v-304c0 -75 44 -121 112 -121c67 0 112 46 112 121z" />
<glyph unicode="&#xe024;" d="M444 190c0 -126 -93 -197 -194 -197s-194 71 -194 197v117c0 125 93 195 194 195s194 -70 194 -195v-117zM362 196v105c0 75 -45 120 -112 120c-68 0 -112 -45 -112 -120v-105c0 -75 44 -122 112 -122c67 0 112 47 112 122z" />
<glyph unicode="&#xe025;" d="M77 0v75h130v335l-91 -66l1 87l89 65h83v-421h133v-75h-345z" />
<glyph unicode="&#xe026;" d="M144 342l-81 23c28 89 108 137 198 137s178 -36 178 -142c0 -33 -10 -87 -96 -154l-166 -129h272v-77h-390v76l234 189c28 22 58 59 58 91c0 42 -36 68 -91 68c-53 0 -101 -30 -116 -82z" />
<glyph unicode="&#xe027;" d="M435 39c0 -120 -82 -203 -204 -203c-80 0 -165 34 -184 143l79 12c13 -56 57 -79 107 -79c73 0 119 53 119 125s-48 114 -114 114h-50v69h41c67 0 116 43 116 103s-48 99 -108 99c-44 0 -89 -26 -104 -80l-80 10c16 88 93 150 184 150c133 0 189 -83 189 -177 c0 -49 -17 -110 -81 -138c70 -27 90 -96 90 -148z" />
<glyph unicode="&#xe028;" d="M454 0h-55v-157h-81v157h-282v75l227 421h90l-231 -422h196v192h81v-192h55v-74z" />
<glyph unicode="&#xe029;" d="M444 90v-41c0 -120 -66 -212 -199 -212c-90 0 -168 31 -189 142l80 14c10 -52 54 -83 109 -83c98 0 118 73 118 158c0 71 -29 137 -110 137c-40 0 -73 -19 -95 -54h-81v345h353v-75h-276v-178c42 36 79 41 120 41c110 0 170 -79 170 -194z" />
<glyph unicode="&#xe02a;" d="M443 197c0 -141 -97 -203 -197 -203c-113 0 -189 67 -189 196c0 38 10 89 35 139l176 325h90l-150 -284c1 0 0 -1 1 -1c17 7 42 12 62 12c104 0 172 -84 172 -184zM357 192c0 77 -49 120 -109 120c-55 0 -110 -43 -110 -120c0 -75 43 -124 110 -124c64 0 109 50 109 124z " />
<glyph unicode="&#xe02b;" d="M439 415l-233 -573h-91l235 576h-208v-98h-81v176h378v-81z" />
<glyph unicode="&#xe02c;" d="M452 186c0 -114 -91 -193 -202 -193c-112 0 -203 79 -203 193c0 60 33 123 93 150c-58 29 -81 83 -81 138c0 103 82 185 191 185c119 0 190 -82 190 -185c0 -58 -30 -108 -77 -138c61 -25 89 -90 89 -150zM372 187c0 67 -59 116 -122 116c-64 0 -124 -49 -124 -116 c0 -66 60 -118 124 -118c63 0 122 52 122 118zM359 476c0 68 -54 108 -109 108c-56 0 -110 -40 -110 -108c0 -69 54 -106 110 -106c55 0 109 36 109 106z" />
<glyph unicode="&#xe02d;" d="M56 295c0 148 95 207 198 207c93 0 189 -67 189 -197c0 -37 -9 -76 -25 -107l-190 -356h-90l158 292l-1 1c-18 -12 -44 -15 -66 -15c-105 0 -173 73 -173 175zM137 303c0 -77 51 -119 112 -119c60 0 109 42 109 119s-43 125 -109 125c-64 0 -112 -49 -112 -125z" />
<glyph unicode="&#xe02e;" d="M42 184v48h90l18 129h-82v49h90l26 180h55l-26 -180h101l26 180h55l-26 -180h89v-49h-96l-19 -129h89v-48h-96l-26 -184h-55l26 184h-102l-26 -184h-55l26 184h-82zM205 361l-19 -129h102l19 129h-102z" />
<glyph unicode="&#xe02f;" d="M233 -99v95c-63 3 -130 26 -177 69l45 58c36 -31 83 -54 132 -59v198c-82 23 -162 67 -162 159c0 90 66 156 162 166v69h47v-70c49 -5 103 -22 142 -48l-38 -60c-31 21 -68 35 -104 40v-191c96 -26 164 -65 164 -166c0 -92 -72 -153 -164 -165v-95h-47zM364 160 c0 53 -41 77 -84 91v-186c52 9 84 43 84 95zM150 419c0 -41 44 -67 83 -81v182c-46 -7 -83 -42 -83 -101z" />
<glyph unicode="&#xe030;" d="M350 318h-189v-46h189v-48h-189v-21c0 -83 47 -141 123 -141c61 0 93 29 125 81l68 -37c-43 -69 -101 -111 -194 -111c-131 0 -202 87 -202 213v16h-39v48h39v46h-39v48h39v18c0 117 74 212 202 212c92 0 158 -41 189 -117l-73 -28c-21 49 -63 76 -115 76 c-86 0 -123 -72 -123 -146v-15h189v-48z" />
<glyph unicode="&#xe031;" d="M127 292v65h94l11 69c13 86 53 194 182 194c29 0 58 -5 77 -13l-18 -70c-19 6 -45 9 -63 9c-60 0 -84 -55 -93 -115l-10 -74h104v-65h-114l-31 -214c-17 -119 -59 -201 -166 -201c-27 0 -64 8 -91 19c9 25 16 38 24 63c23 -9 42 -14 58 -14c55 0 77 54 89 132l32 215h-85 z" />
<glyph unicode="&#xe032;" d="M64 249v60h61c-4 13 -10 28 -15 41c-11 30 -22 60 -22 93c0 79 71 151 176 151c81 0 119 -29 164 -78l-54 -46c-35 46 -79 58 -120 58c-34 0 -80 -24 -80 -85c0 -30 10 -56 20 -83c6 -16 12 -34 16 -51h143v-60h-137c-2 -60 -14 -125 -53 -182h272v-67h-371v56 c41 53 73 121 77 193h-77z" />
<glyph unicode="&#xe033;" d="M286 -59h-42v96c-89 14 -170 78 -170 213c0 137 81 200 170 214v88h42v-85c56 -3 102 -26 138 -60l-49 -53c-23 25 -58 41 -89 44v-295c34 3 69 23 89 45l50 -53c-35 -34 -83 -57 -139 -60v-94zM149 250c0 -81 35 -130 95 -143v287c-60 -13 -95 -61 -95 -144z" />
<glyph unicode="&#xe034;" d="M251 311h3l124 281h80l-135 -283h106v-48h-129l-10 -21v-59h139v-47h-139v-134h-74v134h-140v47h140v59l-10 21h-130v48h106l-140 283h80z" />
<glyph unicode="&#xe048;" horiz-adv-x="472" d="M433 190c0 -126 -93 -197 -194 -197s-194 71 -194 197v117c0 125 93 195 194 195s194 -70 194 -195v-117zM351 196v105c0 75 -45 120 -112 120c-68 0 -112 -45 -112 -120v-105c0 -75 44 -122 112 -122c67 0 112 47 112 122z" />
<glyph unicode="&#xe049;" horiz-adv-x="438" d="M47 0v75h130v335l-91 -66l1 87l89 65h83v-421h133v-75h-345z" />
<glyph unicode="&#xe04a;" horiz-adv-x="466" d="M120 342l-81 23c28 89 108 137 198 137s177 -42 177 -148c0 -33 -17 -91 -95 -148l-166 -129h272v-77h-390v76l234 189c28 22 59 55 59 87c0 42 -30 72 -92 72c-53 0 -101 -30 -116 -82z" />
<glyph unicode="&#xe04b;" horiz-adv-x="468" d="M422 39c0 -120 -82 -203 -204 -203c-80 0 -165 34 -184 143l79 12c13 -56 57 -79 107 -79c73 0 119 53 119 125s-48 114 -114 114h-50v69h41c67 0 116 43 116 103s-48 99 -108 99c-44 0 -89 -26 -104 -80l-80 10c16 88 93 150 184 150c133 0 189 -83 189 -177 c0 -49 -17 -110 -81 -138c70 -27 90 -96 90 -148z" />
<glyph unicode="&#xe04c;" horiz-adv-x="477" d="M454 0h-55v-157h-81v157h-282v75l227 421h90l-231 -422h196v192h81v-192h55v-74z" />
<glyph unicode="&#xe04d;" horiz-adv-x="466" d="M422 90v-41c0 -120 -66 -212 -199 -212c-90 0 -168 31 -189 142l80 14c10 -52 54 -83 109 -83c98 0 118 73 118 158c0 71 -29 137 -110 137c-40 0 -73 -19 -95 -54h-81v345h353v-75h-276v-178c42 36 79 41 120 41c110 0 170 -79 170 -194z" />
<glyph unicode="&#xe04e;" horiz-adv-x="455" d="M425 197c0 -141 -97 -203 -197 -203c-113 0 -189 67 -189 196c0 38 10 89 35 139l176 325h90l-150 -284c1 0 0 -1 1 -1c17 7 42 12 62 12c104 0 172 -84 172 -184zM339 192c0 77 -49 120 -109 120c-55 0 -110 -43 -110 -120c0 -75 43 -124 110 -124c64 0 109 50 109 124z " />
<glyph unicode="&#xe04f;" horiz-adv-x="450" d="M417 415l-233 -573h-91l235 576h-208v-98h-81v176h378v-81z" />
<glyph unicode="&#xe050;" horiz-adv-x="477" d="M441 186c0 -114 -91 -193 -202 -193c-112 0 -203 79 -203 193c0 60 33 123 93 150c-58 29 -81 83 -81 138c0 103 82 185 191 185c119 0 190 -82 190 -185c0 -58 -30 -108 -77 -138c61 -25 89 -90 89 -150zM361 187c0 67 -59 116 -122 116c-64 0 -124 -49 -124 -116 c0 -66 60 -118 124 -118c63 0 122 52 122 118zM348 476c0 68 -54 108 -109 108c-56 0 -110 -40 -110 -108c0 -69 54 -106 110 -106c55 0 109 36 109 106z" />
<glyph unicode="&#xe051;" horiz-adv-x="455" d="M37 295c0 148 95 207 198 207c93 0 189 -67 189 -197c0 -37 -9 -76 -25 -107l-190 -356h-90l158 292l-1 1c-18 -12 -44 -15 -66 -15c-105 0 -173 73 -173 175zM118 303c0 -77 51 -119 112 -119c60 0 109 42 109 119s-43 125 -109 125c-64 0 -112 -49 -112 -125z" />
<glyph unicode="&#xe052;" horiz-adv-x="450" d="M13 184v48h90l18 129h-82v49h90l26 180h55l-26 -180h101l26 180h55l-26 -180h89v-49h-96l-19 -129h89v-48h-96l-26 -184h-55l26 184h-102l-26 -184h-55l26 184h-82zM176 361l-19 -129h102l19 129h-102z" />
<glyph unicode="&#xe053;" horiz-adv-x="422" d="M190 -99v95c-63 3 -130 26 -177 69l45 58c36 -31 83 -54 132 -59v198c-82 23 -162 67 -162 159c0 90 66 156 162 166v69h47v-70c49 -5 103 -22 142 -48l-38 -60c-31 21 -68 35 -104 40v-191c96 -26 164 -65 164 -166c0 -92 -72 -153 -164 -165v-95h-47zM321 160 c0 53 -41 77 -84 91v-186c52 9 84 43 84 95zM107 419c0 -41 44 -67 83 -81v182c-46 -7 -83 -42 -83 -101z" />
<glyph unicode="&#xe054;" horiz-adv-x="461" d="M320 318h-189v-46h189v-48h-189v-21c0 -83 47 -141 123 -141c61 0 93 29 125 81l68 -37c-43 -69 -101 -111 -194 -111c-131 0 -202 87 -202 213v16h-39v48h39v46h-39v48h39v18c0 117 74 212 202 212c92 0 158 -41 189 -117l-73 -28c-21 49 -63 76 -115 76 c-86 0 -123 -72 -123 -146v-15h189v-48z" />
<glyph unicode="&#xe055;" horiz-adv-x="455" d="M103 292v65h94l11 69c13 86 53 194 182 194c29 0 58 -5 77 -13l-18 -70c-19 6 -45 9 -63 9c-60 0 -84 -55 -93 -115l-10 -74h104v-65h-114l-31 -214c-17 -119 -59 -201 -166 -201c-27 0 -64 8 -91 19c9 25 16 38 24 63c23 -9 42 -14 58 -14c55 0 77 54 89 132l32 215h-85 z" />
<glyph unicode="&#xe056;" horiz-adv-x="438" d="M34 249v60h61c-4 13 -10 28 -15 41c-11 30 -22 60 -22 93c0 79 62 152 167 152c81 0 129 -25 176 -81l-60 -45c-33 49 -76 59 -117 59c-34 0 -80 -24 -80 -85c0 -30 10 -56 20 -83c6 -16 12 -34 16 -51h143v-60h-137c-2 -60 -14 -125 -53 -182h272v-67h-371v56 c41 53 73 121 77 193h-77z" />
<glyph unicode="&#xe057;" horiz-adv-x="416" d="M248 -59h-42v96c-89 14 -170 78 -170 213c0 137 81 200 170 214v88h42v-85c56 -3 102 -26 138 -60l-49 -53c-23 25 -58 41 -89 44v-295c34 3 69 23 89 45l50 -53c-35 -34 -83 -57 -139 -60v-94zM111 250c0 -81 35 -130 95 -143v287c-60 -13 -95 -61 -95 -144z" />
<glyph unicode="&#xe058;" horiz-adv-x="460" d="M231 311h3l124 281h80l-135 -283h106v-48h-129l-10 -21v-59h139v-47h-139v-134h-74v134h-140v47h140v59l-10 21h-130v48h106l-140 283h80z" />
<glyph unicode="&#xe059;" horiz-adv-x="709" d="M657 100c0 -66 -55 -103 -118 -103c-62 0 -117 37 -117 103v155c0 65 55 103 117 103c63 0 118 -38 118 -103v-155zM286 337c0 -67 -55 -104 -117 -104c-63 0 -118 37 -118 104v155c0 64 55 102 118 102c62 0 117 -38 117 -102v-155zM575 606l-383 -620h-57l382 620h58z M597 104v148c0 32 -24 52 -58 52c-33 0 -56 -20 -56 -52v-148c0 -34 23 -54 56 -54c34 0 58 20 58 54zM226 340v149c0 32 -24 51 -57 51c-34 0 -57 -19 -57 -51v-149c0 -34 23 -53 57 -53c33 0 57 19 57 53z" />
<glyph unicode="&#xe05a;" horiz-adv-x="994" d="M658 100c0 -66 -55 -103 -118 -103s-118 37 -118 103v155c0 65 55 103 118 103s118 -38 118 -103v-155zM942 100c0 -66 -55 -103 -118 -103s-118 37 -118 103v155c0 65 55 103 118 103s118 -38 118 -103v-155zM287 337c0 -67 -55 -104 -118 -104s-118 37 -118 104v155 c0 64 55 102 118 102s118 -38 118 -102v-155zM576 606l-383 -620h-58l382 620h59zM882 104v148c0 32 -24 52 -58 52s-57 -20 -57 -52v-148c0 -34 23 -54 57 -54s58 20 58 54zM598 104v148c0 32 -24 52 -58 52s-57 -20 -57 -52v-148c0 -34 23 -54 57 -54s58 20 58 54z M227 340v149c0 32 -24 51 -58 51s-57 -19 -57 -51v-149c0 -34 23 -53 57 -53s58 19 58 53z" />
<glyph unicode="&#x2105;" horiz-adv-x="772" d="M577 349c49 0 92 -22 116 -60c15 -24 25 -63 25 -107c0 -54 -8 -95 -25 -123c-25 -42 -69 -67 -125 -67c-49 0 -95 19 -117 55c-18 28 -25 68 -25 124c0 36 5 72 17 98c22 50 73 80 134 80zM208 709c46 0 87 -19 118 -49l-44 -52c-19 21 -46 33 -71 33 c-60 0 -94 -35 -94 -112c0 -75 34 -110 94 -110c27 0 53 15 70 33l49 -47c-37 -37 -75 -53 -122 -53c-82 0 -160 50 -160 177c0 131 78 180 160 180zM575 284c-31 0 -54 -16 -67 -42c-9 -21 -14 -43 -13 -72c1 -34 4 -65 17 -86c12 -16 32 -26 58 -26c34 0 55 15 65 36 c12 23 12 55 12 87c0 23 -1 43 -9 60c-11 27 -36 43 -63 43zM627 713l-426 -730h-61l425 730h62z" />
<glyph unicode="&#x2113;" horiz-adv-x="504" d="M404 160l54 -23c-38 -89 -99 -147 -179 -147c-94 0 -160 75 -160 167v56l-58 -39l-24 35l81 58v227c0 158 68 217 154 217c60 0 118 -40 118 -124c0 -110 -66 -211 -199 -336v-57c0 -105 53 -140 99 -140c42 0 84 35 114 106zM191 511v-192c90 102 138 187 138 272 c0 27 -13 68 -61 68c-37 0 -77 -44 -77 -148z" />
<glyph unicode="&#x2116;" horiz-adv-x="929" d="M869 257h-258v61h258v-61zM528 0h-86l-204 392l-72 146h-3v-538h-88v696h87l205 -379l71 -140h3v519h87v-696zM744 702c50 0 92 -19 116 -55c17 -24 24 -58 24 -100c0 -45 -6 -91 -23 -119c-23 -37 -64 -60 -124 -60c-51 0 -92 18 -115 50c-19 28 -27 66 -27 117 c0 35 4 66 18 92c23 48 71 75 131 75zM742 645c-31 0 -56 -16 -69 -42c-9 -19 -12 -42 -12 -69s1 -49 10 -67c12 -26 36 -41 67 -41c34 0 61 16 74 53c5 15 6 33 6 66c0 23 -2 42 -9 57c-12 29 -36 43 -67 43z" />
<glyph unicode="&#x212e;" horiz-adv-x="817" d="M763 316h-568c0 -59 1 -124 1 -184c43 -69 132 -115 217 -115c87 0 167 42 220 108h62c-68 -83 -172 -136 -283 -136c-193 0 -351 155 -351 340c0 184 158 332 351 332c197 0 344 -145 351 -345zM627 342v179c-40 68 -133 112 -214 112c-76 0 -157 -46 -217 -116 c0 -44 -1 -131 -1 -175h432z" />
<glyph unicode="&#x2202;" horiz-adv-x="530" d="M123 218c0 -113 62 -159 131 -159c108 0 147 127 152 238c-56 60 -112 83 -154 83c-80 0 -129 -83 -129 -162zM44 216c0 139 89 226 202 226c52 0 101 -18 158 -65c-9 155 -74 280 -201 280c-21 0 -44 -2 -67 -8v63c26 6 50 9 75 9c202 0 279 -172 279 -370 c0 -239 -102 -361 -240 -361c-117 0 -206 78 -206 226z" />
<glyph unicode="&#x220f;" horiz-adv-x="636" d="M560 -83h-88v702h-308v-702h-88v779h484v-779z" />
<glyph unicode="&#x2211;" horiz-adv-x="505" d="M473 -81h-440v77l168 311l-167 319v70h427v-77h-324l167 -312l-169 -307h338v-81z" />
<glyph unicode="&#x2212;" d="M469 262h-441v64h441v-64z" />
<glyph unicode="&#x221a;" horiz-adv-x="562" d="M555 797l-211 -878h-68l-158 413l-71 -23l-21 57l139 45l141 -375l174 761h75z" />
<glyph unicode="&#x221e;" horiz-adv-x="728" d="M196 426c73 0 137 -60 171 -113c47 62 100 113 179 113c84 0 147 -64 147 -154c0 -83 -68 -155 -156 -155c-68 0 -127 59 -170 112c-48 -58 -99 -112 -179 -112c-83 0 -148 64 -148 155c0 83 70 154 156 154zM196 364c-49 0 -94 -42 -94 -92c0 -53 43 -93 92 -93 c55 0 103 42 132 92c-25 42 -75 93 -130 93zM542 364c-55 0 -97 -40 -136 -92c39 -48 77 -93 133 -93c49 0 92 43 92 93c0 53 -41 92 -89 92z" />
<glyph unicode="&#x2227;" horiz-adv-x="530" d="M298 523l197 -523h-74l-155 417l-156 -417h-72l197 523h63z" />
<glyph unicode="&#x2228;" horiz-adv-x="530" d="M421 523h74l-197 -523h-63l-197 523h72l156 -420z" />
<glyph unicode="&#x2229;" horiz-adv-x="530" d="M492 314v-314h-72v314c0 73 -58 143 -156 143c-97 0 -154 -63 -154 -143v-314h-69v314c0 110 82 208 223 208s228 -88 228 -208z" />
<glyph unicode="&#x222a;" horiz-adv-x="530" d="M492 522v-314c0 -120 -87 -208 -228 -208s-223 98 -223 208v314h69v-314c0 -80 57 -142 154 -142c98 0 156 70 156 142v314h72z" />
<glyph unicode="&#x222b;" horiz-adv-x="316" d="M112 79c6 79 9 195 9 362c0 56 3 109 8 149c15 122 55 185 149 185c19 0 53 -5 73 -13l-16 -59c-22 6 -39 8 -49 8c-46 0 -74 -32 -84 -167c-5 -74 -1 -262 -6 -363c-3 -56 -5 -105 -11 -148c-17 -132 -64 -185 -157 -185c-19 0 -45 4 -65 12l16 58c28 -6 39 -6 49 -6 c46 0 74 32 84 167z" />
<glyph unicode="&#x2248;" horiz-adv-x="530" d="M490 389c-37 -59 -74 -91 -135 -91c-53 0 -128 65 -183 65c-36 0 -50 -17 -76 -51l-57 39c36 61 82 86 134 86c62 0 127 -65 183 -65c33 0 51 24 77 60zM490 233c-37 -59 -74 -91 -135 -91c-53 0 -128 65 -183 65c-36 0 -50 -17 -76 -51l-57 39c36 61 82 86 134 86 c62 0 127 -65 183 -65c33 0 51 24 77 60z" />
<glyph unicode="&#x2260;" horiz-adv-x="530" d="M116 55l-71 2l74 108h-90v67h136l86 125h-222v67h268l86 124h72l-86 -124h101v-67h-147l-86 -125h233v-67h-279z" />
<glyph unicode="&#x2264;" horiz-adv-x="530" d="M471 176v-71l-440 162v60l440 163v-71l-359 -122zM472 3h-441v64h441v-64z" />
<glyph unicode="&#x2265;" horiz-adv-x="530" d="M31 103v71l359 121l-359 122v71l440 -163v-60zM471 1h-441v64h441v-64z" />
<glyph unicode="&#x2207;" horiz-adv-x="598" d="M6 696h586l-255 -696h-76zM352 268l120 351h-347l120 -350l52 -162h3z" />
<glyph unicode="&#xe0d8;" horiz-adv-x="290" d="M238 -90c-98 106 -187 258 -187 425c0 171 86 319 184 425l46 -28c-84 -110 -140 -258 -140 -392c0 -145 59 -291 139 -398z" />
<glyph unicode="&#xe0d9;" horiz-adv-x="290" d="M62 -90l-42 32c81 107 139 253 139 398c0 134 -55 282 -139 392l45 28c98 -106 185 -254 185 -425c0 -167 -90 -319 -188 -425z" />
<glyph unicode="&#xe0da;" horiz-adv-x="392" d="M340 260h-288v75h288v-75z" />
<glyph unicode="&#xe0db;" horiz-adv-x="261" d="M242 -75h-169v803h169v-56h-94v-691h94v-56z" />
<glyph unicode="&#xe0dc;" horiz-adv-x="261" d="M195 -75h-168v56h93v691h-93v56h168v-803z" />
<glyph unicode="&#xe0dd;" horiz-adv-x="261" d="M253 -73h-68c-52 0 -92 42 -92 107v139c0 70 -25 122 -78 128v51c53 7 78 66 78 130v136c0 66 40 108 92 108h68v-54h-41c-36 0 -46 -47 -46 -87v-125c0 -86 -54 -124 -75 -131v-3c21 -7 75 -46 75 -129v-130c0 -40 10 -87 46 -87h41v-53z" />
<glyph unicode="&#xe0de;" horiz-adv-x="261" d="M249 301c-53 -6 -77 -58 -77 -128v-139c0 -65 -40 -107 -92 -107h-69v53h42c35 0 46 47 46 87v130c0 83 53 122 75 129v3c-22 7 -75 45 -75 131v125c0 40 0 87 -46 87h-42v50h66c64 0 95 -44 95 -104v-136c0 -64 24 -123 77 -130v-51z" />
<glyph unicode="&#xe0df;" d="M480 259h-460v77h460v-77z" />
<glyph unicode="&#xe0e0;" horiz-adv-x="1000" d="M980 260h-960v77h960v-77z" />
<glyph unicode="&#xe0e1;" horiz-adv-x="241" d="M84 -176l5 519h70l4 -519h-79zM77 520h90v-98h-90v98z" />
<glyph unicode="&#xe0e2;" horiz-adv-x="449" d="M20 4c3 80 45 124 88 169c35 36 67 69 67 114v50h87v-52c0 -46 -19 -87 -51 -120c-40 -42 -100 -97 -100 -153c0 -39 21 -109 114 -109c82 0 120 86 125 125l85 -15c-31 -132 -119 -192 -220 -192c-118 0 -195 79 -195 183zM175 521h90v-98h-90v98z" />
<glyph unicode="&#xe0e3;" horiz-adv-x="459" d="M421 76h-78l-127 186l127 186h78l-123 -186zM249 76h-78l-127 186l127 186h78l-124 -186z" />
<glyph unicode="&#xe0e4;" horiz-adv-x="459" d="M123 76h-78l123 186l-123 186h78l127 -186zM295 76h-78l124 186l-124 186h78l127 -186z" />
<glyph unicode="&#x2044;" horiz-adv-x="88" d="M287 713l-426 -730h-61l425 730h62z" />
<glyph unicode="&#x2215;" horiz-adv-x="88" d="M287 713l-426 -730h-61l425 730h62z" />
<glyph unicode="&#x25ca;" horiz-adv-x="530" d="M470 316l-172 -335h-69c-53 104 -120 231 -174 335c54 106 120 231 174 337h70zM382 316l-119 241l-118 -240c38 -75 83 -163 119 -239c40 79 78 159 118 238z" />
<glyph unicode="&#xe23f;" d="M444 190c0 -126 -93 -196 -194 -196s-194 70 -194 196v316c0 125 93 196 194 196s194 -71 194 -196v-316zM138 196c0 -8 0 -15 1 -22l191 415c-19 20 -47 32 -80 32c-68 0 -112 -46 -112 -121v-304zM362 196v304c0 7 0 14 -1 20l-191 -414c19 -20 47 -31 80 -31 c67 0 112 46 112 121z" />
<glyph unicode="&#xe0fb;" horiz-adv-x="507" d="M400 0l-44 51c-40 -33 -90 -55 -140 -55c-110 0 -162 62 -162 134c0 63 34 111 108 157c-31 33 -58 71 -58 113c0 70 48 126 150 126c40 0 94 -16 138 -51l-51 -55c-41 29 -68 33 -97 33c-44 0 -61 -23 -61 -51c0 -16 8 -30 27 -54l149 -181c14 26 24 51 31 81l77 -11 c-11 -49 -29 -95 -58 -133l91 -104h-100zM219 69c32 0 68 19 90 38l-103 126c-48 -27 -71 -59 -71 -100c0 -36 28 -64 84 -64z" />
<glyph unicode="&#xe0fc;" horiz-adv-x="192" d="M135 520l-8 -392h-62l-8 392h78zM141 0h-87v89h87v-89z" />
<glyph unicode="&#xe0fd;" horiz-adv-x="396" d="M366 382c0 -107 -117 -140 -117 -205v-44h-85v46c0 36 16 68 54 105c29 28 60 60 60 92c0 26 -9 70 -79 70c-67 0 -82 -62 -87 -90l-83 15c13 102 88 152 178 152c96 0 159 -61 159 -141zM249 0h-87v89h87v-89z" />
<glyph unicode="&#xe0fe;" horiz-adv-x="485" d="M483 0h-91l-43 115h-214l-44 -115h-89l205 520h70zM324 188l-48 129l-36 87l-30 -84l-50 -132h164z" />
<glyph unicode="&#xe0ff;" horiz-adv-x="477" d="M450 148c0 -90 -72 -148 -157 -148h-236v520h214c110 0 167 -58 167 -141c0 -37 -13 -79 -67 -109c54 -21 79 -74 79 -122zM273 229h-130v-153h130c63 0 92 37 92 77s-29 76 -92 76zM262 447h-119v-145h119c60 0 90 32 90 72s-30 73 -90 73z" />
<glyph unicode="&#xe100;" horiz-adv-x="433" d="M353 152l75 -36c-31 -76 -99 -120 -190 -120c-134 0 -200 90 -200 194v140c0 102 66 194 200 194c91 0 153 -40 186 -112l-73 -46c-20 43 -60 79 -112 79c-78 0 -116 -59 -116 -118v-131c0 -61 38 -122 116 -122c51 0 94 31 114 78z" />
<glyph unicode="&#xe101;" horiz-adv-x="493" d="M57 520h185c94 0 164 -34 198 -109c16 -36 17 -86 17 -147c0 -64 -2 -118 -18 -155c-36 -86 -115 -109 -209 -109h-173v520zM371 210v96c0 103 -54 138 -132 138h-96v-368h96c97 0 132 53 132 134z" />
<glyph unicode="&#xe102;" horiz-adv-x="433" d="M415 0h-358v520h358v-76h-272v-145h232v-73h-232v-150h272v-76z" />
<glyph unicode="&#xe103;" horiz-adv-x="418" d="M415 444h-272v-149h232v-73h-232v-222h-86v520h358v-76z" />
<glyph unicode="&#xe104;" horiz-adv-x="477" d="M238 69c67 0 116 54 116 111v32h-115v75h201v-107c0 -107 -84 -185 -202 -185c-137 0 -201 91 -201 195v140c0 102 67 194 201 194c91 0 157 -48 189 -120l-80 -33c-17 43 -56 74 -109 74c-78 0 -116 -59 -116 -118v-136c0 -61 38 -122 116 -122z" />
<glyph unicode="&#xe105;" horiz-adv-x="507" d="M450 0h-85v226h-222v-226h-86v520h86v-221h222v221h85v-520z" />
<glyph unicode="&#xe106;" horiz-adv-x="192" d="M139 0h-86v520h86v-520z" />
<glyph unicode="&#xe107;" horiz-adv-x="372" d="M323 520v-358c0 -130 -84 -166 -180 -166c-57 0 -105 24 -140 62l63 53c20 -19 46 -37 75 -37c51 0 97 16 97 96v350h85z" />
<glyph unicode="&#xe108;" horiz-adv-x="501" d="M499 0h-99l-162 250l-95 -107v-143h-85v520h88v-259l85 97l144 162h104l-186 -208z" />
<glyph unicode="&#xe109;" horiz-adv-x="433" d="M415 0h-358v520h86v-444h272v-76z" />
<glyph unicode="&#xe10a;" horiz-adv-x="597" d="M463 331l-5 -1l-34 -77l-87 -179h-69l-92 190l-30 68l-3 -1v-331h-84v520h81l117 -243l49 -101l46 100l115 244h80v-520h-84v331z" />
<glyph unicode="&#xe10b;" horiz-adv-x="537" d="M481 0h-79l-200 290l-59 86v-376h-85v520h80l193 -280l66 -97v377h84v-520z" />
<glyph unicode="&#xe10c;" horiz-adv-x="475" d="M237 524c125 0 202 -83 202 -194v-140c0 -118 -80 -194 -202 -194c-134 0 -201 90 -201 194v140c0 102 67 194 201 194zM238 446c-78 0 -117 -59 -117 -118v-134c0 -61 39 -122 117 -122c71 0 115 53 115 122v134c0 65 -44 118 -115 118z" />
<glyph unicode="&#xe10d;" horiz-adv-x="458" d="M451 359c0 -74 -61 -157 -173 -157h-135v-202h-86v520h211c94 0 183 -47 183 -161zM363 361c0 55 -38 83 -93 83h-127v-166h130c63 0 90 43 90 83z" />
<glyph unicode="&#xe10e;" horiz-adv-x="487" d="M238 524c125 0 202 -83 202 -194v-140c0 -37 -6 -67 -20 -94l72 -54l-48 -56l-70 52c-33 -26 -81 -42 -136 -42c-134 0 -200 90 -200 194v140c0 102 66 194 200 194zM239 445c-78 0 -116 -59 -116 -118v-131c0 -61 38 -122 116 -122c23 0 47 7 64 17 c-23 16 -52 39 -73 54l51 55l67 -50c4 13 7 30 7 46v131c0 64 -44 118 -116 118z" />
<glyph unicode="&#xe10f;" horiz-adv-x="477" d="M447 0h-92l-95 220h-117v-220h-85v520h243c86 0 150 -60 150 -147c0 -67 -43 -120 -107 -143zM366 373c0 51 -38 74 -87 74h-136v-154h133c54 0 90 30 90 80z" />
<glyph unicode="&#xe110;" horiz-adv-x="447" d="M421 146c0 -94 -82 -150 -203 -150c-79 0 -147 18 -211 65l46 67c45 -33 108 -53 166 -53c81 0 117 27 117 71c0 49 -34 69 -107 77c-132 15 -190 58 -190 148c0 89 69 153 187 153c67 0 131 -16 183 -51l-42 -70c-48 30 -97 42 -145 42c-51 0 -98 -25 -98 -75 c0 -48 39 -65 126 -76c116 -15 175 -60 171 -148z" />
<glyph unicode="&#xe111;" horiz-adv-x="395" d="M394 447h-154v-447h-85v447h-154v73h393v-73z" />
<glyph unicode="&#xe112;" horiz-adv-x="493" d="M363 520h85v-330c0 -118 -79 -194 -201 -194c-135 0 -201 90 -201 194v330h84v-324c0 -61 39 -122 117 -122c71 0 116 44 116 122v324z" />
<glyph unicode="&#xe113;" horiz-adv-x="444" d="M218 131h5l36 117l88 272h92l-185 -520h-67l-185 520h90l89 -274z" />
<glyph unicode="&#xe114;" horiz-adv-x="656" d="M328 373h-4l-39 -141l-65 -232h-73l-140 520h92l56 -235l31 -136h2l39 143l65 228h69l67 -236l39 -141h3l32 143l52 234h92l-142 -520h-72l-64 228z" />
<glyph unicode="&#xe115;" horiz-adv-x="448" d="M449 0h-101l-124 207l-124 -207h-101l173 266l-161 254h100l113 -193l113 193h100l-161 -254z" />
<glyph unicode="&#xe116;" horiz-adv-x="421" d="M419 520l-168 -314v-206h-86v206l-164 314h90l78 -149l41 -81l44 85l76 145h89z" />
<glyph unicode="&#xe117;" horiz-adv-x="403" d="M381 0h-358v66l255 381h-245v73h348v-62l-257 -382h257v-76z" />
<glyph unicode="&#xe118;" horiz-adv-x="447" d="M421 146c0 -94 -82 -150 -203 -150c-79 0 -147 18 -211 65l46 67c45 -33 108 -53 166 -53c81 0 117 27 117 71c0 49 -34 69 -107 77c-132 15 -190 58 -190 148c0 89 69 153 187 153c67 0 131 -16 183 -51l-42 -70c-48 30 -97 42 -145 42c-51 0 -98 -25 -98 -75 c0 -48 39 -65 126 -76c116 -15 175 -60 171 -148zM221 637l133 106l40 -39l-143 -151h-53l-150 153l39 38z" />
<glyph unicode="&#xe119;" horiz-adv-x="647" d="M627 0h-346c-13 -3 -32 -4 -47 -4c-136 0 -202 90 -202 194v140c0 102 66 194 202 194c14 0 30 -2 42 -4h351v-76h-275v-145h234v-73h-234v-150h275v-76zM235 72c12 0 22 1 33 4v366c-11 2 -23 4 -33 4c-79 0 -118 -59 -118 -118v-134c0 -61 39 -122 118 -122z" />
<glyph unicode="&#xe11a;" horiz-adv-x="403" d="M381 0h-358v66l255 381h-245v73h348v-62l-257 -382h257v-76zM206 637l133 106l40 -39l-143 -151h-53l-150 153l39 38z" />
<glyph unicode="&#xe11b;" horiz-adv-x="421" d="M419 520l-168 -314v-206h-86v206l-164 314h90l78 -149l41 -81l44 85l76 145h89zM343 597h-88v88h88v-88zM163 597h-88v88h88v-88z" />
<glyph unicode="&#xe11c;" horiz-adv-x="485" d="M483 0h-91l-43 115h-214l-44 -115h-89l205 520h70zM324 188l-48 129l-36 87l-30 -84l-50 -132h164zM275 571l-53 -20l-100 172l81 25z" />
<glyph unicode="&#xe11d;" horiz-adv-x="485" d="M483 0h-91l-43 115h-214l-44 -115h-89l205 520h70zM324 188l-48 129l-36 87l-30 -84l-50 -132h164zM273 551l-53 20l72 177l81 -25z" />
<glyph unicode="&#xe11e;" horiz-adv-x="485" d="M483 0h-91l-43 115h-214l-44 -115h-89l205 520h70zM324 188l-48 129l-36 87l-30 -84l-50 -132h164zM372 553l-133 106l-134 -107l-39 38l150 153h53l143 -151z" />
<glyph unicode="&#xe11f;" horiz-adv-x="485" d="M483 0h-91l-43 115h-214l-44 -115h-89l205 520h70zM324 188l-48 129l-36 87l-30 -84l-50 -132h164zM174 699c48 0 99 -47 134 -47c20 0 40 13 61 45l52 -29c-29 -61 -65 -89 -107 -89c-48 0 -94 42 -133 42c-23 0 -38 -10 -63 -40l-52 29c27 56 68 89 108 89z" />
<glyph unicode="&#xe120;" horiz-adv-x="485" d="M483 0h-91l-43 115h-214l-44 -115h-89l205 520h70zM324 188l-48 129l-36 87l-30 -84l-50 -132h164zM374 597h-88v88h88v-88zM194 597h-88v88h88v-88z" />
<glyph unicode="&#xe121;" horiz-adv-x="485" d="M483 0h-91l-43 115h-214l-44 -115h-89l205 520h70zM324 188l-48 129l-36 87l-30 -84l-50 -132h164zM241 546c-55 0 -99 44 -99 98s44 98 99 98c54 0 98 -44 98 -98s-44 -98 -98 -98zM241 699c-31 0 -55 -25 -55 -55c0 -31 24 -55 55 -55s55 24 55 55c0 30 -24 55 -55 55z " />
<glyph unicode="&#xe122;" horiz-adv-x="780" d="M743 0h-360v147h-193c-33 -48 -62 -99 -95 -147h-94l347 520h395v-76h-275v-145h234v-73h-234v-150h275v-76zM383 444l-145 -225h145v225z" />
<glyph unicode="&#xe123;" horiz-adv-x="433" d="M353 152l75 -36c-30 -73 -93 -116 -178 -120l-11 -35c77 -4 100 -52 100 -84c0 -35 -26 -83 -108 -83c-26 0 -54 3 -87 18l17 43c28 -12 51 -15 70 -15c26 0 47 15 47 36c0 25 -23 40 -58 40h-14l-20 21l19 61c-112 13 -167 97 -167 192v140c0 102 66 194 200 194 c91 0 153 -40 186 -112l-73 -46c-20 43 -60 79 -112 79c-78 0 -116 -59 -116 -118v-131c0 -61 38 -122 116 -122c51 0 94 31 114 78z" />
<glyph unicode="&#xe124;" horiz-adv-x="433" d="M415 0h-358v520h358v-76h-272v-145h232v-73h-232v-150h272v-76zM279 571l-53 -20l-100 172l81 25z" />
<glyph unicode="&#xe125;" horiz-adv-x="433" d="M415 0h-358v520h358v-76h-272v-145h232v-73h-232v-150h272v-76zM243 551l-53 20l72 177l81 -25z" />
<glyph unicode="&#xe126;" horiz-adv-x="433" d="M415 0h-358v520h358v-76h-272v-145h232v-73h-232v-150h272v-76zM370 553l-133 106l-134 -107l-39 38l150 153h53l143 -151z" />
<glyph unicode="&#xe127;" horiz-adv-x="433" d="M415 0h-358v520h358v-76h-272v-145h232v-73h-232v-150h272v-76zM367 597h-88v88h88v-88zM187 597h-88v88h88v-88z" />
<glyph unicode="&#xe128;" horiz-adv-x="192" d="M139 0h-86v520h86v-520zM140 571l-53 -20l-100 172l81 25z" />
<glyph unicode="&#xe129;" horiz-adv-x="192" d="M139 0h-86v520h86v-520zM117 551l-53 20l72 177l81 -25z" />
<glyph unicode="&#xe12a;" horiz-adv-x="192" d="M139 0h-86v520h86v-520zM232 553l-133 106l-134 -107l-39 38l150 153h53l143 -151z" />
<glyph unicode="&#xe12b;" horiz-adv-x="192" d="M139 0h-86v520h86v-520zM229 597h-88v88h88v-88zM49 597h-88v88h88v-88z" />
<glyph unicode="&#xe12c;" horiz-adv-x="493" d="M57 520h185c94 0 164 -34 198 -109c16 -36 17 -86 17 -147c0 -64 -2 -118 -18 -155c-36 -86 -115 -109 -209 -109h-173v234h-52v62h52v224zM371 210v96c0 103 -54 138 -132 138h-96v-148h103v-62h-103v-158h96c97 0 132 53 132 134z" />
<glyph unicode="&#xe12d;" horiz-adv-x="537" d="M481 0h-79l-200 290l-59 86v-376h-85v520h80l193 -280l66 -97v377h84v-520zM203 699c48 0 99 -47 134 -47c20 0 40 13 61 45l52 -29c-29 -61 -65 -89 -107 -89c-48 0 -94 42 -133 42c-23 0 -38 -10 -63 -40l-52 29c27 56 68 89 108 89z" />
<glyph unicode="&#xe12e;" horiz-adv-x="475" d="M237 524c125 0 202 -83 202 -194v-140c0 -118 -80 -194 -202 -194c-134 0 -201 90 -201 194v140c0 102 67 194 201 194zM238 446c-78 0 -117 -59 -117 -118v-134c0 -61 39 -122 117 -122c71 0 115 53 115 122v134c0 65 -44 118 -115 118zM283 571l-53 -20l-100 172l81 25 z" />
<glyph unicode="&#xe12f;" horiz-adv-x="475" d="M237 524c125 0 202 -83 202 -194v-140c0 -118 -80 -194 -202 -194c-134 0 -201 90 -201 194v140c0 102 67 194 201 194zM238 446c-78 0 -117 -59 -117 -118v-134c0 -61 39 -122 117 -122c71 0 115 53 115 122v134c0 65 -44 118 -115 118zM252 551l-53 20l72 177l81 -25z " />
<glyph unicode="&#xe130;" horiz-adv-x="475" d="M237 524c125 0 202 -83 202 -194v-140c0 -118 -80 -194 -202 -194c-134 0 -201 90 -201 194v140c0 102 67 194 201 194zM238 446c-78 0 -117 -59 -117 -118v-134c0 -61 39 -122 117 -122c71 0 115 53 115 122v134c0 65 -44 118 -115 118zM369 553l-133 106l-134 -107 l-39 38l150 153h53l143 -151z" />
<glyph unicode="&#xe131;" horiz-adv-x="475" d="M237 524c125 0 202 -83 202 -194v-140c0 -118 -80 -194 -202 -194c-134 0 -201 90 -201 194v140c0 102 67 194 201 194zM238 446c-78 0 -117 -59 -117 -118v-134c0 -61 39 -122 117 -122c71 0 115 53 115 122v134c0 65 -44 118 -115 118zM169 699c48 0 99 -47 134 -47 c20 0 40 13 61 45l52 -29c-29 -61 -65 -89 -107 -89c-48 0 -94 42 -133 42c-23 0 -38 -10 -63 -40l-52 29c27 56 68 89 108 89z" />
<glyph unicode="&#xe132;" horiz-adv-x="475" d="M237 524c125 0 202 -83 202 -194v-140c0 -118 -80 -194 -202 -194c-134 0 -201 90 -201 194v140c0 102 67 194 201 194zM238 446c-78 0 -117 -59 -117 -118v-134c0 -61 39 -122 117 -122c71 0 115 53 115 122v134c0 65 -44 118 -115 118zM373 597h-88v88h88v-88zM193 597 h-88v88h88v-88z" />
<glyph unicode="&#xe133;" horiz-adv-x="475" d="M237 524c52 0 95 -15 129 -40l35 48l43 -37l-38 -52c21 -31 33 -70 33 -113v-140c0 -118 -80 -194 -202 -194c-55 0 -99 15 -131 40l-34 -46l-43 35l38 52c-21 32 -31 71 -31 113v140c0 102 67 194 201 194zM353 328c0 13 -2 25 -5 37l-192 -261c19 -20 46 -32 82 -32 c71 0 115 53 115 122v134zM238 446c-78 0 -117 -59 -117 -118v-134c0 -13 1 -25 5 -37l190 260c-19 18 -46 29 -78 29z" />
<glyph unicode="&#xe134;" horiz-adv-x="493" d="M363 520h85v-330c0 -118 -79 -194 -201 -194c-135 0 -201 90 -201 194v330h84v-324c0 -61 39 -122 117 -122c71 0 116 44 116 122v324zM291 571l-53 -20l-100 172l81 25z" />
<glyph unicode="&#xe135;" horiz-adv-x="493" d="M363 520h85v-330c0 -118 -79 -194 -201 -194c-135 0 -201 90 -201 194v330h84v-324c0 -61 39 -122 117 -122c71 0 116 44 116 122v324zM266 551l-53 20l72 177l81 -25z" />
<glyph unicode="&#xe136;" horiz-adv-x="493" d="M363 520h85v-330c0 -118 -79 -194 -201 -194c-135 0 -201 90 -201 194v330h84v-324c0 -61 39 -122 117 -122c71 0 116 44 116 122v324zM381 553l-133 106l-134 -107l-39 38l150 153h53l143 -151z" />
<glyph unicode="&#xe137;" horiz-adv-x="493" d="M363 520h85v-330c0 -118 -79 -194 -201 -194c-135 0 -201 90 -201 194v330h84v-324c0 -61 39 -122 117 -122c71 0 116 44 116 122v324zM383 597h-88v88h88v-88zM203 597h-88v88h88v-88z" />
<glyph unicode="&#xe138;" horiz-adv-x="421" d="M419 520l-168 -314v-206h-86v206l-164 314h90l78 -149l41 -81l44 85l76 145h89zM231 551l-53 20l72 177l81 -25z" />
<glyph unicode="&#xe139;" horiz-adv-x="456" d="M53 0l-1 518h87v-91h121c94 0 187 -48 187 -162c0 -73 -64 -156 -176 -156h-132v-109h-86zM359 268c0 56 -42 83 -97 83h-123v-166h126c64 0 94 43 94 83z" />
<glyph unicode="&#xe13a;" horiz-adv-x="485" d="M483 0h-91l-43 115h-214l-44 -115h-89l205 520h70zM324 188l-48 129l-36 87l-30 -84l-50 -132h164zM374 600h-268v75h268v-75z" />
<glyph unicode="&#xe13b;" horiz-adv-x="485" d="M483 0h-91l-43 115h-214l-44 -115h-89l205 520h70zM324 188l-48 129l-36 87l-30 -84l-50 -132h164zM95 697h73c2 -27 28 -63 71 -63c48 0 72 36 72 63h71c-5 -52 -34 -129 -143 -129s-143 77 -144 129z" />
<glyph unicode="&#xe13c;" horiz-adv-x="485" d="M359 -92c0 27 9 54 36 92h-3l-43 115h-214l-44 -115h-89l205 520h70l206 -520h-27c-22 -31 -32 -54 -32 -77c0 -28 18 -44 48 -44c16 0 34 3 58 13l19 -48c-20 -13 -54 -24 -87 -24c-63 0 -103 40 -103 88zM324 188l-48 129l-36 87l-30 -84l-50 -132h164z" />
<glyph unicode="&#xe13d;" horiz-adv-x="433" d="M353 152l75 -36c-31 -76 -99 -120 -190 -120c-134 0 -200 90 -200 194v140c0 102 66 194 200 194c91 0 153 -40 186 -112l-73 -46c-20 43 -60 79 -112 79c-78 0 -116 -59 -116 -118v-131c0 -61 38 -122 116 -122c51 0 94 31 114 78zM237 551l-53 20l72 177l81 -25z" />
<glyph unicode="&#xe13e;" horiz-adv-x="433" d="M353 152l75 -36c-31 -76 -99 -120 -190 -120c-134 0 -200 90 -200 194v140c0 102 66 194 200 194c91 0 153 -40 186 -112l-73 -46c-20 43 -60 79 -112 79c-78 0 -116 -59 -116 -118v-131c0 -61 38 -122 116 -122c51 0 94 31 114 78zM364 553l-133 106l-134 -107l-39 38 l150 153h53l143 -151z" />
<glyph unicode="&#xe13f;" horiz-adv-x="433" d="M353 152l75 -36c-31 -76 -99 -120 -190 -120c-134 0 -200 90 -200 194v140c0 102 66 194 200 194c91 0 153 -40 186 -112l-73 -46c-20 43 -60 79 -112 79c-78 0 -116 -59 -116 -118v-131c0 -61 38 -122 116 -122c51 0 94 31 114 78zM276 597h-88v88h88v-88z" />
<glyph unicode="&#xe140;" horiz-adv-x="433" d="M353 152l75 -36c-31 -76 -99 -120 -190 -120c-134 0 -200 90 -200 194v140c0 102 66 194 200 194c91 0 153 -40 186 -112l-73 -46c-20 43 -60 79 -112 79c-78 0 -116 -59 -116 -118v-131c0 -61 38 -122 116 -122c51 0 94 31 114 78zM230 637l133 106l40 -39l-143 -151 h-53l-150 153l39 38z" />
<glyph unicode="&#xe141;" horiz-adv-x="493" d="M57 520h185c94 0 164 -34 198 -109c16 -36 17 -86 17 -147c0 -64 -2 -118 -18 -155c-36 -86 -115 -109 -209 -109h-173v520zM371 210v96c0 103 -54 138 -132 138h-96v-368h96c97 0 132 53 132 134zM226 637l133 106l40 -39l-143 -151h-53l-150 153l39 38z" />
<glyph unicode="&#xe142;" horiz-adv-x="493" d="M57 520h185c94 0 164 -34 198 -109c16 -36 17 -86 17 -147c0 -64 -2 -118 -18 -155c-36 -86 -115 -109 -209 -109h-173v234h-52v62h52v224zM371 210v96c0 103 -54 138 -132 138h-96v-148h103v-62h-103v-158h96c97 0 132 53 132 134z" />
<glyph unicode="&#xe143;" horiz-adv-x="433" d="M415 0h-358v520h358v-76h-272v-145h232v-73h-232v-150h272v-76zM369 600h-268v75h268v-75z" />
<glyph unicode="&#xe144;" horiz-adv-x="433" d="M415 0h-358v520h358v-76h-272v-145h232v-73h-232v-150h272v-76zM93 697h73c2 -27 28 -63 71 -63c48 0 72 36 72 63h71c-5 -52 -34 -129 -143 -129s-143 77 -144 129z" />
<glyph unicode="&#xe145;" horiz-adv-x="433" d="M415 0h-358v520h358v-76h-272v-145h232v-73h-232v-150h272v-76zM284 597h-88v88h88v-88z" />
<glyph unicode="&#xe146;" horiz-adv-x="433" d="M316 -92c0 27 9 54 36 92h-295v520h358v-76h-272v-145h232v-73h-232v-150h272v-76h-2c-22 -31 -32 -54 -32 -77c0 -28 18 -44 48 -44c16 0 34 3 58 13l19 -48c-20 -13 -54 -24 -87 -24c-63 0 -103 40 -103 88z" />
<glyph unicode="&#xe147;" horiz-adv-x="433" d="M415 0h-358v520h358v-76h-272v-145h232v-73h-232v-150h272v-76zM234 637l133 106l40 -39l-143 -151h-53l-150 153l39 38z" />
<glyph unicode="&#xe148;" horiz-adv-x="477" d="M238 69c67 0 116 54 116 111v32h-115v75h201v-107c0 -107 -84 -185 -202 -185c-137 0 -201 91 -201 195v140c0 102 67 194 201 194c91 0 157 -48 189 -120l-80 -33c-17 43 -56 74 -109 74c-78 0 -116 -59 -116 -118v-136c0 -61 38 -122 116 -122zM364 553l-133 106 l-134 -107l-39 38l150 153h53l143 -151z" />
<glyph unicode="&#xe149;" horiz-adv-x="477" d="M238 69c67 0 116 54 116 111v32h-115v75h201v-107c0 -107 -84 -185 -202 -185c-137 0 -201 91 -201 195v140c0 102 67 194 201 194c91 0 157 -48 189 -120l-80 -33c-17 43 -56 74 -109 74c-78 0 -116 -59 -116 -118v-136c0 -61 38 -122 116 -122zM93 697h73 c2 -27 28 -63 71 -63c48 0 72 36 72 63h71c-5 -52 -34 -129 -143 -129s-143 77 -144 129z" />
<glyph unicode="&#xe14a;" horiz-adv-x="477" d="M238 69c67 0 116 54 116 111v32h-115v75h201v-107c0 -107 -84 -185 -202 -185c-137 0 -201 91 -201 195v140c0 102 67 194 201 194c91 0 157 -48 189 -120l-80 -33c-17 43 -56 74 -109 74c-78 0 -116 -59 -116 -118v-136c0 -61 38 -122 116 -122zM278 597h-88v88h88v-88z " />
<glyph unicode="&#xe14b;" horiz-adv-x="477" d="M238 69c67 0 116 54 116 111v32h-115v75h201v-107c0 -107 -84 -185 -202 -185c-137 0 -201 91 -201 195v140c0 102 67 194 201 194c91 0 157 -48 189 -120l-80 -33c-17 43 -56 74 -109 74c-78 0 -116 -59 -116 -118v-136c0 -61 38 -122 116 -122zM290 -167l-56 -90h-51 l39 88h-35v111h103v-109z" />
<glyph unicode="&#xe14c;" horiz-adv-x="507" d="M450 0h-85v226h-222v-226h-86v520h86v-221h222v221h85v-520zM382 553l-133 106l-134 -107l-39 38l150 153h53l143 -151z" />
<glyph unicode="&#xe14d;" horiz-adv-x="507" d="M450 0h-85v226h-222v-226h-86v386h-39v61h39v73h86v-73h222v73h85v-73h40v-61h-40v-386zM143 299h222v87h-222v-87z" />
<glyph unicode="&#xe14e;" horiz-adv-x="192" d="M139 0h-86v520h86v-520zM30 699c48 0 99 -47 134 -47c20 0 40 13 61 45l52 -29c-29 -61 -65 -89 -107 -89c-48 0 -94 42 -133 42c-23 0 -38 -10 -63 -40l-52 29c27 56 68 89 108 89z" />
<glyph unicode="&#xe14f;" horiz-adv-x="192" d="M139 0h-86v520h86v-520zM232 600h-268v75h268v-75z" />
<glyph unicode="&#xe150;" horiz-adv-x="192" d="M139 0h-86v520h86v-520zM-47 697h73c2 -27 28 -63 71 -63c48 0 72 36 72 63h71c-5 -52 -34 -129 -143 -129s-143 77 -144 129z" />
<glyph unicode="&#xe151;" horiz-adv-x="192" d="M37 -92c0 27 9 54 36 92h-20v520h86v-520h-5c-22 -31 -32 -54 -32 -77c0 -28 18 -44 48 -44c16 0 34 3 58 13l19 -48c-20 -13 -54 -24 -87 -24c-63 0 -103 40 -103 88z" />
<glyph unicode="&#xe152;" horiz-adv-x="192" d="M139 0h-86v520h86v-520zM139 597h-88v88h88v-88z" />
<glyph unicode="&#xe153;" horiz-adv-x="565" d="M139 0h-86v520h86v-520zM507 520v-358c0 -130 -84 -166 -180 -166c-57 0 -105 24 -140 62l63 53c20 -19 46 -37 75 -37c51 0 97 16 97 96v350h85z" />
<glyph unicode="&#xe154;" horiz-adv-x="372" d="M323 520v-358c0 -130 -84 -166 -180 -166c-57 0 -105 24 -140 62l63 53c20 -19 46 -37 75 -37c51 0 97 16 97 96v350h85zM415 553l-133 106l-134 -107l-39 38l150 153h53l143 -151z" />
<glyph unicode="&#xe155;" horiz-adv-x="501" d="M499 0h-99l-162 250l-95 -107v-143h-85v520h88v-259l85 97l144 162h104l-186 -208zM305 -167l-56 -90h-51l39 88h-35v111h103v-109z" />
<glyph unicode="&#xe156;" horiz-adv-x="433" d="M415 0h-358v520h86v-444h272v-76zM115 551l-53 20l72 177l81 -25z" />
<glyph unicode="&#xe157;" horiz-adv-x="433" d="M415 0h-358v520h86v-444h272v-76zM280 -167l-56 -90h-51l39 88h-35v111h103v-109z" />
<glyph unicode="&#xe158;" horiz-adv-x="433" d="M415 0h-358v520h86v-444h272v-76zM355 411l-56 -90h-51l39 88h-35v111h103v-109z" />
<glyph unicode="&#xe159;" horiz-adv-x="433" d="M415 0h-358v520h86v-444h272v-76zM329 240h-88v88h88v-88z" />
<glyph unicode="&#xe15a;" horiz-adv-x="433" d="M415 0h-358v166l-58 -35l-30 54l88 53v282h86v-230l91 56l30 -54l-121 -74v-142h272v-76z" />
<glyph unicode="&#xe15b;" horiz-adv-x="537" d="M481 0h-79l-200 290l-59 86v-376h-85v520h80l193 -280l66 -97v377h84v-520zM286 551l-53 20l72 177l81 -25z" />
<glyph unicode="&#xe15c;" horiz-adv-x="537" d="M481 0h-79l-200 290l-59 86v-376h-85v520h80l193 -280l66 -97v377h84v-520zM317 -167l-56 -90h-51l39 88h-35v111h103v-109z" />
<glyph unicode="&#xe15d;" horiz-adv-x="537" d="M481 0h-79l-200 290l-59 86v-376h-85v520h80l193 -280l66 -97v377h84v-520zM264 637l133 106l40 -39l-143 -151h-53l-150 153l39 38z" />
<glyph unicode="&#xe15e;" horiz-adv-x="537" d="M481 520l1 -592c0 -75 -45 -106 -102 -106c-28 0 -58 7 -88 21l21 59c22 -6 40 -11 54 -11c22 0 33 11 33 41v71l-198 287l-59 86v-376h-85v520h80l193 -280l66 -97v377h84z" />
<glyph unicode="&#xe15f;" horiz-adv-x="475" d="M237 524c125 0 202 -83 202 -194v-140c0 -118 -80 -194 -202 -194c-134 0 -201 90 -201 194v140c0 102 67 194 201 194zM238 446c-78 0 -117 -59 -117 -118v-134c0 -61 39 -122 117 -122c71 0 115 53 115 122v134c0 65 -44 118 -115 118zM371 600h-268v75h268v-75z" />
<glyph unicode="&#xe160;" horiz-adv-x="475" d="M237 524c125 0 202 -83 202 -194v-140c0 -118 -80 -194 -202 -194c-134 0 -201 90 -201 194v140c0 102 67 194 201 194zM238 446c-78 0 -117 -59 -117 -118v-134c0 -61 39 -122 117 -122c71 0 115 53 115 122v134c0 65 -44 118 -115 118zM93 697h73c2 -27 28 -63 71 -63 c48 0 72 36 72 63h71c-5 -52 -34 -129 -143 -129s-143 77 -144 129z" />
<glyph unicode="&#xe161;" horiz-adv-x="475" d="M237 524c125 0 202 -83 202 -194v-140c0 -118 -80 -194 -202 -194c-134 0 -201 90 -201 194v140c0 102 67 194 201 194zM238 446c-78 0 -117 -59 -117 -118v-134c0 -61 39 -122 117 -122c71 0 115 53 115 122v134c0 65 -44 118 -115 118zM187 551l-53 20l72 177l81 -25z M317 551l-53 20l72 177l81 -25z" />
<glyph unicode="&#xe162;" horiz-adv-x="477" d="M447 0h-92l-95 220h-117v-220h-85v520h243c86 0 150 -60 150 -147c0 -67 -43 -120 -107 -143zM366 373c0 51 -38 74 -87 74h-136v-154h133c54 0 90 30 90 80zM247 551l-53 20l72 177l81 -25z" />
<glyph unicode="&#xe163;" horiz-adv-x="477" d="M447 0h-92l-95 220h-117v-220h-85v520h243c86 0 150 -60 150 -147c0 -67 -43 -120 -107 -143zM366 373c0 51 -38 74 -87 74h-136v-154h133c54 0 90 30 90 80zM302 -167l-56 -90h-51l39 88h-35v111h103v-109z" />
<glyph unicode="&#xe164;" horiz-adv-x="477" d="M447 0h-92l-95 220h-117v-220h-85v520h243c86 0 150 -60 150 -147c0 -67 -43 -120 -107 -143zM366 373c0 51 -38 74 -87 74h-136v-154h133c54 0 90 30 90 80zM234 637l133 106l40 -39l-143 -151h-53l-150 153l39 38z" />
<glyph unicode="&#xe165;" horiz-adv-x="447" d="M421 146c0 -94 -82 -150 -203 -150c-79 0 -147 18 -211 65l46 67c45 -33 108 -53 166 -53c81 0 117 27 117 71c0 49 -34 69 -107 77c-132 15 -190 58 -190 148c0 89 69 153 187 153c67 0 131 -16 183 -51l-42 -70c-48 30 -97 42 -145 42c-51 0 -98 -25 -98 -75 c0 -48 39 -65 126 -76c116 -15 175 -60 171 -148zM241 551l-53 20l72 177l81 -25z" />
<glyph unicode="&#xe166;" horiz-adv-x="447" d="M421 146c0 -94 -82 -150 -203 -150c-79 0 -147 18 -211 65l46 67c45 -33 108 -53 166 -53c81 0 117 27 117 71c0 49 -34 69 -107 77c-132 15 -190 58 -190 148c0 89 69 153 187 153c67 0 131 -16 183 -51l-42 -70c-48 30 -97 42 -145 42c-51 0 -98 -25 -98 -75 c0 -48 39 -65 126 -76c116 -15 175 -60 171 -148zM362 553l-133 106l-134 -107l-39 38l150 153h53l143 -151z" />
<glyph unicode="&#xe167;" horiz-adv-x="447" d="M421 146c0 -89 -74 -144 -185 -149l-11 -36c77 -4 100 -52 100 -84c0 -35 -26 -83 -108 -83c-26 0 -54 3 -87 18l17 43c28 -12 51 -15 70 -15c26 0 47 15 47 36c0 25 -23 40 -58 40h-14l-20 21l18 60c-67 3 -127 22 -183 64l46 67c45 -33 108 -53 166 -53 c81 0 117 27 117 71c0 49 -34 69 -107 77c-132 15 -190 58 -190 148c0 89 69 153 187 153c67 0 131 -16 183 -51l-42 -70c-48 30 -97 42 -145 42c-51 0 -98 -25 -98 -75c0 -48 39 -65 126 -76c116 -15 175 -60 171 -148z" />
<glyph unicode="&#xe168;" horiz-adv-x="395" d="M394 447h-154v-447h-85v447h-154v73h393v-73zM250 -167l-56 -90h-51l39 88h-35v111h103v-109z" />
<glyph unicode="&#xe169;" horiz-adv-x="395" d="M394 447h-154v-447h-85v447h-154v73h393v-73zM198 637l133 106l40 -39l-143 -151h-53l-150 153l39 38z" />
<glyph unicode="&#xe16a;" horiz-adv-x="395" d="M394 447h-154v-139h112v-68h-112v-240h-85v240h-114v68h114v139h-154v73h393v-73z" />
<glyph unicode="&#xe16b;" horiz-adv-x="493" d="M363 520h85v-330c0 -118 -79 -194 -201 -194c-135 0 -201 90 -201 194v330h84v-324c0 -61 39 -122 117 -122c71 0 116 44 116 122v324zM180 699c48 0 99 -47 134 -47c20 0 40 13 61 45l52 -29c-29 -61 -65 -89 -107 -89c-48 0 -94 42 -133 42c-23 0 -38 -10 -63 -40 l-52 29c27 56 68 89 108 89z" />
<glyph unicode="&#xe16c;" horiz-adv-x="493" d="M363 520h85v-330c0 -118 -79 -194 -201 -194c-135 0 -201 90 -201 194v330h84v-324c0 -61 39 -122 117 -122c71 0 116 44 116 122v324zM387 600h-268v75h268v-75z" />
<glyph unicode="&#xe16d;" horiz-adv-x="493" d="M363 520h85v-330c0 -118 -79 -194 -201 -194c-135 0 -201 90 -201 194v330h84v-324c0 -61 39 -122 117 -122c71 0 116 44 116 122v324zM106 697h73c2 -27 28 -63 71 -63c48 0 72 36 72 63h71c-5 -52 -34 -129 -143 -129s-143 77 -144 129z" />
<glyph unicode="&#xe16e;" horiz-adv-x="493" d="M363 520h85v-330c0 -118 -79 -194 -201 -194c-135 0 -201 90 -201 194v330h84v-324c0 -61 39 -122 117 -122c71 0 116 44 116 122v324zM252 546c-55 0 -99 44 -99 98s44 98 99 98c54 0 98 -44 98 -98s-44 -98 -98 -98zM252 699c-31 0 -55 -25 -55 -55 c0 -31 24 -55 55 -55s55 24 55 55c0 30 -24 55 -55 55z" />
<glyph unicode="&#xe16f;" horiz-adv-x="493" d="M363 520h85v-330c0 -118 -79 -194 -201 -194c-135 0 -201 90 -201 194v330h84v-324c0 -61 39 -122 117 -122c71 0 116 44 116 122v324zM206 551l-53 20l72 177l81 -25zM336 551l-53 20l72 177l81 -25z" />
<glyph unicode="&#xe170;" horiz-adv-x="493" d="M179 -92c0 26 9 53 35 90c-113 13 -168 97 -168 192v330h84v-324c0 -61 39 -122 117 -122c71 0 116 44 116 122v324h85v-330c0 -109 -68 -182 -174 -192c-21 -30 -30 -52 -30 -75c0 -28 18 -44 48 -44c16 0 34 3 58 13l19 -48c-20 -13 -54 -24 -87 -24 c-63 0 -103 40 -103 88z" />
<glyph unicode="&#xe171;" horiz-adv-x="656" d="M328 373h-4l-39 -141l-65 -232h-73l-140 520h92l56 -235l31 -136h2l39 143l65 228h69l67 -236l39 -141h3l32 143l52 234h92l-142 -520h-72l-64 228zM461 553l-133 106l-134 -107l-39 38l150 153h53l143 -151z" />
<glyph unicode="&#xe172;" horiz-adv-x="421" d="M419 520l-168 -314v-206h-86v206l-164 314h90l78 -149l41 -81l44 85l76 145h89zM343 553l-133 106l-134 -107l-39 38l150 153h53l143 -151z" />
<glyph unicode="&#xe173;" horiz-adv-x="403" d="M381 0h-358v66l255 381h-245v73h348v-62l-257 -382h257v-76zM223 551l-53 20l72 177l81 -25z" />
<glyph unicode="&#xe174;" horiz-adv-x="403" d="M381 0h-358v66l255 381h-245v73h348v-62l-257 -382h257v-76zM261 597h-88v88h88v-88z" />
<glyph unicode="&#xe175;" horiz-adv-x="780" d="M743 0h-360v147h-193c-33 -48 -62 -99 -95 -147h-94l347 520h395v-76h-275v-145h234v-73h-234v-150h275v-76zM383 444l-145 -225h145v225zM504 551l-53 20l72 177l81 -25z" />
<glyph unicode="&#xe176;" horiz-adv-x="475" d="M237 524c52 0 95 -15 129 -40l35 48l43 -37l-38 -52c21 -31 33 -70 33 -113v-140c0 -118 -80 -194 -202 -194c-55 0 -99 15 -131 40l-34 -46l-43 35l38 52c-21 32 -31 71 -31 113v140c0 102 67 194 201 194zM353 328c0 13 -2 25 -5 37l-192 -261c19 -20 46 -32 82 -32 c71 0 115 53 115 122v134zM238 446c-78 0 -117 -59 -117 -118v-134c0 -13 1 -25 5 -37l190 260c-19 18 -46 29 -78 29zM255 551l-53 20l72 177l81 -25z" />
<glyph unicode="&#xe177;" horiz-adv-x="192" d="M61 0l7 392h63l8 -392h-78zM55 520h87v-89h-87v89z" />
<glyph unicode="&#xe178;" horiz-adv-x="396" d="M33 138c5 107 117 140 117 205v44h85v-46c0 -36 -16 -68 -54 -105c-29 -28 -60 -60 -60 -92c0 -26 5 -70 76 -70c66 0 78 62 82 90l83 -15c-12 -102 -84 -152 -174 -152c-96 0 -155 61 -155 141zM150 520h88v-89h-88v89z" />
<glyph unicode="&#xe17a;" horiz-adv-x="656" d="M328 373h-4l-39 -141l-65 -232h-73l-140 520h92l56 -235l31 -136h2l39 143l65 228h69l67 -236l39 -141h3l32 143l52 234h92l-142 -520h-72l-64 228zM346 551l-53 20l72 177l81 -25z" />
<glyph unicode="&#xe17b;" horiz-adv-x="656" d="M328 373h-4l-39 -141l-65 -232h-73l-140 520h92l56 -235l31 -136h2l39 143l65 228h69l67 -236l39 -141h3l32 143l52 234h92l-142 -520h-72l-64 228zM368 571l-53 -20l-100 172l81 25z" />
<glyph unicode="&#xe17c;" horiz-adv-x="656" d="M328 373h-4l-39 -141l-65 -232h-73l-140 520h92l56 -235l31 -136h2l39 143l65 228h69l67 -236l39 -141h3l32 143l52 234h92l-142 -520h-72l-64 228zM460 597h-88v88h88v-88zM280 597h-88v88h88v-88z" />
<glyph unicode="&#xe179;" horiz-adv-x="447" d="M421 146c0 -94 -82 -150 -203 -150c-79 0 -147 18 -211 65l46 67c45 -33 108 -53 166 -53c81 0 117 27 117 71c0 49 -34 69 -107 77c-132 15 -190 58 -190 148c0 89 69 153 187 153c67 0 131 -16 183 -51l-42 -70c-48 30 -97 42 -145 42c-51 0 -98 -25 -98 -75 c0 -48 39 -65 126 -76c116 -15 175 -60 171 -148zM271 -167l-56 -90h-51l39 88h-35v111h103v-109z" />
<glyph unicode="&#xe17d;" horiz-adv-x="421" d="M419 520l-168 -314v-206h-86v206l-164 314h90l78 -149l41 -81l44 85l76 145h89zM257 571l-53 -20l-100 172l81 25z" />
<glyph unicode="&#x218;" horiz-adv-x="544" d="M519 198c0 -127 -102 -204 -250 -204c-88 0 -195 32 -267 95l56 71c55 -53 132 -82 215 -82c88 0 155 35 155 121c0 79 -74 98 -161 115c-109 21 -225 41 -225 193c0 128 107 196 231 196c94 0 165 -21 223 -67l-49 -75c-51 34 -109 56 -174 56c-93 0 -144 -41 -144 -110 c0 -73 69 -93 195 -118c89 -18 194 -45 195 -191zM332 -167l-56 -90h-51l39 88h-35v111h103v-109z" />
<glyph unicode="&#x219;" horiz-adv-x="457" d="M421 147c0 -92 -81 -153 -195 -153c-72 0 -148 21 -207 72l50 63c46 -40 96 -61 161 -61c60 0 109 25 109 77c0 51 -46 63 -114 70c-77 8 -176 22 -176 135c0 93 84 151 181 151c75 0 131 -19 177 -54l-44 -66c-39 26 -80 44 -133 44c-63 0 -101 -29 -101 -73 c0 -45 46 -59 136 -68c70 -7 156 -37 156 -137zM285 -167l-56 -90h-51l39 88h-35v111h103v-109z" />
<glyph unicode="&#x2b9;" horiz-adv-x="270" d="M146 694l96 -24l-138 -266l-57 18z" />
<glyph unicode="&#x2023;" horiz-adv-x="506" d="M81 477l393 -200l-393 -211v411z" />
<glyph unicode="&#x2103;" horiz-adv-x="865" d="M768 182l82 -40c-35 -93 -117 -148 -229 -148c-166 0 -247 119 -247 258v192c0 136 81 257 247 257c112 0 192 -58 228 -147l-82 -37c-23 59 -74 99 -145 99c-108 0 -161 -87 -161 -176v-181c0 -92 53 -181 161 -181c71 0 123 42 146 104zM316 568 c0 -74 -60 -134 -134 -134s-134 60 -134 134s60 134 134 134s134 -60 134 -134zM262 568c0 44 -35 80 -80 80c-44 0 -80 -36 -80 -80s36 -80 80 -80c45 0 80 36 80 80z" />
<glyph unicode="&#x2109;" horiz-adv-x="826" d="M818 615h-352v-230h300v-77h-300v-308h-88v696h440v-81zM316 568c0 -74 -60 -134 -134 -134s-134 60 -134 134s60 134 134 134s134 -60 134 -134zM262 568c0 44 -35 80 -80 80c-44 0 -80 -36 -80 -80s36 -80 80 -80c45 0 80 36 80 80z" />
<glyph unicode="&#x2117;" horiz-adv-x="803" d="M585 412c0 -61 -50 -130 -137 -130h-104v-171h-64v434h160c74 0 145 -38 145 -133zM519 414c0 48 -33 72 -77 72h-98v-145h100c51 0 75 38 75 73zM404 -8c-202 0 -348 150 -348 349c0 201 151 351 348 351c198 0 349 -150 349 -351c0 -199 -151 -349 -349 -349zM404 631 c-162 0 -285 -124 -285 -290c0 -164 123 -288 285 -288c163 0 285 124 285 288c0 166 -122 290 -285 290z" />
<glyph unicode="&#x212b;" horiz-adv-x="598" d="M592 0h-93l-56 160h-289l-56 -160h-92l255 696h76zM418 236l-67 195l-51 148h-3l-49 -144l-69 -199h239zM298 702c-55 0 -99 44 -99 98s44 98 99 98c54 0 98 -44 98 -98s-44 -98 -98 -98zM298 855c-31 0 -55 -25 -55 -55c0 -31 24 -55 55 -55s55 24 55 55 c0 30 -24 55 -55 55z" />
<glyph unicode="&#x2126;" horiz-adv-x="580" d="M346 95c66 23 102 92 102 175v173c0 97 -54 178 -159 178c-114 0 -161 -89 -161 -178v-173c0 -74 34 -147 105 -175l-1 -95h-205v81h88c-57 35 -74 118 -74 194v170c0 136 81 257 247 257c153 0 248 -109 248 -257v-170c0 -82 -18 -152 -74 -194h89v-81h-205v95z" />
<glyph unicode="&#x259;" horiz-adv-x="481" d="M40 276h319v8c0 78 -43 142 -128 142c-32 0 -79 -17 -112 -47l-53 59c47 45 108 64 169 64c101 0 210 -47 210 -252c0 -196 -113 -256 -207 -256c-109 0 -198 80 -198 218v64zM242 72c67 0 112 49 117 135h-233c4 -89 49 -135 116 -135z" />
<glyph unicode="&#x2190;" horiz-adv-x="840" d="M202 353h577v-64l-577 1l146 -145l-46 -45l-220 221l220 222l46 -45z" />
<glyph unicode="&#x2191;" horiz-adv-x="485" d="M279 574v-573h-64v573l-144 -142l-45 46l221 220l222 -220l-45 -46z" />
<glyph unicode="&#x2192;" horiz-adv-x="840" d="M83 353h577l-146 145l46 45l220 -222l-220 -221l-46 45l146 145l-577 -1v64z" />
<glyph unicode="&#x2193;" horiz-adv-x="485" d="M279 699v-577l145 146l45 -46l-222 -220l-221 220l45 46l145 -146l-1 577h64z" />
<glyph unicode="&#x2196;" horiz-adv-x="840" d="M437 580l-206 1l535 -536l-44 -45l-535 536l1 -205h-65l1 312l312 1z" />
<glyph unicode="&#x2198;" horiz-adv-x="840" d="M451 64l206 -1l-535 536l44 45l535 -536l-1 205h65l-1 -312l-312 -1z" />
<glyph unicode="&#x21a9;" horiz-adv-x="840" d="M300 498l-146 -145h485c74 0 100 47 100 108v80c0 59 -30 94 -100 94h-74v62h79c117 0 159 -69 159 -160v-76c0 -104 -55 -172 -172 -172l-477 1l146 -145l-46 -45l-220 221l220 222z" />
<glyph unicode="&#x21aa;" horiz-adv-x="828" d="M684 353l-146 145l46 45l220 -222l-220 -221l-46 45l146 145l-477 -1c-117 0 -172 68 -172 172v76c0 91 42 160 159 160h79v-62h-74c-70 0 -100 -35 -100 -94v-80c0 -61 26 -108 100 -108h485z" />
<glyph unicode="&#x21b3;" horiz-adv-x="840" d="M177 692v-339h511l-146 145l46 45l220 -222l-220 -221l-46 45l146 145l-576 -1v403h65z" />
<glyph unicode="&#x21b5;" horiz-adv-x="840" d="M713 353v339h65v-403l-576 1l146 -145l-46 -45l-220 221l220 222l46 -45l-146 -145h511z" />
<glyph unicode="&#x21de;" horiz-adv-x="485" d="M279 574l1 -198h110v-64h-110v-76h110v-64h-110v-172h-65v172h-110v64h110v76h-110v64h110l1 198l-145 -142l-45 46l221 220l222 -220l-45 -46z" />
<glyph unicode="&#x21df;" horiz-adv-x="485" d="M280 322l-1 -201l145 145l45 -46l-222 -220l-221 220l45 46l145 -145l-1 201h-110v64h110v76h-110v64h110v172h65v-172h110v-64h-110v-76h110v-64h-110z" />
<glyph unicode="&#x21e0;" horiz-adv-x="840" d="M381 289v64h80v-64h-80zM529 289v64h81v-64h-81zM678 289v64h81v-64h-81zM181 353h133v-64l-133 1l148 -145l-46 -45l-220 221l220 222l46 -45z" />
<glyph unicode="&#x21e1;" horiz-adv-x="485" d="M213 379h64v-80h-64v80zM213 231h64v-81h-64v81zM213 82h64v-81h-64v81zM277 577v-131h-64l1 131l-145 -146l-45 46l221 220l222 -220l-45 -46z" />
<glyph unicode="&#x21e2;" horiz-adv-x="840" d="M441 353v-64h-80v64h80zM293 353v-64h-81v64h81zM144 353v-64h-81v64h81zM508 353h133l-148 145l46 45l220 -222l-220 -221l-46 45l148 145l-133 -1v64z" />
<glyph unicode="&#x21e3;" horiz-adv-x="485" d="M277 319h-64v80h64v-80zM277 467h-64v81h64v-81zM277 616h-64v81h64v-81zM277 252v-131l145 146l45 -46l-222 -220l-221 220l45 46l145 -146l-1 131h64z" />
<glyph unicode="&#x21e4;" horiz-adv-x="840" d="M140 104h-65v435h65v-435zM323 353h493v-64l-493 1l146 -145l-46 -45l-220 221l220 222l46 -45z" />
<glyph unicode="&#x21e5;" horiz-adv-x="840" d="M817 104h-65v435h65v-435zM76 353h493l-146 145l46 45l220 -222l-220 -221l-46 45l146 145l-493 -1v64z" />
<glyph unicode="&#x21e7;" horiz-adv-x="840" d="M240 318h-185l370 379l370 -379h-185v-318h-370v318zM671 366l-246 255l-246 -255h115v-313h263v313h114z" />
<glyph unicode="&#x21ea;" horiz-adv-x="840" d="M230 -188v188h370v-188h-370zM547 -53h-263v-81h263v81zM230 318h-185l370 379l370 -379h-185v-217h-370v217zM661 366l-246 255l-246 -255h115v-210h263v210h114z" />
<glyph unicode="&#x2303;" horiz-adv-x="795" d="M160 362l-52 52l289 289l290 -289l-51 -52l-239 239z" />
<glyph unicode="&#x2318;" horiz-adv-x="846" d="M208 490h71v72c0 40 -32 72 -71 72c-41 0 -73 -31 -73 -72s31 -72 73 -72zM563 562v-72h72c40 0 72 32 72 72s-32 72 -72 72s-72 -31 -72 -72zM279 135v72h-71c-42 0 -73 -33 -73 -72c0 -41 31 -73 73 -73c40 0 71 32 71 73zM635 207h-72v-72c0 -41 32 -73 72 -73 s72 32 72 73c0 39 -32 72 -72 72zM349 276h144v145h-144v-145zM563 421v-145h72c95 0 141 -66 141 -141c0 -76 -46 -142 -141 -142c-90 0 -142 65 -142 142v72h-144v-72c0 -74 -47 -142 -141 -142c-88 0 -143 63 -143 142c0 76 53 141 143 141h71v145h-71 c-77 0 -143 65 -143 141c0 78 59 142 143 142c94 0 141 -64 141 -142v-72h144v72c0 78 58 142 142 142c91 0 141 -65 141 -142c0 -74 -63 -141 -141 -141h-72z" />
<glyph unicode="&#x2324;" horiz-adv-x="795" d="M160 246l-52 52l289 304l290 -304l-51 -52l-239 254zM108 696h580v-73h-580v73z" />
<glyph unicode="&#x2325;" horiz-adv-x="1188" d="M44 607v73h283l285 -608h524v-72h-583l-285 607h-224zM528 607v73h608v-73h-608z" />
<glyph unicode="&#x2326;" horiz-adv-x="1137" d="M1089 347l-337 -347h-656v695h656zM714 69l274 278l-274 278h-549v-556h549zM614 143l-156 156l-154 -156l-49 49l155 155l-155 156l49 49l154 -155l156 155l49 -49l-155 -156l155 -155z" />
<glyph unicode="&#x232b;" horiz-adv-x="1165" d="M414 0l-337 347l337 348h656v-695h-656zM178 347l274 -278h549v556h-549zM698 299l-156 -156l-49 49l155 155l-155 156l49 49l156 -155l154 155l49 -49l-155 -156l155 -155l-49 -49z" />
<glyph unicode="&#x235f;" horiz-adv-x="804" d="M753 346h-1c0 -195 -158 -353 -354 -353c-195 0 -352 158 -352 354c0 195 158 353 354 353c195 0 353 -158 353 -354zM693 346c0 163 -132 295 -295 295s-295 -132 -295 -295s132 -294 295 -294s295 132 295 294zM634 414l-113 -113l26 -169l-157 76l-141 -76l21 165 l-118 117l163 32l75 148l80 -146z" />
<glyph unicode="&#x23cf;" horiz-adv-x="854" d="M66 227h702v-136h-702v136zM417 665l351 -351h-702z" />
<glyph unicode="&#x25a0;" horiz-adv-x="875" d="M756 673v-633h-633v633h633z" />
<glyph unicode="&#x25a1;" horiz-adv-x="841" d="M143 633v-574h568v574h-568zM770 0h-687v693h687v-693z" />
<glyph unicode="&#x25b2;" horiz-adv-x="820" d="M430 527l351 -351h-702z" />
<glyph unicode="&#x25b6;" horiz-adv-x="595" d="M138 0v701l351 -350z" />
<glyph unicode="&#x25bc;" horiz-adv-x="820" d="M781 527l-351 -351l-351 351h702z" />
<glyph unicode="&#x25c0;" horiz-adv-x="595" d="M452 701v-701l-351 351z" />
<glyph unicode="&#x25cf;" horiz-adv-x="843" d="M744 357c0 -170 -144 -317 -316 -317c-173 0 -317 144 -317 317c0 175 148 316 317 316c168 0 316 -144 316 -316z" />
<glyph unicode="&#x2605;" horiz-adv-x="814" d="M778 427l-173 -173l39 -258l-239 117l-214 -117l32 251l-181 180l249 48l114 226l123 -223z" />
<glyph unicode="&#x2606;" horiz-adv-x="838" d="M784 433l-176 -176l39 -259l-240 117l-218 -119l33 255l-183 182l254 49l113 225l124 -223zM578 267l149 148l-213 43l-107 193l-98 -196l-212 -40l153 -153l-27 -216l184 99l206 -99z" />
<glyph unicode="&#x2610;" horiz-adv-x="841" d="M143 633v-574h568v574h-568zM770 0h-687v693h687v-693z" />
<glyph unicode="&#x2611;" horiz-adv-x="850" d="M691 592l11 -10c-106 -78 -260 -339 -321 -462c-36 -7 -61 -14 -74 -21c-21 81 -76 239 -113 265c23 19 55 25 73 25c24 0 74 -100 86 -187c76 127 221 315 338 390zM143 633v-574h568v574h-568zM770 0h-687v693h687v-693z" />
<glyph unicode="&#x2612;" horiz-adv-x="850" d="M423 395l189 192l47 -47l-189 -189l192 -192l-49 -47l-191 192l-191 -194l-46 49l190 190l-190 190l47 48zM143 633v-574h568v574h-568zM770 0h-687v693h687v-693z" />
<glyph unicode="&#x2602;" horiz-adv-x="780" d="M405 695c147 0 323 -160 324 -331c-21 24 -55 39 -90 39c-30 0 -61 -12 -86 -39h-2c-15 25 -41 39 -75 39c-18 0 -40 -5 -62 -14v-304c0 -55 -36 -93 -99 -93c-55 0 -97 31 -97 98v13h47v-13c0 -37 20 -54 48 -54c42 0 51 29 51 56v296c-19 9 -36 12 -52 12 c-34 0 -61 -15 -85 -37c-22 26 -55 39 -87 39c-33 0 -66 -13 -89 -39l-1 1c0 170 179 332 326 332v31h29v-32zM729 364l1 -1c-1 0 -1 1 -1 1z" />
<glyph unicode="&#x2794;" horiz-adv-x="736" d="M424 59l-147 -2l236 236h-492v107h491l-236 235h149l288 -288z" />
<glyph unicode="&#x2153;" horiz-adv-x="788" d="M584 713l-426 -730h-61l425 730h62zM194 696v-417h-66v347l-58 -38v66l61 42h63zM717 128c0 -77 -57 -132 -140 -132c-56 0 -115 25 -129 101l65 9c8 -35 34 -52 65 -52c44 0 72 32 72 72c0 42 -29 65 -69 65h-38v55h32c41 0 70 24 70 58c0 33 -29 57 -65 57 c-25 0 -54 -19 -64 -53l-65 9c13 60 67 103 129 103c92 0 131 -54 131 -115c0 -30 -12 -62 -49 -85c40 -25 55 -61 55 -92z" />
<glyph unicode="&#x2154;" horiz-adv-x="788" d="M647 713l-426 -730h-61l425 730h62zM279 279h-261v57l173 200c16 18 24 34 24 52c0 26 -21 51 -61 51c-34 0 -61 -26 -67 -64l-66 9c10 70 68 114 134 114c72 0 129 -37 129 -109c0 -26 -12 -59 -34 -84c-48 -54 -97 -109 -145 -165h174v-61zM770 128 c0 -77 -57 -132 -140 -132c-56 0 -115 25 -129 101l65 9c8 -35 34 -52 65 -52c44 0 72 32 72 72c0 42 -29 65 -69 65h-38v55h32c41 0 70 24 70 58c0 33 -29 57 -65 57c-25 0 -54 -19 -64 -53l-65 9c13 60 67 103 129 103c92 0 131 -54 131 -115c0 -30 -12 -62 -49 -85 c40 -25 55 -61 55 -92z" />
<glyph unicode="&#x2155;" horiz-adv-x="788" d="M580 713l-426 -730h-61l425 730h62zM195 696v-417h-66v347l-58 -38v66l61 42h63zM716 160v-26c0 -77 -46 -137 -137 -137c-63 0 -117 23 -133 100l66 10c8 -38 35 -54 67 -54c63 0 72 55 72 93c0 40 -11 80 -67 80c-24 0 -45 -13 -60 -35h-62v226h245v-59h-182v-92 c25 16 49 19 73 19c77 0 118 -51 118 -125z" />
<glyph unicode="&#x2156;" horiz-adv-x="788" d="M638 713l-426 -730h-61l425 730h62zM278 279h-261v57l173 200c16 18 24 34 24 52c0 26 -21 51 -61 51c-34 0 -61 -26 -67 -64l-66 9c10 70 68 114 134 114c72 0 129 -37 129 -109c0 -26 -12 -59 -34 -84c-48 -54 -97 -109 -145 -165h174v-61zM771 160v-26 c0 -77 -46 -137 -137 -137c-63 0 -117 23 -133 100l66 10c8 -38 35 -54 67 -54c63 0 72 55 72 93c0 40 -11 80 -67 80c-24 0 -45 -13 -60 -35h-62v226h245v-59h-182v-92c25 16 49 19 73 19c77 0 118 -51 118 -125z" />
<glyph unicode="&#x2157;" horiz-adv-x="788" d="M628 713l-426 -730h-61l425 730h62zM286 407c0 -77 -57 -132 -140 -132c-56 0 -115 25 -129 101l65 9c8 -35 34 -52 65 -52c44 0 72 32 72 72c0 42 -29 65 -69 65h-38v55h32c41 0 70 24 70 58c0 33 -29 57 -65 57c-25 0 -54 -19 -64 -53l-65 9c13 60 67 103 129 103 c92 0 131 -54 131 -115c0 -30 -12 -62 -49 -85c40 -25 55 -61 55 -92zM771 160v-26c0 -77 -46 -137 -137 -137c-63 0 -117 23 -133 100l66 10c8 -38 35 -54 67 -54c63 0 72 55 72 93c0 40 -11 80 -67 80c-24 0 -45 -13 -60 -35h-62v226h245v-59h-182v-92c25 16 49 19 73 19 c77 0 118 -51 118 -125z" />
<glyph unicode="&#x2158;" horiz-adv-x="788" d="M649 713l-426 -730h-61l425 730h62zM300 341h-36v-62h-66v62h-192v54l155 301h72l-154 -297h119v118h66v-118h36v-58zM781 160v-26c0 -77 -46 -137 -137 -137c-63 0 -117 23 -133 100l66 10c8 -38 35 -54 67 -54c63 0 72 55 72 93c0 40 -11 80 -67 80 c-24 0 -45 -13 -60 -35h-62v226h245v-59h-182v-92c25 16 49 19 73 19c77 0 118 -51 118 -125z" />
<glyph unicode="&#x2159;" horiz-adv-x="788" d="M614 713l-426 -730h-61l425 730h62zM195 696v-417h-66v347l-58 -38v66l61 42h63zM717 128c0 -92 -66 -132 -136 -132c-76 0 -130 43 -130 128c0 24 7 56 24 89l117 204h73l-95 -173c9 2 20 3 28 3c71 0 119 -54 119 -119zM649 125c0 43 -30 67 -66 67 c-33 0 -66 -24 -66 -67c0 -44 25 -71 66 -71c38 0 66 28 66 71z" />
<glyph unicode="&#x215a;" horiz-adv-x="788" d="M662 713l-426 -730h-61l425 730h62zM287 439v-26c0 -77 -46 -137 -137 -137c-63 0 -117 23 -133 100l66 10c8 -38 35 -54 67 -54c63 0 72 55 72 93c0 40 -11 80 -67 80c-24 0 -45 -13 -60 -35h-62v226h245v-59h-182v-92c25 16 49 19 73 19c77 0 118 -51 118 -125z M771 128c0 -92 -66 -132 -136 -132c-76 0 -130 43 -130 128c0 24 7 56 24 89l117 204h73l-95 -173c9 2 20 3 28 3c71 0 119 -54 119 -119zM703 125c0 43 -30 67 -66 67c-33 0 -66 -24 -66 -67c0 -44 25 -71 66 -71c38 0 66 28 66 71z" />
<glyph unicode="&#x215b;" horiz-adv-x="788" d="M589 713l-426 -730h-61l425 730h62zM190 696v-417h-66v347l-58 -38v66l61 42h63zM721 122c0 -74 -64 -126 -140 -126s-140 52 -140 126c0 35 19 73 55 93c-34 19 -46 52 -46 84c0 68 56 121 131 121c82 0 132 -53 132 -121c0 -33 -16 -64 -45 -83c37 -20 53 -58 53 -94z M656 123c0 37 -36 64 -75 64c-38 0 -75 -27 -75 -64c0 -38 37 -68 75 -68c39 0 75 30 75 68zM647 300c0 39 -33 61 -66 61s-66 -22 -66 -61c0 -38 33 -59 66 -59s66 21 66 59z" />
<glyph unicode="&#x215c;" horiz-adv-x="788" d="M635 713l-426 -730h-61l425 730h62zM285 407c0 -77 -57 -132 -140 -132c-56 0 -115 25 -129 101l65 9c8 -35 34 -52 65 -52c44 0 72 32 72 72c0 42 -29 65 -69 65h-38v55h32c41 0 70 24 70 58c0 33 -29 57 -65 57c-25 0 -54 -19 -64 -53l-65 9c13 60 67 103 129 103 c92 0 131 -54 131 -115c0 -30 -12 -62 -49 -85c40 -25 55 -61 55 -92zM771 122c0 -74 -64 -126 -140 -126s-140 52 -140 126c0 35 19 73 55 93c-34 19 -46 52 -46 84c0 68 56 121 131 121c82 0 132 -53 132 -121c0 -33 -16 -64 -45 -83c37 -20 53 -58 53 -94zM706 123 c0 37 -36 64 -75 64c-38 0 -75 -27 -75 -64c0 -38 37 -68 75 -68c39 0 75 30 75 68zM697 300c0 39 -33 61 -66 61s-66 -22 -66 -61c0 -38 33 -59 66 -59s66 21 66 59z" />
<glyph unicode="&#x215d;" horiz-adv-x="788" d="M637 713l-426 -730h-61l425 730h62zM282 439v-26c0 -77 -46 -137 -137 -137c-63 0 -117 23 -133 100l66 10c8 -38 35 -54 67 -54c63 0 72 55 72 93c0 40 -11 80 -67 80c-24 0 -45 -13 -60 -35h-62v226h245v-59h-182v-92c25 16 49 19 73 19c77 0 118 -51 118 -125z M775 122c0 -74 -64 -126 -140 -126s-140 52 -140 126c0 35 19 73 55 93c-34 19 -46 52 -46 84c0 68 56 121 131 121c82 0 132 -53 132 -121c0 -33 -16 -64 -45 -83c37 -20 53 -58 53 -94zM710 123c0 37 -36 64 -75 64c-38 0 -75 -27 -75 -64c0 -38 37 -68 75 -68 c39 0 75 30 75 68zM701 300c0 39 -33 61 -66 61s-66 -22 -66 -61c0 -38 33 -59 66 -59s66 21 66 59z" />
<glyph unicode="&#x215e;" horiz-adv-x="788" d="M610 713l-426 -730h-61l425 730h62zM276 638l-156 -359h-72l155 356h-122v-61h-66v122h261v-58zM772 122c0 -74 -64 -126 -140 -126s-140 52 -140 126c0 35 19 73 55 93c-34 19 -46 52 -46 84c0 68 56 121 131 121c82 0 132 -53 132 -121c0 -33 -16 -64 -45 -83 c37 -20 53 -58 53 -94zM707 123c0 37 -36 64 -75 64c-38 0 -75 -27 -75 -64c0 -38 37 -68 75 -68c39 0 75 30 75 68zM698 300c0 39 -33 61 -66 61s-66 -22 -66 -61c0 -38 33 -59 66 -59s66 21 66 59z" />
<glyph unicode="&#x215f;" horiz-adv-x="380" d="M575 713l-426 -730h-61l425 730h62zM181 696v-417h-66v347l-58 -38v66l61 42h63z" />
<glyph unicode="&#x207a;" horiz-adv-x="325" d="M310 521h-121v-112h-53v112h-121v50h121v110h53v-110h121v-50z" />
<glyph unicode="&#x207b;" horiz-adv-x="255" d="M226 502h-197v57h197v-57z" />
<glyph unicode="&#x207c;" horiz-adv-x="325" d="M310 464h-295v53h295v-53zM310 576h-295v52h295v-52z" />
<glyph unicode="&#x207f;" horiz-adv-x="362" d="M319 279h-66v195c0 46 -26 73 -72 73c-42 0 -73 -28 -73 -73v-195h-66v327h66v-40c26 32 55 44 91 44c61 0 120 -41 120 -114v-217z" />
<glyph unicode="&#x208a;" horiz-adv-x="325" d="M310 62h-121v-112h-53v112h-121v50h121v110h53v-110h121v-50z" />
<glyph unicode="&#x208b;" horiz-adv-x="255" d="M226 43h-197v57h197v-57z" />
<glyph unicode="&#x208c;" horiz-adv-x="325" d="M310 5h-295v53h295v-53zM310 117h-295v52h295v-52z" />
<glyph unicode="&#xe06c;" horiz-adv-x="339" d="M167 610c76 0 141 -22 141 -107v-224h-66v42c-20 -26 -52 -46 -94 -46c-79 0 -120 41 -120 100c0 52 37 98 112 98h102v31c0 31 -22 47 -73 47c-41 0 -64 -12 -80 -29l-42 41c27 31 73 47 120 47zM91 378c0 -28 22 -45 68 -45c42 0 83 11 83 54v32h-88 c-40 0 -63 -15 -63 -41z" />
<glyph unicode="&#xe06d;" horiz-adv-x="342" d="M317 448c0 -83 -19 -173 -125 -173c-37 0 -68 16 -89 46v-42h-65v475h65v-181c25 27 59 37 89 37c99 0 124 -83 125 -162zM249 443c0 49 -8 104 -73 104c-64 0 -73 -58 -73 -104c0 -45 8 -110 73 -110c66 0 73 62 73 110z" />
<glyph unicode="&#xe06f;" horiz-adv-x="342" d="M309 279h-66v42c-22 -27 -53 -46 -89 -46c-100 0 -125 84 -125 165c0 84 26 170 136 170c31 0 55 -8 78 -28v172h66v-475zM243 443c0 46 -9 104 -73 104c-66 0 -73 -55 -73 -104c0 -48 7 -106 73 -106c65 0 73 61 73 106z" />
<glyph unicode="&#xe070;" horiz-adv-x="332" d="M309 420h-217c0 -47 28 -86 83 -86c21 0 52 12 77 32l42 -45c-35 -32 -79 -46 -122 -46c-71 0 -148 32 -148 167c0 129 80 168 146 168c77 0 139 -53 139 -144v-46zM167 551c-40 0 -69 -29 -75 -77h149c-5 50 -33 77 -74 77z" />
<glyph unicode="&#xe073;" horiz-adv-x="349" d="M313 279h-66v195c0 46 -17 74 -66 74c-42 0 -80 -28 -80 -74v-195h-65v475h65v-183c25 25 55 39 92 39c67 0 120 -38 120 -115v-216z" />
<glyph unicode="&#xe074;" horiz-adv-x="155" d="M111 279h-67v327h67v-327zM111 672h-67v62h67v-62z" />
<glyph unicode="&#xe077;" horiz-adv-x="168" d="M159 279h-28c-53 0 -88 21 -88 79v396h65v-392c0 -16 10 -25 30 -25h21v-58z" />
<glyph unicode="&#xe078;" horiz-adv-x="564" d="M526 279h-66v195c0 46 -25 73 -73 73c-41 0 -71 -27 -71 -73v-195h-68v195c0 46 -23 73 -72 73c-42 0 -72 -27 -72 -73v-195h-67v327h67v-34c26 28 57 38 90 38c44 0 76 -17 101 -42c30 33 66 42 110 42c56 0 121 -41 121 -114v-217z" />
<glyph unicode="&#xe079;" horiz-adv-x="355" d="M181 609c50 0 92 -19 116 -55c17 -24 24 -58 24 -100c0 -45 -6 -91 -23 -119c-23 -37 -64 -60 -124 -60c-51 0 -92 18 -115 50c-19 28 -27 66 -27 117c0 35 4 66 18 92c23 48 71 75 131 75zM179 552c-31 0 -56 -16 -69 -42c-9 -19 -12 -42 -12 -69s1 -49 10 -67 c12 -26 36 -41 67 -41c34 0 61 16 74 53c5 15 6 33 6 66c0 23 -2 42 -9 57c-12 29 -36 43 -67 43z" />
<glyph unicode="&#xe07c;" horiz-adv-x="252" d="M259 594l-27 -60c-17 9 -35 14 -51 14c-41 0 -72 -24 -72 -72v-197h-65v327h64v-45c24 33 55 49 90 49c23 -1 46 -7 61 -16z" />
<glyph unicode="&#xe07d;" horiz-adv-x="325" d="M302 375c0 -61 -62 -100 -145 -100c-51 0 -102 17 -146 52l40 49c32 -28 68 -45 112 -45c37 0 72 14 72 46c0 24 -24 38 -69 42c-63 6 -139 16 -139 91c0 66 54 100 130 100c55 0 95 -15 130 -38l-31 -48c-29 17 -62 29 -97 29c-44 0 -65 -19 -65 -43 c0 -27 44 -30 77 -34c61 -7 132 -25 131 -101z" />
<glyph unicode="&#xe07e;" horiz-adv-x="206" d="M189 279h-46c-48 0 -82 29 -82 79v193h-41v55h41v79h65v-79h52v-55h-52v-180c0 -18 5 -35 28 -35h35v-57z" />
<glyph unicode="&#x2030;" horiz-adv-x="1101" d="M736 117c0 -77 -61 -121 -130 -121s-130 44 -130 121v183c0 75 61 120 130 120s130 -45 130 -120v-183zM671 121v175c0 39 -26 63 -65 63s-65 -24 -65 -63v-175c0 -41 26 -64 65 -64s65 23 65 64zM312 396c0 -77 -61 -121 -130 -121s-130 44 -130 121v183 c0 75 61 120 130 120s130 -45 130 -120v-183zM247 400v175c0 39 -26 63 -65 63s-65 -24 -65 -63v-175c0 -41 26 -64 65 -64s65 23 65 64zM638 713l-426 -730h-61l425 730h62zM1049 117c0 -77 -61 -121 -130 -121s-130 44 -130 121v183c0 75 61 120 130 120s130 -45 130 -120 v-183zM984 121v175c0 39 -26 63 -65 63s-65 -24 -65 -63v-175c0 -41 26 -64 65 -64s65 23 65 64z" />
<glyph unicode="&#xe2f4;" horiz-adv-x="314" d="M288 117c0 -77 -61 -121 -130 -121s-130 44 -130 121v183c0 75 61 120 130 120s130 -45 130 -120v-183zM223 121v175c0 39 -26 63 -65 63s-65 -24 -65 -63v-175c0 -41 26 -64 65 -64s65 23 65 64z" />
<glyph unicode="&#xe2f5;" horiz-adv-x="271" d="M181 417v-417h-66v347l-58 -38v66l61 42h63z" />
<glyph unicode="&#xe2f6;" horiz-adv-x="311" d="M284 0h-261v57l173 200c16 18 24 34 24 52c0 26 -21 51 -61 51c-34 0 -61 -26 -67 -64l-66 9c10 70 68 114 134 114c72 0 129 -37 129 -109c0 -26 -12 -59 -34 -84c-48 -54 -97 -109 -145 -165h174v-61z" />
<glyph unicode="&#xe2f7;" horiz-adv-x="315" d="M290 128c0 -77 -57 -132 -140 -132c-56 0 -115 25 -129 101l65 9c8 -35 34 -52 65 -52c44 0 72 32 72 72c0 42 -29 65 -69 65h-38v55h32c41 0 70 24 70 58c0 33 -29 57 -65 57c-25 0 -54 -19 -64 -53l-65 9c13 60 67 103 129 103c92 0 131 -54 131 -115 c0 -30 -12 -62 -49 -85c40 -25 55 -61 55 -92z" />
<glyph unicode="&#xe2f8;" horiz-adv-x="322" d="M308 62h-36v-62h-66v62h-192v54l155 301h72l-154 -297h119v118h66v-118h36v-58z" />
<glyph unicode="&#xe2f9;" horiz-adv-x="307" d="M283 160v-26c0 -77 -46 -137 -137 -137c-63 0 -117 23 -133 100l66 10c8 -38 35 -54 67 -54c63 0 72 55 72 93c0 40 -11 80 -67 80c-24 0 -45 -13 -60 -35h-62v226h245v-59h-182v-92c25 16 49 19 73 19c77 0 118 -51 118 -125z" />
<glyph unicode="&#xe2fa;" horiz-adv-x="311" d="M289 128c0 -92 -66 -132 -136 -132c-76 0 -130 43 -130 128c0 24 7 56 24 89l117 204h73l-95 -173c9 2 20 3 28 3c71 0 119 -54 119 -119zM221 125c0 43 -30 67 -66 67c-33 0 -66 -24 -66 -67c0 -44 25 -71 66 -71c38 0 66 28 66 71z" />
<glyph unicode="&#xe2fb;" horiz-adv-x="284" d="M275 359l-156 -359h-72l155 356h-122v-61h-66v122h261v-58z" />
<glyph unicode="&#xe2fc;" horiz-adv-x="315" d="M297 122c0 -74 -64 -126 -140 -126s-140 52 -140 126c0 35 19 73 55 93c-34 19 -46 52 -46 84c0 68 56 121 131 121c82 0 132 -53 132 -121c0 -33 -16 -64 -45 -83c37 -20 53 -58 53 -94zM232 123c0 37 -36 64 -75 64c-38 0 -75 -27 -75 -64c0 -38 37 -68 75 -68 c39 0 75 30 75 68zM223 300c0 39 -33 61 -66 61s-66 -22 -66 -61c0 -38 33 -59 66 -59s66 21 66 59z" />
<glyph unicode="&#xe2fd;" horiz-adv-x="307" d="M21 285c0 95 65 135 137 135c64 0 130 -44 130 -128c0 -21 -7 -51 -17 -69l-127 -224h-73l99 176c-11 -3 -19 -3 -29 -3c-71 0 -120 47 -120 113zM87 291c0 -43 31 -67 67 -67s66 24 66 67s-25 71 -66 71c-38 0 -67 -29 -67 -71z" />
<glyph unicode="&#xe2fe;" horiz-adv-x="189" d="M190 -46l-36 -26c-69 67 -126 156 -126 255c0 101 57 190 122 254l42 -22c-56 -67 -93 -152 -93 -229c0 -83 38 -168 91 -232z" />
<glyph unicode="&#xe2ff;" horiz-adv-x="189" d="M42 -72l-38 26c54 65 92 150 92 232c0 76 -35 162 -92 229l40 22c66 -64 124 -153 124 -254c0 -99 -60 -190 -126 -255z" />
<glyph unicode="&#xe300;" horiz-adv-x="164" d="M117 7l-38 -73h-45l19 66h-15v77h79v-70z" />
<glyph unicode="&#xe301;" horiz-adv-x="158" d="M118 0h-78v77h78v-77z" />
<glyph unicode="&#xe2d0;" horiz-adv-x="314" d="M288 396c0 -77 -61 -121 -130 -121s-130 44 -130 121v183c0 75 61 120 130 120s130 -45 130 -120v-183zM223 400v175c0 39 -26 63 -65 63s-65 -24 -65 -63v-175c0 -41 26 -64 65 -64s65 23 65 64z" />
<glyph unicode="&#xe2d1;" horiz-adv-x="271" d="M181 696v-417h-66v347l-58 -38v66l61 42h63z" />
<glyph unicode="&#xe2d2;" horiz-adv-x="311" d="M284 279h-261v57l173 200c16 18 24 34 24 52c0 26 -21 51 -61 51c-34 0 -61 -26 -67 -64l-66 9c10 70 68 114 134 114c72 0 129 -37 129 -109c0 -26 -12 -59 -34 -84c-48 -54 -97 -109 -145 -165h174v-61z" />
<glyph unicode="&#xe2d3;" horiz-adv-x="315" d="M290 407c0 -77 -57 -132 -140 -132c-56 0 -115 25 -129 101l65 9c8 -35 34 -52 65 -52c44 0 72 32 72 72c0 42 -29 65 -69 65h-38v55h32c41 0 70 24 70 58c0 33 -29 57 -65 57c-25 0 -54 -19 -64 -53l-65 9c13 60 67 103 129 103c92 0 131 -54 131 -115 c0 -30 -12 -62 -49 -85c40 -25 55 -61 55 -92z" />
<glyph unicode="&#xe2d4;" horiz-adv-x="322" d="M308 341h-36v-62h-66v62h-192v54l155 301h72l-154 -297h119v118h66v-118h36v-58z" />
<glyph unicode="&#xe2d5;" horiz-adv-x="307" d="M283 439v-26c0 -77 -46 -137 -137 -137c-63 0 -117 23 -133 100l66 10c8 -38 35 -54 67 -54c63 0 72 55 72 93c0 40 -11 80 -67 80c-24 0 -45 -13 -60 -35h-62v226h245v-59h-182v-92c25 16 49 19 73 19c77 0 118 -51 118 -125z" />
<glyph unicode="&#xe2d6;" horiz-adv-x="311" d="M289 407c0 -92 -66 -132 -136 -132c-76 0 -130 43 -130 128c0 24 7 56 24 89l117 204h73l-95 -173c9 2 20 3 28 3c71 0 119 -54 119 -119zM221 404c0 43 -30 67 -66 67c-33 0 -66 -24 -66 -67c0 -44 25 -71 66 -71c38 0 66 28 66 71z" />
<glyph unicode="&#xe2d7;" horiz-adv-x="284" d="M275 638l-156 -359h-72l155 356h-122v-61h-66v122h261v-58z" />
<glyph unicode="&#xe2d8;" horiz-adv-x="315" d="M297 401c0 -74 -64 -126 -140 -126s-140 52 -140 126c0 35 19 73 55 93c-34 19 -46 52 -46 84c0 68 56 121 131 121c82 0 132 -53 132 -121c0 -33 -16 -64 -45 -83c37 -20 53 -58 53 -94zM232 402c0 37 -36 64 -75 64c-38 0 -75 -27 -75 -64c0 -38 37 -68 75 -68 c39 0 75 30 75 68zM223 579c0 39 -33 61 -66 61s-66 -22 -66 -61c0 -38 33 -59 66 -59s66 21 66 59z" />
<glyph unicode="&#xe2d9;" horiz-adv-x="307" d="M21 564c0 95 65 135 137 135c64 0 130 -44 130 -128c0 -21 -7 -51 -17 -69l-127 -224h-73l99 176c-11 -3 -19 -3 -29 -3c-71 0 -120 47 -120 113zM87 570c0 -43 31 -67 67 -67s66 24 66 67s-25 71 -66 71c-38 0 -67 -29 -67 -71z" />
<glyph unicode="&#xe2da;" horiz-adv-x="189" d="M190 233l-36 -26c-69 67 -126 156 -126 255c0 101 57 190 122 254l42 -22c-56 -67 -93 -152 -93 -229c0 -83 38 -168 91 -232z" />
<glyph unicode="&#xe2db;" horiz-adv-x="189" d="M42 207l-38 26c54 65 92 150 92 232c0 76 -35 162 -92 229l40 22c66 -64 124 -153 124 -254c0 -99 -60 -190 -126 -255z" />
<glyph unicode="&#xe2dc;" horiz-adv-x="164" d="M117 286l-38 -73h-45l19 66h-15v77h79v-70z" />
<glyph unicode="&#xe2dd;" horiz-adv-x="158" d="M118 279h-78v77h78v-77z" />
<glyph unicode="&#x2070;" horiz-adv-x="314" d="M288 486c0 -77 -61 -121 -130 -121s-130 44 -130 121v183c0 75 61 120 130 120s130 -45 130 -120v-183zM223 490v175c0 39 -26 63 -65 63s-65 -24 -65 -63v-175c0 -41 26 -64 65 -64s65 23 65 64z" />
<glyph unicode="&#x2074;" horiz-adv-x="322" d="M308 431h-36v-62h-66v62h-192v54l155 301h72l-154 -297h119v118h66v-118h36v-58z" />
<glyph unicode="&#x2075;" horiz-adv-x="307" d="M283 529v-26c0 -77 -46 -137 -137 -137c-63 0 -117 23 -133 100l66 10c8 -38 35 -54 67 -54c63 0 72 55 72 93c0 40 -11 80 -67 80c-24 0 -45 -13 -60 -35h-62v226h245v-59h-182v-92c25 16 49 19 73 19c77 0 118 -51 118 -125z" />
<glyph unicode="&#x2076;" horiz-adv-x="311" d="M289 497c0 -92 -66 -132 -136 -132c-76 0 -130 43 -130 128c0 24 7 56 24 89l117 204h73l-95 -173c9 2 20 3 28 3c71 0 119 -54 119 -119zM221 494c0 43 -30 67 -66 67c-33 0 -66 -24 -66 -67c0 -44 25 -71 66 -71c38 0 66 28 66 71z" />
<glyph unicode="&#x2077;" horiz-adv-x="284" d="M275 728l-156 -359h-72l155 356h-122v-61h-66v122h261v-58z" />
<glyph unicode="&#x2078;" horiz-adv-x="315" d="M297 491c0 -74 -64 -126 -140 -126s-140 52 -140 126c0 35 19 73 55 93c-34 19 -46 52 -46 84c0 68 56 121 131 121c82 0 132 -53 132 -121c0 -33 -16 -64 -45 -83c37 -20 53 -58 53 -94zM232 492c0 37 -36 64 -75 64c-38 0 -75 -27 -75 -64c0 -38 37 -68 75 -68 c39 0 75 30 75 68zM223 669c0 39 -33 61 -66 61s-66 -22 -66 -61c0 -38 33 -59 66 -59s66 21 66 59z" />
<glyph unicode="&#x2079;" horiz-adv-x="307" d="M21 654c0 95 65 135 137 135c64 0 130 -44 130 -128c0 -21 -7 -51 -17 -69l-127 -224h-73l99 176c-11 -3 -19 -3 -29 -3c-71 0 -120 47 -120 113zM87 660c0 -43 31 -67 67 -67s66 24 66 67s-25 71 -66 71c-38 0 -67 -29 -67 -71z" />
<glyph unicode="&#x207d;" horiz-adv-x="189" d="M190 323l-36 -26c-69 67 -126 156 -126 255c0 101 57 190 122 254l42 -22c-56 -67 -93 -152 -93 -229c0 -83 38 -168 91 -232z" />
<glyph unicode="&#x207e;" horiz-adv-x="189" d="M42 297l-38 26c54 65 92 150 92 232c0 76 -35 162 -92 229l40 22c66 -64 124 -153 124 -254c0 -99 -60 -190 -126 -255z" />
<glyph unicode="&#x2080;" horiz-adv-x="314" d="M288 27c0 -77 -61 -121 -130 -121s-130 44 -130 121v183c0 75 61 120 130 120s130 -45 130 -120v-183zM223 31v175c0 39 -26 63 -65 63s-65 -24 -65 -63v-175c0 -41 26 -64 65 -64s65 23 65 64z" />
<glyph unicode="&#x2081;" horiz-adv-x="271" d="M181 327v-417h-66v347l-58 -38v66l61 42h63z" />
<glyph unicode="&#x2082;" horiz-adv-x="311" d="M284 -90h-261v57l173 200c16 18 24 34 24 52c0 26 -21 51 -61 51c-34 0 -61 -26 -67 -64l-66 9c10 70 68 114 134 114c72 0 129 -37 129 -109c0 -26 -12 -59 -34 -84c-48 -54 -97 -109 -145 -165h174v-61z" />
<glyph unicode="&#x2083;" horiz-adv-x="315" d="M290 38c0 -77 -57 -132 -140 -132c-56 0 -115 25 -129 101l65 9c8 -35 34 -52 65 -52c44 0 72 32 72 72c0 42 -29 65 -69 65h-38v55h32c41 0 70 24 70 58c0 33 -29 57 -65 57c-25 0 -54 -19 -64 -53l-65 9c13 60 67 103 129 103c92 0 131 -54 131 -115 c0 -30 -12 -62 -49 -85c40 -25 55 -61 55 -92z" />
<glyph unicode="&#x2084;" horiz-adv-x="322" d="M308 -28h-36v-62h-66v62h-192v54l155 301h72l-154 -297h119v118h66v-118h36v-58z" />
<glyph unicode="&#x2085;" horiz-adv-x="307" d="M283 70v-26c0 -77 -46 -137 -137 -137c-63 0 -117 23 -133 100l66 10c8 -38 35 -54 67 -54c63 0 72 55 72 93c0 40 -11 80 -67 80c-24 0 -45 -13 -60 -35h-62v226h245v-59h-182v-92c25 16 49 19 73 19c77 0 118 -51 118 -125z" />
<glyph unicode="&#x2086;" horiz-adv-x="311" d="M289 38c0 -92 -66 -132 -136 -132c-76 0 -130 43 -130 128c0 24 7 56 24 89l117 204h73l-95 -173c9 2 20 3 28 3c71 0 119 -54 119 -119zM221 35c0 43 -30 67 -66 67c-33 0 -66 -24 -66 -67c0 -44 25 -71 66 -71c38 0 66 28 66 71z" />
<glyph unicode="&#x2087;" horiz-adv-x="284" d="M275 269l-156 -359h-72l155 356h-122v-61h-66v122h261v-58z" />
<glyph unicode="&#x2088;" horiz-adv-x="315" d="M297 32c0 -74 -64 -126 -140 -126s-140 52 -140 126c0 35 19 73 55 93c-34 19 -46 52 -46 84c0 68 56 121 131 121c82 0 132 -53 132 -121c0 -33 -16 -64 -45 -83c37 -20 53 -58 53 -94zM232 33c0 37 -36 64 -75 64c-38 0 -75 -27 -75 -64c0 -38 37 -68 75 -68 c39 0 75 30 75 68zM223 210c0 39 -33 61 -66 61s-66 -22 -66 -61c0 -38 33 -59 66 -59s66 21 66 59z" />
<glyph unicode="&#x2089;" horiz-adv-x="307" d="M21 195c0 95 65 135 137 135c64 0 130 -44 130 -128c0 -21 -7 -51 -17 -69l-127 -224h-73l99 176c-11 -3 -19 -3 -29 -3c-71 0 -120 47 -120 113zM87 201c0 -43 31 -67 67 -67s66 24 66 67s-25 71 -66 71c-38 0 -67 -29 -67 -71z" />
<glyph unicode="&#x208d;" horiz-adv-x="189" d="M190 -106l-36 -26c-69 67 -126 156 -126 255c0 101 57 190 122 254l42 -22c-56 -67 -93 -152 -93 -229c0 -83 38 -168 91 -232z" />
<glyph unicode="&#x208e;" horiz-adv-x="189" d="M42 -132l-38 26c54 65 92 150 92 232c0 76 -35 162 -92 229l40 22c66 -64 124 -153 124 -254c0 -99 -60 -190 -126 -255z" />
<glyph unicode="%" horiz-adv-x="788" d="M736 117c0 -77 -61 -121 -130 -121s-130 44 -130 121v183c0 75 61 120 130 120s130 -45 130 -120v-183zM671 121v175c0 39 -26 63 -65 63s-65 -24 -65 -63v-175c0 -41 26 -64 65 -64s65 23 65 64zM312 396c0 -77 -61 -121 -130 -121s-130 44 -130 121v183 c0 75 61 120 130 120s130 -45 130 -120v-183zM247 400v175c0 39 -26 63 -65 63s-65 -24 -65 -63v-175c0 -41 26 -64 65 -64s65 23 65 64zM638 713l-426 -730h-61l425 730h62z" />
<glyph unicode="&#xbc;" horiz-adv-x="788" d="M212 696v-417h-66v347l-58 -38v66l61 42h63zM607 713l-426 -730h-61l425 730h62zM716 62h-36v-62h-66v62h-192v54l155 301h72l-154 -297h119v118h66v-118h36v-58z" />
<glyph unicode="&#xbd;" horiz-adv-x="788" d="M187 696v-417h-66v347l-58 -38v66l61 42h63zM576 713l-426 -730h-61l425 730h62zM702 0h-261v57l173 200c16 18 24 34 24 52c0 26 -21 51 -61 51c-34 0 -61 -26 -67 -64l-66 9c10 70 68 114 134 114c72 0 129 -37 129 -109c0 -26 -12 -59 -34 -84 c-48 -54 -97 -109 -145 -165h174v-61z" />
<glyph unicode="&#xbe;" horiz-adv-x="788" d="M314 407c0 -77 -57 -132 -140 -132c-56 0 -115 25 -129 101l65 9c8 -35 34 -52 65 -52c44 0 72 32 72 72c0 42 -29 65 -69 65h-38v55h32c41 0 70 24 70 58c0 33 -29 57 -65 57c-25 0 -54 -19 -64 -53l-65 9c13 60 67 103 129 103c92 0 131 -54 131 -115 c0 -30 -12 -62 -49 -85c40 -25 55 -61 55 -92zM676 713l-426 -730h-61l425 730h62zM781 62h-36v-62h-66v62h-192v54l155 301h72l-154 -297h119v118h66v-118h36v-58z" />
<glyph unicode="&#xb9;" horiz-adv-x="271" d="M181 786v-417h-66v347l-58 -38v66l61 42h63z" />
<glyph unicode="&#xb3;" horiz-adv-x="315" d="M290 497c0 -77 -57 -132 -140 -132c-56 0 -115 25 -129 101l65 9c8 -35 34 -52 65 -52c44 0 72 32 72 72c0 42 -29 65 -69 65h-38v55h32c41 0 70 24 70 58c0 33 -29 57 -65 57c-25 0 -54 -19 -64 -53l-65 9c13 60 67 103 129 103c92 0 131 -54 131 -115 c0 -30 -12 -62 -49 -85c40 -25 55 -61 55 -92z" />
<glyph unicode="&#xb2;" horiz-adv-x="311" d="M284 369h-261v57l173 200c16 18 24 34 24 52c0 26 -21 51 -61 51c-34 0 -61 -26 -67 -64l-66 9c10 70 68 114 134 114c72 0 129 -37 129 -109c0 -26 -12 -59 -34 -84c-48 -54 -97 -109 -145 -165h174v-61z" />
<glyph unicode="&#xaa;" horiz-adv-x="339" d="M167 610c76 0 141 -22 141 -107v-224h-66v42c-20 -26 -52 -46 -94 -46c-79 0 -120 41 -120 100c0 52 37 98 112 98h102v31c0 31 -22 47 -73 47c-41 0 -64 -12 -80 -29l-42 41c27 31 73 47 120 47zM91 378c0 -28 22 -45 68 -45c42 0 83 11 83 54v32h-88 c-40 0 -63 -15 -63 -41z" />
<glyph unicode="&#xba;" horiz-adv-x="355" d="M181 609c50 0 92 -19 116 -55c17 -24 24 -58 24 -100c0 -45 -6 -91 -23 -119c-23 -37 -64 -60 -124 -60c-51 0 -92 18 -115 50c-19 28 -27 66 -27 117c0 35 4 66 18 92c23 48 71 75 131 75zM179 552c-31 0 -56 -16 -69 -42c-9 -19 -12 -42 -12 -69s1 -49 10 -67 c12 -26 36 -41 67 -41c34 0 61 16 74 53c5 15 6 33 6 66c0 23 -2 42 -9 57c-12 29 -36 43 -67 43z" />
<glyph unicode="&#xe360;" horiz-adv-x="413" d="M413 279h-75l-37 103h-190l-37 -103h-75l177 455h61zM280 440l-48 129l-27 70c-10 -27 -20 -51 -29 -78l-44 -121h148z" />
<glyph unicode="&#xe361;" horiz-adv-x="413" d="M389 407c0 -78 -63 -128 -135 -128h-205v455h185c94 0 144 -49 144 -121c0 -33 -15 -72 -61 -98c48 -18 72 -65 72 -108zM237 483h-118v-142h118c56 0 83 35 83 71c0 37 -27 71 -83 71zM226 675h-107v-134h107c55 0 83 31 83 68s-28 66 -83 66z" />
<glyph unicode="&#xe362;" horiz-adv-x="426" d="M49 734h161c71 0 134 -26 165 -84c18 -36 20 -81 20 -135c0 -63 -1 -110 -17 -144c-33 -70 -102 -92 -180 -92h-149v455zM325 462v86c0 94 -49 125 -118 125h-88v-332h88c86 0 118 47 118 121z" />
<glyph unicode="&#xe363;" horiz-adv-x="375" d="M359 279h-310v455h310v-61h-240v-134h204v-60h-204v-138h240v-62z" />
<glyph unicode="&#xe364;" horiz-adv-x="439" d="M389 279h-69v200h-201v-200h-70v455h70v-195h201v195h69v-455z" />
<glyph unicode="&#xe365;" horiz-adv-x="166" d="M117 279h-70v455h70v-455z" />
<glyph unicode="&#xe366;" horiz-adv-x="375" d="M359 279h-310v455h70v-393h240v-62z" />
<glyph unicode="&#xe367;" horiz-adv-x="516" d="M473 279h-69v308l-30 -67l-82 -175h-61l-84 177l-27 61v-304h-70v455h68l102 -217l44 -90c14 30 29 62 42 93l100 214h67v-455z" />
<glyph unicode="&#xe368;" horiz-adv-x="464" d="M415 279h-66l-173 253l-56 84v-337h-70v455h67l168 -244l61 -92v336h69v-455z" />
<glyph unicode="&#xe369;" horiz-adv-x="411" d="M205 738c107 0 174 -72 174 -169v-123c0 -105 -69 -171 -174 -171c-116 0 -173 78 -173 171v123c0 90 57 169 173 169zM206 675c-71 0 -105 -54 -105 -108v-118c0 -57 34 -112 105 -112c63 0 103 48 103 112v118c0 59 -39 108 -103 108z" />
<glyph unicode="&#xe36a;" horiz-adv-x="413" d="M390 279h-79l-93 196h-98v-196h-70v455h198c85 0 142 -51 142 -126c0 -60 -40 -110 -100 -126zM320 608c0 48 -34 67 -83 67h-117v-141h115c48 0 85 27 85 74z" />
<glyph unicode="&#xe36b;" horiz-adv-x="387" d="M364 406c0 -82 -68 -131 -171 -131c-70 0 -130 19 -182 60l42 50c39 -27 90 -45 140 -45c60 0 99 25 99 66c0 48 -54 63 -98 70c-100 17 -164 46 -164 130c0 77 59 132 161 132c57 0 114 -15 159 -46l-39 -57c-37 22 -83 38 -124 38c-44 0 -85 -21 -85 -68 c0 -46 69 -59 117 -69c95 -19 145 -52 145 -130z" />
<glyph unicode="&#xe36c;" horiz-adv-x="335" d="M338 675h-135v-396h-70v396h-135v59h340v-59z" />
<glyph unicode="&#x1a0;" horiz-adv-x="595" d="M297 701c60 0 112 -17 152 -47c43 5 57 30 57 99v21h77v-33c0 -77 -25 -126 -78 -148c26 -41 40 -92 40 -149v-192c0 -158 -97 -258 -248 -258c-166 0 -247 119 -247 258v192c0 136 81 257 247 257zM298 618c-108 0 -161 -87 -161 -176v-185c0 -92 53 -181 161 -181 c98 0 159 78 159 181v185c0 97 -60 176 -159 176z" />
<glyph unicode="&#x1af;" horiz-adv-x="664" d="M469 696h88v-42c43 5 57 30 57 99v21h77v-33c0 -99 -41 -153 -134 -159v-330c0 -158 -97 -258 -248 -258c-166 0 -247 119 -247 258v444h87v-437c0 -92 53 -181 161 -181c98 0 159 65 159 181v437z" />
<glyph unicode="&#x1a1;" horiz-adv-x="537" d="M263 500c51 0 96 -16 130 -44c51 2 67 25 67 100v21h77v-33c0 -85 -30 -136 -97 -154c14 -33 21 -76 21 -125c0 -85 -8 -141 -31 -180c-34 -58 -100 -91 -178 -91c-71 0 -130 25 -164 75c-27 41 -37 98 -37 177c0 56 6 103 25 142c33 71 101 112 187 112zM260 426 c-49 0 -89 -26 -109 -70c-14 -30 -17 -67 -18 -111c0 -44 2 -79 15 -108c19 -43 56 -68 105 -68c53 0 98 27 117 88c7 24 8 52 8 105c0 38 -3 68 -13 92c-19 49 -58 72 -105 72z" />
<glyph unicode="&#x1b0;" horiz-adv-x="568" d="M449 0h-82v56h-3c-33 -43 -85 -62 -136 -62c-102 0 -172 50 -172 173v329h82v-298c0 -86 23 -126 114 -126c65 0 115 50 115 126v298h82v-39c43 5 57 30 57 99v21h77v-33c0 -99 -41 -153 -134 -159v-385z" />
<glyph unicode="&#x20ab;" d="M268 563v52h72v82h78v-82h44v-52h-44v-435h-78v42c-27 -34 -74 -47 -112 -47c-124 0 -153 98 -153 195c0 96 31 203 166 203c40 0 76 -16 99 -41v83h-72zM340 323c0 55 -12 130 -91 130c-82 0 -95 -74 -95 -133c0 -58 12 -129 95 -129c80 0 91 77 91 132zM76 0v69h363 v-69h-363z" />
<glyph unicode="&#xe071;" horiz-adv-x="332" d="M309 420h-217c0 -47 28 -86 83 -86c21 0 52 12 77 32l42 -45c-35 -32 -79 -46 -122 -46c-71 0 -148 32 -148 167c0 129 80 168 146 168c77 0 139 -53 139 -144v-46zM167 551c-40 0 -69 -29 -75 -77h149c-5 50 -33 77 -74 77zM208 665l-44 -15l-76 131l65 19z" />
<glyph unicode="&#xe374;" horiz-adv-x="375" d="M251 786l-29 -31l-121 69l45 44zM359 279h-310v455h310v-61h-240v-134h204v-60h-204v-138h240v-62z" />
<glyph unicode="&#x1e80;" horiz-adv-x="823" d="M410 532l-4 -1l-45 -172l-97 -359h-77l-175 696h96l78 -341l42 -188l4 -1l46 187l95 343h72l98 -349l48 -182h3c12 56 24 124 36 179l80 352h96l-176 -696h-76l-94 346zM461 780l-37 -42l-170 103l59 61z" />
<glyph unicode="&#x1e81;" horiz-adv-x="719" d="M511 118h5c11 39 22 82 32 120l72 258h91l-159 -496h-78l-74 239l-43 138l-40 -137l-74 -240h-79l-158 496h90l75 -261l32 -111h4c10 36 22 73 32 108l82 264h76l80 -261zM397 571l-53 -20l-100 172l81 25z" />
<glyph unicode="&#x1e82;" horiz-adv-x="823" d="M410 532l-4 -1l-45 -172l-97 -359h-77l-175 696h96l78 -341l42 -188l4 -1l46 187l95 343h72l98 -349l48 -182h3c12 56 24 124 36 179l80 352h96l-176 -696h-76l-94 346zM414 738l-37 42l148 122l59 -61z" />
<glyph unicode="&#x1e83;" horiz-adv-x="719" d="M511 118h5c11 39 22 82 32 120l72 258h91l-159 -496h-78l-74 239l-43 138l-40 -137l-74 -240h-79l-158 496h90l75 -261l32 -111h4c10 36 22 73 32 108l82 264h76l80 -261zM393 551l-53 20l72 177l81 -25z" />
<glyph unicode="&#x1e84;" horiz-adv-x="823" d="M410 532l-4 -1l-45 -172l-97 -359h-77l-175 696h96l78 -341l42 -188l4 -1l46 187l95 343h72l98 -349l48 -182h3c12 56 24 124 36 179l80 352h96l-176 -696h-76l-94 346zM363 770h-88v88h88v-88zM543 770h-88v88h88v-88z" />
<glyph unicode="&#x1e85;" horiz-adv-x="719" d="M511 118h5c11 39 22 82 32 120l72 258h91l-159 -496h-78l-74 239l-43 138l-40 -137l-74 -240h-79l-158 496h90l75 -261l32 -111h4c10 36 22 73 32 108l82 264h76l80 -261zM310 597h-88v88h88v-88zM490 597h-88v88h88v-88z" />
<glyph unicode="&#x1ef2;" horiz-adv-x="508" d="M504 696l-209 -420v-276h-84v276l-209 420h93l97 -193l62 -133l65 139l94 187h91zM330 780l-37 -42l-170 103l59 61z" />
<glyph unicode="&#x1ef3;" horiz-adv-x="438" d="M438 496l-213 -601c-29 -81 -77 -95 -131 -95h-42v72h41c27 0 48 13 62 56l27 82l-182 486h91l79 -225l51 -156h3l51 155l77 226h86zM269 571l-53 -20l-100 172l81 25z" />
<glyph unicode="&#x21a;" horiz-adv-x="486" d="M485 619h-198v-619h-88v619h-198v77h484v-77zM295 -167l-56 -90h-51l39 88h-35v111h103v-109z" />
<glyph unicode="&#x21b;" horiz-adv-x="298" d="M268 0h-59c-67 0 -115 41 -115 116v309h-59v71h59v123h82v-123h76v-71h-76v-289c0 -31 8 -62 49 -62h43v-74zM207 -167l-56 -90h-51l39 88h-35v111h103v-109z" />
</font>
</defs>
</svg>
