<?xml version="1.0" standalone="no"?>
<!DOCTYPE svg PUBLIC "-//W3C//DTD SVG 1.1//EN" "http://www.w3.org/Graphics/SVG/1.1/DTD/svg11.dtd" >
<svg xmlns="http://www.w3.org/2000/svg" xmlns:xlink="http://www.w3.org/1999/xlink" version="1.1">
<metadata></metadata>
<defs>
<font id="pf_dintext_stdbold" horiz-adv-x="550" >
<font-face units-per-em="1000" ascent="750" descent="-250" />
<missing-glyph horiz-adv-x="280" />
<glyph unicode="ff" horiz-adv-x="622" d="M296 732c38 0 78 -5 115 -19c27 22 64 33 105 33h96v-120h-68c-26 0 -39 -15 -39 -41v-90h97v-111h-97v-384h-142v384h-142v-384h-142v384h-56v111h56v42c0 131 89 195 217 195zM221 495h142v102c-19 7 -39 11 -63 11c-73 0 -79 -46 -79 -68v-45z" />
<glyph unicode="fi" horiz-adv-x="574" d="M20 494h56v60c0 131 97 185 217 185c68 0 141 -15 196 -73l-79 -95c-29 29 -65 44 -113 44c-70 0 -79 -46 -79 -68v-53h285v-494h-143v384h-142v-384h-142v384h-56v110z" />
<glyph unicode="fl" horiz-adv-x="593" d="M571 0h-51c-81 0 -153 29 -153 147v451c-33 10 -52 11 -70 11c-70 0 -79 -46 -79 -68v-47h98v-110h-98v-384h-142v384h-56v110h56v54c0 131 87 185 207 185c32 0 111 -1 227 -41v-518c0 -44 19 -50 45 -50h16v-124z" />
<glyph unicode="ffi" horiz-adv-x="849" d="M218 384v-384h-142v384h-56v110h56v40c0 131 97 185 217 185c43 0 88 -6 130 -26c39 31 94 46 156 46c68 0 141 -15 196 -73l-79 -95c-29 29 -65 44 -113 44c-70 0 -79 -46 -79 -68v-53h285v-494h-143v384h-142v-384h-142v384h-144zM218 494h144v60c0 10 0 19 1 28 c-19 8 -41 13 -66 13c-70 0 -79 -46 -79 -68v-33z" />
<glyph unicode="ffl" horiz-adv-x="849" d="M218 494h144c0 70 0 79 1 88c-19 8 -41 13 -66 13c-70 0 -79 -46 -79 -68v-33zM579 739c38 -1 111 -6 213 -41v-524c0 -44 19 -50 45 -50h16v-124h-51c-81 0 -153 29 -153 147v457c-33 10 -52 11 -66 11c-70 0 -79 -46 -79 -68v-53h91v-110h-91v-384h-142v384h-144v-384 h-142v384h-56v110h56v40c0 131 97 185 217 185c43 0 88 -6 130 -26c39 31 94 46 156 46z" />
<glyph unicode="ft" horiz-adv-x="609" d="M574 384h-73v-209c0 -42 14 -51 43 -51h31v-124h-77c-80 0 -140 49 -140 133v251h-140v-384h-142v384h-56v111h56v86c0 99 68 145 153 145h86v-120h-58c-26 0 -39 -15 -39 -41v-70h142v137h139v-136h75v-112z" />
<glyph unicode="fj" horiz-adv-x="574" d="M20 494h56v60c0 131 97 185 217 185c68 0 141 -15 196 -73l-79 -95c-29 29 -65 44 -113 44c-70 0 -79 -46 -79 -68v-53h285v-546c0 -89 -54 -148 -164 -148h-60v124h26c49 0 55 26 55 52v408h-142v-384h-142v384h-56v110z" />
<glyph unicode="ffj" horiz-adv-x="858" d="M216 384v-384h-142v384h-56v110h56v40c0 131 97 185 217 185c43 0 88 -6 130 -26c39 31 94 46 156 46c68 0 141 -15 196 -73l-79 -95c-29 29 -65 44 -113 44c-70 0 -79 -46 -79 -68v-53h285v-546c0 -89 -54 -148 -164 -148h-60v124h26c49 0 55 26 55 52v408h-142v-384 h-142v384h-144zM216 494h144v60c0 10 0 19 1 28c-19 8 -41 13 -66 13c-70 0 -79 -46 -79 -68v-33z" />
<glyph unicode="!" horiz-adv-x="294" d="M219 696l-10 -505h-123l-11 505h144zM221 0h-147v128h147v-128z" />
<glyph unicode="&#x22;" horiz-adv-x="409" d="M347 469h-124v227h124v-227zM177 469h-123v227h123v-227z" />
<glyph unicode="#" horiz-adv-x="592" d="M462 396l-15 -95h92v-98h-106l-29 -203h-121l30 203h-83l-30 -203h-122l30 203h-85v98h101l14 95h-87v99h102l30 201h118l-29 -201h85l30 201h118l-29 -201h91v-99h-105zM258 396l-15 -95h85l15 95h-85z" />
<glyph unicode="$" d="M247 -106v103c-82 5 -154 34 -230 104l86 110c52 -43 93 -65 144 -70v138c-100 37 -200 90 -200 210c0 115 79 198 200 210v67h55v-66c74 -3 140 -25 211 -74l-76 -127c-55 36 -92 54 -135 58v-131c144 -48 231 -107 231 -220c0 -130 -99 -204 -231 -210v-102h-55z M360 194c0 35 -21 53 -58 68v-120c41 7 58 27 58 52zM202 501c0 -22 19 -39 45 -53v106c-26 -7 -45 -22 -45 -53z" />
<glyph unicode="&#x26;" horiz-adv-x="662" d="M481 0l-43 57c-48 -40 -104 -63 -165 -63c-144 0 -208 90 -208 188c0 82 36 147 117 206l-13 16c-25 31 -46 70 -46 123c0 104 60 174 191 174c57 0 130 -13 195 -69l-77 -106c-51 43 -84 49 -119 49c-33 0 -57 -21 -57 -47c0 -22 6 -33 25 -58l158 -208 c11 25 20 61 25 95l126 -33c-11 -59 -35 -127 -65 -173l121 -151h-165zM361 155l-104 134c-36 -27 -61 -63 -61 -102c0 -37 27 -66 79 -66c32 0 62 15 86 34z" />
<glyph unicode="'" horiz-adv-x="260" d="M191 469h-123v227h123v-227z" />
<glyph unicode="(" horiz-adv-x="373" d="M352 -79l-83 -63c-113 122 -206 281 -206 447c0 170 91 322 202 443l86 -55c-94 -124 -137 -267 -137 -383c0 -127 49 -270 138 -389z" />
<glyph unicode=")" horiz-adv-x="373" d="M341 305c0 -166 -92 -325 -205 -447l-84 63c90 119 138 262 138 389c0 116 -42 259 -137 383l86 55c112 -121 202 -273 202 -443z" />
<glyph unicode="*" horiz-adv-x="464" d="M306 493l80 -89l-91 -65l-59 103l-63 -103l-90 65l82 89l-114 26l32 102l111 -46l-13 119h113l-14 -119l110 46l32 -102z" />
<glyph unicode="+" d="M531 240h-194v-186h-124v186h-194v116h194v183h124v-183h194v-116z" />
<glyph unicode="," horiz-adv-x="299" d="M136 -151h-73l38 150h-36v166h169v-158z" />
<glyph unicode="-" horiz-adv-x="440" d="M393 192h-346v131h346v-131z" />
<glyph unicode="." horiz-adv-x="297" d="M233 0h-169v165h169v-165z" />
<glyph unicode="/" horiz-adv-x="368" d="M357 725l-254 -767h-119l253 767h120z" />
<glyph unicode="1" d="M400 0h-147v531l-104 -72v154l120 83h131v-696z" />
<glyph unicode="2" d="M198 474l-144 24c14 125 110 203 220 203c127 0 224 -65 224 -198c0 -51 -18 -103 -49 -139l-198 -226h246v-138h-445v123l278 319c13 15 19 32 19 50c0 36 -26 71 -72 71c-39 0 -71 -25 -79 -89z" />
<glyph unicode="3" d="M45 178l142 20c8 -45 43 -65 84 -65c43 0 81 29 81 81c0 51 -29 87 -93 87h-60v115h62c64 0 88 36 88 75c0 41 -35 72 -78 72c-30 0 -67 -17 -76 -73l-141 25c24 119 120 186 223 186c158 0 229 -94 229 -201c0 -46 -35 -116 -93 -141c67 -28 97 -96 97 -147 c0 -128 -94 -217 -235 -217c-98 0 -203 51 -230 183z" />
<glyph unicode="4" d="M527 97h-56v-97h-147v97h-296v115l241 484h164l-235 -466h126v182h147v-182h56v-133z" />
<glyph unicode="5" d="M59 177l145 27c8 -56 39 -71 77 -71c67 0 79 65 79 117c0 57 -17 107 -79 107c-23 0 -54 -15 -73 -58h-134v397h414v-135h-273v-108c27 23 73 34 105 34c141 0 187 -93 192 -221c0 -167 -75 -271 -227 -271c-92 0 -202 35 -226 182z" />
<glyph unicode="6" d="M509 225c0 -163 -118 -230 -232 -230c-109 0 -217 78 -217 220c0 42 9 83 28 119l193 362h165l-145 -273l1 -2c129 13 207 -75 207 -196zM358 217c0 59 -35 85 -76 85c-40 0 -75 -26 -75 -85s30 -84 75 -84c34 0 76 24 76 84z" />
<glyph unicode="7" d="M496 573l-250 -573h-155l235 558h-126v-94h-147v232h443v-123z" />
<glyph unicode="8" d="M427 363v-4c63 -23 93 -93 93 -150c0 -129 -108 -214 -235 -214s-235 85 -235 214c0 56 27 124 92 149v5c-54 22 -78 81 -78 133c0 117 94 205 221 205c149 0 222 -88 222 -205c0 -53 -25 -106 -80 -133zM361 492c0 44 -28 78 -76 78c-47 0 -75 -31 -75 -78 c0 -46 35 -70 75 -70s76 27 76 70zM373 214c0 45 -40 80 -88 80c-47 0 -88 -35 -88 -80c0 -46 35 -85 88 -85c54 0 88 39 88 85z" />
<glyph unicode="9" d="M60 471c0 163 117 230 231 230c110 0 218 -78 218 -220c0 -42 -9 -83 -29 -119l-193 -362h-165l145 273l-1 2c-129 -13 -206 75 -206 196zM208 479c0 -59 34 -85 75 -85c40 0 76 26 76 85s-31 84 -76 84c-33 0 -75 -24 -75 -84z" />
<glyph unicode=":" horiz-adv-x="303" d="M236 0h-169v165h169v-165zM236 268h-169v165h169v-165z" />
<glyph unicode=";" horiz-adv-x="303" d="M236 268h-169v165h169v-165zM138 -151h-73l38 150h-36v166h169v-158z" />
<glyph unicode="&#x3c;" d="M529 17l-511 225v112l511 223v-131l-353 -149l353 -149v-131z" />
<glyph unicode="=" d="M532 357h-514v111h514v-111zM532 128h-514v111h514v-111z" />
<glyph unicode="&#x3e;" d="M530 242l-511 -225v131l353 149l-353 149v131l511 -223v-112z" />
<glyph unicode="?" horiz-adv-x="522" d="M179 474l-146 17c13 134 121 210 231 210c138 0 220 -85 220 -198c0 -127 -149 -168 -149 -287v-22h-147v27c0 77 25 118 91 204c17 21 43 51 43 79c0 36 -32 59 -67 59c-44 0 -73 -25 -76 -89zM335 0h-147v128h147v-128z" />
<glyph unicode="@" horiz-adv-x="920" d="M627 401l-1 -143c0 -15 8 -42 40 -42c73 0 86 82 86 167c0 160 -123 262 -280 262c-181 0 -309 -142 -309 -315c0 -180 138 -303 321 -303c99 0 163 20 233 52l32 -87c-89 -35 -160 -55 -260 -55c-241 0 -426 144 -426 395c0 228 177 399 411 399 c222 0 377 -136 377 -346c0 -129 -47 -263 -198 -263c-36 0 -98 20 -116 65h-4c-17 -31 -61 -63 -113 -63c-79 0 -145 38 -145 125c0 70 53 127 148 127h92v13c0 18 -4 51 -69 51c-45 0 -63 -8 -92 -32l-56 75c50 44 102 58 161 58c85 0 169 -32 168 -140zM515 277v13h-77 c-42 0 -50 -18 -50 -31c0 -10 8 -38 56 -38c37 0 71 17 71 56z" />
<glyph unicode="A" horiz-adv-x="660" d="M659 0h-162l-52 142h-233l-52 -142h-162l270 696h121zM397 272l-26 80l-41 138h-4l-40 -136l-26 -82h137z" />
<glyph unicode="B" horiz-adv-x="637" d="M604 207c0 -125 -100 -207 -217 -207h-317v696h293c148 0 230 -81 230 -197c0 -50 -24 -107 -87 -136v-4c63 -23 98 -96 98 -152zM430 492c0 38 -24 66 -88 66h-118v-139h118c64 0 88 35 88 73zM446 214c0 39 -26 78 -91 78h-131v-154h131c65 0 91 36 91 76z" />
<glyph unicode="C" horiz-adv-x="600" d="M427 225l146 -56c-34 -109 -129 -175 -259 -175c-181 0 -269 113 -269 272v164c0 144 88 271 269 271c132 0 225 -71 259 -177l-146 -52c-11 48 -51 85 -114 85c-77 0 -113 -56 -113 -113v-189c0 -60 36 -117 113 -117c62 0 103 36 114 87z" />
<glyph unicode="D" horiz-adv-x="657" d="M224 557v-419h101c103 0 133 59 133 149v127c0 96 -39 143 -136 143h-98zM70 696h277c104 0 193 -38 237 -129c25 -51 27 -121 27 -207c0 -97 -2 -168 -25 -222c-46 -105 -144 -138 -256 -138h-260v696z" />
<glyph unicode="F" horiz-adv-x="566" d="M562 558h-338v-147h288v-133h-288v-278h-154v696h492v-138z" />
<glyph unicode="G" horiz-adv-x="637" d="M318 701c132 0 225 -71 259 -177l-146 -52c-11 48 -51 85 -114 85c-77 0 -113 -56 -113 -113v-189c0 -60 36 -118 114 -118c66 0 120 54 120 117v5h-142v128h294v-139c0 -146 -122 -254 -272 -254c-181 0 -269 113 -269 272v164c0 144 88 271 269 271z" />
<glyph unicode="H" horiz-adv-x="674" d="M604 0h-152v284h-228v-284h-154v696h154v-279h228v279h152v-696z" />
<glyph unicode="I" horiz-adv-x="294" d="M227 0h-154v696h154v-696z" />
<glyph unicode="J" horiz-adv-x="511" d="M448 225c0 -177 -111 -230 -234 -230c-82 0 -158 19 -211 93l103 101c35 -38 71 -54 99 -54c36 0 91 14 91 97v464h152v-471z" />
<glyph unicode="K" horiz-adv-x="657" d="M677 0h-182l-180 296l-91 -102v-194h-154v696h154v-298l2 -2l106 129l145 171h186l-244 -282z" />
<glyph unicode="L" horiz-adv-x="585" d="M562 0h-492v696h154v-558h338v-138z" />
<glyph unicode="M" horiz-adv-x="782" d="M721 0h-153v331l-3 1l-63 -141l-47 -98h-118l-49 103l-61 136l-3 -3v-329h-154v696h139l94 -202l90 -209h4l87 209l92 202h145v-696z" />
<glyph unicode="N" horiz-adv-x="710" d="M643 0h-137l-177 256l-103 166l-2 -1v-421h-154v696h137l146 -213l134 -209l2 1v421h154v-696z" />
<glyph unicode="O" horiz-adv-x="624" d="M310 701c168 0 273 -115 273 -271v-164c0 -166 -108 -272 -273 -272c-181 0 -269 127 -269 272v164c0 144 88 271 269 271zM309 557c-77 0 -113 -56 -113 -113v-189c0 -60 36 -117 113 -117c74 0 117 51 117 117v189c0 61 -43 113 -117 113z" />
<glyph unicode="P" horiz-adv-x="609" d="M601 472c0 -126 -108 -218 -241 -218h-136v-254h-154v696h287c147 0 244 -86 244 -224zM445 475c0 56 -35 83 -96 83h-125v-166h129c51 0 92 32 92 83z" />
<glyph unicode="Q" horiz-adv-x="637" d="M643 69l-84 -95l-81 63c-44 -28 -98 -43 -161 -43c-181 0 -269 127 -269 272v164c0 144 88 271 269 271c168 0 273 -115 273 -271v-164c0 -50 -10 -94 -28 -132zM316 557c-77 0 -113 -56 -113 -113v-189c0 -60 36 -117 113 -117c10 0 20 1 30 3l-70 55l84 101l72 -58 c0 5 1 10 1 16v189c0 61 -43 113 -117 113z" />
<glyph unicode="R" horiz-adv-x="652" d="M608 0h-174l-110 269h-100v-269h-154v696h308c122 0 225 -75 225 -209c0 -83 -44 -155 -128 -191zM443 486c0 52 -35 73 -87 73h-132v-152h127c56 0 92 27 92 79z" />
<glyph unicode="S" horiz-adv-x="594" d="M540 637l-71 -123c-66 42 -134 47 -171 47c-76 0 -92 -37 -92 -65c0 -44 31 -56 146 -74s215 -67 215 -208c0 -145 -139 -220 -275 -220c-94 0 -192 15 -284 96l89 118c65 -58 132 -73 203 -73c67 0 105 32 105 69c0 34 -11 68 -95 76c-132 13 -257 52 -257 208 c0 148 127 214 241 214c85 0 172 -16 246 -65z" />
<glyph unicode="T" horiz-adv-x="556" d="M541 558h-190v-558h-153v558h-190v138h533v-138z" />
<glyph unicode="U" horiz-adv-x="657" d="M600 243c0 -149 -122 -248 -271 -248c-150 0 -271 102 -271 257v444h153v-433c0 -79 53 -125 118 -125c67 0 117 39 117 116v442h154v-453z" />
<glyph unicode="V" horiz-adv-x="607" d="M605 696l-240 -696h-125l-241 696h162l89 -282l52 -177h5l49 174l88 285h161z" />
<glyph unicode="W" horiz-adv-x="854" d="M853 694l-186 -696h-124l-65 226l-49 190h-3l-50 -193l-64 -223h-125l-186 696h161l49 -206l44 -198h3l53 198l60 206h112l60 -205l53 -199h5l42 198l49 206h161z" />
<glyph unicode="X" horiz-adv-x="629" d="M626 0h-175l-139 226l-138 -226h-174l236 356l-223 340h175l124 -209l125 209h175l-223 -340z" />
<glyph unicode="Y" horiz-adv-x="605" d="M603 696l-225 -411v-285h-147v285l-224 411h165l71 -150l60 -135h4l59 134l72 151h165z" />
<glyph unicode="Z" horiz-adv-x="549" d="M520 0h-492v131l306 428h-293v137h479v-127l-305 -428h305v-141z" />
<glyph unicode="[" horiz-adv-x="314" d="M296 -95h-229v794h229v-106h-93v-583h93v-105z" />
<glyph unicode="\" horiz-adv-x="368" d="M239 -42l-254 767h120l253 -767h-119z" />
<glyph unicode="]" horiz-adv-x="314" d="M246 -95h-228v105h92v583h-92v106h228v-794z" />
<glyph unicode="^" d="M521 237h-130l-118 300l-119 -302h-130l194 460h112z" />
<glyph unicode="_" horiz-adv-x="500" d="M500 -160h-500v91h500v-91z" />
<glyph unicode="`" horiz-adv-x="516" d="M338 575l-81 -38l-146 186l134 46z" />
<glyph unicode="a" horiz-adv-x="516" d="M468 0h-142v46l-3 1c-35 -41 -89 -52 -122 -52c-96 0 -166 46 -166 152c0 84 64 153 179 153h112v16c0 22 -9 60 -83 60c-45 0 -84 -10 -117 -39l-69 97c60 54 131 66 201 66c115 0 210 -38 210 -169v-331zM326 180v16h-94c-51 0 -60 -22 -60 -37c0 -13 9 -46 68 -46 c44 0 86 20 86 67z" />
<glyph unicode="b" horiz-adv-x="533" d="M491 258c0 -107 -20 -263 -180 -263c-35 0 -80 15 -108 46l-2 -2v-39h-143v727h143v-272l2 -1c23 27 75 46 108 46c157 0 180 -140 180 -242zM345 248c0 53 -4 120 -73 120c-66 0 -71 -70 -71 -120c0 -48 4 -121 71 -121c70 0 73 70 73 121z" />
<glyph unicode="c" horiz-adv-x="463" d="M444 70c-54 -49 -119 -76 -187 -76c-123 0 -229 76 -229 253c0 178 114 253 237 253c67 0 125 -21 175 -72l-92 -97c-30 29 -58 41 -83 41c-57 0 -88 -36 -88 -125c0 -88 26 -123 85 -123c26 0 56 12 88 42z" />
<glyph unicode="d" horiz-adv-x="533" d="M483 0h-143v39l-2 2c-29 -31 -73 -46 -109 -46c-171 0 -180 156 -180 263c0 99 36 243 184 243c38 0 79 -15 105 -46l2 1v270h143v-726zM340 248c0 50 -5 120 -71 120c-72 0 -74 -79 -74 -133c0 -49 9 -108 73 -108c68 0 71 73 72 121z" />
<glyph unicode="e" horiz-adv-x="533" d="M489 210h-306c6 -64 35 -87 83 -87c25 0 71 9 112 46l88 -98c-63 -58 -141 -77 -204 -77c-109 0 -227 53 -227 252c0 187 115 254 226 254c157 0 228 -106 228 -255v-35zM335 302c-5 45 -37 71 -73 71s-67 -27 -74 -71h147z" />
<glyph unicode="f" horiz-adv-x="325" d="M315 384h-97v-384h-142v384h-56v111h56v86c0 99 68 145 153 145h86v-120h-58c-26 0 -39 -15 -39 -41v-70h97v-111z" />
<glyph unicode="g" horiz-adv-x="533" d="M474 495v-482c0 -158 -112 -220 -232 -220c-60 0 -125 13 -184 64l70 99c40 -26 87 -35 113 -35c49 0 91 28 91 80v39l-2 1c-23 -28 -70 -47 -103 -47c-165 0 -187 140 -187 242c0 106 19 263 186 263c37 0 73 -8 103 -40l2 1v35h143zM331 246c0 48 -4 121 -71 121 c-70 0 -74 -70 -74 -121c0 -53 5 -120 74 -120c66 0 71 70 71 120z" />
<glyph unicode="h" horiz-adv-x="551" d="M490 0h-142v292c0 50 -30 76 -70 76c-42 0 -75 -26 -75 -76v-292h-143v726h143v-266l4 -1c27 23 78 41 115 41c93 0 168 -62 168 -178v-322z" />
<glyph unicode="i" horiz-adv-x="269" d="M206 571h-143v125h143v-125zM206 0h-143v495h143v-495z" />
<glyph unicode="j" horiz-adv-x="286" d="M215 571h-143v125h143v-125zM215 496v-548c0 -89 -54 -148 -164 -148h-60v124h26c49 0 55 26 55 52v520h143z" />
<glyph unicode="k" horiz-adv-x="533" d="M548 0h-163l-133 196l-49 -53v-143h-143v726h143v-400l2 -1l65 78l86 92h178l-189 -200z" />
<glyph unicode="l" horiz-adv-x="286" d="M264 0h-51c-81 0 -153 29 -153 147v579h143v-552c0 -44 19 -50 45 -50h16v-124z" />
<glyph unicode="m" horiz-adv-x="838" d="M778 0h-142v294c0 50 -32 76 -72 76c-42 0 -73 -26 -73 -76v-294h-143v294c0 50 -32 76 -72 76c-42 0 -73 -26 -73 -76v-294h-143v495h143v-46l4 -1c25 31 80 52 125 52c58 0 102 -20 127 -71c37 38 93 71 151 71c103 0 168 -62 168 -178v-322z" />
<glyph unicode="n" horiz-adv-x="551" d="M490 0h-142v292c0 50 -30 76 -70 76c-42 0 -75 -26 -75 -76v-292h-143v495h143v-41h2c30 28 83 46 120 46c107 0 165 -62 165 -178v-322z" />
<glyph unicode="o" horiz-adv-x="516" d="M265 501c76 0 142 -29 179 -83c28 -41 40 -102 39 -173c0 -65 -14 -116 -38 -156c-41 -66 -115 -96 -193 -96c-77 0 -140 25 -177 79c-30 44 -43 104 -42 176c1 51 9 103 26 139c35 74 113 114 206 114zM260 373c-28 0 -53 -16 -66 -43c-10 -21 -14 -50 -15 -84 c0 -34 4 -62 14 -82c12 -25 34 -41 63 -41c34 0 60 19 71 54c4 14 9 38 9 71c1 37 -5 67 -12 82c-12 29 -37 43 -64 43z" />
<glyph unicode="p" horiz-adv-x="533" d="M63 495h142v-35l3 -1c28 30 71 40 107 40c171 0 181 -151 181 -258c0 -102 -27 -247 -189 -247c-33 0 -79 15 -99 45l-3 -1v-240h-142v697zM205 246c0 -50 6 -122 72 -122s73 69 73 122c0 51 -3 123 -73 123c-68 0 -72 -75 -72 -123z" />
<glyph unicode="q" horiz-adv-x="533" d="M51 236c0 107 20 263 192 263c35 0 68 -10 97 -40l2 1v35h143v-697h-143v241l-2 1c-23 -27 -69 -46 -102 -46c-165 0 -187 131 -187 242zM197 246c0 -53 3 -121 72 -121c66 0 73 71 73 121c0 48 -4 122 -71 122c-70 0 -74 -71 -74 -122z" />
<glyph unicode="r" horiz-adv-x="411" d="M276 370c-42 0 -73 -26 -73 -76v-295h-143v496h140v-56l3 -1c25 36 66 62 110 62c41 0 70 -7 105 -31l-50 -125c-35 21 -65 26 -92 26z" />
<glyph unicode="s" horiz-adv-x="468" d="M445 155c0 -106 -102 -161 -209 -161c-74 0 -146 10 -222 77l70 100c49 -47 104 -57 158 -57c36 0 63 17 63 37c0 18 -9 37 -62 43c-99 11 -199 30 -199 146c0 108 86 160 188 160c75 0 140 -12 202 -58l-64 -106c-53 36 -107 41 -135 41c-43 0 -58 -18 -58 -32 c0 -23 25 -33 100 -42c91 -11 168 -40 168 -148z" />
<glyph unicode="t" horiz-adv-x="333" d="M302 384h-73v-209c0 -42 14 -51 43 -51h31v-124h-77c-80 0 -140 49 -140 133v251h-54v112h56v136h139v-136h75v-112z" />
<glyph unicode="u" horiz-adv-x="551" d="M61 495h143v-293c0 -50 29 -76 69 -76c42 0 76 26 76 76v293h143v-495h-143v42h-2c-27 -31 -80 -48 -117 -48c-104 0 -169 62 -169 178v323z" />
<glyph unicode="v" horiz-adv-x="508" d="M504 495l-194 -495h-111l-195 495h153l44 -133l52 -166h2l52 166l45 133h152z" />
<glyph unicode="w" horiz-adv-x="753" d="M750 495l-169 -495h-120l-38 122l-44 151h-3l-43 -150l-40 -123h-119l-169 495h152l35 -123l39 -154h5l45 154l40 123h114l39 -123l44 -154h6l39 154l35 123h152z" />
<glyph unicode="x" horiz-adv-x="538" d="M531 0h-173l-90 142l-89 -142h-172l189 252l-182 243h171l83 -136l83 136h172l-183 -243z" />
<glyph unicode="y" horiz-adv-x="502" d="M502 495l-224 -591c-30 -80 -91 -104 -157 -104h-57v117h37c31 0 48 22 57 49l24 74l-182 455h153l48 -141l48 -156h4l47 154l50 143h152z" />
<glyph unicode="z" horiz-adv-x="463" d="M434 0h-406v119l229 254h-215v122h392v-114l-228 -253h228v-128z" />
<glyph unicode="{" horiz-adv-x="314" d="M305 -93h-98c-66 0 -119 49 -119 124v131c0 58 -25 87 -76 87v104c51 2 76 31 76 90v129c0 75 53 124 119 124h98v-101h-41c-30 0 -40 -33 -40 -58v-117c0 -61 -37 -100 -76 -119c46 -17 76 -58 76 -117v-118c0 -25 -1 -59 40 -59h41v-100z" />
<glyph unicode="|" horiz-adv-x="259" d="M191 -228h-124v958h124v-958z" />
<glyph unicode="}" horiz-adv-x="314" d="M304 249c-51 0 -77 -29 -77 -87v-131c0 -75 -52 -124 -118 -124h-98v100h41c41 0 40 34 40 59v118c0 59 29 100 76 117c-39 19 -76 58 -76 119v117c0 25 -11 58 -40 58h-41v101h98c66 0 118 -49 118 -124v-129c0 -59 26 -88 77 -90v-104z" />
<glyph unicode="~" d="M197 350c61 -1 118 -55 156 -55c27 0 51 18 81 56l77 -47c-41 -86 -87 -122 -142 -122c-63 0 -121 53 -164 53c-27 0 -53 -12 -87 -56l-75 47c40 79 83 124 154 124z" />
<glyph unicode="&#xc4;" horiz-adv-x="660" d="M659 0h-162l-52 142h-233l-52 -142h-162l270 696h121zM397 272l-26 80l-41 138h-4l-40 -136l-26 -82h137zM512 744h-152v133h152v-133zM298 744h-153v133h153v-133z" />
<glyph unicode="&#xc7;" horiz-adv-x="600" d="M243 -77l23 74c-149 18 -221 124 -221 269v164c0 144 88 271 269 271c132 0 225 -71 259 -177l-146 -52c-11 48 -51 85 -114 85c-77 0 -113 -56 -113 -113v-189c0 -60 36 -117 113 -117c62 0 103 36 114 87l146 -56c-32 -103 -118 -167 -236 -174l-10 -31 c70 -8 96 -50 96 -90c0 -47 -45 -94 -120 -94c-43 0 -83 11 -112 29l25 62c33 -16 52 -18 74 -18c21 0 40 10 40 30c0 28 -32 28 -48 20z" />
<glyph unicode="&#xc9;" horiz-adv-x="585" d="M257 733l-56 69l180 128l90 -107zM562 0h-492v696h492v-138h-338v-141h288v-133h-288v-146h338v-138z" />
<glyph unicode="&#xd1;" horiz-adv-x="710" d="M643 0h-137l-177 256l-103 166l-2 -1v-421h-154v696h137l146 -213l134 -209l2 1v421h154v-696zM278 884c52 -1 101 -49 133 -49c23 0 41 14 67 48l68 -40c-35 -77 -74 -109 -121 -109c-54 0 -103 47 -140 47c-23 0 -45 -11 -74 -50l-65 41c34 71 72 112 132 112z" />
<glyph unicode="&#xd6;" horiz-adv-x="624" d="M310 701c168 0 273 -115 273 -271v-164c0 -166 -108 -272 -273 -272c-181 0 -269 127 -269 272v164c0 144 88 271 269 271zM309 557c-77 0 -113 -56 -113 -113v-189c0 -60 36 -117 113 -117c74 0 117 51 117 117v189c0 61 -43 113 -117 113zM498 744h-152v133h152v-133z M284 744h-153v133h153v-133z" />
<glyph unicode="&#xdc;" horiz-adv-x="657" d="M600 243c0 -149 -122 -248 -271 -248c-150 0 -271 102 -271 257v444h153v-433c0 -79 53 -125 118 -125c67 0 117 39 117 116v442h154v-453zM516 744h-152v133h152v-133zM302 744h-153v133h153v-133z" />
<glyph unicode="&#x385;" horiz-adv-x="613" d="M568 569h-149v130h149v-130zM184 569h-148v130h148v-130zM286 537l-83 30l85 203l133 -43z" />
<glyph unicode="&#xe0;" horiz-adv-x="516" d="M468 0h-142v46l-3 1c-35 -41 -89 -52 -122 -52c-96 0 -166 46 -166 152c0 84 64 153 179 153h112v16c0 22 -9 60 -83 60c-45 0 -84 -10 -117 -39l-69 97c60 54 131 66 201 66c115 0 210 -38 210 -169v-331zM326 180v16h-94c-51 0 -60 -22 -60 -37c0 -13 9 -46 68 -46 c44 0 86 20 86 67zM341 575l-81 -38l-146 186l134 46z" />
<glyph unicode="&#xe2;" horiz-adv-x="516" d="M468 0h-142v46l-3 1c-35 -41 -89 -52 -122 -52c-96 0 -166 46 -166 152c0 84 64 153 179 153h112v16c0 22 -9 60 -83 60c-45 0 -84 -10 -117 -39l-69 97c60 54 131 66 201 66c115 0 210 -38 210 -169v-331zM326 180v16h-94c-51 0 -60 -22 -60 -37c0 -13 9 -46 68 -46 c44 0 86 20 86 67zM398 521l-144 104c-48 -34 -97 -70 -145 -103l-53 48l147 155h103l148 -155z" />
<glyph unicode="&#xe4;" horiz-adv-x="516" d="M468 0h-142v46l-3 1c-35 -41 -89 -52 -122 -52c-96 0 -166 46 -166 152c0 84 64 153 179 153h112v16c0 22 -9 60 -83 60c-45 0 -84 -10 -117 -39l-69 97c60 54 131 66 201 66c115 0 210 -38 210 -169v-331zM326 180v16h-94c-51 0 -60 -22 -60 -37c0 -13 9 -46 68 -46 c44 0 86 20 86 67zM443 569h-149v130h149v-130zM224 569h-148v130h148v-130z" />
<glyph unicode="&#x384;" horiz-adv-x="516" d="M266 537l-83 30l85 203l133 -43z" />
<glyph unicode="&#xa8;" horiz-adv-x="516" d="M443 569h-149v130h149v-130zM224 569h-148v130h148v-130z" />
<glyph unicode="&#xe7;" horiz-adv-x="463" d="M173 -77l24 77c-96 22 -169 99 -169 247c0 178 114 253 237 253c67 0 125 -21 175 -72l-92 -97c-30 29 -58 41 -83 41c-57 0 -88 -36 -88 -125c0 -88 26 -123 85 -123c26 0 56 12 88 42l94 -96c-52 -47 -113 -73 -177 -76l-10 -30c70 -8 96 -50 96 -90 c0 -47 -45 -94 -120 -94c-43 0 -83 11 -112 29l25 62c33 -16 52 -18 74 -18c21 0 40 10 40 30c0 28 -32 28 -48 20z" />
<glyph unicode="&#xe9;" horiz-adv-x="533" d="M489 210h-306c6 -64 35 -87 83 -87c25 0 71 9 112 46l88 -98c-63 -58 -141 -77 -204 -77c-109 0 -227 53 -227 252c0 187 115 254 226 254c157 0 228 -106 228 -255v-35zM335 302c-5 45 -37 71 -73 71s-67 -27 -74 -71h147zM278 537l-83 30l85 203l133 -43z" />
<glyph unicode="&#xe8;" horiz-adv-x="533" d="M489 210h-306c6 -64 35 -87 83 -87c25 0 71 9 112 46l88 -98c-63 -58 -141 -77 -204 -77c-109 0 -227 53 -227 252c0 187 115 254 226 254c157 0 228 -106 228 -255v-35zM335 302c-5 45 -37 71 -73 71s-67 -27 -74 -71h147zM338 575l-81 -38l-146 186l134 46z" />
<glyph unicode="&#xea;" horiz-adv-x="533" d="M489 210h-306c6 -64 35 -87 83 -87c25 0 71 9 112 46l88 -98c-63 -58 -141 -77 -204 -77c-109 0 -227 53 -227 252c0 187 115 254 226 254c157 0 228 -106 228 -255v-35zM335 302c-5 45 -37 71 -73 71s-67 -27 -74 -71h147zM409 521l-144 104c-48 -34 -97 -70 -145 -103 l-53 48l147 155h103l148 -155z" />
<glyph unicode="&#xeb;" horiz-adv-x="533" d="M489 210h-306c6 -64 35 -87 83 -87c25 0 71 9 112 46l88 -98c-63 -58 -141 -77 -204 -77c-109 0 -227 53 -227 252c0 187 115 254 226 254c157 0 228 -106 228 -255v-35zM335 302c-5 45 -37 71 -73 71s-67 -27 -74 -71h147zM443 569h-149v130h149v-130zM224 569h-148v130 h148v-130z" />
<glyph unicode="&#xa3;" d="M519 580l-119 -81c-41 57 -69 69 -108 69c-34 0 -72 -27 -72 -73c0 -35 29 -67 41 -124h141v-104h-140c-5 -50 -18 -102 -39 -142h284v-125h-472v108c40 52 62 95 68 159h-73v104h65c-15 49 -39 91 -39 129c0 99 64 200 228 200c92 0 158 -10 235 -120z" />
<glyph unicode="&#x2122;" horiz-adv-x="916" d="M834 274h-101l-2 178l-57 -123h-79l-58 124v-179h-101v421h92l108 -233l102 233h96v-421zM390 600h-124v-326h-105v326h-124v96h353v-96z" />
<glyph unicode="&#xee;" horiz-adv-x="357" d="M321 521l-144 104c-48 -34 -97 -70 -145 -103l-53 48l147 155h103l148 -155zM247 0h-143v495h143v-495z" />
<glyph unicode="&#xef;" horiz-adv-x="327" d="M347 569h-149v130h149v-130zM128 569h-148v130h148v-130zM235 0h-143v495h143v-495z" />
<glyph unicode="&#x2022;" horiz-adv-x="477" d="M94 281c0 87 71 158 158 158s158 -71 158 -158s-71 -158 -158 -158s-158 71 -158 158z" />
<glyph unicode="&#xf4;" horiz-adv-x="516" d="M265 501c76 0 142 -29 179 -83c28 -41 40 -102 39 -173c0 -65 -14 -116 -38 -156c-41 -66 -115 -96 -193 -96c-77 0 -140 25 -177 79c-30 44 -43 104 -42 176c1 51 9 103 26 139c35 74 113 114 206 114zM260 373c-28 0 -53 -16 -66 -43c-10 -21 -14 -50 -15 -84 c0 -34 4 -62 14 -82c12 -25 34 -41 63 -41c34 0 60 19 71 54c4 14 9 38 9 71c1 37 -5 67 -12 82c-12 29 -37 43 -64 43zM405 521l-144 104c-48 -34 -97 -70 -145 -103l-53 48l147 155h103l148 -155z" />
<glyph unicode="&#xf6;" horiz-adv-x="516" d="M265 501c76 0 142 -29 179 -83c28 -41 40 -102 39 -173c0 -65 -14 -116 -38 -156c-41 -66 -115 -96 -193 -96c-77 0 -140 25 -177 79c-30 44 -43 104 -42 176c1 51 9 103 26 139c35 74 113 114 206 114zM260 373c-28 0 -53 -16 -66 -43c-10 -21 -14 -50 -15 -84 c0 -34 4 -62 14 -82c12 -25 34 -41 63 -41c34 0 60 19 71 54c4 14 9 38 9 71c1 37 -5 67 -12 82c-12 29 -37 43 -64 43zM443 569h-149v130h149v-130zM224 569h-148v130h148v-130z" />
<glyph unicode="&#xf5;" horiz-adv-x="516" d="M265 501c76 0 142 -29 179 -83c28 -41 40 -102 39 -173c0 -65 -14 -116 -38 -156c-41 -66 -115 -96 -193 -96c-77 0 -140 25 -177 79c-30 44 -43 104 -42 176c1 51 9 103 26 139c35 74 113 114 206 114zM260 373c-28 0 -53 -16 -66 -43c-10 -21 -14 -50 -15 -84 c0 -34 4 -62 14 -82c12 -25 34 -41 63 -41c34 0 60 19 71 54c4 14 9 38 9 71c1 37 -5 67 -12 82c-12 29 -37 43 -64 43zM191 711c52 -1 101 -49 133 -49c23 0 41 14 67 48l68 -40c-35 -77 -74 -109 -121 -109c-54 0 -103 47 -140 47c-23 0 -45 -11 -74 -50l-65 41 c34 71 72 112 132 112z" />
<glyph unicode="&#xad;" horiz-adv-x="440" d="M393 192h-346v131h346v-131z" />
<glyph unicode="&#xf9;" horiz-adv-x="551" d="M61 495h143v-293c0 -50 29 -76 69 -76c42 0 76 26 76 76v293h143v-495h-143v42h-2c-27 -31 -80 -48 -117 -48c-104 0 -169 62 -169 178v323zM347 575l-81 -38l-146 186l134 46z" />
<glyph unicode="&#xfb;" horiz-adv-x="551" d="M61 495h143v-293c0 -50 29 -76 69 -76c42 0 76 26 76 76v293h143v-495h-143v42h-2c-27 -31 -80 -48 -117 -48c-104 0 -169 62 -169 178v323zM418 521l-144 104c-48 -34 -97 -70 -145 -103l-53 48l147 155h103l148 -155z" />
<glyph unicode="&#xfc;" horiz-adv-x="551" d="M61 495h143v-293c0 -50 29 -76 69 -76c42 0 76 26 76 76v293h143v-495h-143v42h-2c-27 -31 -80 -48 -117 -48c-104 0 -169 62 -169 178v323zM455 569h-149v130h149v-130zM236 569h-148v130h148v-130z" />
<glyph unicode="&#x2020;" horiz-adv-x="510" d="M491 357h-165v-526h-141v526h-166v116h166v223h141v-223h165v-116z" />
<glyph unicode="&#x2206;" horiz-adv-x="661" d="M659 0h-661l270 696h121zM449 133l-61 189l-55 185h-7l-55 -185l-63 -189h241z" />
<glyph unicode="&#xdf;" horiz-adv-x="566" d="M521 242c0 -101 -38 -242 -225 -242h-31v119h23c46 0 84 36 84 115c0 46 -3 118 -80 118v104c43 0 59 41 59 70c0 26 -9 78 -72 78c-55 0 -76 -42 -76 -83v-521h-145v518c0 134 91 206 219 206c152 0 208 -98 208 -182c0 -39 -14 -102 -70 -126v-3 c84 -25 106 -116 106 -171z" />
<glyph unicode="&#xae;" horiz-adv-x="526" d="M305 364l-42 93h-29v-93h-52v244h97c43 0 78 -28 78 -74c0 -26 -12 -51 -40 -68l47 -102h-59zM279 558h-45v-52h43c18 0 30 11 30 28c0 16 -9 24 -28 24zM265 269c-125 0 -220 92 -220 215c0 124 103 217 220 217c125 0 221 -93 221 -217c0 -123 -104 -215 -221 -215z M265 650c-93 0 -165 -72 -165 -166c0 -92 72 -166 165 -166c94 0 164 74 164 166c0 94 -70 166 -164 166z" />
<glyph unicode="&#xa9;" horiz-adv-x="820" d="M411 -16c-201 0 -355 145 -355 358c0 207 154 360 355 360s355 -149 355 -360c0 -208 -154 -358 -355 -358zM411 623c-152 0 -267 -122 -267 -281s115 -280 267 -280s267 121 267 280c0 166 -115 281 -267 281zM484 257l92 -36c-21 -70 -81 -111 -164 -111 c-114 0 -170 72 -170 172v103c0 91 56 172 170 172c84 0 143 -45 164 -112l-92 -33c-7 30 -32 54 -73 54c-49 0 -71 -35 -71 -72v-119c0 -38 22 -74 71 -74c39 0 66 23 73 56z" />
<glyph unicode="&#xa7;" horiz-adv-x="510" d="M405 189c32 -23 53 -60 53 -96c0 -117 -99 -178 -216 -178c-79 0 -154 31 -211 84l79 94c41 -37 92 -61 135 -61c56 0 82 21 82 53c0 24 -17 40 -97 63c-110 31 -183 66 -183 176c0 43 36 88 72 102c-35 27 -57 64 -57 104c0 103 86 169 199 169c79 0 142 -11 205 -59 l-68 -97c-52 31 -100 39 -144 39c-49 0 -64 -24 -64 -46c0 -43 95 -59 132 -70c74 -21 147 -59 147 -167c0 -47 -33 -97 -64 -110zM245 354c-16 4 -31 8 -44 13c-20 -8 -25 -21 -25 -38c0 -18 14 -31 45 -42c30 -11 67 -19 104 -32c12 7 17 18 17 36c0 24 -18 41 -97 63z " />
<glyph unicode="&#xb0;" horiz-adv-x="433" d="M380 548c0 -85 -73 -154 -164 -154c-90 0 -163 69 -163 154c0 84 73 153 163 153c91 0 164 -69 164 -153zM281 548c0 34 -29 61 -65 61c-35 0 -65 -27 -65 -61s30 -62 65 -62c36 0 65 28 65 62z" />
<glyph unicode="&#xb7;" horiz-adv-x="303" d="M236 198h-169v165h169v-165z" />
<glyph unicode="&#xb1;" d="M532 320h-195v-173h-124v173h-195v116h195v182h124v-182h195v-116zM536 0h-522v113h522v-113z" />
<glyph unicode="&#xa5;" d="M59 241h142v42h-142v82h98l-170 331h171l74 -165l47 -124h4l46 126l75 163h159l-171 -331h101v-82h-145v-42h145v-82h-145v-159h-147v159h-142v82z" />
<glyph unicode="&#xab;" horiz-adv-x="591" d="M560 10h-140l-146 214l146 214h140l-142 -214zM332 10h-140l-146 214l146 214h140l-143 -214z" />
<glyph unicode="&#xbb;" horiz-adv-x="591" d="M186 10h-140l142 214l-142 214h140l146 -214zM414 10h-140l143 214l-143 214h140l146 -214z" />
<glyph unicode="&#x2026;" horiz-adv-x="1028" d="M254 0h-169v165h169v-165zM606 0h-169v165h169v-165zM938 0h-169v165h169v-165z" />
<glyph unicode="&#x153;" horiz-adv-x="841" d="M797 210h-306c6 -64 35 -87 83 -87c25 0 71 9 112 46l88 -98c-63 -58 -141 -77 -204 -77c-56 0 -119 21 -158 75c-34 -51 -99 -76 -158 -76c-77 0 -140 27 -177 81c-30 44 -43 102 -42 174c1 51 9 101 26 137c35 74 113 116 206 116c60 0 120 -20 152 -71 c34 54 96 70 150 70c157 0 228 -106 228 -255v-35zM262 373c-31 0 -55 -16 -68 -43c-10 -21 -14 -50 -15 -84c0 -34 4 -62 14 -82c12 -25 33 -41 65 -41c34 0 62 19 73 54c4 14 9 38 9 71c1 37 -5 67 -12 82c-12 29 -39 43 -66 43zM643 302c-5 45 -37 71 -73 71 s-67 -27 -74 -71h147z" />
<glyph unicode="&#x2013;" horiz-adv-x="558" d="M536 219h-516v124h516v-124z" />
<glyph unicode="&#x2015;" horiz-adv-x="833" d="M815 219h-795v124h795v-124z" />
<glyph unicode="&#x201c;" horiz-adv-x="442" d="M128 725h73l-38 -150h36v-166h-169v158zM335 725h73l-38 -150h36v-166h-169v158z" />
<glyph unicode="&#x201d;" horiz-adv-x="442" d="M310 409h-73l38 150h-36v166h169v-158zM103 409h-73l38 150h-36v166h169v-158z" />
<glyph unicode="&#x2018;" horiz-adv-x="284" d="M148 725h73l-38 -150h36v-166h-169v158z" />
<glyph unicode="&#x2019;" horiz-adv-x="284" d="M123 409h-73l38 150h-36v166h169v-158z" />
<glyph unicode="&#xf7;" d="M364 505c0 -46 -40 -83 -89 -83s-89 37 -89 83c0 47 40 84 89 84s89 -37 89 -84zM532 240h-514v116h514v-116zM364 81c0 -47 -40 -84 -89 -84s-89 37 -89 84c0 46 40 83 89 83s89 -37 89 -83z" />
<glyph unicode="&#xb5;" horiz-adv-x="551" d="M491 1h-143v34l-4 2c-26 -26 -63 -41 -100 -41c-13 0 -27 2 -40 5v-201h-144l1 695h143v-293c0 -50 31 -75 71 -75c42 0 73 25 73 75v293h143v-494z" />
<glyph unicode="&#x20ac;" d="M17 332h37v24h-37v85h37c8 161 111 254 251 254c114 0 192 -65 231 -168l-137 -55c-16 46 -54 74 -94 74c-59 0 -90 -25 -100 -105h167v-85h-169v-24h169v-86h-167c8 -79 47 -104 100 -104c40 0 77 27 93 76l144 -41c-38 -111 -116 -183 -237 -183 c-140 0 -242 77 -251 252h-37v86z" />
<glyph unicode="&#xc6;" horiz-adv-x="1091" d="M464 696h571v-138h-338v-141h288v-133h-288v-146h338v-138h-492v149h-234l-84 -149h-182zM543 558h-4l-157 -275h161v275z" />
<glyph unicode="&#xe6;" horiz-adv-x="833" d="M782 210h-305c9 -65 44 -86 92 -86c25 0 61 8 102 45l88 -98c-63 -58 -135 -76 -198 -76c-61 0 -128 16 -175 65c-37 -35 -93 -65 -175 -65c-96 0 -176 46 -176 152c0 84 64 153 179 153h112v16c0 22 -12 67 -86 67c-55 0 -94 -15 -123 -44l-64 92c52 57 123 69 192 69 c52 0 127 -6 168 -54c37 39 91 54 138 54c157 0 231 -106 231 -255v-35zM326 180v16h-94c-51 0 -60 -22 -60 -37c0 -13 9 -46 68 -46c44 0 86 20 86 67zM632 302c-5 45 -40 69 -76 69s-67 -25 -74 -69h150z" />
<glyph unicode="&#xb8;" horiz-adv-x="463" d="M169 -77l40 126l72 1l-28 -86c70 -8 96 -50 96 -90c0 -47 -45 -94 -120 -94c-43 0 -83 11 -112 29l25 62c33 -16 52 -18 74 -18c21 0 40 10 40 30c0 28 -32 28 -48 20z" />
<glyph unicode="&#xa6;" horiz-adv-x="259" d="M191 284h-124v446h124v-446zM67 219h124v-447h-124v447z" />
<glyph unicode="&#xd7;" d="M452 47l-166 166l-160 -160l-87 87l160 160l-166 166l82 82l166 -166l157 158l88 -88l-158 -157l166 -166z" />
<glyph unicode="&#xac;" d="M531 356l1 -302h-124v186h-389v116h512z" />
<glyph unicode="&#x2c6;" horiz-adv-x="516" d="M398 521l-144 104c-48 -34 -97 -70 -145 -103l-53 48l147 155h103l148 -155z" />
<glyph unicode="&#xf0;" horiz-adv-x="537" d="M247 476c48 -1 101 -27 120 -59c1 0 4 1 4 1c-2 46 -10 100 -37 132l-49 -42l-46 50l48 42c-34 24 -77 36 -128 40l21 111c85 -7 154 -28 207 -75l61 53l50 -48l-61 -53c58 -76 69 -186 69 -308c0 -175 -73 -327 -255 -327c-160 0 -222 108 -222 243 c0 106 47 240 218 240zM253 345c-55 0 -76 -50 -76 -116c0 -30 7 -63 23 -83c12 -15 30 -22 53 -22c26 0 48 15 59 32c12 20 17 50 17 82c0 64 -23 107 -76 107z" />
<glyph unicode="&#x2dc;" horiz-adv-x="516" d="M199 711c52 -1 101 -49 133 -49c23 0 41 14 67 48l68 -40c-35 -77 -74 -109 -121 -109c-54 0 -103 47 -140 47c-23 0 -45 -11 -74 -50l-65 41c34 71 72 112 132 112z" />
<glyph unicode="&#xb4;" horiz-adv-x="516" d="M266 537l-83 30l85 203l133 -43z" />
<glyph unicode="&#x2c7;" horiz-adv-x="516" d="M254 621l144 104l56 -49l-148 -155h-103l-147 155l53 48c48 -33 97 -69 145 -103z" />
<glyph unicode="&#x2d8;" horiz-adv-x="533" d="M266 561c-115 0 -149 99 -156 161h100c0 -26 18 -68 56 -68s56 42 56 68h100c-7 -62 -41 -161 -156 -161z" />
<glyph unicode="E" horiz-adv-x="585" d="M562 0h-492v696h492v-138h-338v-141h288v-133h-288v-146h338v-138z" />
<glyph unicode=" "  horiz-adv-x="280" />
<glyph unicode="&#x09;" horiz-adv-x="280" />
<glyph unicode="&#xa0;" horiz-adv-x="280" />
<glyph unicode="&#xf6cb;" horiz-adv-x="662" d="M512 744h-152v133h152v-133zM298 744h-153v133h153v-133z" />
<glyph unicode="&#x192;" d="M130 306l-2 125h93l7 55c11 98 56 214 197 214c34 -1 79 -11 110 -23l-30 -120c-44 17 -53 17 -78 17c-36 0 -51 -50 -57 -94c-2 -18 -5 -31 -7 -49h92l2 -125h-107l-25 -188c-15 -117 -62 -221 -182 -221c-33 0 -92 15 -129 32l36 118c42 -17 59 -19 74 -19 c31 0 50 37 58 103l22 175h-74z" />
<glyph unicode="&#xf6c0;" horiz-adv-x="600" d="M448 726l-149 79l-150 -78l-48 58l149 120h98l151 -120z" />
<glyph unicode="&#xf6c3;" horiz-adv-x="592" d="M288 -313h-67l35 108h-33v151h154v-143z" />
<glyph unicode="&#xf6c9;" horiz-adv-x="598" d="M277 733l-56 69l180 128l90 -107z" />
<glyph unicode="&#xf6ca;" horiz-adv-x="598" d="M300 829l149 79l51 -59l-151 -120h-98l-149 120l48 58z" />
<glyph unicode="&#xf6cc;" horiz-adv-x="553" d="M550 752h-149v130h149v-130zM166 752h-148v130h148v-130zM268 720l-83 30l85 203l133 -43z" />
<glyph unicode="&#xf6cd;" horiz-adv-x="553" d="M542 749h-149v130h149v-130zM158 749h-148v130h148v-130zM379 747l-83 -30l-135 190l133 43z" />
<glyph unicode="&#xf6ce;" horiz-adv-x="598" d="M370 802l-56 -69l-214 90l90 107z" />
<glyph unicode="&#xf6cf;" horiz-adv-x="624" d="M170 723l-65 61l161 151l104 -94zM390 723l-65 61l161 151l104 -94z" />
<glyph unicode="&#xf6d0;" horiz-adv-x="585" d="M476 758h-333v118h333v-118z" />
<glyph unicode="&#xf6d1;" horiz-adv-x="660" d="M328 731c-115 0 -149 99 -156 161h100c0 -26 18 -68 56 -68s56 42 56 68h100c-7 -62 -41 -161 -156 -161z" />
<glyph unicode="&#xf6d4;" horiz-adv-x="516" d="M272 563c-115 0 -149 99 -156 161h100c0 -26 18 -68 56 -68s56 42 56 68h100c-7 -62 -41 -161 -156 -161z" />
<glyph unicode="&#xf6da;" horiz-adv-x="516" d="M319 567l-77 -30l-155 237l133 28z" />
<glyph unicode="&#xf6db;" horiz-adv-x="516" d="M280 537l-77 30l99 235l133 -28z" />
<glyph unicode="&#xf6dc;" horiz-adv-x="518" d="M193 721c52 -1 101 -49 133 -49c23 0 41 14 67 48l68 -40c-35 -77 -74 -109 -121 -109c-54 0 -103 47 -140 47c-23 0 -45 -11 -74 -50l-65 41c34 71 72 112 132 112z" />
<glyph unicode="&#xaf;" horiz-adv-x="516" d="M425 578h-333v118h333v-118z" />
<glyph unicode="&#xc0;" horiz-adv-x="660" d="M400 802l-56 -69l-214 90l90 107zM659 0h-162l-52 142h-233l-52 -142h-162l270 696h121zM397 272l-26 80l-41 138h-4l-40 -136l-26 -82h137z" />
<glyph unicode="&#xc1;" horiz-adv-x="660" d="M327 733l-56 69l180 128l90 -107zM659 0h-162l-52 142h-233l-52 -142h-162l270 696h121zM397 272l-26 80l-41 138h-4l-40 -136l-26 -82h137z" />
<glyph unicode="&#xc2;" horiz-adv-x="660" d="M659 0h-162l-52 142h-233l-52 -142h-162l270 696h121zM397 272l-26 80l-41 138h-4l-40 -136l-26 -82h137zM476 726l-149 79l-150 -78l-48 58l149 120h98l151 -120z" />
<glyph unicode="&#xc3;" horiz-adv-x="660" d="M659 0h-162l-52 142h-233l-52 -142h-162l270 696h121zM397 272l-26 80l-41 138h-4l-40 -136l-26 -82h137zM256 881c52 -1 101 -49 133 -49c23 0 41 14 67 48l68 -40c-35 -77 -74 -109 -121 -109c-54 0 -103 47 -140 47c-23 0 -45 -11 -74 -50l-65 41 c34 71 72 112 132 112z" />
<glyph unicode="&#x2da;" horiz-adv-x="516" d="M318 643c0 21 -18 37 -40 37c-23 0 -41 -16 -41 -37s18 -38 41 -38c22 0 40 17 40 38zM153 643c0 64 56 116 125 116c68 0 124 -52 124 -116s-56 -116 -125 -116c-68 0 -124 52 -124 116z" />
<glyph unicode="&#x201a;" horiz-adv-x="299" d="M136 -150h-73l38 150h-36v166h169v-158z" />
<glyph unicode="&#x201e;" horiz-adv-x="506" d="M343 -150h-73l38 150h-36v166h169v-158zM136 -150h-73l38 150h-36v166h169v-158z" />
<glyph unicode="&#x2021;" horiz-adv-x="510" d="M185 213v144h-166v116h166v223h141v-223h165v-116h-165v-144h165v-116h-165v-266h-141v266h-166v116h166z" />
<glyph unicode="&#x2039;" horiz-adv-x="404" d="M332 10h-140l-146 214l146 214h140l-143 -214z" />
<glyph unicode="&#x2014;" horiz-adv-x="833" d="M815 219h-795v124h795v-124z" />
<glyph unicode="&#x203a;" horiz-adv-x="404" d="M186 10h-140l143 214l-143 214h140l146 -214z" />
<glyph unicode="&#xa1;" horiz-adv-x="294" d="M77 -201l10 505h123l11 -505h-144zM75 495h147v-128h-147v128z" />
<glyph unicode="&#xa4;" horiz-adv-x="556" d="M168 321c0 -58 48 -107 107 -107s108 48 108 107c0 61 -49 107 -108 107c-58 0 -107 -46 -107 -107zM94 429l-68 67l73 74l68 -68c36 20 71 32 109 32c40 0 74 -10 109 -30c18 19 48 48 67 66l73 -74l-68 -67c20 -36 32 -72 32 -108c0 -40 -9 -72 -31 -109 c19 -16 50 -47 67 -65l-73 -74l-66 67c-34 -20 -71 -32 -110 -32c-38 0 -77 13 -110 32l-67 -67l-73 73l67 66c-20 36 -30 72 -30 109c0 36 11 72 31 108z" />
<glyph unicode="&#xa2;" d="M484 70c-47 -42 -101 -68 -158 -74v-131h-58v131c-111 10 -200 88 -200 251c0 160 92 236 200 250v139h58v-137c58 -4 109 -26 154 -71l-92 -97c-30 29 -58 41 -83 41c-57 0 -88 -36 -88 -125c0 -88 26 -123 85 -123c26 0 56 12 88 42z" />
<glyph unicode="&#xbf;" horiz-adv-x="495" d="M339 20l146 -17c-13 -134 -121 -210 -231 -210c-138 0 -220 85 -220 198c0 127 149 168 149 287v22h147v-27c0 -77 -25 -118 -91 -204c-17 -21 -43 -51 -43 -79c0 -36 32 -59 67 -59c44 0 73 25 76 89zM183 494h147v-128h-147v128z" />
<glyph unicode="&#xf8;" horiz-adv-x="516" d="M265 501c57 0 109 -16 147 -48l43 50l33 -29l-47 -53l3 -3c28 -41 40 -102 39 -173c0 -65 -14 -116 -38 -156c-41 -66 -115 -96 -193 -96c-59 0 -110 14 -147 45l-40 -46l-32 27l44 50c-1 1 -2 2 -2 3c-30 44 -43 104 -42 176c1 51 9 103 26 139c35 74 113 114 206 114z M260 373c-28 0 -53 -16 -66 -43c-10 -21 -14 -50 -15 -84c0 -21 1 -39 4 -54l133 152c-13 19 -34 29 -56 29zM336 248c0 18 -1 35 -3 49l-131 -149c13 -16 31 -25 54 -25c34 0 60 19 71 54c4 14 9 38 9 71z" />
<glyph unicode="&#xb6;" horiz-adv-x="563" d="M212 -79v390h-24c-104 0 -161 93 -161 191c0 97 62 202 186 202c109 0 200 1 314 1v-86h-43v-698h-99v698h-71v-698h-102z" />
<glyph unicode="&#xd8;" horiz-adv-x="624" d="M310 701c72 0 132 -21 178 -58l44 61l51 -37l-51 -69c33 -46 51 -103 51 -168v-164c0 -166 -108 -272 -273 -272c-76 0 -136 22 -179 59l-43 -58l-49 35l50 68c-33 47 -48 106 -48 168v164c0 144 88 271 269 271zM426 444c0 3 -1 6 -1 9l-204 -277c19 -23 48 -38 88 -38 c74 0 117 51 117 117v189zM309 557c-77 0 -113 -56 -113 -113v-189v-10l202 275c-20 23 -51 37 -89 37z" />
<glyph unicode="&#x160;" horiz-adv-x="594" d="M540 637l-71 -123c-66 42 -134 47 -171 47c-76 0 -92 -37 -92 -65c0 -44 31 -56 146 -74s215 -67 215 -208c0 -145 -139 -220 -275 -220c-94 0 -192 15 -284 96l89 118c65 -58 132 -73 203 -73c67 0 105 32 105 69c0 34 -11 68 -95 76c-132 13 -257 52 -257 208 c0 148 127 214 241 214c85 0 172 -16 246 -65zM313 829l149 79l51 -59l-151 -120h-98l-149 120l48 58z" />
<glyph unicode="&#x17d;" horiz-adv-x="549" d="M520 0h-492v131l306 428h-293v137h479v-127l-305 -428h305v-141zM278 829l149 79l51 -59l-151 -120h-98l-149 120l48 58z" />
<glyph unicode="&#x161;" horiz-adv-x="468" d="M445 155c0 -106 -102 -161 -209 -161c-74 0 -146 10 -222 77l70 100c49 -47 104 -57 158 -57c36 0 63 17 63 37c0 18 -9 37 -62 43c-99 11 -199 30 -199 146c0 108 86 160 188 160c75 0 140 -12 202 -58l-64 -106c-53 36 -107 41 -135 41c-43 0 -58 -18 -58 -32 c0 -23 25 -33 100 -42c91 -11 168 -40 168 -148zM250 621l144 104l56 -49l-148 -155h-103l-147 155l53 48c48 -33 97 -69 145 -103z" />
<glyph unicode="&#x17e;" horiz-adv-x="463" d="M238 621l144 104l56 -49l-148 -155h-103l-147 155l53 48c48 -33 97 -69 145 -103zM434 0h-406v119l229 254h-215v122h392v-114l-228 -253h228v-128z" />
<glyph unicode="&#x178;" horiz-adv-x="605" d="M603 696l-225 -411v-285h-147v285l-224 411h165l71 -150l60 -135h4l59 134l72 151h165zM489 744h-152v133h152v-133zM275 744h-153v133h153v-133z" />
<glyph unicode="&#xc5;" horiz-adv-x="660" d="M659 0h-162l-52 142h-233l-52 -142h-162l270 696h121zM397 272l-26 80l-41 138h-4l-40 -136l-26 -82h137zM369 831c0 21 -18 37 -40 37c-23 0 -41 -16 -41 -37s18 -38 41 -38c22 0 40 17 40 38zM204 831c0 64 56 116 125 116c68 0 124 -52 124 -116s-56 -116 -125 -116 c-68 0 -124 52 -124 116z" />
<glyph unicode="&#xc8;" horiz-adv-x="585" d="M562 0h-492v696h492v-138h-338v-141h288v-133h-288v-146h338v-138zM378 802l-56 -69l-214 90l90 107z" />
<glyph unicode="&#xca;" horiz-adv-x="585" d="M562 0h-492v696h492v-138h-338v-141h288v-133h-288v-146h338v-138zM448 726l-149 79l-150 -78l-48 58l149 120h98l151 -120z" />
<glyph unicode="&#xcb;" horiz-adv-x="585" d="M562 0h-492v696h492v-138h-338v-141h288v-133h-288v-146h338v-138zM512 744h-152v133h152v-133zM298 744h-153v133h153v-133z" />
<glyph unicode="&#xcc;" horiz-adv-x="294" d="M227 0h-154v696h154v-696zM206 802l-56 -69l-214 90l90 107z" />
<glyph unicode="&#xcd;" horiz-adv-x="294" d="M143 733l-56 69l180 128l90 -107zM227 0h-154v696h154v-696z" />
<glyph unicode="&#xce;" horiz-adv-x="294" d="M227 0h-154v696h154v-696zM300 726l-149 79l-150 -78l-48 58l149 120h98l151 -120z" />
<glyph unicode="&#xcf;" horiz-adv-x="294" d="M227 0h-154v696h154v-696zM331 744h-152v133h152v-133zM117 744h-153v133h153v-133z" />
<glyph unicode="&#xd0;" horiz-adv-x="657" d="M6 300v107h64v289h277c104 0 193 -38 237 -129c25 -51 27 -121 27 -207c0 -97 -2 -168 -25 -222c-46 -105 -144 -138 -256 -138h-260v300h-64zM224 557v-150h109v-107h-109v-162h101c103 0 133 59 133 149v127c0 96 -39 143 -136 143h-98z" />
<glyph unicode="&#xd2;" horiz-adv-x="624" d="M310 701c168 0 273 -115 273 -271v-164c0 -166 -108 -272 -273 -272c-181 0 -269 127 -269 272v164c0 144 88 271 269 271zM309 557c-77 0 -113 -56 -113 -113v-189c0 -60 36 -117 113 -117c74 0 117 51 117 117v189c0 61 -43 113 -117 113zM400 802l-56 -69l-214 90 l90 107z" />
<glyph unicode="&#xd3;" horiz-adv-x="624" d="M257 733l-56 69l180 128l90 -107zM310 701c168 0 273 -115 273 -271v-164c0 -166 -108 -272 -273 -272c-181 0 -269 127 -269 272v164c0 144 88 271 269 271zM309 557c-77 0 -113 -56 -113 -113v-189c0 -60 36 -117 113 -117c74 0 117 51 117 117v189 c0 61 -43 113 -117 113z" />
<glyph unicode="&#xd4;" horiz-adv-x="624" d="M310 701c168 0 273 -115 273 -271v-164c0 -166 -108 -272 -273 -272c-181 0 -269 127 -269 272v164c0 144 88 271 269 271zM309 557c-77 0 -113 -56 -113 -113v-189c0 -60 36 -117 113 -117c74 0 117 51 117 117v189c0 61 -43 113 -117 113zM460 726l-149 79l-150 -78 l-48 58l149 120h98l151 -120z" />
<glyph unicode="&#xd5;" horiz-adv-x="624" d="M310 701c168 0 273 -115 273 -271v-164c0 -166 -108 -272 -273 -272c-181 0 -269 127 -269 272v164c0 144 88 271 269 271zM309 557c-77 0 -113 -56 -113 -113v-189c0 -60 36 -117 113 -117c74 0 117 51 117 117v189c0 61 -43 113 -117 113zM241 881 c52 -1 101 -49 133 -49c23 0 41 14 67 48l68 -40c-35 -77 -74 -109 -121 -109c-54 0 -103 47 -140 47c-23 0 -45 -11 -74 -50l-65 41c34 71 72 112 132 112z" />
<glyph unicode="&#xd9;" horiz-adv-x="657" d="M600 243c0 -149 -122 -248 -271 -248c-150 0 -271 102 -271 257v444h153v-433c0 -79 53 -125 118 -125c67 0 117 39 117 116v442h154v-453zM398 802l-56 -69l-214 90l90 107z" />
<glyph unicode="&#xda;" horiz-adv-x="657" d="M299 733l-56 69l180 128l90 -107zM600 243c0 -149 -122 -248 -271 -248c-150 0 -271 102 -271 257v444h153v-433c0 -79 53 -125 118 -125c67 0 117 39 117 116v442h154v-453z" />
<glyph unicode="&#xdb;" horiz-adv-x="657" d="M600 243c0 -149 -122 -248 -271 -248c-150 0 -271 102 -271 257v444h153v-433c0 -79 53 -125 118 -125c67 0 117 39 117 116v442h154v-453zM478 726l-149 79l-150 -78l-48 58l149 120h98l151 -120z" />
<glyph unicode="&#xdd;" horiz-adv-x="605" d="M280 733l-56 69l180 128l90 -107zM603 696l-225 -411v-285h-147v285l-224 411h165l71 -150l60 -135h4l59 134l72 151h165z" />
<glyph unicode="&#xe1;" horiz-adv-x="516" d="M468 0h-142v46l-3 1c-35 -41 -89 -52 -122 -52c-96 0 -166 46 -166 152c0 84 64 153 179 153h112v16c0 22 -9 60 -83 60c-45 0 -84 -10 -117 -39l-69 97c60 54 131 66 201 66c115 0 210 -38 210 -169v-331zM326 180v16h-94c-51 0 -60 -22 -60 -37c0 -13 9 -46 68 -46 c44 0 86 20 86 67zM283 537l-83 30l85 203l133 -43z" />
<glyph unicode="&#xe3;" horiz-adv-x="516" d="M468 0h-142v46l-3 1c-35 -41 -89 -52 -122 -52c-96 0 -166 46 -166 152c0 84 64 153 179 153h112v16c0 22 -9 60 -83 60c-45 0 -84 -10 -117 -39l-69 97c60 54 131 66 201 66c115 0 210 -38 210 -169v-331zM326 180v16h-94c-51 0 -60 -22 -60 -37c0 -13 9 -46 68 -46 c44 0 86 20 86 67zM194 711c52 -1 101 -49 133 -49c23 0 41 14 67 48l68 -40c-35 -77 -74 -109 -121 -109c-54 0 -103 47 -140 47c-23 0 -45 -11 -74 -50l-65 41c34 71 72 112 132 112z" />
<glyph unicode="&#xec;" horiz-adv-x="269" d="M195 575l-81 -38l-146 186l134 46zM206 0h-143v495h143v-495z" />
<glyph unicode="&#xed;" horiz-adv-x="269" d="M150 537l-83 30l85 203l133 -43zM206 0h-143v495h143v-495z" />
<glyph unicode="&#xf1;" horiz-adv-x="551" d="M490 0h-142v292c0 50 -30 76 -70 76c-42 0 -75 -26 -75 -76v-292h-143v495h143v-41h2c30 28 83 46 120 46c107 0 165 -62 165 -178v-322zM193 711c52 -1 101 -49 133 -49c23 0 41 14 67 48l68 -40c-35 -77 -74 -109 -121 -109c-54 0 -103 47 -140 47 c-23 0 -45 -11 -74 -50l-65 41c34 71 72 112 132 112z" />
<glyph unicode="&#xf2;" horiz-adv-x="516" d="M265 501c76 0 142 -29 179 -83c28 -41 40 -102 39 -173c0 -65 -14 -116 -38 -156c-41 -66 -115 -96 -193 -96c-77 0 -140 25 -177 79c-30 44 -43 104 -42 176c1 51 9 103 26 139c35 74 113 114 206 114zM260 373c-28 0 -53 -16 -66 -43c-10 -21 -14 -50 -15 -84 c0 -34 4 -62 14 -82c12 -25 34 -41 63 -41c34 0 60 19 71 54c4 14 9 38 9 71c1 37 -5 67 -12 82c-12 29 -37 43 -64 43zM339 575l-81 -38l-146 186l134 46z" />
<glyph unicode="&#xf3;" horiz-adv-x="516" d="M265 501c76 0 142 -29 179 -83c28 -41 40 -102 39 -173c0 -65 -14 -116 -38 -156c-41 -66 -115 -96 -193 -96c-77 0 -140 25 -177 79c-30 44 -43 104 -42 176c1 51 9 103 26 139c35 74 113 114 206 114zM260 373c-28 0 -53 -16 -66 -43c-10 -21 -14 -50 -15 -84 c0 -34 4 -62 14 -82c12 -25 34 -41 63 -41c34 0 60 19 71 54c4 14 9 38 9 71c1 37 -5 67 -12 82c-12 29 -37 43 -64 43zM287 537l-83 30l85 203l133 -43z" />
<glyph unicode="&#xfa;" horiz-adv-x="551" d="M61 495h143v-293c0 -50 29 -76 69 -76c42 0 76 26 76 76v293h143v-495h-143v42h-2c-27 -31 -80 -48 -117 -48c-104 0 -169 62 -169 178v323zM302 537l-83 30l85 203l133 -43z" />
<glyph unicode="&#xfd;" horiz-adv-x="502" d="M502 495l-224 -591c-30 -80 -91 -104 -157 -104h-57v117h37c31 0 48 22 57 49l24 74l-182 455h153l48 -141l48 -156h4l47 154l50 143h152zM289 537l-83 30l85 203l133 -43z" />
<glyph unicode="&#xff;" horiz-adv-x="502" d="M502 495l-224 -591c-30 -80 -91 -104 -157 -104h-57v117h37c31 0 48 22 57 49l24 74l-182 455h153l48 -141l48 -156h4l47 154l50 143h152zM426 569h-149v130h149v-130zM207 569h-148v130h148v-130z" />
<glyph unicode="&#xe5;" horiz-adv-x="516" d="M468 0h-142v46l-3 1c-35 -41 -89 -52 -122 -52c-96 0 -166 46 -166 152c0 84 64 153 179 153h112v16c0 22 -9 60 -83 60c-45 0 -84 -10 -117 -39l-69 97c60 54 131 66 201 66c115 0 210 -38 210 -169v-331zM326 180v16h-94c-51 0 -60 -22 -60 -37c0 -13 9 -46 68 -46 c44 0 86 20 86 67zM308 643c0 21 -18 37 -40 37c-23 0 -41 -16 -41 -37s18 -38 41 -38c22 0 40 17 40 38zM143 643c0 64 56 116 125 116c68 0 124 -52 124 -116s-56 -116 -125 -116c-68 0 -124 52 -124 116z" />
<glyph unicode="&#x2db;" horiz-adv-x="294" d="M56 -104c0 29 11 60 44 108h89l2 -4c-31 -42 -44 -69 -44 -89c0 -19 11 -27 32 -27c12 0 34 4 64 15l28 -70c-34 -19 -73 -31 -108 -31c-63 0 -107 45 -107 98z" />
<glyph unicode="&#x2d9;" horiz-adv-x="338" d="M244 569h-148v130h148v-130z" />
<glyph unicode="&#x2dd;" horiz-adv-x="576" d="M232 537l-83 30l85 203l133 -43zM419 537l-83 30l85 203l133 -43z" />
<glyph unicode="&#x100;" horiz-adv-x="660" d="M659 0h-162l-52 142h-233l-52 -142h-162l270 696h121zM397 272l-26 80l-41 138h-4l-40 -136l-26 -82h137zM496 758h-333v118h333v-118z" />
<glyph unicode="&#x101;" horiz-adv-x="516" d="M468 0h-142v46l-3 1c-35 -41 -89 -52 -122 -52c-96 0 -166 46 -166 152c0 84 64 153 179 153h112v16c0 22 -9 60 -83 60c-45 0 -84 -10 -117 -39l-69 97c60 54 131 66 201 66c115 0 210 -38 210 -169v-331zM326 180v16h-94c-51 0 -60 -22 -60 -37c0 -13 9 -46 68 -46 c44 0 86 20 86 67zM425 578h-333v118h333v-118z" />
<glyph unicode="&#x102;" horiz-adv-x="660" d="M659 0h-162l-52 142h-233l-52 -142h-162l270 696h121zM397 272l-26 80l-41 138h-4l-40 -136l-26 -82h137zM328 731c-115 0 -149 99 -156 161h100c0 -26 18 -68 56 -68s56 42 56 68h100c-7 -62 -41 -161 -156 -161z" />
<glyph unicode="&#x103;" horiz-adv-x="516" d="M468 0h-142v46l-3 1c-35 -41 -89 -52 -122 -52c-96 0 -166 46 -166 152c0 84 64 153 179 153h112v16c0 22 -9 60 -83 60c-45 0 -84 -10 -117 -39l-69 97c60 54 131 66 201 66c115 0 210 -38 210 -169v-331zM326 180v16h-94c-51 0 -60 -22 -60 -37c0 -13 9 -46 68 -46 c44 0 86 20 86 67zM266 561c-115 0 -149 99 -156 161h100c0 -26 18 -68 56 -68s56 42 56 68h100c-7 -62 -41 -161 -156 -161z" />
<glyph unicode="&#x104;" horiz-adv-x="660" d="M454 -104c0 29 11 59 42 105l-51 141h-233l-52 -142h-162l270 696h121l270 -696h-70c-31 -42 -44 -69 -44 -89c0 -19 11 -27 32 -27c12 0 34 4 64 15l28 -70c-34 -19 -73 -31 -108 -31c-63 0 -107 45 -107 98zM397 272l-26 80l-41 138h-4l-40 -136l-26 -82h137z" />
<glyph unicode="&#x105;" horiz-adv-x="516" d="M284 -104c0 29 10 59 42 105v45l-3 1c-35 -41 -89 -52 -122 -52c-96 0 -166 46 -166 152c0 84 64 153 179 153h112v16c0 22 -9 60 -83 60c-45 0 -84 -10 -117 -39l-69 97c60 54 131 66 201 66c115 0 210 -38 210 -169v-331h-49c-31 -42 -44 -69 -44 -89 c0 -19 11 -27 32 -27c12 0 34 4 64 15l28 -70c-34 -19 -73 -31 -108 -31c-63 0 -107 45 -107 98zM326 180v16h-94c-51 0 -60 -22 -60 -37c0 -13 9 -46 68 -46c44 0 86 20 86 67z" />
<glyph unicode="&#x106;" horiz-adv-x="600" d="M237 733l-56 69l180 128l90 -107zM427 225l146 -56c-34 -109 -129 -175 -259 -175c-181 0 -269 113 -269 272v164c0 144 88 271 269 271c132 0 225 -71 259 -177l-146 -52c-11 48 -51 85 -114 85c-77 0 -113 -56 -113 -113v-189c0 -60 36 -117 113 -117 c62 0 103 36 114 87z" />
<glyph unicode="&#x107;" horiz-adv-x="463" d="M444 70c-54 -49 -119 -76 -187 -76c-123 0 -229 76 -229 253c0 178 114 253 237 253c67 0 125 -21 175 -72l-92 -97c-30 29 -58 41 -83 41c-57 0 -88 -36 -88 -125c0 -88 26 -123 85 -123c26 0 56 12 88 42zM266 537l-83 30l85 203l133 -43z" />
<glyph unicode="&#x108;" horiz-adv-x="600" d="M427 225l146 -56c-34 -109 -129 -175 -259 -175c-181 0 -269 113 -269 272v164c0 144 88 271 269 271c132 0 225 -71 259 -177l-146 -52c-11 48 -51 85 -114 85c-77 0 -113 -56 -113 -113v-189c0 -60 36 -117 113 -117c62 0 103 36 114 87zM458 726l-149 79l-150 -78 l-48 58l149 120h98l151 -120z" />
<glyph unicode="&#x109;" horiz-adv-x="463" d="M444 70c-54 -49 -119 -76 -187 -76c-123 0 -229 76 -229 253c0 178 114 253 237 253c67 0 125 -21 175 -72l-92 -97c-30 29 -58 41 -83 41c-57 0 -88 -36 -88 -125c0 -88 26 -123 85 -123c26 0 56 12 88 42zM398 521l-144 104c-48 -34 -97 -70 -145 -103l-53 48l147 155 h103l148 -155z" />
<glyph unicode="&#x10a;" horiz-adv-x="600" d="M427 225l146 -56c-34 -109 -129 -175 -259 -175c-181 0 -269 113 -269 272v164c0 144 88 271 269 271c132 0 225 -71 259 -177l-146 -52c-11 48 -51 85 -114 85c-77 0 -113 -56 -113 -113v-189c0 -60 36 -117 113 -117c62 0 103 36 114 87zM397 749h-148v130h148v-130z " />
<glyph unicode="&#x10b;" horiz-adv-x="463" d="M444 70c-54 -49 -119 -76 -187 -76c-123 0 -229 76 -229 253c0 178 114 253 237 253c67 0 125 -21 175 -72l-92 -97c-30 29 -58 41 -83 41c-57 0 -88 -36 -88 -125c0 -88 26 -123 85 -123c26 0 56 12 88 42zM326 569h-148v130h148v-130z" />
<glyph unicode="&#x10c;" horiz-adv-x="600" d="M427 225l146 -56c-34 -109 -129 -175 -259 -175c-181 0 -269 113 -269 272v164c0 144 88 271 269 271c132 0 225 -71 259 -177l-146 -52c-11 48 -51 85 -114 85c-77 0 -113 -56 -113 -113v-189c0 -60 36 -117 113 -117c62 0 103 36 114 87zM310 829l149 79l51 -59 l-151 -120h-98l-149 120l48 58z" />
<glyph unicode="&#x10d;" horiz-adv-x="463" d="M444 70c-54 -49 -119 -76 -187 -76c-123 0 -229 76 -229 253c0 178 114 253 237 253c67 0 125 -21 175 -72l-92 -97c-30 29 -58 41 -83 41c-57 0 -88 -36 -88 -125c0 -88 26 -123 85 -123c26 0 56 12 88 42zM254 621l144 104l56 -49l-148 -155h-103l-147 155l53 48 c48 -33 97 -69 145 -103z" />
<glyph unicode="&#x10e;" horiz-adv-x="657" d="M224 557v-419h101c103 0 133 59 133 149v127c0 96 -39 143 -136 143h-98zM70 696h277c104 0 193 -38 237 -129c25 -51 27 -121 27 -207c0 -97 -2 -168 -25 -222c-46 -105 -144 -138 -256 -138h-260v696zM325 829l149 79l51 -59l-151 -120h-98l-149 120l48 58z" />
<glyph unicode="&#x10f;" horiz-adv-x="704" d="M609 469h-67l35 108h-33v151h154v-143zM483 0h-143v39l-2 2c-29 -31 -73 -46 -109 -46c-171 0 -180 156 -180 263c0 99 36 243 184 243c38 0 79 -15 105 -46l2 1v270h143v-726zM340 248c0 50 -5 120 -71 120c-72 0 -74 -79 -74 -133c0 -49 9 -108 73 -108 c68 0 71 73 72 121z" />
<glyph unicode="&#x110;" horiz-adv-x="657" d="M6 300v107h64v289h277c104 0 193 -38 237 -129c25 -51 27 -121 27 -207c0 -97 -2 -168 -25 -222c-46 -105 -144 -138 -256 -138h-260v300h-64zM224 557v-150h109v-107h-109v-162h101c103 0 133 59 133 149v127c0 96 -39 143 -136 143h-98z" />
<glyph unicode="&#x111;" horiz-adv-x="533" d="M226 544v87h114v95h143v-95h50v-87h-50v-544h-143v39l-2 2c-29 -31 -73 -46 -109 -46c-171 0 -180 156 -180 263c0 99 36 243 184 243c38 0 79 -15 105 -46l2 1v88h-114zM340 248c0 50 -5 120 -71 120c-72 0 -74 -79 -74 -133c0 -49 9 -108 73 -108c68 0 71 73 72 121z " />
<glyph unicode="&#x112;" horiz-adv-x="585" d="M562 0h-492v696h492v-138h-338v-141h288v-133h-288v-146h338v-138zM476 758h-333v118h333v-118z" />
<glyph unicode="&#x113;" horiz-adv-x="533" d="M489 210h-306c6 -64 35 -87 83 -87c25 0 71 9 112 46l88 -98c-63 -58 -141 -77 -204 -77c-109 0 -227 53 -227 252c0 187 115 254 226 254c157 0 228 -106 228 -255v-35zM335 302c-5 45 -37 71 -73 71s-67 -27 -74 -71h147zM435 578h-333v118h333v-118z" />
<glyph unicode="&#x114;" horiz-adv-x="585" d="M562 0h-492v696h492v-138h-338v-141h288v-133h-288v-146h338v-138zM318 731c-115 0 -149 99 -156 161h100c0 -26 18 -68 56 -68s56 42 56 68h100c-7 -62 -41 -161 -156 -161z" />
<glyph unicode="&#x115;" horiz-adv-x="533" d="M489 210h-306c6 -64 35 -87 83 -87c25 0 71 9 112 46l88 -98c-63 -58 -141 -77 -204 -77c-109 0 -227 53 -227 252c0 187 115 254 226 254c157 0 228 -106 228 -255v-35zM335 302c-5 45 -37 71 -73 71s-67 -27 -74 -71h147zM266 561c-115 0 -149 99 -156 161h100 c0 -26 18 -68 56 -68s56 42 56 68h100c-7 -62 -41 -161 -156 -161z" />
<glyph unicode="&#x116;" horiz-adv-x="585" d="M562 0h-492v696h492v-138h-338v-141h288v-133h-288v-146h338v-138zM392 749h-148v130h148v-130z" />
<glyph unicode="&#x117;" horiz-adv-x="533" d="M489 210h-306c6 -64 35 -87 83 -87c25 0 71 9 112 46l88 -98c-63 -58 -141 -77 -204 -77c-109 0 -227 53 -227 252c0 187 115 254 226 254c157 0 228 -106 228 -255v-35zM335 302c-5 45 -37 71 -73 71s-67 -27 -74 -71h147zM345 569h-148v130h148v-130z" />
<glyph unicode="&#x118;" horiz-adv-x="585" d="M427 -104c0 28 10 59 41 104h-398v696h492v-138h-338v-141h288v-133h-288v-146h338v-138c-31 -42 -44 -69 -44 -89c0 -19 11 -27 32 -27c12 0 34 4 64 15l28 -70c-34 -19 -73 -31 -108 -31c-63 0 -107 45 -107 98z" />
<glyph unicode="&#x119;" horiz-adv-x="533" d="M280 -70c0 20 5 40 18 66c-12 -1 -25 -2 -36 -2c-109 0 -227 53 -227 252c0 187 115 254 226 254c157 0 228 -106 228 -255v-35h-306c6 -64 35 -87 83 -87c25 0 71 9 112 46l88 -98c-17 -15 -34 -28 -52 -38c-30 -41 -43 -68 -43 -88c0 -19 11 -27 32 -27 c12 0 34 4 64 15l28 -70c-34 -19 -73 -31 -108 -31c-63 0 -107 45 -107 98zM335 302c-5 45 -37 71 -73 71s-67 -27 -74 -71h147z" />
<glyph unicode="&#x11a;" horiz-adv-x="585" d="M562 0h-492v696h492v-138h-338v-141h288v-133h-288v-146h338v-138zM313 829l149 79l51 -59l-151 -120h-98l-149 120l48 58z" />
<glyph unicode="&#x11b;" horiz-adv-x="533" d="M489 210h-306c6 -64 35 -87 83 -87c25 0 71 9 112 46l88 -98c-63 -58 -141 -77 -204 -77c-109 0 -227 53 -227 252c0 187 115 254 226 254c157 0 228 -106 228 -255v-35zM335 302c-5 45 -37 71 -73 71s-67 -27 -74 -71h147zM266 621l144 104l56 -49l-148 -155h-103 l-147 155l53 48c48 -33 97 -69 145 -103z" />
<glyph unicode="&#x11c;" horiz-adv-x="637" d="M318 701c132 0 225 -71 259 -177l-146 -52c-11 48 -51 85 -114 85c-77 0 -113 -56 -113 -113v-189c0 -60 36 -118 114 -118c66 0 120 54 120 117v5h-142v128h294v-139c0 -146 -122 -254 -272 -254c-181 0 -269 113 -269 272v164c0 144 88 271 269 271zM458 726l-149 79 l-150 -78l-48 58l149 120h98l151 -120z" />
<glyph unicode="&#x11d;" horiz-adv-x="533" d="M474 495v-482c0 -158 -112 -220 -232 -220c-60 0 -125 13 -184 64l70 99c40 -26 87 -35 113 -35c49 0 91 28 91 80v39l-2 1c-23 -28 -70 -47 -103 -47c-165 0 -187 140 -187 242c0 106 19 263 186 263c37 0 73 -8 103 -40l2 1v35h143zM331 246c0 48 -4 121 -71 121 c-70 0 -74 -70 -74 -121c0 -53 5 -120 74 -120c66 0 71 70 71 120zM408 521l-144 104c-48 -34 -97 -70 -145 -103l-53 48l147 155h103l148 -155z" />
<glyph unicode="&#x11e;" horiz-adv-x="637" d="M318 701c132 0 225 -71 259 -177l-146 -52c-11 48 -51 85 -114 85c-77 0 -113 -56 -113 -113v-189c0 -60 36 -118 114 -118c66 0 120 54 120 117v5h-142v128h294v-139c0 -146 -122 -254 -272 -254c-181 0 -269 113 -269 272v164c0 144 88 271 269 271zM316 731 c-115 0 -149 99 -156 161h100c0 -26 18 -68 56 -68s56 42 56 68h100c-7 -62 -41 -161 -156 -161z" />
<glyph unicode="&#x11f;" horiz-adv-x="533" d="M474 495v-482c0 -158 -112 -220 -232 -220c-60 0 -125 13 -184 64l70 99c40 -26 87 -35 113 -35c49 0 91 28 91 80v39l-2 1c-23 -28 -70 -47 -103 -47c-165 0 -187 140 -187 242c0 106 19 263 186 263c37 0 73 -8 103 -40l2 1v35h143zM331 246c0 48 -4 121 -71 121 c-70 0 -74 -70 -74 -121c0 -53 5 -120 74 -120c66 0 71 70 71 120zM266 561c-115 0 -149 99 -156 161h100c0 -26 18 -68 56 -68s56 42 56 68h100c-7 -62 -41 -161 -156 -161z" />
<glyph unicode="&#x120;" horiz-adv-x="637" d="M318 701c132 0 225 -71 259 -177l-146 -52c-11 48 -51 85 -114 85c-77 0 -113 -56 -113 -113v-189c0 -60 36 -118 114 -118c66 0 120 54 120 117v5h-142v128h294v-139c0 -146 -122 -254 -272 -254c-181 0 -269 113 -269 272v164c0 144 88 271 269 271zM390 749h-148v130 h148v-130z" />
<glyph unicode="&#x121;" horiz-adv-x="533" d="M474 495v-482c0 -158 -112 -220 -232 -220c-60 0 -125 13 -184 64l70 99c40 -26 87 -35 113 -35c49 0 91 28 91 80v39l-2 1c-23 -28 -70 -47 -103 -47c-165 0 -187 140 -187 242c0 106 19 263 186 263c37 0 73 -8 103 -40l2 1v35h143zM331 246c0 48 -4 121 -71 121 c-70 0 -74 -70 -74 -121c0 -53 5 -120 74 -120c66 0 71 70 71 120zM361 569h-148v130h148v-130z" />
<glyph unicode="&#x122;" horiz-adv-x="637" d="M318 701c132 0 225 -71 259 -177l-146 -52c-11 48 -51 85 -114 85c-77 0 -113 -56 -113 -113v-189c0 -60 36 -118 114 -118c66 0 120 54 120 117v5h-142v128h294v-139c0 -146 -122 -254 -272 -254c-181 0 -269 113 -269 272v164c0 144 88 271 269 271zM288 -313h-67 l35 108h-33v151h154v-143z" />
<glyph unicode="&#x123;" horiz-adv-x="533" d="M292 857h67l-35 -108h33v-151h-154v143zM474 495v-482c0 -158 -112 -220 -232 -220c-60 0 -125 13 -184 64l70 99c40 -26 87 -35 113 -35c49 0 91 28 91 80v39l-2 1c-23 -28 -70 -47 -103 -47c-165 0 -187 140 -187 242c0 106 19 263 186 263c37 0 73 -8 103 -40l2 1v35 h143zM331 246c0 48 -4 121 -71 121c-70 0 -74 -70 -74 -121c0 -53 5 -120 74 -120c66 0 71 70 71 120z" />
<glyph unicode="&#x124;" horiz-adv-x="674" d="M604 0h-152v284h-228v-284h-154v696h154v-279h228v279h152v-696zM494 726l-149 79l-150 -78l-48 58l149 120h98l151 -120z" />
<glyph unicode="&#x125;" horiz-adv-x="551" d="M490 0h-142v292c0 50 -30 76 -70 76c-42 0 -75 -26 -75 -76v-292h-143v726h143v-266l4 -1c27 23 78 41 115 41c93 0 168 -62 168 -178v-322zM277 726l-149 79l-150 -78l-48 58l149 120h98l151 -120z" />
<glyph unicode="&#x126;" horiz-adv-x="674" d="M604 0h-152v284h-228v-284h-154v502h-49v93h49v101h154v-101h228v101h152v-101h50v-93h-50v-502zM224 417h228v85h-228v-85z" />
<glyph unicode="&#x127;" horiz-adv-x="581" d="M520 0h-142v277c0 50 -30 76 -70 76c-46 0 -75 -35 -75 -85v-268h-143v550h-75v93h75v83h143v-83h182v-93h-182v-105l4 -1c27 23 79 41 125 41c93 0 158 -62 158 -178v-307z" />
<glyph unicode="&#x128;" horiz-adv-x="294" d="M227 0h-154v696h154v-696zM73 881c52 -1 101 -49 133 -49c23 0 41 14 67 48l68 -40c-35 -77 -74 -109 -121 -109c-54 0 -103 47 -140 47c-23 0 -45 -11 -74 -50l-65 41c34 71 72 112 132 112z" />
<glyph unicode="&#x129;" horiz-adv-x="366" d="M119 711c52 -1 101 -49 133 -49c23 0 41 14 67 48l68 -40c-35 -77 -74 -109 -121 -109c-54 0 -103 47 -140 47c-23 0 -45 -11 -74 -50l-65 41c34 71 72 112 132 112zM263 0h-143v495h143v-495z" />
<glyph unicode="&#x12a;" horiz-adv-x="306" d="M239 0h-154v696h154v-696zM324 758h-333v118h333v-118z" />
<glyph unicode="&#x12b;" horiz-adv-x="312" d="M232 0h-143v495h143v-495zM323 578h-333v118h333v-118z" />
<glyph unicode="&#x12c;" horiz-adv-x="294" d="M148 731c-115 0 -149 99 -156 161h100c0 -26 18 -68 56 -68s56 42 56 68h100c-7 -62 -41 -161 -156 -161zM227 0h-154v696h154v-696z" />
<glyph unicode="&#x12d;" horiz-adv-x="269" d="M206 0h-143v495h143v-495zM136 567c-115 0 -149 99 -156 161h100c0 -26 18 -68 56 -68s56 42 56 68h100c-7 -62 -41 -161 -156 -161z" />
<glyph unicode="&#x12e;" horiz-adv-x="294" d="M60 -104c0 28 10 59 41 104h-28v696h154v-696h-32c-31 -42 -44 -69 -44 -89c0 -19 11 -27 32 -27c12 0 34 4 64 15l28 -70c-34 -19 -73 -31 -108 -31c-63 0 -107 45 -107 98z" />
<glyph unicode="&#x12f;" horiz-adv-x="269" d="M46 -103c0 28 10 58 40 103h-23v495h143v-495h-26c-31 -41 -43 -68 -43 -88c0 -19 11 -27 32 -27c12 0 34 4 64 15l28 -70c-34 -19 -73 -31 -108 -31c-63 0 -107 45 -107 98zM206 571h-143v125h143v-125z" />
<glyph unicode="&#x130;" horiz-adv-x="294" d="M227 0h-154v696h154v-696zM222 749h-148v130h148v-130z" />
<glyph unicode="&#x131;" horiz-adv-x="269" d="M206 0h-143v495h143v-495z" />
<glyph unicode="&#x132;" horiz-adv-x="791" d="M227 0h-154v696h154v-696zM728 225c0 -177 -111 -230 -234 -230c-82 0 -158 19 -211 93l103 101c35 -38 71 -54 99 -54c36 0 91 14 91 97v464h152v-471z" />
<glyph unicode="&#x133;" horiz-adv-x="532" d="M206 571h-143v125h143v-125zM206 0h-143v495h143v-495zM462 571h-143v125h143v-125zM462 496v-548c0 -89 -54 -148 -164 -148h-60v124h26c49 0 55 26 55 52v520h143z" />
<glyph unicode="&#x134;" horiz-adv-x="511" d="M448 226c0 -177 -111 -230 -234 -230c-82 0 -158 19 -211 93l103 101c35 -38 71 -54 99 -54c36 0 91 14 91 97v464h152v-471zM521 728l-149 79l-150 -78l-48 58l149 120h98l151 -120z" />
<glyph unicode="&#x135;" horiz-adv-x="356" d="M256 -52c0 -89 -70 -148 -164 -148h-60v124h33c40 0 48 42 48 61v511h143v-548zM323 521l-144 104c-48 -34 -97 -70 -145 -103l-53 48l147 155h103l148 -155z" />
<glyph unicode="&#x136;" horiz-adv-x="657" d="M677 0h-182l-180 296l-91 -102v-194h-154v696h154v-298l2 -2l106 129l145 171h186l-244 -282zM331 -293h-67l35 108h-33v151h154v-143z" />
<glyph unicode="&#x137;" horiz-adv-x="533" d="M548 0h-163l-133 196l-49 -53v-143h-143v726h143v-400l2 -1l65 78l86 92h178l-189 -200zM272 -313h-67l35 108h-33v151h154v-143z" />
<glyph unicode="&#x138;" horiz-adv-x="533" d="M548 0h-163l-133 196l-49 -53v-143h-143v495h143v-169l2 -1l65 74l87 96h177l-189 -200z" />
<glyph unicode="&#x139;" horiz-adv-x="585" d="M143 733l-56 69l180 128l90 -107zM562 0h-492v696h154v-558h338v-138z" />
<glyph unicode="&#x13a;" horiz-adv-x="286" d="M116 743l-56 69l180 128l90 -107zM264 0h-51c-81 0 -153 29 -153 147v579h143v-552c0 -44 19 -50 45 -50h16v-124z" />
<glyph unicode="&#x13b;" horiz-adv-x="585" d="M562 0h-492v696h154v-558h338v-138zM322 -313h-67l35 108h-33v151h154v-143z" />
<glyph unicode="&#x13c;" horiz-adv-x="286" d="M264 0h-51c-81 0 -153 29 -153 147v579h143v-552c0 -44 19 -50 45 -50h16v-124zM150 -308h-67l35 108h-33v151h154v-143z" />
<glyph unicode="&#x13d;" horiz-adv-x="585" d="M562 0h-492v696h154v-558h338v-138zM379 437h-67l35 108h-33v151h154v-143z" />
<glyph unicode="&#x13e;" horiz-adv-x="443" d="M352 467h-67l35 108h-33v151h154v-143zM264 0h-51c-81 0 -153 29 -153 147v579h143v-552c0 -44 19 -50 45 -50h16v-124z" />
<glyph unicode="&#x13f;" horiz-adv-x="585" d="M562 0h-492v696h154v-558h338v-138zM482 303h-148v130h148v-130z" />
<glyph unicode="&#x140;" horiz-adv-x="425" d="M427 310h-148v130h148v-130zM264 0h-51c-81 0 -153 29 -153 147v579h143v-552c0 -44 19 -50 45 -50h16v-124z" />
<glyph unicode="&#x141;" horiz-adv-x="618" d="M595 0h-492v209l-53 -31l-50 87l103 60v371h154v-282l87 51l50 -87l-137 -80v-160h338v-138z" />
<glyph unicode="&#x142;" horiz-adv-x="360" d="M312 0h-51c-81 0 -153 29 -153 147v111l-57 -33l-51 87l108 62v352h143v-269l59 34l50 -87l-109 -63v-167c0 -44 19 -50 45 -50h16v-124z" />
<glyph unicode="&#x143;" horiz-adv-x="710" d="M287 733l-56 69l180 128l90 -107zM643 0h-137l-177 256l-103 166l-2 -1v-421h-154v696h137l146 -213l134 -209l2 1v421h154v-696z" />
<glyph unicode="&#x144;" horiz-adv-x="551" d="M490 0h-142v292c0 50 -30 76 -70 76c-42 0 -75 -26 -75 -76v-292h-143v495h143v-41h2c30 28 83 46 120 46c107 0 165 -62 165 -178v-322zM266 537l-83 30l85 203l133 -43z" />
<glyph unicode="&#x145;" horiz-adv-x="710" d="M643 0h-137l-177 256l-103 166l-2 -1v-421h-154v696h137l146 -213l134 -209l2 1v421h154v-696zM348 -293h-67l35 108h-33v151h154v-143z" />
<glyph unicode="&#x146;" horiz-adv-x="551" d="M490 0h-142v292c0 50 -30 76 -70 76c-42 0 -75 -26 -75 -76v-292h-143v495h143v-41h2c30 28 83 46 120 46c107 0 165 -62 165 -178v-322zM265 -313h-67l35 108h-33v151h154v-143z" />
<glyph unicode="&#x147;" horiz-adv-x="710" d="M643 0h-137l-177 256l-103 166l-2 -1v-421h-154v696h137l146 -213l134 -209l2 1v421h154v-696zM352 829l149 79l51 -59l-151 -120h-98l-149 120l48 58z" />
<glyph unicode="&#x148;" horiz-adv-x="551" d="M490 0h-142v292c0 50 -30 76 -70 76c-42 0 -75 -26 -75 -76v-292h-143v495h143v-41h2c30 28 83 46 120 46c107 0 165 -62 165 -178v-322zM263 621l144 104l56 -49l-148 -155h-103l-147 155l53 48c48 -33 97 -69 145 -103z" />
<glyph unicode="&#x149;" horiz-adv-x="681" d="M620 0h-142v292c0 50 -30 76 -70 76c-42 0 -75 -26 -75 -76v-292h-143v495h143v-41h2c30 28 83 46 120 46c107 0 165 -62 165 -178v-322zM66 414h-67l35 108h-33v151h154v-143z" />
<glyph unicode="&#x14a;" horiz-adv-x="710" d="M643 696v-762c0 -72 -48 -124 -136 -124c-34 0 -71 7 -107 26l31 96c15 -4 26 -5 36 -5c24 0 34 11 34 39v41l-172 249l-103 166l-2 -1v-421h-154v696h137l146 -213l134 -209l2 1v421h154z" />
<glyph unicode="&#x14b;" horiz-adv-x="551" d="M490 -66c0 -72 -48 -124 -136 -124c-34 0 -71 7 -107 26l31 96c15 -4 26 -5 36 -5c24 0 34 11 34 39v326c0 50 -32 76 -72 76c-42 0 -73 -26 -73 -76v-292h-143v495h143v-41h2c30 28 73 46 110 46c107 0 175 -62 175 -178v-388z" />
<glyph unicode="&#x14c;" horiz-adv-x="624" d="M310 701c168 0 273 -115 273 -271v-164c0 -166 -108 -272 -273 -272c-181 0 -269 127 -269 272v164c0 144 88 271 269 271zM309 557c-77 0 -113 -56 -113 -113v-189c0 -60 36 -117 113 -117c74 0 117 51 117 117v189c0 61 -43 113 -117 113zM479 758h-333v118h333v-118z " />
<glyph unicode="&#x14d;" horiz-adv-x="516" d="M265 501c76 0 142 -29 179 -83c28 -41 40 -102 39 -173c0 -65 -14 -116 -38 -156c-41 -66 -115 -96 -193 -96c-77 0 -140 25 -177 79c-30 44 -43 104 -42 176c1 51 9 103 26 139c35 74 113 114 206 114zM260 373c-28 0 -53 -16 -66 -43c-10 -21 -14 -50 -15 -84 c0 -34 4 -62 14 -82c12 -25 34 -41 63 -41c34 0 60 19 71 54c4 14 9 38 9 71c1 37 -5 67 -12 82c-12 29 -37 43 -64 43zM428 578h-333v118h333v-118z" />
<glyph unicode="&#x14e;" horiz-adv-x="624" d="M310 701c168 0 273 -115 273 -271v-164c0 -166 -108 -272 -273 -272c-181 0 -269 127 -269 272v164c0 144 88 271 269 271zM309 557c-77 0 -113 -56 -113 -113v-189c0 -60 36 -117 113 -117c74 0 117 51 117 117v189c0 61 -43 113 -117 113zM309 731 c-115 0 -149 99 -156 161h100c0 -26 18 -68 56 -68s56 42 56 68h100c-7 -62 -41 -161 -156 -161z" />
<glyph unicode="&#x14f;" horiz-adv-x="516" d="M265 501c76 0 142 -29 179 -83c28 -41 40 -102 39 -173c0 -65 -14 -116 -38 -156c-41 -66 -115 -96 -193 -96c-77 0 -140 25 -177 79c-30 44 -43 104 -42 176c1 51 9 103 26 139c35 74 113 114 206 114zM260 373c-28 0 -53 -16 -66 -43c-10 -21 -14 -50 -15 -84 c0 -34 4 -62 14 -82c12 -25 34 -41 63 -41c34 0 60 19 71 54c4 14 9 38 9 71c1 37 -5 67 -12 82c-12 29 -37 43 -64 43zM260 561c-115 0 -149 99 -156 161h100c0 -26 18 -68 56 -68s56 42 56 68h100c-7 -62 -41 -161 -156 -161z" />
<glyph unicode="&#x150;" horiz-adv-x="624" d="M310 701c168 0 273 -115 273 -271v-164c0 -166 -108 -272 -273 -272c-181 0 -269 127 -269 272v164c0 144 88 271 269 271zM309 557c-77 0 -113 -56 -113 -113v-189c0 -60 36 -117 113 -117c74 0 117 51 117 117v189c0 61 -43 113 -117 113zM172 723l-65 61l161 151 l104 -94zM392 723l-65 61l161 151l104 -94z" />
<glyph unicode="&#x151;" horiz-adv-x="516" d="M265 501c76 0 142 -29 179 -83c28 -41 40 -102 39 -173c0 -65 -14 -116 -38 -156c-41 -66 -115 -96 -193 -96c-77 0 -140 25 -177 79c-30 44 -43 104 -42 176c1 51 9 103 26 139c35 74 113 114 206 114zM260 373c-28 0 -53 -16 -66 -43c-10 -21 -14 -50 -15 -84 c0 -34 4 -62 14 -82c12 -25 34 -41 63 -41c34 0 60 19 71 54c4 14 9 38 9 71c1 37 -5 67 -12 82c-12 29 -37 43 -64 43zM198 537l-83 30l85 203l133 -43zM385 537l-83 30l85 203l133 -43z" />
<glyph unicode="&#x154;" horiz-adv-x="652" d="M237 733l-56 69l180 128l90 -107zM608 0h-174l-110 269h-100v-269h-154v696h308c122 0 225 -75 225 -209c0 -83 -44 -155 -128 -191zM443 486c0 52 -35 73 -87 73h-132v-152h127c56 0 92 27 92 79z" />
<glyph unicode="&#x155;" horiz-adv-x="411" d="M276 370c-42 0 -73 -26 -73 -76v-295h-143v496h140v-56l3 -1c25 36 66 62 110 62c41 0 70 -7 105 -31l-50 -125c-35 21 -65 26 -92 26zM213 537l-83 30l85 203l133 -43z" />
<glyph unicode="&#x156;" horiz-adv-x="652" d="M608 0h-174l-110 269h-100v-269h-154v696h308c122 0 225 -75 225 -209c0 -83 -44 -155 -128 -191zM443 486c0 52 -35 73 -87 73h-132v-152h127c56 0 92 27 92 79zM318 -293h-67l35 108h-33v151h154v-143z" />
<glyph unicode="&#x157;" horiz-adv-x="411" d="M276 370c-42 0 -73 -26 -73 -76v-295h-143v496h140v-56l3 -1c25 36 66 62 110 62c41 0 70 -7 105 -31l-50 -125c-35 21 -65 26 -92 26zM117 -313h-67l35 108h-33v151h154v-143z" />
<glyph unicode="&#x158;" horiz-adv-x="652" d="M608 0h-174l-110 269h-100v-269h-154v696h308c122 0 225 -75 225 -209c0 -83 -44 -155 -128 -191zM443 486c0 52 -35 73 -87 73h-132v-152h127c56 0 92 27 92 79zM280 829l149 79l51 -59l-151 -120h-98l-149 120l48 58z" />
<glyph unicode="&#x159;" horiz-adv-x="411" d="M276 370c-42 0 -73 -26 -73 -76v-295h-143v496h140v-56l3 -1c25 36 66 62 110 62c41 0 70 -7 105 -31l-50 -125c-35 21 -65 26 -92 26zM203 621l144 104l56 -49l-148 -155h-103l-147 155l53 48c48 -33 97 -69 145 -103z" />
<glyph unicode="&#x15a;" horiz-adv-x="594" d="M272 733l-56 69l180 128l90 -107zM540 637l-71 -123c-66 42 -134 47 -171 47c-76 0 -92 -37 -92 -65c0 -44 31 -56 146 -74s215 -67 215 -208c0 -145 -139 -220 -275 -220c-94 0 -192 15 -284 96l89 118c65 -58 132 -73 203 -73c67 0 105 32 105 69c0 34 -11 68 -95 76 c-132 13 -257 52 -257 208c0 148 127 214 241 214c85 0 172 -16 246 -65z" />
<glyph unicode="&#x15b;" horiz-adv-x="468" d="M445 155c0 -106 -102 -161 -209 -161c-74 0 -146 10 -222 77l70 100c49 -47 104 -57 158 -57c36 0 63 17 63 37c0 18 -9 37 -62 43c-99 11 -199 30 -199 146c0 108 86 160 188 160c75 0 140 -12 202 -58l-64 -106c-53 36 -107 41 -135 41c-43 0 -58 -18 -58 -32 c0 -23 25 -33 100 -42c91 -11 168 -40 168 -148zM266 537l-83 30l85 203l133 -43z" />
<glyph unicode="&#x15c;" horiz-adv-x="594" d="M540 637l-71 -123c-66 42 -134 47 -171 47c-76 0 -92 -37 -92 -65c0 -44 31 -56 146 -74s215 -67 215 -208c0 -145 -139 -220 -275 -220c-94 0 -192 15 -284 96l89 118c65 -58 132 -73 203 -73c67 0 105 32 105 69c0 34 -11 68 -95 76c-132 13 -257 52 -257 208 c0 148 127 214 241 214c85 0 172 -16 246 -65zM455 726l-149 79l-150 -78l-48 58l149 120h98l151 -120z" />
<glyph unicode="&#x15d;" horiz-adv-x="468" d="M445 155c0 -106 -102 -161 -209 -161c-74 0 -146 10 -222 77l70 100c49 -47 104 -57 158 -57c36 0 63 17 63 37c0 18 -9 37 -62 43c-99 11 -199 30 -199 146c0 108 86 160 188 160c75 0 140 -12 202 -58l-64 -106c-53 36 -107 41 -135 41c-43 0 -58 -18 -58 -32 c0 -23 25 -33 100 -42c91 -11 168 -40 168 -148zM388 521l-144 104c-48 -34 -97 -70 -145 -103l-53 48l147 155h103l148 -155z" />
<glyph unicode="&#x15e;" horiz-adv-x="594" d="M242 -77l22 72c-85 3 -173 22 -256 95l89 118c65 -58 132 -73 203 -73c67 0 105 32 105 69c0 34 -11 68 -95 76c-132 13 -257 52 -257 208c0 148 127 214 241 214c85 0 172 -16 246 -65l-71 -123c-66 42 -134 47 -171 47c-76 0 -92 -37 -92 -65c0 -44 31 -56 146 -74 s215 -67 215 -208c0 -129 -111 -203 -231 -217l-10 -33c70 -8 96 -50 96 -90c0 -47 -45 -94 -120 -94c-43 0 -83 11 -112 29l25 62c33 -16 52 -18 74 -18c21 0 40 10 40 30c0 28 -32 28 -48 20z" />
<glyph unicode="&#x15f;" horiz-adv-x="468" d="M199 -77l22 71c-69 2 -136 14 -207 77l70 100c49 -47 104 -57 158 -57c36 0 63 17 63 37c0 18 -9 37 -62 43c-99 11 -199 30 -199 146c0 108 86 160 188 160c75 0 140 -12 202 -58l-64 -106c-53 36 -107 41 -135 41c-43 0 -58 -18 -58 -32c0 -23 25 -33 100 -42 c91 -11 168 -40 168 -148c0 -87 -68 -139 -151 -155l-11 -36c70 -8 96 -50 96 -90c0 -47 -45 -94 -120 -94c-43 0 -83 11 -112 29l25 62c33 -16 52 -18 74 -18c21 0 40 10 40 30c0 28 -32 28 -48 20z" />
<glyph unicode="&#x162;" horiz-adv-x="556" d="M211 -77l24 77h-37v558h-190v138h533v-138h-190v-558h-45l-11 -36c70 -8 96 -50 96 -90c0 -47 -45 -94 -120 -94c-43 0 -83 11 -112 29l25 62c33 -16 52 -18 74 -18c21 0 40 10 40 30c0 28 -32 28 -48 20z" />
<glyph unicode="&#x163;" horiz-adv-x="333" d="M108 -77l32 101c-34 22 -54 59 -54 109v251h-54v112h56v136h139v-136h75v-112h-73v-209c0 -42 14 -51 43 -51h31v-124h-77c-8 0 -15 0 -22 1l-12 -37c70 -8 96 -50 96 -90c0 -47 -45 -94 -120 -94c-43 0 -83 11 -112 29l25 62c33 -16 52 -18 74 -18c21 0 40 10 40 30 c0 28 -32 28 -48 20z" />
<glyph unicode="&#x164;" horiz-adv-x="556" d="M541 558h-190v-558h-153v558h-190v138h533v-138zM273 829l149 79l51 -59l-151 -120h-98l-149 120l48 58z" />
<glyph unicode="&#x165;" horiz-adv-x="448" d="M359 557h-67l35 108h-33v151h154v-143zM302 384h-73v-209c0 -42 14 -51 43 -51h31v-124h-77c-80 0 -140 49 -140 133v251h-54v112h56v136h139v-136h75v-112z" />
<glyph unicode="&#x166;" horiz-adv-x="556" d="M541 558h-190v-155h161v-99h-161v-304h-153v304h-160v99h160v155h-190v138h533v-138z" />
<glyph unicode="&#x167;" horiz-adv-x="333" d="M302 384h-73v-73h73v-93h-73v-43c0 -42 14 -51 43 -51h31v-124h-77c-80 0 -140 49 -140 133v85h-53v93h53v73h-54v112h56v136h139v-136h75v-112z" />
<glyph unicode="&#x168;" horiz-adv-x="657" d="M600 243c0 -149 -122 -248 -271 -248c-150 0 -271 102 -271 257v444h153v-433c0 -79 53 -125 118 -125c67 0 117 39 117 116v442h154v-453zM264 881c52 -1 101 -49 133 -49c23 0 41 14 67 48l68 -40c-35 -77 -74 -109 -121 -109c-54 0 -103 47 -140 47 c-23 0 -45 -11 -74 -50l-65 41c34 71 72 112 132 112z" />
<glyph unicode="&#x169;" horiz-adv-x="551" d="M61 495h143v-293c0 -50 29 -76 69 -76c42 0 76 26 76 76v293h143v-495h-143v42h-2c-27 -31 -80 -48 -117 -48c-104 0 -169 62 -169 178v323zM202 711c52 -1 101 -49 133 -49c23 0 41 14 67 48l68 -40c-35 -77 -74 -109 -121 -109c-54 0 -103 47 -140 47 c-23 0 -45 -11 -74 -50l-65 41c34 71 72 112 132 112z" />
<glyph unicode="&#x16a;" horiz-adv-x="657" d="M600 243c0 -149 -122 -248 -271 -248c-150 0 -271 102 -271 257v444h153v-433c0 -79 53 -125 118 -125c67 0 117 39 117 116v442h154v-453zM499 758h-333v118h333v-118z" />
<glyph unicode="&#x16b;" horiz-adv-x="551" d="M61 495h143v-293c0 -50 29 -76 69 -76c42 0 76 26 76 76v293h143v-495h-143v42h-2c-27 -31 -80 -48 -117 -48c-104 0 -169 62 -169 178v323zM445 578h-333v118h333v-118z" />
<glyph unicode="&#x16c;" horiz-adv-x="657" d="M600 243c0 -149 -122 -248 -271 -248c-150 0 -271 102 -271 257v444h153v-433c0 -79 53 -125 118 -125c67 0 117 39 117 116v442h154v-453zM328 731c-115 0 -149 99 -156 161h100c0 -26 18 -68 56 -68s56 42 56 68h100c-7 -62 -41 -161 -156 -161z" />
<glyph unicode="&#x16d;" horiz-adv-x="551" d="M61 495h143v-293c0 -50 29 -76 69 -76c42 0 76 26 76 76v293h143v-495h-143v42h-2c-27 -31 -80 -48 -117 -48c-104 0 -169 62 -169 178v323zM280 561c-115 0 -149 99 -156 161h100c0 -26 18 -68 56 -68s56 42 56 68h100c-7 -62 -41 -161 -156 -161z" />
<glyph unicode="&#x16e;" horiz-adv-x="657" d="M600 243c0 -149 -122 -248 -271 -248c-150 0 -271 102 -271 257v444h153v-433c0 -79 53 -125 118 -125c67 0 117 39 117 116v442h154v-453zM369 813c0 21 -18 37 -40 37c-23 0 -41 -16 -41 -37s18 -38 41 -38c22 0 40 17 40 38zM204 813c0 64 56 116 125 116 c68 0 124 -52 124 -116s-56 -116 -125 -116c-68 0 -124 52 -124 116z" />
<glyph unicode="&#x16f;" horiz-adv-x="551" d="M61 495h143v-293c0 -50 29 -76 69 -76c42 0 76 26 76 76v293h143v-495h-143v42h-2c-27 -31 -80 -48 -117 -48c-104 0 -169 62 -169 178v323zM319 643c0 21 -18 37 -40 37c-23 0 -41 -16 -41 -37s18 -38 41 -38c22 0 40 17 40 38zM154 643c0 64 56 116 125 116 c68 0 124 -52 124 -116s-56 -116 -125 -116c-68 0 -124 52 -124 116z" />
<glyph unicode="&#x170;" horiz-adv-x="657" d="M600 243c0 -149 -122 -248 -271 -248c-150 0 -271 102 -271 257v444h153v-433c0 -79 53 -125 118 -125c67 0 117 39 117 116v442h154v-453zM170 723l-65 61l161 151l104 -94zM390 723l-65 61l161 151l104 -94z" />
<glyph unicode="&#x171;" horiz-adv-x="551" d="M61 495h143v-293c0 -50 29 -76 69 -76c42 0 76 26 76 76v293h143v-495h-143v42h-2c-27 -31 -80 -48 -117 -48c-104 0 -169 62 -169 178v323zM202 537l-83 30l85 203l133 -43zM389 537l-83 30l85 203l133 -43z" />
<glyph unicode="&#x172;" horiz-adv-x="657" d="M242 -102c0 28 9 57 38 101c-126 19 -222 115 -222 253v444h153v-433c0 -79 53 -125 118 -125c67 0 117 39 117 116v442h154v-453c0 -134 -98 -228 -226 -245c-29 -39 -41 -65 -41 -85c0 -19 11 -27 32 -27c12 0 34 4 64 15l28 -70c-34 -19 -73 -31 -108 -31 c-63 0 -107 45 -107 98z" />
<glyph unicode="&#x173;" horiz-adv-x="551" d="M308 -102c0 28 10 59 41 104v40h-2c-27 -31 -80 -48 -117 -48c-104 0 -169 62 -169 178v323h143v-293c0 -50 29 -76 69 -76c42 0 76 26 76 76v293h143v-495h-51c-30 -41 -42 -67 -42 -87c0 -19 11 -27 32 -27c12 0 34 4 64 15l28 -70c-34 -19 -73 -31 -108 -31 c-63 0 -107 45 -107 98z" />
<glyph unicode="&#x174;" horiz-adv-x="854" d="M853 694l-186 -696h-124l-65 226l-49 190h-3l-50 -193l-64 -223h-125l-186 696h161l49 -206l44 -198h3l53 198l60 206h112l60 -205l53 -199h5l42 198l49 206h161zM576 726l-149 79l-150 -78l-48 58l149 120h98l151 -120z" />
<glyph unicode="&#x175;" horiz-adv-x="753" d="M750 495l-169 -495h-120l-38 122l-44 151h-3l-43 -150l-40 -123h-119l-169 495h152l35 -123l39 -154h5l45 154l40 123h114l39 -123l44 -154h6l39 154l35 123h152zM518 521l-144 104c-48 -34 -97 -70 -145 -103l-53 48l147 155h103l148 -155z" />
<glyph unicode="&#x176;" horiz-adv-x="605" d="M603 696l-225 -411v-285h-147v285l-224 411h165l71 -150l60 -135h4l59 134l72 151h165zM454 726l-149 79l-150 -78l-48 58l149 120h98l151 -120z" />
<glyph unicode="&#x177;" horiz-adv-x="502" d="M502 495l-224 -591c-30 -80 -91 -104 -157 -104h-57v117h37c31 0 48 22 57 49l24 74l-182 455h153l48 -141l48 -156h4l47 154l50 143h152zM395 521l-144 104c-48 -34 -97 -70 -145 -103l-53 48l147 155h103l148 -155z" />
<glyph unicode="&#x179;" horiz-adv-x="549" d="M219 733l-56 69l180 128l90 -107zM520 0h-492v131l306 428h-293v137h479v-127l-305 -428h305v-141z" />
<glyph unicode="&#x17a;" horiz-adv-x="463" d="M256 537l-83 30l85 203l133 -43zM434 0h-406v119l229 254h-215v122h392v-114l-228 -253h228v-128z" />
<glyph unicode="&#x17b;" horiz-adv-x="549" d="M520 0h-492v131l306 428h-293v137h479v-127l-305 -428h305v-141zM348 749h-148v130h148v-130z" />
<glyph unicode="&#x17c;" horiz-adv-x="463" d="M317 569h-148v130h148v-130zM434 0h-406v119l229 254h-215v122h392v-114l-228 -253h228v-128z" />
<glyph unicode="&#x1fc;" horiz-adv-x="1091" d="M606 733l-56 69l180 128l90 -107zM464 696h571v-138h-338v-141h288v-133h-288v-146h338v-138h-492v149h-234l-84 -149h-182zM543 558h-4l-157 -275h161v275z" />
<glyph unicode="&#x1fd;" horiz-adv-x="799" d="M782 210h-305c9 -65 44 -86 92 -86c25 0 61 8 102 45l88 -98c-63 -58 -135 -76 -198 -76c-61 0 -128 16 -175 65c-37 -35 -93 -65 -175 -65c-96 0 -176 46 -176 152c0 84 64 153 179 153h112v16c0 22 -12 67 -86 67c-55 0 -94 -15 -123 -44l-64 92c52 57 123 69 192 69 c52 0 127 -6 168 -54c37 39 91 54 138 54c157 0 231 -106 231 -255v-35zM326 180v16h-94c-51 0 -60 -22 -60 -37c0 -13 9 -46 68 -46c44 0 86 20 86 67zM632 302c-5 45 -40 69 -76 69s-67 -25 -74 -69h150zM446 537l-83 30l85 203l133 -43z" />
<glyph unicode="&#x1fe;" horiz-adv-x="624" d="M310 701c72 0 132 -21 178 -58l44 61l51 -37l-51 -69c33 -46 51 -103 51 -168v-164c0 -166 -108 -272 -273 -272c-76 0 -136 22 -179 59l-43 -58l-49 35l50 68c-33 47 -48 106 -48 168v164c0 144 88 271 269 271zM426 444c0 3 -1 6 -1 9l-204 -277c19 -23 48 -38 88 -38 c74 0 117 51 117 117v189zM309 557c-77 0 -113 -56 -113 -113v-189v-10l202 275c-20 23 -51 37 -89 37zM267 733l-56 69l180 128l90 -107z" />
<glyph unicode="&#x1ff;" horiz-adv-x="516" d="M265 501c57 0 109 -16 147 -48l43 50l33 -29l-47 -53l3 -3c28 -41 40 -102 39 -173c0 -65 -14 -116 -38 -156c-41 -66 -115 -96 -193 -96c-59 0 -110 14 -147 45l-40 -46l-32 27l44 50c-1 1 -2 2 -2 3c-30 44 -43 104 -42 176c1 51 9 103 26 139c35 74 113 114 206 114z M274 537l-83 30l85 203l133 -43zM260 373c-28 0 -53 -16 -66 -43c-10 -21 -14 -50 -15 -84c0 -21 1 -39 4 -54l133 152c-13 19 -34 29 -56 29zM336 248c0 18 -1 35 -3 49l-131 -149c13 -16 31 -25 54 -25c34 0 60 19 71 54c4 14 9 38 9 71z" />
<glyph unicode="&#xde;" horiz-adv-x="609" d="M601 349c0 -126 -108 -218 -241 -218h-136v-131h-154v696h154v-123h123c147 0 254 -86 254 -224zM448 352c0 56 -35 83 -96 83h-128v-166h132c51 0 92 32 92 83z" />
<glyph unicode="&#xfe;" horiz-adv-x="533" d="M63 727h142v-267l3 -1c28 30 62 40 98 40c171 0 190 -156 190 -263c0 -102 -33 -242 -195 -242c-33 0 -71 19 -93 45l-3 -1v-240h-142v929zM205 246c0 -50 6 -122 72 -122s73 69 73 122c0 51 -3 123 -73 123c-68 0 -72 -75 -72 -123z" />
<glyph unicode="&#x152;" horiz-adv-x="882" d="M859 0h-483c-21 -4 -43 -6 -66 -6c-181 0 -269 127 -269 272v164c0 144 88 271 269 271c20 0 39 -2 57 -5h492v-138h-338v-141h288v-133h-288v-146h338v-138zM309 138c22 0 42 5 58 13v393c-17 8 -36 13 -58 13c-77 0 -113 -56 -113 -113v-189c0 -60 36 -117 113 -117z " />
<glyph unicode="&#xe2d0;" horiz-adv-x="346" d="M322 404c0 -81 -73 -128 -150 -128c-75 0 -148 47 -148 128v166c0 82 73 129 148 129c77 0 150 -47 150 -129v-166zM211 405v165c0 25 -16 37 -39 37c-22 0 -38 -12 -38 -37v-165c0 -24 16 -36 38 -36c23 0 39 12 39 36z" />
<glyph unicode="&#xe2d1;" horiz-adv-x="285" d="M216 279h-110v299l-65 -41v109l82 50h93v-417z" />
<glyph unicode="&#xe2d2;" horiz-adv-x="343" d="M129 552l-108 15c10 82 79 132 152 132c86 0 149 -41 149 -122c0 -34 -14 -64 -35 -86l-112 -117h145v-95h-299v83l179 185c7 7 11 16 11 23c0 18 -13 34 -37 34c-19 0 -40 -15 -45 -52z" />
<glyph unicode="&#xe2d3;" horiz-adv-x="346" d="M19 396l106 14c5 -27 25 -39 47 -39c24 0 43 15 43 39s-16 43 -51 43h-36v81h37c35 0 48 18 48 36c0 19 -17 34 -41 34c-17 0 -37 -10 -43 -43l-105 16c17 77 83 122 152 122c106 0 152 -58 152 -124c0 -25 -13 -65 -50 -81c40 -16 53 -58 53 -85 c0 -78 -62 -133 -157 -133c-65 0 -137 33 -155 120z" />
<glyph unicode="&#xe2d4;" horiz-adv-x="353" d="M341 335h-36v-56h-109v56h-188v76l156 285h123l-149 -268h58v74h109v-74h36v-93z" />
<glyph unicode="&#xe2d5;" horiz-adv-x="350" d="M26 395l108 18c6 -33 22 -42 42 -42c36 0 43 34 43 61c0 28 -10 53 -43 53c-13 0 -29 -9 -41 -34h-98v245h279v-93h-174v-41c18 10 41 13 59 13c94 0 127 -56 130 -135c0 -101 -50 -164 -152 -164c-62 0 -136 24 -153 119z" />
<glyph unicode="&#xe2d6;" horiz-adv-x="343" d="M324 417c0 -100 -80 -141 -156 -141c-73 0 -146 48 -146 135c0 25 6 51 19 72l124 213h124l-92 -158c82 3 127 -50 127 -121zM211 412c0 28 -17 41 -40 41c-21 0 -40 -13 -40 -41s17 -41 40 -41c18 0 40 13 40 41z" />
<glyph unicode="&#xe2d7;" horiz-adv-x="340" d="M320 616l-163 -337h-115l150 322h-61v-54h-109v149h298v-80z" />
<glyph unicode="&#xe2d8;" horiz-adv-x="354" d="M178 276c-84 0 -157 52 -157 131c0 31 15 68 49 89c-26 17 -41 49 -41 77c0 73 64 126 149 126c100 0 149 -53 149 -126c0 -28 -14 -58 -40 -78c33 -19 48 -56 48 -88c0 -79 -72 -131 -157 -131zM226 410c0 22 -17 41 -48 41c-29 0 -48 -19 -48 -41s20 -41 48 -41 c29 0 48 19 48 41zM219 570c0 21 -16 37 -41 37c-24 0 -40 -14 -40 -37c0 -21 18 -32 40 -32s41 13 41 32z" />
<glyph unicode="&#xe2d9;" horiz-adv-x="347" d="M20 559c0 99 79 140 155 140c77 0 147 -48 147 -135c0 -25 -7 -51 -20 -72l-125 -213h-123l92 157c-80 -1 -126 52 -126 123zM130 563c0 -29 18 -42 40 -42s40 13 40 42c0 28 -17 41 -40 41c-18 0 -40 -12 -40 -41z" />
<glyph unicode="&#xe2da;" horiz-adv-x="242" d="M239 239l-66 -45c-76 74 -138 170 -138 269c0 100 61 192 134 265l69 -39c-63 -75 -91 -158 -91 -223c0 -72 32 -155 92 -227z" />
<glyph unicode="&#xe2db;" horiz-adv-x="242" d="M228 463c0 -99 -62 -195 -138 -269l-66 45c60 72 92 155 92 227c0 64 -28 148 -92 223l69 39c74 -73 135 -165 135 -265z" />
<glyph unicode="&#xe2dc;" horiz-adv-x="194" d="M92 192h-61l26 86h-22v111h124v-101z" />
<glyph unicode="&#xe2dd;" horiz-adv-x="193" d="M158 279h-123v110h123v-110z" />
<glyph unicode="&#xe2f4;" horiz-adv-x="346" d="M322 125c0 -81 -73 -128 -150 -128c-75 0 -148 47 -148 128v166c0 82 73 129 148 129c77 0 150 -47 150 -129v-166zM211 126v165c0 25 -16 37 -39 37c-22 0 -38 -12 -38 -37v-165c0 -24 16 -36 38 -36c23 0 39 12 39 36z" />
<glyph unicode="&#xe2f5;" horiz-adv-x="285" d="M216 0h-110v299l-65 -41v109l82 50h93v-417z" />
<glyph unicode="&#xe2f6;" horiz-adv-x="343" d="M129 273l-108 15c10 82 76 132 149 132c86 0 151 -41 151 -122c0 -32 -13 -64 -34 -86l-112 -117h145v-95h-299v83l179 186v-1c7 7 10 16 10 23c0 18 -14 34 -38 34c-21 0 -38 -15 -43 -52z" />
<glyph unicode="&#xe2f7;" horiz-adv-x="346" d="M19 116l106 14c5 -27 25 -39 47 -39c24 0 43 15 43 39s-16 43 -51 43h-36v81h37c35 0 48 18 48 36c0 19 -17 34 -41 34c-17 0 -37 -10 -43 -43l-105 16c17 77 83 122 152 122c106 0 152 -58 152 -124c0 -25 -13 -65 -50 -81c40 -16 53 -58 53 -85 c0 -78 -62 -133 -157 -133c-65 0 -137 33 -155 120z" />
<glyph unicode="&#xe2f8;" horiz-adv-x="353" d="M341 56h-36v-56h-109v56h-188v76l156 285h123l-149 -268h58v74h109v-74h36v-93z" />
<glyph unicode="&#xe2f9;" horiz-adv-x="350" d="M26 116l108 18c6 -33 22 -42 42 -42c36 0 43 34 43 61c0 28 -10 53 -43 53c-13 0 -29 -9 -41 -34h-98v245h279v-93h-174v-41c18 10 41 13 59 13c94 0 127 -56 130 -135c0 -101 -50 -164 -152 -164c-62 0 -136 24 -153 119z" />
<glyph unicode="&#xe2fa;" horiz-adv-x="343" d="M324 138c0 -100 -80 -141 -156 -141c-73 0 -146 48 -146 135c0 25 6 51 19 72l124 213h124l-92 -158c82 3 127 -50 127 -121zM211 133c0 28 -17 41 -40 41c-21 0 -40 -13 -40 -41s17 -41 40 -41c18 0 40 13 40 41z" />
<glyph unicode="&#xe2fb;" horiz-adv-x="340" d="M320 337l-163 -337h-115l150 322h-61v-54h-109v149h298v-80z" />
<glyph unicode="&#xe2fc;" horiz-adv-x="354" d="M178 -4c-84 0 -157 52 -157 131c0 31 15 68 49 89c-26 17 -41 49 -41 77c0 73 64 126 149 126c100 0 149 -53 149 -126c0 -28 -14 -58 -40 -78c33 -19 48 -56 48 -88c0 -79 -72 -131 -157 -131zM226 130c0 22 -17 41 -48 41c-29 0 -48 -19 -48 -41s20 -41 48 -41 c29 0 48 19 48 41zM219 290c0 21 -16 37 -41 37c-24 0 -40 -14 -40 -37c0 -21 18 -32 40 -32s41 13 41 32z" />
<glyph unicode="&#xe2fd;" horiz-adv-x="347" d="M20 280c0 99 79 140 155 140c73 0 147 -48 147 -135c0 -25 -7 -51 -20 -72l-125 -213h-123l92 157c-80 -1 -126 52 -126 123zM130 284c0 -29 18 -42 40 -42s40 13 40 42c0 28 -17 41 -40 41c-18 0 -40 -12 -40 -41z" />
<glyph unicode="&#xe2fe;" horiz-adv-x="242" d="M239 -40l-66 -45c-76 74 -138 170 -138 269c0 100 61 192 134 265l69 -39c-63 -75 -91 -158 -91 -223c0 -72 32 -155 92 -227z" />
<glyph unicode="&#xe2ff;" horiz-adv-x="242" d="M228 184c0 -99 -62 -195 -138 -269l-66 45c60 72 92 155 92 227c0 64 -28 148 -92 223l69 39c74 -73 135 -165 135 -265z" />
<glyph unicode="&#xe300;" horiz-adv-x="194" d="M92 -87h-61l26 86h-22v111h124v-101z" />
<glyph unicode="&#xe301;" horiz-adv-x="193" d="M158 0h-123v110h123v-110z" />
<glyph unicode="&#xe0d8;" horiz-adv-x="373" d="M352 -49l-83 -63c-113 122 -206 281 -206 447c0 170 91 322 202 443l86 -55c-94 -124 -137 -267 -137 -383c0 -127 49 -270 138 -389z" />
<glyph unicode="&#xe0d9;" horiz-adv-x="373" d="M341 335c0 -166 -92 -325 -205 -447l-84 63c90 119 138 262 138 389c0 116 -42 259 -137 383l86 55c112 -121 202 -273 202 -443z" />
<glyph unicode="&#xe0da;" horiz-adv-x="440" d="M393 222h-346v131h346v-131z" />
<glyph unicode="&#xe0db;" horiz-adv-x="314" d="M296 -65h-229v794h229v-106h-93v-583h93v-105z" />
<glyph unicode="&#xe0dc;" horiz-adv-x="314" d="M246 -65h-228v105h92v583h-92v106h228v-794z" />
<glyph unicode="&#xe0dd;" horiz-adv-x="314" d="M305 -63h-98c-66 0 -119 49 -119 124v131c0 58 -25 87 -76 87v104c51 2 76 31 76 90v129c0 75 53 124 119 124h98v-101h-41c-30 0 -40 -33 -40 -58v-117c0 -61 -37 -100 -76 -119c46 -17 76 -58 76 -117v-118c0 -25 -1 -59 40 -59h41v-100z" />
<glyph unicode="&#xe0de;" horiz-adv-x="314" d="M304 279c-51 0 -77 -29 -77 -87v-131c0 -75 -52 -124 -118 -124h-98v100h41c41 0 40 34 40 59v118c0 59 29 100 76 117c-39 19 -76 58 -76 119v117c0 25 -11 58 -40 58h-41v101h98c66 0 118 -49 118 -124v-129c0 -59 26 -88 77 -90v-104z" />
<glyph unicode="&#xe0df;" horiz-adv-x="525" d="M505 249h-485v124h485v-124z" />
<glyph unicode="&#xe0e0;" horiz-adv-x="1050" d="M1030 249h-1010v124h1010v-124z" />
<glyph unicode="&#xe0e1;" horiz-adv-x="294" d="M77 -171l10 505h123l11 -505h-144zM75 525h147v-128h-147v128z" />
<glyph unicode="&#xe0e2;" horiz-adv-x="495" d="M339 50l146 -17c-13 -134 -121 -210 -231 -210c-138 0 -220 85 -220 198c0 127 149 168 149 287v22h147v-27c0 -77 -25 -118 -91 -204c-17 -21 -43 -51 -43 -79c0 -36 32 -59 67 -59c44 0 73 25 76 89zM183 524h147v-128h-147v128z" />
<glyph unicode="&#xe0e3;" horiz-adv-x="591" d="M560 40h-140l-146 214l146 214h140l-142 -214zM332 40h-140l-146 214l146 214h140l-143 -214z" />
<glyph unicode="&#xe0e4;" horiz-adv-x="591" d="M186 40h-140l142 214l-142 214h140l146 -214zM414 40h-140l143 214l-143 214h140l146 -214z" />
<glyph unicode="&#x212e;" horiz-adv-x="817" d="M745 297h-544v-153c40 -60 118 -99 194 -99c81 0 155 41 205 104h98c-80 -98 -191 -160 -304 -160c-193 0 -351 148 -351 333c0 187 158 335 351 335c198 0 344 -151 351 -360zM586 350v154c-35 59 -117 95 -191 95c-65 0 -140 -38 -194 -99v-150h385z" />
<glyph unicode="&#x2116;" horiz-adv-x="1001" d="M603 0h-137l-156 257l-84 156l-2 -1v-412h-154v696h137l126 -214l114 -200l2 1v413h154v-696zM662 239v84h274v-84h-274zM803 704c53 0 101 -20 127 -57c18 -26 27 -67 27 -113c0 -41 -10 -74 -27 -101c-28 -44 -82 -66 -136 -66s-99 18 -125 54c-22 30 -30 68 -29 115 c1 34 6 66 18 91c24 49 80 77 145 77zM800 610c-18 0 -32 -9 -40 -24c-6 -11 -9 -30 -9 -51c0 -20 3 -37 9 -49c7 -15 19 -24 37 -24c22 0 35 13 42 31c3 9 6 25 6 43c0 24 -3 42 -7 51c-7 15 -22 23 -38 23z" />
<glyph unicode="&#x2105;" horiz-adv-x="791" d="M599 359c99 0 157 -60 157 -178c0 -126 -71 -186 -166 -186c-101 0 -157 63 -157 177c0 120 60 187 166 187zM596 255c-32 0 -48 -28 -48 -79c0 -47 14 -76 45 -76s47 22 47 78c0 59 -18 77 -44 77zM202 444c16 0 35 8 61 32l76 -76c-44 -47 -92 -61 -140 -61 c-88 0 -164 54 -164 181c0 128 81 181 170 181c48 0 91 -17 131 -57l-67 -77c-21 20 -40 31 -57 31c-36 0 -60 -22 -60 -78c0 -55 16 -76 50 -76zM672 713l-426 -730h-117l425 730h118z" />
<glyph unicode="&#x2113;" horiz-adv-x="504" d="M380 196l88 -36c-38 -101 -103 -170 -195 -170c-100 0 -170 71 -170 171v21c-11 -5 -28 -19 -43 -26l-41 67c27 17 61 37 83 57v206c0 162 72 225 164 225c62 0 132 -40 132 -138c0 -109 -62 -207 -188 -324v-45c0 -85 40 -114 74 -114c35 0 72 38 96 106zM210 502v-128 c59 67 91 130 91 203c0 23 -13 45 -40 45c-25 0 -51 -36 -51 -120z" />
<glyph unicode="&#x2202;" horiz-adv-x="530" d="M248 111c70 0 101 104 108 189c-39 37 -79 47 -108 47c-48 0 -81 -61 -81 -118c0 -82 38 -118 81 -118zM246 -10c-129 0 -227 83 -227 237c0 145 99 237 223 237c36 0 74 -8 110 -23c-7 92 -72 163 -150 163c-19 0 -47 2 -97 -15l-2 117c38 10 77 15 107 15 c213 0 293 -175 293 -370c0 -239 -110 -361 -257 -361z" />
<glyph unicode="&#x220f;" horiz-adv-x="674" d="M604 -78h-152v635h-228v-635h-154v774h534v-774z" />
<glyph unicode="&#x2211;" horiz-adv-x="549" d="M521 -78h-492v142l154 247l-155 247v138h479v-138h-294l152 -246l-150 -248h306v-142z" />
<glyph unicode="&#x2212;" d="M19 356h511v-116h-511v116z" />
<glyph unicode="&#x221a;" horiz-adv-x="613" d="M593 791l-209 -868h-116l-146 375l-63 -17l-38 99l191 60l101 -267l140 618h140z" />
<glyph unicode="&#x221e;" horiz-adv-x="761" d="M222 447c60 0 123 -42 161 -80c42 52 88 80 163 80c98 0 170 -71 170 -169c0 -90 -78 -170 -177 -170c-67 0 -117 38 -158 82c-42 -46 -89 -82 -165 -82c-96 0 -171 70 -171 170c0 90 80 169 177 169zM222 337c-28 0 -55 -26 -55 -58c0 -34 26 -63 53 -63 c32 0 63 28 88 61c-23 30 -53 60 -86 60zM542 337c-29 0 -59 -25 -88 -58c29 -33 59 -63 87 -63c27 0 54 29 54 62s-26 59 -53 59z" />
<glyph unicode="&#x2227;" horiz-adv-x="569" d="M19 0l214 536h111l206 -536h-158l-103 281l-110 -281h-160z" />
<glyph unicode="&#x2228;" horiz-adv-x="569" d="M233 0l-214 536h160l110 -280l103 280h158l-206 -536h-111z" />
<glyph unicode="&#x2229;" horiz-adv-x="569" d="M527 317v-317h-142v307c0 54 -34 106 -103 106c-68 0 -101 -47 -101 -106v-307h-139v317c0 114 88 219 240 219s245 -92 245 -219z" />
<glyph unicode="&#x222a;" horiz-adv-x="569" d="M527 535v-318c0 -125 -93 -218 -245 -218s-240 104 -240 218v318h139v-308c0 -58 33 -105 101 -105c69 0 103 52 103 105v308h142z" />
<glyph unicode="&#x222b;" horiz-adv-x="316" d="M97 437c0 35 3 105 9 145c20 134 74 190 174 190c22 0 62 -7 85 -15l-22 -94c-20 3 -37 6 -51 6c-38 0 -58 -22 -67 -135c-4 -52 -5 -253 -5 -345c0 -256 -53 -335 -177 -335c-22 0 -65 6 -92 19l28 91c24 -5 45 -9 61 -7c22 2 37 15 43 54c10 61 14 184 14 426z" />
<glyph unicode="&#x2248;" horiz-adv-x="569" d="M206 483c61 -1 118 -55 156 -55c27 0 51 18 81 56l77 -47c-41 -86 -87 -122 -142 -122c-63 0 -121 53 -164 53c-27 0 -53 -12 -87 -56l-75 47c40 79 83 124 154 124zM206 276c61 -1 118 -55 156 -55c27 0 51 18 81 56l77 -47c-41 -86 -87 -122 -142 -122 c-63 0 -121 53 -164 53c-27 0 -53 -12 -87 -56l-75 47c40 79 83 124 154 124z" />
<glyph unicode="&#x2260;" d="M532 128h-298l-76 -127h-121l76 127h-95v111h162l71 118h-233v111h300l77 128h122l-78 -128h93v-111h-160l-71 -118h231v-111z" />
<glyph unicode="&#x2264;" horiz-adv-x="569" d="M541 171l-513 165v99l513 178v-130l-301 -97h1l300 -84v-131zM541 0h-512v116h512v-116z" />
<glyph unicode="&#x2265;" horiz-adv-x="569" d="M542 336l-513 -165v131l300 84h1l-301 97v130l513 -178v-99zM541 0h-512v116h512v-116z" />
<glyph unicode="&#x25ca;" horiz-adv-x="530" d="M467 318l-173 -336h-82c-17 34 -156 301 -174 336l175 337h82zM354 318l-101 202c-12 -26 -87 -175 -99 -201c12 -26 90 -177 101 -202c14 26 86 174 99 201z" />
<glyph unicode="&#x2044;" horiz-adv-x="206" d="M375 713l-426 -730h-117l425 730h118z" />
<glyph unicode="&#x2215;" horiz-adv-x="206" d="M375 713l-426 -730h-117l425 730h118z" />
<glyph unicode="&#x2207;" horiz-adv-x="661" d="M-2 696h661l-270 -696h-121zM388 374l61 189h-241l63 -189l55 -185h7z" />
<glyph unicode="&#xe000;" horiz-adv-x="532" d="M487 204c0 -133 -107 -209 -222 -209c-113 0 -220 76 -220 209v287c0 134 107 210 220 210c115 0 222 -76 222 -210v-287zM339 205v286c0 52 -30 77 -74 77s-73 -25 -73 -77v-286c0 -52 29 -77 73 -77s74 25 74 77z" />
<glyph unicode="&#xe001;" horiz-adv-x="439" d="M323 0h-147v531l-104 -72v154l120 83h131v-696z" />
<glyph unicode="&#xe002;" horiz-adv-x="528" d="M186 474l-144 24c14 125 110 203 220 203c127 0 224 -65 224 -198c0 -51 -18 -103 -49 -139l-198 -226h246v-138h-445v123l278 319c13 15 19 32 19 50c0 36 -26 71 -72 71c-39 0 -71 -25 -79 -89z" />
<glyph unicode="&#xe003;" horiz-adv-x="533" d="M38 178l142 20c8 -45 43 -65 84 -65c43 0 81 29 81 81c0 51 -29 87 -93 87h-60v115h62c64 0 88 36 88 75c0 41 -35 72 -78 72c-30 0 -67 -17 -76 -73l-141 25c24 119 120 186 223 186c158 0 229 -94 229 -201c0 -46 -35 -116 -93 -141c67 -28 97 -96 97 -147 c0 -128 -94 -217 -235 -217c-98 0 -203 51 -230 183z" />
<glyph unicode="&#xe004;" horiz-adv-x="543" d="M518 97h-56v-97h-147v97h-296v115l241 484h164l-235 -466h126v182h147v-182h56v-133z" />
<glyph unicode="&#xe005;" horiz-adv-x="539" d="M49 177l145 27c8 -56 39 -71 77 -71c67 0 79 65 79 117c0 57 -17 107 -79 107c-23 0 -54 -15 -73 -58h-134v397h414v-135h-273v-108c27 23 73 34 105 34c141 0 187 -93 192 -221c0 -167 -75 -271 -227 -271c-92 0 -202 35 -226 182z" />
<glyph unicode="&#xe006;" horiz-adv-x="528" d="M490 225c0 -163 -118 -230 -232 -230c-109 0 -217 78 -217 220c0 42 9 83 28 119l193 362h165l-145 -273l1 -2c129 13 207 -75 207 -196zM339 217c0 59 -35 85 -76 85c-40 0 -75 -26 -75 -85s30 -84 75 -84c34 0 76 24 76 84z" />
<glyph unicode="&#xe007;" horiz-adv-x="523" d="M484 573l-250 -573h-155l235 558h-126v-94h-147v232h443v-123z" />
<glyph unicode="&#xe008;" horiz-adv-x="545" d="M416 363v-4c63 -23 93 -93 93 -150c0 -129 -108 -214 -235 -214s-235 85 -235 214c0 56 27 124 92 149v5c-54 22 -78 81 -78 133c0 117 94 205 221 205c149 0 222 -88 222 -205c0 -53 -25 -106 -80 -133zM350 492c0 44 -28 78 -76 78c-47 0 -75 -31 -75 -78 c0 -46 35 -70 75 -70s76 27 76 70zM362 214c0 45 -40 80 -88 80c-47 0 -88 -35 -88 -80c0 -46 35 -85 88 -85c54 0 88 39 88 85z" />
<glyph unicode="&#xe009;" horiz-adv-x="534" d="M38 471c0 163 117 230 231 230c110 0 218 -78 218 -220c0 -42 -9 -83 -29 -119l-193 -362h-165l145 273l-1 2c-129 -13 -206 75 -206 196zM186 479c0 -59 34 -85 75 -85c40 0 76 26 76 85s-31 84 -76 84c-33 0 -75 -24 -75 -84z" />
<glyph unicode="&#xe00a;" horiz-adv-x="584" d="M457 396l-15 -95h92v-98h-106l-29 -203h-121l30 203h-83l-30 -203h-122l30 203h-85v98h101l14 95h-87v99h102l30 201h118l-29 -201h85l30 201h118l-29 -201h91v-99h-105zM253 396l-15 -95h85l15 95h-85z" />
<glyph unicode="&#xe00b;" horiz-adv-x="561" d="M244 -106v103c-82 5 -154 34 -230 104l86 110c52 -43 93 -65 144 -70v138c-100 37 -200 90 -200 210c0 115 79 198 200 210v67h55v-66c74 -3 140 -25 211 -74l-76 -127c-55 36 -92 54 -135 58v-131c144 -48 231 -107 231 -220c0 -130 -99 -204 -231 -210v-102h-55z M357 194c0 35 -21 53 -58 68v-120c41 7 58 27 58 52zM199 501c0 -22 19 -39 45 -53v106c-26 -7 -45 -22 -45 -53z" />
<glyph unicode="&#xe00c;" horiz-adv-x="556" d="M17 332h37v24h-37v85h37c8 161 111 254 251 254c114 0 192 -65 231 -168l-137 -55c-16 46 -54 74 -94 74c-59 0 -90 -25 -100 -105h167v-85h-169v-24h169v-86h-167c8 -79 47 -104 100 -104c40 0 77 27 93 76l144 -41c-38 -111 -116 -183 -237 -183 c-140 0 -242 77 -251 252h-37v86z" />
<glyph unicode="&#xe00d;" horiz-adv-x="528" d="M120 306l-2 125h93l7 55c11 98 56 214 197 214c34 -1 79 -11 110 -23l-30 -120c-44 17 -53 17 -78 17c-36 0 -51 -50 -57 -94c-2 -18 -5 -31 -7 -49h92l2 -125h-107l-25 -188c-15 -117 -62 -221 -182 -221c-33 0 -92 15 -129 32l36 118c42 -17 59 -19 74 -19 c31 0 50 37 58 103l22 175h-74z" />
<glyph unicode="&#xe00e;" horiz-adv-x="556" d="M524 580l-119 -81c-41 57 -69 69 -108 69c-34 0 -72 -27 -72 -73c0 -35 29 -67 41 -124h141v-104h-140c-5 -50 -18 -102 -39 -142h284v-125h-472v108c40 52 62 95 68 159h-73v104h65c-15 49 -39 91 -39 129c0 99 64 200 228 200c92 0 158 -10 235 -120z" />
<glyph unicode="&#xe00f;" horiz-adv-x="456" d="M444 70c-47 -42 -101 -68 -158 -74v-131h-58v131c-111 10 -200 88 -200 251c0 160 92 236 200 250v139h58v-137c58 -4 109 -26 154 -71l-92 -97c-30 29 -58 41 -83 41c-57 0 -88 -36 -88 -125c0 -88 26 -123 85 -123c26 0 56 12 88 42z" />
<glyph unicode="&#xe010;" d="M59 241h142v42h-142v82h98l-170 331h171l74 -165l47 -124h4l46 126l75 163h159l-171 -331h101v-82h-145v-42h145v-82h-145v-159h-147v159h-142v82z" />
<glyph unicode="&#xe024;" d="M496 208c0 -133 -87 -214 -222 -214c-129 0 -220 81 -220 214v77c0 134 100 215 220 215c126 0 222 -81 222 -215v-77zM348 209v76c0 52 -30 82 -74 82s-73 -30 -73 -82v-76c0 -52 29 -82 73 -82s74 30 74 82z" />
<glyph unicode="&#xe025;" d="M76 129h128v201l-104 -72v154l120 83h131v-366h123v-129h-398v129z" />
<glyph unicode="&#xe026;" d="M301 130l1 -2h186v-128h-423v112l195 138c43 31 51 52 51 73c0 23 -21 38 -45 38c-30 0 -56 -15 -63 -63l-137 29c20 138 117 173 217 173c105 0 190 -56 190 -161c0 -38 -22 -100 -104 -159z" />
<glyph unicode="&#xe027;" d="M48 11l140 19c8 -42 41 -61 80 -61c41 0 76 26 76 74c0 47 -27 79 -88 79h-60v112h62c61 0 84 33 84 67c0 38 -33 66 -74 66c-28 0 -63 -16 -72 -68l-140 23c24 114 118 178 218 178c153 0 223 -88 223 -190c0 -41 -34 -106 -87 -132c64 -27 91 -89 91 -137 c0 -120 -92 -205 -229 -205c-95 0 -197 49 -224 175z" />
<glyph unicode="&#xe028;" d="M510 0h-54v-159h-146v159h-256v111l184 384h163l-177 -366h86v130h146v-130h54v-129z" />
<glyph unicode="&#xe029;" d="M54 10l144 26c8 -53 37 -67 73 -67c63 0 74 60 74 108c0 52 -16 98 -74 98c-22 0 -51 -14 -69 -55h-133v375h403v-130h-263v-93c26 20 70 28 99 28c138 0 183 -88 188 -208c0 -157 -74 -256 -222 -256c-89 0 -196 34 -220 174z" />
<glyph unicode="&#xe02a;" d="M494 213c0 -154 -116 -218 -226 -218c-106 0 -212 75 -212 208c0 41 9 78 27 112l188 339h164l-139 -256c124 11 198 -73 198 -185zM344 205c0 54 -33 77 -71 77s-71 -23 -71 -77s28 -77 71 -77c32 0 71 22 71 77z" />
<glyph unicode="&#xe02b;" d="M491 378l-241 -537h-155l227 521h-117v-87h-146v220h432v-117z" />
<glyph unicode="&#xe02c;" d="M413 340v-1c59 -23 90 -88 90 -142c0 -121 -105 -202 -229 -202c-123 0 -228 81 -228 202c0 53 26 117 90 141l-1 1c-50 24 -76 79 -76 126c0 111 92 194 215 194c145 0 217 -83 217 -194c0 -47 -29 -98 -78 -125zM358 202c0 41 -38 72 -84 72c-44 0 -83 -31 -83 -72 c0 -42 33 -78 83 -78c52 0 84 36 84 78zM346 461c0 41 -26 72 -72 72c-44 0 -70 -28 -70 -72c0 -41 33 -62 70 -62c38 0 72 24 72 62z" />
<glyph unicode="&#xe02d;" d="M56 285c0 153 115 216 225 216c107 0 213 -73 213 -208c0 -38 -10 -79 -28 -112l-188 -339h-164l139 257c-124 -11 -197 72 -197 186zM203 291c0 -53 32 -77 71 -77c37 0 71 24 71 77c0 55 -29 77 -71 77c-31 0 -71 -21 -71 -77z" />
<glyph unicode="&#xe02e;" d="M425 337l-14 -81h83v-83h-95l-26 -173h-109l27 173h-75l-27 -173h-110l27 173h-76v83h91l12 81h-78v84h92l27 171h106l-26 -171h76l27 171h107l-27 -171h82v-84h-94zM241 337l-13 -81h76l14 81h-77z" />
<glyph unicode="&#xe02f;" d="M238 -89v86c-71 5 -136 29 -207 91l81 95c48 -37 84 -56 126 -60v113c-89 31 -179 77 -179 180c0 97 71 168 179 179v56h54v-55c66 -3 125 -21 190 -64l-71 -111c-50 31 -83 46 -119 49v-106c126 -41 207 -92 207 -188c0 -109 -90 -173 -207 -179v-86h-54zM340 166 c0 27 -18 42 -48 55v-97c35 6 48 22 48 42zM202 426c0 -17 16 -31 36 -42v83c-21 -6 -36 -18 -36 -41z" />
<glyph unicode="&#xe030;" d="M47 281h34v23h-34v76h34c7 136 101 212 227 212c102 0 173 -56 209 -146l-127 -48c-14 40 -47 63 -82 63c-53 0 -79 -17 -88 -81h150v-76h-152v-23h152v-76h-150c7 -64 41 -81 88 -81c35 0 66 23 80 64l135 -36c-35 -95 -107 -157 -215 -157c-126 0 -218 62 -227 210h-34 v76z" />
<glyph unicode="&#xe031;" d="M142 248v117h90l7 52c15 94 54 201 191 201c33 -1 74 -8 107 -22l-29 -108c-23 8 -50 12 -67 12c-46 0 -58 -47 -64 -89c-3 -20 -5 -29 -7 -46h91v-117h-103c-6 -61 -15 -116 -25 -177c-18 -109 -60 -208 -176 -208c-32 0 -76 3 -125 24l36 112c39 -11 49 -13 63 -13 c30 0 49 16 60 78c10 57 18 128 25 184h-74z" />
<glyph unicode="&#xe032;" d="M494 491l-109 -70c-36 49 -66 59 -95 59c-31 0 -63 -22 -63 -59c0 -38 32 -62 37 -104h126v-91h-125c-5 -42 -15 -84 -33 -117h252v-109h-426v94c35 43 55 81 61 132h-66v91h58c-12 35 -35 66 -35 108c0 84 67 171 207 171c59 0 140 -8 211 -105z" />
<glyph unicode="&#xe033;" d="M463 114v-3c-42 -35 -90 -57 -141 -63v-111h-56v111c-100 8 -179 75 -179 214c0 135 83 201 179 213v118h56v-116c52 -3 97 -23 138 -62l-85 -85c-26 25 -51 35 -73 35c-51 0 -78 -29 -78 -103s23 -103 75 -103c23 0 50 11 78 36z" />
<glyph unicode="&#xe034;" d="M79 208h127v32h-127v72h86l-153 281h160l66 -142l41 -103h1l41 105l67 140h149l-154 -281h89v-72h-130v-32h130v-74h-130v-134h-136v134h-127v74z" />
<glyph unicode="&#xe048;" horiz-adv-x="534" d="M490 208c0 -133 -87 -214 -222 -214c-129 0 -220 81 -220 214v77c0 134 100 215 220 215c126 0 222 -81 222 -215v-77zM342 209v76c0 52 -30 82 -74 82s-73 -30 -73 -82v-76c0 -52 29 -82 73 -82s74 30 74 82z" />
<glyph unicode="&#xe049;" horiz-adv-x="489" d="M50 129h128v201l-104 -72v154l120 83h131v-366h123v-129h-398v129z" />
<glyph unicode="&#xe04a;" horiz-adv-x="499" d="M279 130l1 -2h186v-128h-423v112l195 138c43 31 51 52 51 73c0 23 -21 38 -45 38c-30 0 -56 -15 -63 -63l-137 29c20 138 117 173 217 173c105 0 190 -56 190 -161c0 -38 -22 -100 -104 -159z" />
<glyph unicode="&#xe04b;" horiz-adv-x="522" d="M31 11l140 19c8 -42 41 -61 80 -61c41 0 76 26 76 74c0 47 -27 79 -88 79h-60v112h62c61 0 84 33 84 67c0 38 -33 66 -74 66c-28 0 -63 -16 -72 -68l-140 23c24 114 118 178 218 178c153 0 223 -88 223 -190c0 -41 -34 -106 -87 -132c64 -27 91 -89 91 -137 c0 -120 -92 -205 -229 -205c-95 0 -197 49 -224 175z" />
<glyph unicode="&#xe04c;" horiz-adv-x="511" d="M492 0h-54v-159h-146v159h-256v111l184 384h163l-177 -366h86v130h146v-130h54v-129z" />
<glyph unicode="&#xe04d;" horiz-adv-x="506" d="M34 10l144 26c8 -53 37 -67 73 -67c63 0 74 60 74 108c0 52 -16 98 -74 98c-22 0 -51 -14 -69 -55h-133v375h403v-130h-263v-93c26 20 70 28 99 28c138 0 183 -88 188 -208c0 -157 -74 -256 -222 -256c-89 0 -196 34 -220 174z" />
<glyph unicode="&#xe04e;" horiz-adv-x="483" d="M464 213c0 -154 -116 -218 -226 -218c-106 0 -212 75 -212 208c0 41 9 78 27 112l188 339h164l-139 -256c124 11 198 -73 198 -185zM314 205c0 54 -33 77 -71 77s-71 -23 -71 -77s28 -77 71 -77c32 0 71 22 71 77z" />
<glyph unicode="&#xe04f;" horiz-adv-x="489" d="M469 378l-241 -537h-155l227 521h-117v-87h-146v220h432v-117z" />
<glyph unicode="&#xe050;" horiz-adv-x="517" d="M397 340v-1c59 -23 90 -88 90 -142c0 -121 -105 -202 -229 -202c-123 0 -228 81 -228 202c0 53 26 117 90 141l-1 1c-50 24 -76 79 -76 126c0 111 92 194 215 194c145 0 217 -83 217 -194c0 -47 -29 -98 -78 -125zM342 202c0 41 -38 72 -84 72c-44 0 -83 -31 -83 -72 c0 -42 33 -78 83 -78c52 0 84 36 84 78zM330 461c0 41 -26 72 -72 72c-44 0 -70 -28 -70 -72c0 -41 33 -62 70 -62c38 0 72 24 72 62z" />
<glyph unicode="&#xe051;" horiz-adv-x="511" d="M38 285c0 153 115 216 225 216c107 0 213 -73 213 -208c0 -38 -10 -79 -28 -112l-188 -339h-164l139 257c-124 -11 -197 72 -197 186zM185 291c0 -53 32 -77 71 -77c37 0 71 24 71 77c0 55 -29 77 -71 77c-31 0 -71 -21 -71 -77z" />
<glyph unicode="&#xe052;" horiz-adv-x="511" d="M403 337l-14 -81h83v-83h-95l-26 -173h-109l27 173h-75l-27 -173h-110l27 173h-76v83h91l12 81h-78v84h92l27 171h106l-26 -171h76l27 171h107l-27 -171h82v-84h-94zM219 337l-13 -81h76l14 81h-77z" />
<glyph unicode="&#xe053;" horiz-adv-x="500" d="M220 -89v86c-71 5 -136 29 -207 91l81 95c48 -37 84 -56 126 -60v113c-89 31 -179 77 -179 180c0 97 71 168 179 179v56h54v-55c66 -3 125 -21 190 -64l-71 -111c-50 31 -83 46 -119 49v-106c126 -41 207 -92 207 -188c0 -109 -90 -173 -207 -179v-86h-54zM322 166 c0 27 -18 42 -48 55v-97c35 6 48 22 48 42zM184 426c0 -17 16 -31 36 -42v83c-21 -6 -36 -18 -36 -41z" />
<glyph unicode="&#xe054;" horiz-adv-x="522" d="M27 281h34v23h-34v76h34c7 136 101 212 227 212c102 0 173 -56 209 -146l-127 -48c-14 40 -47 63 -82 63c-53 0 -79 -17 -88 -81h150v-76h-152v-23h152v-76h-150c7 -64 41 -81 88 -81c35 0 66 23 80 64l135 -36c-35 -95 -107 -157 -215 -157c-126 0 -218 62 -227 210h-34 v76z" />
<glyph unicode="&#xe055;" horiz-adv-x="489" d="M102 248v117h90l7 52c15 94 54 201 191 201c33 -1 74 -8 107 -22l-29 -108c-23 8 -50 12 -67 12c-46 0 -58 -47 -64 -89c-3 -20 -5 -29 -7 -46h91v-117h-103c-6 -61 -15 -116 -25 -177c-18 -109 -60 -208 -176 -208c-32 0 -76 3 -125 24l36 112c39 -11 49 -13 63 -13 c30 0 49 16 60 78c10 57 18 128 25 184h-74z" />
<glyph unicode="&#xe056;" horiz-adv-x="494" d="M470 491l-109 -70c-36 49 -66 59 -95 59c-31 0 -63 -22 -63 -59c0 -38 32 -62 37 -104h126v-91h-125c-5 -42 -15 -84 -33 -117h252v-109h-426v94c35 43 55 81 61 132h-66v91h58c-12 35 -35 66 -35 108c0 84 67 171 207 171c59 0 140 -8 211 -105z" />
<glyph unicode="&#xe057;" horiz-adv-x="411" d="M404 114v-3c-42 -35 -90 -57 -141 -63v-111h-56v111c-100 8 -179 75 -179 214c0 135 83 201 179 213v118h56v-116c52 -3 97 -23 138 -62l-85 -85c-26 25 -51 35 -73 35c-51 0 -78 -29 -78 -103s23 -103 75 -103c23 0 50 11 78 36z" />
<glyph unicode="&#xe058;" horiz-adv-x="494" d="M53 208h127v32h-127v72h86l-153 281h160l66 -142l41 -103h1l41 105l67 140h149l-154 -281h89v-72h-130v-32h130v-74h-130v-134h-136v134h-127v74z" />
<glyph unicode="&#xe059;" horiz-adv-x="833" d="M765 107c0 -69 -67 -110 -136 -110c-68 0 -134 41 -134 110v141c0 70 66 111 134 111c69 0 136 -41 136 -111v-141zM337 343c0 -69 -66 -109 -136 -109c-68 0 -134 40 -134 109v141c0 70 66 111 134 111c70 0 136 -41 136 -111v-141zM664 607l-385 -621h-110l383 621h112 zM234 344v140c0 20 -13 29 -33 29c-19 0 -32 -9 -32 -29v-140c0 -19 13 -28 32 -28c20 0 33 9 33 28zM662 108v140c0 20 -13 29 -33 29c-19 0 -32 -9 -32 -29v-140c0 -19 13 -27 32 -27c20 0 33 8 33 27z" />
<glyph unicode="&#xe05a;" horiz-adv-x="1123" d="M1077 107c0 -69 -66 -110 -136 -110c-68 0 -134 41 -134 110v141c0 70 66 111 134 111c70 0 136 -41 136 -111v-141zM766 107c0 -69 -67 -110 -136 -110c-68 0 -135 41 -135 110v141c0 70 67 111 135 111c69 0 136 -41 136 -111v-141zM338 343c0 -69 -66 -109 -136 -109 c-68 0 -134 40 -134 109v141c0 70 66 111 134 111c70 0 136 -41 136 -111v-141zM664 607l-384 -621h-110l383 621h111zM235 344v140c0 20 -13 29 -33 29c-19 0 -32 -9 -32 -29v-140c0 -19 13 -28 32 -28c20 0 33 9 33 28zM974 108v140c0 20 -13 29 -33 29 c-19 0 -32 -9 -32 -29v-140c0 -19 13 -27 32 -27c20 0 33 8 33 27zM662 108v140c0 20 -12 29 -32 29c-19 0 -32 -9 -32 -29v-140c0 -19 13 -27 32 -27c20 0 32 8 32 27z" />
<glyph unicode="&#xe23f;" d="M506 204c0 -133 -107 -209 -222 -209c-113 0 -220 76 -220 209v287c0 134 107 210 220 210c115 0 222 -76 222 -210v-287zM358 205v240l-142 -274c10 -29 35 -43 68 -43c44 0 74 25 74 77zM211 491v-196l129 250c-13 15 -32 23 -56 23c-44 0 -73 -25 -73 -77z" />
<glyph unicode="0" d="M506 204c0 -133 -107 -209 -222 -209c-113 0 -220 76 -220 209v287c0 134 107 210 220 210c115 0 222 -76 222 -210v-287zM358 205v286c0 52 -30 77 -74 77s-73 -25 -73 -77v-286c0 -52 29 -77 73 -77s74 25 74 77z" />
<glyph unicode="&#xe0fb;" horiz-adv-x="549" d="M387 0l-29 34c-38 -24 -81 -38 -129 -38c-126 0 -182 69 -182 146c0 55 33 106 89 148c-21 26 -42 57 -42 99c0 81 53 136 168 136c49 0 114 -12 175 -60l-77 -95c-49 37 -75 43 -99 43c-18 0 -31 -10 -31 -22c0 -11 6 -24 16 -36l112 -131c6 13 11 35 15 57l128 -30 c-10 -47 -27 -97 -53 -132l107 -119h-168zM282 124l-68 79c-18 -16 -32 -38 -32 -59c0 -20 16 -37 48 -37c18 0 37 8 52 17z" />
<glyph unicode="&#xe0fc;" horiz-adv-x="244" d="M195 521l-9 -374h-128l-9 374h146zM196 0h-148v113h148v-113z" />
<glyph unicode="&#xe0fd;" horiz-adv-x="433" d="M164 341l-142 17c12 107 101 167 196 167c120 0 193 -64 193 -152c0 -49 -33 -83 -67 -116h1c-27 -27 -54 -53 -54 -91v-22h-148v26c0 58 22 89 78 154c26 29 32 80 -9 80c-28 0 -46 -18 -48 -63zM291 0h-148v113h148v-113z" />
<glyph unicode="&#xe0fe;" horiz-adv-x="542" d="M541 0h-152l-39 107h-161l-39 -107h-152l210 521h124zM272 341h-7l-42 -120h90z" />
<glyph unicode="&#xe0ff;" horiz-adv-x="503" d="M484 159c0 -96 -83 -159 -180 -159h-256v521h237c123 0 190 -63 190 -153c0 -34 -16 -72 -56 -98c43 -24 65 -72 65 -111zM340 164c0 23 -16 48 -56 48h-91v-92h91c40 0 56 22 56 44zM331 364c0 21 -16 40 -54 40h-84v-85h84c38 0 54 23 54 45z" />
<glyph unicode="&#xe100;" horiz-adv-x="473" d="M322 188l140 -50c-31 -90 -109 -142 -214 -142c-148 0 -220 85 -220 206v117c0 110 72 206 220 206c107 0 173 -42 203 -127l-129 -64c-8 37 -35 65 -75 65c-49 0 -73 -34 -73 -69v-136c0 -38 24 -74 73 -74c39 0 67 28 75 68z" />
<glyph unicode="&#xe101;" horiz-adv-x="518" d="M193 399v-279h64c67 0 87 39 87 96v91c0 62 -26 92 -90 92h-61zM48 520h227c94 0 163 -34 197 -109c16 -36 17 -86 17 -147c0 -64 -2 -118 -18 -155c-36 -86 -115 -109 -209 -109h-214v520z" />
<glyph unicode="&#xe102;" horiz-adv-x="469" d="M450 0h-402v521h402v-121h-257v-79h220v-117h-220v-84h257v-120z" />
<glyph unicode="&#xe103;" horiz-adv-x="460" d="M450 400h-257v-84h220v-116h-220v-200h-145v521h402v-121z" />
<glyph unicode="&#xe104;" horiz-adv-x="503" d="M251 525c108 0 175 -57 206 -136l-130 -55c-10 37 -37 65 -77 65c-50 0 -73 -34 -73 -69v-136c0 -38 23 -75 74 -75c41 0 74 30 77 67h-82v109h227v-100c0 -109 -80 -199 -222 -199c-147 0 -220 85 -220 206v117c0 110 73 206 220 206z" />
<glyph unicode="&#xe105;" horiz-adv-x="531" d="M484 0h-144v204h-147v-204h-145v521h145v-200h147v200h144v-521z" />
<glyph unicode="&#xe106;" horiz-adv-x="232" d="M191 0h-145v521h145v-521z" />
<glyph unicode="&#xe107;" horiz-adv-x="417" d="M389 174c0 -132 -97 -178 -196 -178c-67 0 -120 25 -172 81l91 90c28 -35 57 -48 73 -48c29 0 60 7 60 58v344h144v-347z" />
<glyph unicode="&#xe108;" d="M549 0h-172l-129 203l-54 -57v-146h-146v521h148v-190l57 67l114 123h175l-197 -216z" />
<glyph unicode="&#xe109;" horiz-adv-x="465" d="M450 0h-402v521h145v-401h257v-120z" />
<glyph unicode="&#xe10a;" horiz-adv-x="617" d="M429 228h-5l-34 -85l-23 -56h-109l-23 58l-35 83l-5 -2v-226h-146v521h129l75 -156l58 -119h1l59 125l70 150h133v-521h-145v228z" />
<glyph unicode="&#xe10b;" horiz-adv-x="560" d="M514 0h-127l-138 195l-55 75v-270h-146v521h128l114 -160l79 -110v270h145v-521z" />
<glyph unicode="&#xe10c;" horiz-adv-x="492" d="M244 525c138 0 223 -88 223 -206v-117c0 -126 -88 -206 -223 -206c-147 0 -219 96 -219 206v117c0 110 72 206 219 206zM243 399c-48 0 -72 -34 -72 -69v-136c0 -38 24 -74 72 -74c49 0 77 32 77 74v136c0 37 -28 69 -77 69z" />
<glyph unicode="&#xe10d;" horiz-adv-x="485" d="M482 343c0 -96 -90 -171 -199 -171h-90v-172h-145v521h232c121 0 202 -72 202 -178zM337 346c0 33 -23 54 -60 54h-84v-108h86c33 0 58 24 58 54z" />
<glyph unicode="&#xe10e;" horiz-adv-x="503" d="M250 525c138 0 223 -88 223 -206v-117c0 -43 -10 -81 -29 -112l46 -40l-59 -68l-53 45c-35 -20 -79 -31 -128 -31c-147 0 -220 96 -220 206v117c0 110 73 206 220 206zM249 399c-49 0 -72 -34 -72 -69v-136c0 -38 23 -74 72 -74c7 0 13 1 19 2l-42 36l57 68l43 -40v144 c0 37 -29 69 -77 69z" />
<glyph unicode="&#xe10f;" horiz-adv-x="544" d="M495 0h-159l-74 190h-53v-190h-145v521h247c100 0 186 -61 186 -164c0 -60 -35 -116 -95 -146zM357 357c0 30 -24 47 -55 47h-93v-98h89c34 0 59 21 59 51z" />
<glyph unicode="&#xe110;" horiz-adv-x="498" d="M457 470l-64 -108c-57 34 -112 38 -139 38c-51 0 -62 -20 -62 -35c0 -22 27 -30 105 -42c94 -15 181 -55 181 -161c0 -110 -106 -168 -229 -168c-77 0 -154 13 -237 80l81 101c55 -46 109 -57 162 -57c46 0 71 17 71 38c0 18 -8 34 -63 41c-120 16 -215 41 -215 162 c0 114 106 164 202 164c70 0 139 -12 207 -53z" />
<glyph unicode="&#xe111;" horiz-adv-x="457" d="M443 404h-146v-404h-144v404h-145v117h435v-117z" />
<glyph unicode="&#xe112;" horiz-adv-x="518" d="M481 185c0 -113 -100 -189 -222 -189c-121 0 -221 78 -221 195v330h145v-321c0 -51 34 -80 76 -80c44 0 76 24 76 73v328h146v-336z" />
<glyph unicode="&#xe113;" horiz-adv-x="502" d="M248 200h5l24 87l71 234h152l-195 -521h-109l-197 521h154l70 -232z" />
<glyph unicode="&#xe114;" horiz-adv-x="687" d="M346 271h-6l-28 -102l-45 -169h-119l-147 521h151l40 -179l20 -113l6 1l28 115l45 176h105l49 -191l26 -100l5 1l19 111l39 179h152l-147 -521h-117l-52 179z" />
<glyph unicode="&#xe115;" horiz-adv-x="527" d="M524 0h-165l-98 165l-98 -165h-163l187 267l-177 254h166l85 -152l87 152h165l-177 -254z" />
<glyph unicode="&#xe116;" horiz-adv-x="510" d="M504 521l-178 -309v-212h-141v212l-178 309h156l50 -111l43 -103l39 96l54 118h155z" />
<glyph unicode="&#xe117;" horiz-adv-x="444" d="M423 0h-404v106l223 298h-213v117h394v-102l-223 -299h223v-120z" />
<glyph unicode="&#xe118;" horiz-adv-x="498" d="M457 470l-64 -108c-57 34 -112 38 -139 38c-51 0 -62 -20 -62 -35c0 -22 27 -30 105 -42c94 -15 181 -55 181 -161c0 -110 -106 -168 -229 -168c-77 0 -154 13 -237 80l81 101c55 -46 109 -57 162 -57c46 0 71 17 71 38c0 18 -8 34 -63 41c-120 16 -215 41 -215 162 c0 114 106 164 202 164c70 0 139 -12 207 -53zM257 641l144 104l56 -49l-148 -155h-103l-147 155l53 48c48 -33 97 -69 145 -103z" />
<glyph unicode="&#xe119;" horiz-adv-x="732" d="M717 0h-400c-17 -3 -37 -4 -56 -4c-156 0 -231 96 -231 206v117c0 110 75 206 231 206c17 0 34 -2 48 -4h408v-121h-272v-79h231v-117h-231v-84h272v-120zM260 120c12 0 22 1 33 5v270c-9 2 -23 4 -33 4c-52 0 -76 -34 -76 -69v-136c0 -38 24 -74 76 -74z" />
<glyph unicode="&#xe11a;" horiz-adv-x="444" d="M423 0h-404v106l223 298h-213v117h394v-102l-223 -299h223v-120zM238 641l144 104l56 -49l-148 -155h-103l-147 155l53 48c48 -33 97 -69 145 -103z" />
<glyph unicode="&#xe11b;" horiz-adv-x="492" d="M504 521l-178 -309v-212h-141v212l-178 309h156l50 -111l43 -103l39 96l54 118h155zM439 589h-149v130h149v-130zM220 589h-148v130h148v-130z" />
<glyph unicode="&#xe11c;" horiz-adv-x="542" d="M541 0h-152l-39 107h-161l-39 -107h-152l210 521h124zM272 341h-7l-42 -120h90zM332 595l-81 -38l-146 186l134 46z" />
<glyph unicode="&#xe11d;" horiz-adv-x="542" d="M541 0h-152l-39 107h-161l-39 -107h-152l210 521h124zM272 341h-7l-42 -120h90zM299 557l-83 30l85 203l133 -43z" />
<glyph unicode="&#xe11e;" horiz-adv-x="542" d="M541 0h-152l-39 107h-161l-39 -107h-152l210 521h124zM272 341h-7l-42 -120h90zM411 541l-144 104c-48 -34 -97 -70 -145 -103l-53 48l147 155h103l148 -155z" />
<glyph unicode="&#xe11f;" horiz-adv-x="542" d="M541 0h-152l-39 107h-161l-39 -107h-152l210 521h124zM272 341h-7l-42 -120h90zM202 731c52 -1 101 -49 133 -49c23 0 41 14 67 48l68 -40c-35 -77 -74 -109 -121 -109c-54 0 -103 47 -140 47c-23 0 -45 -11 -74 -50l-65 41c34 71 72 112 132 112z" />
<glyph unicode="&#xe120;" horiz-adv-x="542" d="M541 0h-152l-39 107h-161l-39 -107h-152l210 521h124zM272 341h-7l-42 -120h90zM452 589h-149v130h149v-130zM233 589h-148v130h148v-130z" />
<glyph unicode="&#xe121;" horiz-adv-x="542" d="M541 0h-152l-39 107h-161l-39 -107h-152l210 521h124zM272 341h-7l-42 -120h90zM308 653c0 21 -18 37 -40 37c-23 0 -41 -16 -41 -37s18 -38 41 -38c22 0 40 17 40 38zM143 653c0 64 56 116 125 116c68 0 124 -52 124 -116s-56 -116 -125 -116c-68 0 -124 52 -124 116z " />
<glyph unicode="&#xe122;" horiz-adv-x="906" d="M361 521h500v-121h-272v-79h232v-117h-232v-84h272v-120h-425v107h-170c-21 -34 -40 -73 -62 -107h-179zM338 224h98v175z" />
<glyph unicode="&#xe123;" horiz-adv-x="473" d="M176 -77l24 77c-116 16 -172 95 -172 202v117c0 110 72 206 220 206c107 0 173 -42 203 -127l-129 -64c-8 37 -35 65 -75 65c-49 0 -73 -34 -73 -69v-136c0 -38 24 -74 73 -74c39 0 67 28 75 68l140 -50c-29 -84 -98 -134 -192 -141l-10 -33c70 -8 96 -50 96 -90 c0 -47 -45 -94 -120 -94c-43 0 -83 11 -112 29l25 62c33 -16 52 -18 74 -18c21 0 40 10 40 30c0 28 -32 28 -48 20z" />
<glyph unicode="&#xe124;" horiz-adv-x="469" d="M450 0h-402v521h402v-121h-257v-79h220v-117h-220v-84h257v-120zM317 595l-81 -38l-146 186l134 46z" />
<glyph unicode="&#xe125;" horiz-adv-x="469" d="M450 0h-402v521h402v-121h-257v-79h220v-117h-220v-84h257v-120zM268 557l-83 30l85 203l133 -43z" />
<glyph unicode="&#xe126;" horiz-adv-x="469" d="M450 0h-402v521h402v-121h-257v-79h220v-117h-220v-84h257v-120zM401 541l-144 104c-48 -34 -97 -70 -145 -103l-53 48l147 155h103l148 -155z" />
<glyph unicode="&#xe127;" horiz-adv-x="469" d="M450 0h-402v521h402v-121h-257v-79h220v-117h-220v-84h257v-120zM441 589h-149v130h149v-130zM222 589h-148v130h148v-130z" />
<glyph unicode="&#xe128;" horiz-adv-x="232" d="M191 0h-145v521h145v-521zM180 595l-81 -38l-146 186l134 46z" />
<glyph unicode="&#xe129;" horiz-adv-x="232" d="M191 0h-145v521h145v-521zM146 557l-83 30l85 203l133 -43z" />
<glyph unicode="&#xe12a;" horiz-adv-x="232" d="M191 0h-145v521h145v-521zM263 541l-144 104c-48 -34 -97 -70 -145 -103l-53 48l147 155h103l148 -155z" />
<glyph unicode="&#xe12b;" horiz-adv-x="232" d="M191 0h-145v521h145v-521zM306 589h-149v130h149v-130zM87 589h-148v130h148v-130z" />
<glyph unicode="&#xe12c;" horiz-adv-x="518" d="M48 520h227c94 0 163 -34 197 -109c16 -36 17 -86 17 -147c0 -64 -2 -118 -18 -155c-36 -86 -115 -109 -209 -109h-214v204h-49v98h49v218zM193 399v-97h82v-98h-82v-84h64c67 0 87 39 87 96v91c0 62 -26 92 -90 92h-61z" />
<glyph unicode="&#xe12d;" horiz-adv-x="560" d="M514 0h-127l-138 195l-55 75v-270h-146v521h128l114 -160l79 -110v270h145v-521zM218 731c52 -1 101 -49 133 -49c23 0 41 14 67 48l68 -40c-35 -77 -74 -109 -121 -109c-54 0 -103 47 -140 47c-23 0 -45 -11 -74 -50l-65 41c34 71 72 112 132 112z" />
<glyph unicode="&#xe12e;" horiz-adv-x="492" d="M244 525c138 0 223 -88 223 -206v-117c0 -126 -88 -206 -223 -206c-147 0 -219 96 -219 206v117c0 110 72 206 219 206zM243 399c-48 0 -72 -34 -72 -69v-136c0 -38 24 -74 72 -74c49 0 77 32 77 74v136c0 37 -28 69 -77 69zM303 595l-81 -38l-146 186l134 46z" />
<glyph unicode="&#xe12f;" horiz-adv-x="492" d="M244 525c138 0 223 -88 223 -206v-117c0 -126 -88 -206 -223 -206c-147 0 -219 96 -219 206v117c0 110 72 206 219 206zM243 399c-48 0 -72 -34 -72 -69v-136c0 -38 24 -74 72 -74c49 0 77 32 77 74v136c0 37 -28 69 -77 69zM277 557l-83 30l85 203l133 -43z" />
<glyph unicode="&#xe130;" horiz-adv-x="492" d="M244 525c138 0 223 -88 223 -206v-117c0 -126 -88 -206 -223 -206c-147 0 -219 96 -219 206v117c0 110 72 206 219 206zM243 399c-48 0 -72 -34 -72 -69v-136c0 -38 24 -74 72 -74c49 0 77 32 77 74v136c0 37 -28 69 -77 69zM388 541l-144 104c-48 -34 -97 -70 -145 -103 l-53 48l147 155h103l148 -155z" />
<glyph unicode="&#xe131;" horiz-adv-x="492" d="M244 525c138 0 223 -88 223 -206v-117c0 -126 -88 -206 -223 -206c-147 0 -219 96 -219 206v117c0 110 72 206 219 206zM243 399c-48 0 -72 -34 -72 -69v-136c0 -38 24 -74 72 -74c49 0 77 32 77 74v136c0 37 -28 69 -77 69zM183 731c52 -1 101 -49 133 -49 c23 0 41 14 67 48l68 -40c-35 -77 -74 -109 -121 -109c-54 0 -103 47 -140 47c-23 0 -45 -11 -74 -50l-65 41c34 71 72 112 132 112z" />
<glyph unicode="&#xe132;" horiz-adv-x="492" d="M244 525c138 0 223 -88 223 -206v-117c0 -126 -88 -206 -223 -206c-147 0 -219 96 -219 206v117c0 110 72 206 219 206zM243 399c-48 0 -72 -34 -72 -69v-136c0 -38 24 -74 72 -74c49 0 77 32 77 74v136c0 37 -28 69 -77 69zM429 589h-149v130h149v-130zM210 589h-148 v130h148v-130z" />
<glyph unicode="&#xe133;" horiz-adv-x="492" d="M244 525c62 0 113 -18 150 -48l48 58l54 -43l-56 -68c17 -30 27 -66 27 -105v-117c0 -126 -88 -206 -223 -206c-54 0 -97 12 -131 34l-39 -47l-50 41l41 50c-27 35 -40 80 -40 128v117c0 110 72 206 219 206zM243 399c-48 0 -72 -34 -72 -69v-127l136 167 c-13 17 -35 29 -64 29zM243 120c49 0 77 32 77 74v85l-121 -146c11 -8 26 -13 44 -13z" />
<glyph unicode="&#xe134;" horiz-adv-x="518" d="M481 185c0 -113 -100 -189 -222 -189c-121 0 -221 78 -221 195v330h145v-321c0 -51 34 -80 76 -80c44 0 76 24 76 73v328h146v-336zM326 595l-81 -38l-146 186l134 46z" />
<glyph unicode="&#xe135;" horiz-adv-x="518" d="M481 185c0 -113 -100 -189 -222 -189c-121 0 -221 78 -221 195v330h145v-321c0 -51 34 -80 76 -80c44 0 76 24 76 73v328h146v-336zM291 557l-83 30l85 203l133 -43z" />
<glyph unicode="&#xe136;" horiz-adv-x="518" d="M481 185c0 -113 -100 -189 -222 -189c-121 0 -221 78 -221 195v330h145v-321c0 -51 34 -80 76 -80c44 0 76 24 76 73v328h146v-336zM404 541l-144 104c-48 -34 -97 -70 -145 -103l-53 48l147 155h103l148 -155z" />
<glyph unicode="&#xe137;" horiz-adv-x="518" d="M481 185c0 -113 -100 -189 -222 -189c-121 0 -221 78 -221 195v330h145v-321c0 -51 34 -80 76 -80c44 0 76 24 76 73v328h146v-336zM444 589h-149v130h149v-130zM225 589h-148v130h148v-130z" />
<glyph unicode="&#xe138;" horiz-adv-x="492" d="M504 521l-178 -309v-212h-141v212l-178 309h156l50 -111l43 -103l39 96l54 118h155zM285 557l-83 30l85 203l133 -43z" />
<glyph unicode="&#xe139;" horiz-adv-x="521" d="M503 261c0 -96 -90 -167 -205 -167h-95v-94h-153v521h153v-89h85c127 0 215 -66 215 -171zM351 263c0 34 -20 49 -59 49h-89v-98h91c34 0 57 20 57 49z" />
<glyph unicode="&#xe13a;" horiz-adv-x="542" d="M541 0h-152l-39 107h-161l-39 -107h-152l210 521h124zM272 341h-7l-42 -120h90zM434 598h-333v118h333v-118z" />
<glyph unicode="&#xe13b;" horiz-adv-x="542" d="M541 0h-152l-39 107h-161l-39 -107h-152l210 521h124zM272 341h-7l-42 -120h90zM268 581c-115 0 -149 99 -156 161h100c0 -26 18 -68 56 -68s56 42 56 68h100c-7 -62 -41 -161 -156 -161z" />
<glyph unicode="&#xe13c;" horiz-adv-x="542" d="M346 -104c0 29 11 59 42 105l-38 106h-161l-39 -107h-152l210 521h124l209 -521h-60c-31 -42 -44 -69 -44 -89c0 -19 11 -27 32 -27c12 0 34 4 64 15l28 -70c-34 -19 -73 -31 -108 -31c-63 0 -107 45 -107 98zM272 341h-7l-42 -120h90z" />
<glyph unicode="&#xe13d;" horiz-adv-x="473" d="M322 188l140 -50c-31 -90 -109 -142 -214 -142c-148 0 -220 85 -220 206v117c0 110 72 206 220 206c107 0 173 -42 203 -127l-129 -64c-8 37 -35 65 -75 65c-49 0 -73 -34 -73 -69v-136c0 -38 24 -74 73 -74c39 0 67 28 75 68zM270 557l-83 30l85 203l133 -43z" />
<glyph unicode="&#xe13e;" horiz-adv-x="473" d="M322 188l140 -50c-31 -90 -109 -142 -214 -142c-148 0 -220 85 -220 206v117c0 110 72 206 220 206c107 0 173 -42 203 -127l-129 -64c-8 37 -35 65 -75 65c-49 0 -73 -34 -73 -69v-136c0 -38 24 -74 73 -74c39 0 67 28 75 68zM387 541l-144 104 c-48 -34 -97 -70 -145 -103l-53 48l147 155h103l148 -155z" />
<glyph unicode="&#xe13f;" horiz-adv-x="473" d="M322 188l140 -50c-31 -90 -109 -142 -214 -142c-148 0 -220 85 -220 206v117c0 110 72 206 220 206c107 0 173 -42 203 -127l-129 -64c-8 37 -35 65 -75 65c-49 0 -73 -34 -73 -69v-136c0 -38 24 -74 73 -74c39 0 67 28 75 68zM319 589h-148v130h148v-130z" />
<glyph unicode="&#xe140;" horiz-adv-x="473" d="M322 188l140 -50c-31 -90 -109 -142 -214 -142c-148 0 -220 85 -220 206v117c0 110 72 206 220 206c107 0 173 -42 203 -127l-129 -64c-8 37 -35 65 -75 65c-49 0 -73 -34 -73 -69v-136c0 -38 24 -74 73 -74c39 0 67 28 75 68zM240 641l144 104l56 -49l-148 -155h-103 l-147 155l53 48c48 -33 97 -69 145 -103z" />
<glyph unicode="&#xe141;" horiz-adv-x="518" d="M193 399v-279h64c67 0 87 39 87 96v91c0 62 -26 92 -90 92h-61zM48 520h227c94 0 163 -34 197 -109c16 -36 17 -86 17 -147c0 -64 -2 -118 -18 -155c-36 -86 -115 -109 -209 -109h-214v520zM248 641l144 104l56 -49l-148 -155h-103l-147 155l53 48 c48 -33 97 -69 145 -103z" />
<glyph unicode="&#xe142;" horiz-adv-x="518" d="M48 520h227c94 0 163 -34 197 -109c16 -36 17 -86 17 -147c0 -64 -2 -118 -18 -155c-36 -86 -115 -109 -209 -109h-214v204h-49v98h49v218zM193 399v-97h82v-98h-82v-84h64c67 0 87 39 87 96v91c0 62 -26 92 -90 92h-61z" />
<glyph unicode="&#xe143;" horiz-adv-x="469" d="M450 0h-402v521h402v-121h-257v-79h220v-117h-220v-84h257v-120zM412 598h-333v118h333v-118z" />
<glyph unicode="&#xe144;" horiz-adv-x="469" d="M450 0h-402v521h402v-121h-257v-79h220v-117h-220v-84h257v-120zM245 581c-115 0 -149 99 -156 161h100c0 -26 18 -68 56 -68s56 42 56 68h100c-7 -62 -41 -161 -156 -161z" />
<glyph unicode="&#xe145;" horiz-adv-x="469" d="M450 0h-402v521h402v-121h-257v-79h220v-117h-220v-84h257v-120zM326 589h-148v130h148v-130z" />
<glyph unicode="&#xe146;" horiz-adv-x="469" d="M312 -104c0 28 10 59 41 104h-305v521h402v-121h-257v-79h220v-117h-220v-84h257v-120h-3c-31 -42 -44 -69 -44 -89c0 -19 11 -27 32 -27c12 0 34 4 64 15l28 -70c-34 -19 -73 -31 -108 -31c-63 0 -107 45 -107 98z" />
<glyph unicode="&#xe147;" horiz-adv-x="469" d="M450 0h-402v521h402v-121h-257v-79h220v-117h-220v-84h257v-120zM248 641l144 104l56 -49l-148 -155h-103l-147 155l53 48c48 -33 97 -69 145 -103z" />
<glyph unicode="&#xe148;" horiz-adv-x="503" d="M251 525c108 0 175 -57 206 -136l-130 -55c-10 37 -37 65 -77 65c-50 0 -73 -34 -73 -69v-136c0 -38 23 -75 74 -75c41 0 74 30 77 67h-82v109h227v-100c0 -109 -80 -199 -222 -199c-147 0 -220 85 -220 206v117c0 110 73 206 220 206zM393 541l-144 104 c-48 -34 -97 -70 -145 -103l-53 48l147 155h103l148 -155z" />
<glyph unicode="&#xe149;" horiz-adv-x="503" d="M251 525c108 0 175 -57 206 -136l-130 -55c-10 37 -37 65 -77 65c-50 0 -73 -34 -73 -69v-136c0 -38 23 -75 74 -75c41 0 74 30 77 67h-82v109h227v-100c0 -109 -80 -199 -222 -199c-147 0 -220 85 -220 206v117c0 110 73 206 220 206zM246 581c-115 0 -149 99 -156 161 h100c0 -26 18 -68 56 -68s56 42 56 68h100c-7 -62 -41 -161 -156 -161z" />
<glyph unicode="&#xe14a;" horiz-adv-x="503" d="M251 525c108 0 175 -57 206 -136l-130 -55c-10 37 -37 65 -77 65c-50 0 -73 -34 -73 -69v-136c0 -38 23 -75 74 -75c41 0 74 30 77 67h-82v109h227v-100c0 -109 -80 -199 -222 -199c-147 0 -220 85 -220 206v117c0 110 73 206 220 206zM322 589h-148v130h148v-130z" />
<glyph unicode="&#xe14b;" horiz-adv-x="503" d="M251 525c108 0 175 -57 206 -136l-130 -55c-10 37 -37 65 -77 65c-50 0 -73 -34 -73 -69v-136c0 -38 23 -75 74 -75c41 0 74 30 77 67h-82v109h227v-100c0 -109 -80 -199 -222 -199c-147 0 -220 85 -220 206v117c0 110 73 206 220 206zM234 -313h-67l35 108h-33v151h154 v-143z" />
<glyph unicode="&#xe14c;" horiz-adv-x="531" d="M484 0h-144v204h-147v-204h-145v521h145v-200h147v200h144v-521zM410 541l-144 104c-48 -34 -97 -70 -145 -103l-53 48l147 155h103l148 -155z" />
<glyph unicode="&#xe14d;" horiz-adv-x="531" d="M484 0h-144v204h-147v-204h-145v372h-50v83h50v66h145v-66h147v66h144v-66h49v-83h-49v-372zM193 321h147v51h-147v-51z" />
<glyph unicode="&#xe14e;" horiz-adv-x="232" d="M191 0h-145v521h145v-521zM50 731c52 -1 101 -49 133 -49c23 0 41 14 67 48l68 -40c-35 -77 -74 -109 -121 -109c-54 0 -103 47 -140 47c-23 0 -45 -11 -74 -50l-65 41c34 71 72 112 132 112z" />
<glyph unicode="&#xe14f;" horiz-adv-x="232" d="M191 0h-145v521h145v-521zM286 598h-333v118h333v-118z" />
<glyph unicode="&#xe150;" horiz-adv-x="232" d="M191 0h-145v521h145v-521zM119 581c-115 0 -149 99 -156 161h100c0 -26 18 -68 56 -68s56 42 56 68h100c-7 -62 -41 -161 -156 -161z" />
<glyph unicode="&#xe151;" horiz-adv-x="232" d="M36 -104c0 28 10 59 41 104h-31v521h145v-521h-20c-31 -42 -44 -69 -44 -89c0 -19 11 -27 32 -27c12 0 34 4 64 15l28 -70c-34 -19 -73 -31 -108 -31c-63 0 -107 45 -107 98z" />
<glyph unicode="&#xe152;" horiz-adv-x="232" d="M191 0h-145v521h145v-521zM196 589h-148v130h148v-130z" />
<glyph unicode="&#xe153;" horiz-adv-x="659" d="M191 0h-145v521h145v-521zM612 174c0 -132 -97 -178 -196 -178c-67 0 -120 25 -172 81l91 90c28 -35 57 -48 73 -48c29 0 60 7 60 58v344h144v-347z" />
<glyph unicode="&#xe154;" horiz-adv-x="417" d="M389 174c0 -132 -97 -178 -196 -178c-67 0 -120 25 -172 81l91 90c28 -35 57 -48 73 -48c29 0 60 7 60 58v344h144v-347zM460 541l-144 104c-48 -34 -97 -70 -145 -103l-53 48l147 155h103l148 -155z" />
<glyph unicode="&#xe155;" d="M549 0h-172l-129 203l-54 -57v-146h-146v521h148v-190l57 67l114 123h175l-197 -216zM264 -313h-67l35 108h-33v151h154v-143z" />
<glyph unicode="&#xe156;" horiz-adv-x="465" d="M450 0h-402v521h145v-401h257v-120zM149 537l-83 30l85 203l133 -43z" />
<glyph unicode="&#xe157;" horiz-adv-x="465" d="M450 0h-402v521h145v-401h257v-120zM231 -313h-67l35 108h-33v151h154v-143z" />
<glyph unicode="&#xe158;" horiz-adv-x="465" d="M450 0h-402v521h145v-401h257v-120zM363 263h-67l35 108h-33v151h154v-143z" />
<glyph unicode="&#xe159;" horiz-adv-x="465" d="M450 0h-402v521h145v-401h257v-120zM423 230h-148v130h148v-130z" />
<glyph unicode="&#xe15a;" horiz-adv-x="465" d="M450 0h-402v148l-44 -25l-44 77l88 51v270h145v-186l54 32l44 -77l-98 -57v-113h257v-120z" />
<glyph unicode="&#xe15b;" horiz-adv-x="560" d="M514 0h-127l-138 195l-55 75v-270h-146v521h128l114 -160l79 -110v270h145v-521zM299 557l-83 30l85 203l133 -43z" />
<glyph unicode="&#xe15c;" horiz-adv-x="560" d="M514 0h-127l-138 195l-55 75v-270h-146v521h128l114 -160l79 -110v270h145v-521zM266 -313h-67l35 108h-33v151h154v-143z" />
<glyph unicode="&#xe15d;" horiz-adv-x="560" d="M514 0h-127l-138 195l-55 75v-270h-146v521h128l114 -160l79 -110v270h145v-521zM278 641l144 104l56 -49l-148 -155h-103l-147 155l53 48c48 -33 97 -69 145 -103z" />
<glyph unicode="&#xe15e;" horiz-adv-x="560" d="M514 -66c0 -72 -48 -124 -136 -124c-34 0 -71 7 -107 26l31 96c15 -4 26 -5 36 -5c24 0 34 11 34 39v55l-123 174l-55 75v-270h-146v521h128l193 -270v270h145v-587z" />
<glyph unicode="&#xe15f;" horiz-adv-x="492" d="M244 525c138 0 223 -88 223 -206v-117c0 -126 -88 -206 -223 -206c-147 0 -219 96 -219 206v117c0 110 72 206 219 206zM243 399c-48 0 -72 -34 -72 -69v-136c0 -38 24 -74 72 -74c49 0 77 32 77 74v136c0 37 -28 69 -77 69zM411 598h-333v118h333v-118z" />
<glyph unicode="&#xe160;" horiz-adv-x="492" d="M244 525c138 0 223 -88 223 -206v-117c0 -126 -88 -206 -223 -206c-147 0 -219 96 -219 206v117c0 110 72 206 219 206zM243 399c-48 0 -72 -34 -72 -69v-136c0 -38 24 -74 72 -74c49 0 77 32 77 74v136c0 37 -28 69 -77 69zM244 581c-115 0 -149 99 -156 161h100 c0 -26 18 -68 56 -68s56 42 56 68h100c-7 -62 -41 -161 -156 -161z" />
<glyph unicode="&#xe161;" horiz-adv-x="492" d="M244 525c138 0 223 -88 223 -206v-117c0 -126 -88 -206 -223 -206c-147 0 -219 96 -219 206v117c0 110 72 206 219 206zM243 399c-48 0 -72 -34 -72 -69v-136c0 -38 24 -74 72 -74c49 0 77 32 77 74v136c0 37 -28 69 -77 69zM176 557l-83 30l85 203l133 -43zM363 557 l-83 30l85 203l133 -43z" />
<glyph unicode="&#xe162;" horiz-adv-x="544" d="M495 0h-159l-74 190h-53v-190h-145v521h247c100 0 186 -61 186 -164c0 -60 -35 -116 -95 -146zM357 357c0 30 -24 47 -55 47h-93v-98h89c34 0 59 21 59 51zM286 557l-83 30l85 203l133 -43z" />
<glyph unicode="&#xe163;" horiz-adv-x="544" d="M495 0h-159l-74 190h-53v-190h-145v521h247c100 0 186 -61 186 -164c0 -60 -35 -116 -95 -146zM357 357c0 30 -24 47 -55 47h-93v-98h89c34 0 59 21 59 51zM271 -313h-67l35 108h-33v151h154v-143z" />
<glyph unicode="&#xe164;" horiz-adv-x="544" d="M495 0h-159l-74 190h-53v-190h-145v521h247c100 0 186 -61 186 -164c0 -60 -35 -116 -95 -146zM357 357c0 30 -24 47 -55 47h-93v-98h89c34 0 59 21 59 51zM251 641l144 104l56 -49l-148 -155h-103l-147 155l53 48c48 -33 97 -69 145 -103z" />
<glyph unicode="&#xe165;" horiz-adv-x="498" d="M457 470l-64 -108c-57 34 -112 38 -139 38c-51 0 -62 -20 -62 -35c0 -22 27 -30 105 -42c94 -15 181 -55 181 -161c0 -110 -106 -168 -229 -168c-77 0 -154 13 -237 80l81 101c55 -46 109 -57 162 -57c46 0 71 17 71 38c0 18 -8 34 -63 41c-120 16 -215 41 -215 162 c0 114 106 164 202 164c70 0 139 -12 207 -53zM278 557l-83 30l85 203l133 -43z" />
<glyph unicode="&#xe166;" horiz-adv-x="498" d="M457 470l-64 -108c-57 34 -112 38 -139 38c-51 0 -62 -20 -62 -35c0 -22 27 -30 105 -42c94 -15 181 -55 181 -161c0 -110 -106 -168 -229 -168c-77 0 -154 13 -237 80l81 101c55 -46 109 -57 162 -57c46 0 71 17 71 38c0 18 -8 34 -63 41c-120 16 -215 41 -215 162 c0 114 106 164 202 164c70 0 139 -12 207 -53zM405 541l-144 104c-48 -34 -97 -70 -145 -103l-53 48l147 155h103l148 -155z" />
<glyph unicode="&#xe167;" horiz-adv-x="498" d="M192 -77l23 72c-66 4 -132 22 -203 79l81 101c55 -46 109 -57 162 -57c46 0 71 17 71 38c0 18 -8 34 -63 41c-120 16 -215 41 -215 162c0 114 106 164 202 164c70 0 139 -12 207 -53l-64 -108c-57 34 -112 38 -139 38c-51 0 -62 -20 -62 -35c0 -22 27 -30 105 -42 c94 -15 181 -55 181 -161c0 -99 -85 -156 -192 -166l-10 -32c70 -8 96 -50 96 -90c0 -47 -45 -94 -120 -94c-43 0 -83 11 -112 29l25 62c33 -16 52 -18 74 -18c21 0 40 10 40 30c0 28 -32 28 -48 20z" />
<glyph unicode="&#xe168;" horiz-adv-x="457" d="M443 404h-146v-404h-144v404h-145v117h435v-117zM215 -313h-67l35 108h-33v151h154v-143z" />
<glyph unicode="&#xe169;" horiz-adv-x="457" d="M443 404h-146v-404h-144v404h-145v117h435v-117zM228 641l144 104l56 -49l-148 -155h-103l-147 155l53 48c48 -33 97 -69 145 -103z" />
<glyph unicode="&#xe16a;" horiz-adv-x="457" d="M443 404h-146v-96h134v-89h-134v-219h-144v219h-126v89h126v96h-145v117h435v-117z" />
<glyph unicode="&#xe16b;" horiz-adv-x="518" d="M481 185c0 -113 -100 -189 -222 -189c-121 0 -221 78 -221 195v330h145v-321c0 -51 34 -80 76 -80c44 0 76 24 76 73v328h146v-336zM194 731c52 -1 101 -49 133 -49c23 0 41 14 67 48l68 -40c-35 -77 -74 -109 -121 -109c-54 0 -103 47 -140 47c-23 0 -45 -11 -74 -50 l-65 41c34 71 72 112 132 112z" />
<glyph unicode="&#xe16c;" horiz-adv-x="518" d="M481 185c0 -113 -100 -189 -222 -189c-121 0 -221 78 -221 195v330h145v-321c0 -51 34 -80 76 -80c44 0 76 24 76 73v328h146v-336zM430 598h-333v118h333v-118z" />
<glyph unicode="&#xe16d;" horiz-adv-x="518" d="M481 185c0 -113 -100 -189 -222 -189c-121 0 -221 78 -221 195v330h145v-321c0 -51 34 -80 76 -80c44 0 76 24 76 73v328h146v-336zM260 581c-115 0 -149 99 -156 161h100c0 -26 18 -68 56 -68s56 42 56 68h100c-7 -62 -41 -161 -156 -161z" />
<glyph unicode="&#xe16e;" horiz-adv-x="518" d="M481 185c0 -113 -100 -189 -222 -189c-121 0 -221 78 -221 195v330h145v-321c0 -51 34 -80 76 -80c44 0 76 24 76 73v328h146v-336zM301 663c0 21 -18 37 -40 37c-23 0 -41 -16 -41 -37s18 -38 41 -38c22 0 40 17 40 38zM136 663c0 64 56 116 125 116 c68 0 124 -52 124 -116s-56 -116 -125 -116c-68 0 -124 52 -124 116z" />
<glyph unicode="&#xe16f;" horiz-adv-x="518" d="M481 185c0 -113 -100 -189 -222 -189c-121 0 -221 78 -221 195v330h145v-321c0 -51 34 -80 76 -80c44 0 76 24 76 73v328h146v-336zM194 557l-83 30l85 203l133 -43zM381 557l-83 30l85 203l133 -43z" />
<glyph unicode="&#xe170;" horiz-adv-x="518" d="M173 -104c0 28 10 58 41 104c-100 16 -176 89 -176 191v330h145v-321c0 -51 34 -80 76 -80c44 0 76 24 76 73v328h146v-336c0 -98 -75 -167 -173 -185c-31 -42 -44 -69 -44 -89c0 -19 11 -27 32 -27c12 0 34 4 64 15l28 -70c-34 -19 -73 -31 -108 -31 c-63 0 -107 45 -107 98z" />
<glyph unicode="&#xe171;" horiz-adv-x="687" d="M346 271h-6l-28 -102l-45 -169h-119l-147 521h151l40 -179l20 -113l6 1l28 115l45 176h105l49 -191l26 -100l5 1l19 111l39 179h152l-147 -521h-117l-52 179zM488 541l-144 104c-48 -34 -97 -70 -145 -103l-53 48l147 155h103l148 -155z" />
<glyph unicode="&#xe172;" horiz-adv-x="492" d="M504 521l-178 -309v-212h-141v212l-178 309h156l50 -111l43 -103l39 96l54 118h155zM399 541l-144 104c-48 -34 -97 -70 -145 -103l-53 48l147 155h103l148 -155z" />
<glyph unicode="&#xe173;" horiz-adv-x="444" d="M423 0h-404v106l223 298h-213v117h394v-102l-223 -299h223v-120zM248 557l-83 30l85 203l133 -43z" />
<glyph unicode="&#xe174;" horiz-adv-x="444" d="M423 0h-404v106l223 298h-213v117h394v-102l-223 -299h223v-120zM320 589h-148v130h148v-130z" />
<glyph unicode="&#xe175;" horiz-adv-x="906" d="M361 521h500v-121h-272v-79h232v-117h-232v-84h272v-120h-425v107h-170c-21 -34 -40 -73 -62 -107h-179zM338 224h98v175zM608 557l-83 30l85 203l133 -43z" />
<glyph unicode="&#xe176;" horiz-adv-x="518" d="M244 525c61 0 111 -17 149 -47l44 54l49 -40l-50 -61c20 -32 31 -70 31 -112v-117c0 -126 -88 -206 -223 -206c-57 0 -103 14 -138 38l-42 -51l-45 38l45 55c-26 35 -39 79 -39 126v117c0 110 72 206 219 206zM273 557l-83 30l85 203l133 -43zM243 399 c-48 0 -72 -34 -72 -69v-123l135 165c-13 16 -35 27 -63 27zM243 120c49 0 77 32 77 74v97l-127 -153c12 -11 28 -18 50 -18z" />
<glyph unicode="&#xe177;" horiz-adv-x="244" d="M49 0l9 374h128l9 -374h-146zM48 521h148v-113h-148v113z" />
<glyph unicode="&#xe178;" horiz-adv-x="433" d="M277 180l142 -17c-12 -107 -101 -167 -196 -167c-120 0 -193 64 -193 152c0 49 33 83 67 116h-1c27 27 54 53 54 91v22h148v-26c0 -58 -22 -89 -78 -154c-26 -29 -32 -80 9 -80c28 0 46 18 48 63zM150 521h148v-113h-148v113z" />
<glyph unicode="&#x218;" horiz-adv-x="594" d="M540 637l-71 -123c-66 42 -134 47 -171 47c-76 0 -92 -37 -92 -65c0 -44 31 -56 146 -74s215 -67 215 -208c0 -145 -139 -220 -275 -220c-94 0 -192 15 -284 96l89 118c65 -58 132 -73 203 -73c67 0 105 32 105 69c0 34 -11 68 -95 76c-132 13 -257 52 -257 208 c0 148 127 214 241 214c85 0 172 -16 246 -65zM288 -313h-67l35 108h-33v151h154v-143z" />
<glyph unicode="&#x219;" horiz-adv-x="468" d="M445 155c0 -106 -102 -161 -209 -161c-74 0 -146 10 -222 77l70 100c49 -47 104 -57 158 -57c36 0 63 17 63 37c0 18 -9 37 -62 43c-99 11 -199 30 -199 146c0 108 86 160 188 160c75 0 140 -12 202 -58l-64 -106c-53 36 -107 41 -135 41c-43 0 -58 -18 -58 -32 c0 -23 25 -33 100 -42c91 -11 168 -40 168 -148zM221 -313h-67l35 108h-33v151h154v-143z" />
<glyph unicode="&#x1e80;" horiz-adv-x="854" d="M853 694l-186 -696h-124l-65 226l-49 190h-3l-50 -193l-64 -223h-125l-186 696h161l49 -206l44 -198h3l53 198l60 206h112l60 -205l53 -199h5l42 198l49 206h161zM511 802l-56 -69l-214 90l90 107z" />
<glyph unicode="&#x1e81;" horiz-adv-x="753" d="M750 495l-169 -495h-120l-38 122l-44 151h-3l-43 -150l-40 -123h-119l-169 495h152l35 -123l39 -154h5l45 154l40 123h114l39 -123l44 -154h6l39 154l35 123h152zM441 575l-81 -38l-146 186l134 46z" />
<glyph unicode="&#x1e82;" horiz-adv-x="854" d="M853 694l-186 -696h-124l-65 226l-49 190h-3l-50 -193l-64 -223h-125l-186 696h161l49 -206l44 -198h3l53 198l60 206h112l60 -205l53 -199h5l42 198l49 206h161zM395 733l-56 69l180 128l90 -107z" />
<glyph unicode="&#x1e83;" horiz-adv-x="753" d="M750 495l-169 -495h-120l-38 122l-44 151h-3l-43 -150l-40 -123h-119l-169 495h152l35 -123l39 -154h5l45 154l40 123h114l39 -123l44 -154h6l39 154l35 123h152zM418 537l-83 30l85 203l133 -43z" />
<glyph unicode="&#x1e84;" horiz-adv-x="854" d="M853 694l-186 -696h-124l-65 226l-49 190h-3l-50 -193l-64 -223h-125l-186 696h161l49 -206l44 -198h3l53 198l60 206h112l60 -205l53 -199h5l42 198l49 206h161zM612 744h-152v133h152v-133zM398 744h-153v133h153v-133z" />
<glyph unicode="&#x1e85;" horiz-adv-x="753" d="M750 495l-169 -495h-120l-38 122l-44 151h-3l-43 -150l-40 -123h-119l-169 495h152l35 -123l39 -154h5l45 154l40 123h114l39 -123l44 -154h6l39 154l35 123h152zM559 569h-149v130h149v-130zM340 569h-148v130h148v-130z" />
<glyph unicode="&#x1ef2;" horiz-adv-x="605" d="M603 696l-225 -411v-285h-147v285l-224 411h165l71 -150l60 -135h4l59 134l72 151h165zM402 802l-56 -69l-214 90l90 107z" />
<glyph unicode="&#x1ef3;" horiz-adv-x="502" d="M502 495l-224 -591c-30 -80 -91 -104 -157 -104h-57v117h37c31 0 48 22 57 49l24 74l-182 455h153l48 -141l48 -156h4l47 154l50 143h152zM313 575l-81 -38l-146 186l134 46z" />
<glyph unicode="&#xe179;" horiz-adv-x="498" d="M457 470l-64 -108c-57 34 -112 38 -139 38c-51 0 -62 -20 -62 -35c0 -22 27 -30 105 -42c94 -15 181 -55 181 -161c0 -110 -106 -168 -229 -168c-77 0 -154 13 -237 80l81 101c55 -46 109 -57 162 -57c46 0 71 17 71 38c0 18 -8 34 -63 41c-120 16 -215 41 -215 162 c0 114 106 164 202 164c70 0 139 -12 207 -53zM235 -313h-67l35 108h-33v151h154v-143z" />
<glyph unicode="&#xe17a;" horiz-adv-x="687" d="M346 271h-6l-28 -102l-45 -169h-119l-147 521h151l40 -179l20 -113l6 1l28 115l45 176h105l49 -191l26 -100l5 1l19 111l39 179h152l-147 -521h-117l-52 179zM371 537l-83 30l85 203l133 -43z" />
<glyph unicode="&#xe17b;" horiz-adv-x="687" d="M346 271h-6l-28 -102l-45 -169h-119l-147 521h151l40 -179l20 -113l6 1l28 115l45 176h105l49 -191l26 -100l5 1l19 111l39 179h152l-147 -521h-117l-52 179zM405 575l-81 -38l-146 186l134 46z" />
<glyph unicode="&#xe17c;" horiz-adv-x="687" d="M346 271h-6l-28 -102l-45 -169h-119l-147 521h151l40 -179l20 -113l6 1l28 115l45 176h105l49 -191l26 -100l5 1l19 111l39 179h152l-147 -521h-117l-52 179zM527 569h-149v130h149v-130zM308 569h-148v130h148v-130z" />
<glyph unicode="&#xe17d;" horiz-adv-x="492" d="M504 521l-178 -309v-212h-141v212l-178 309h156l50 -111l43 -103l39 96l54 118h155zM315 575l-81 -38l-146 186l134 46z" />
<glyph unicode="&#x259;" horiz-adv-x="533" d="M35 284h306c-6 64 -35 87 -83 87c-25 0 -71 -9 -112 -46l-88 98c63 58 141 77 204 77c109 0 227 -53 227 -252c0 -187 -115 -254 -226 -254c-157 0 -228 106 -228 255v35zM189 192c5 -45 37 -71 73 -71s67 27 74 71h-147z" />
<glyph unicode="&#x2b9;" horiz-adv-x="282" d="M160 752l148 -54l-152 -312l-109 36z" />
<glyph unicode="&#x2126;" horiz-adv-x="628" d="M535 140l1 -2h63v-138h-255v145c53 13 82 58 82 113v186c0 61 -43 113 -117 113c-77 0 -113 -56 -113 -113v-186c0 -52 26 -102 84 -114v-144h-254v138h60l1 5c-37 36 -46 95 -46 149v138c0 144 88 271 269 271c168 0 273 -115 273 -271v-138c0 -59 -12 -110 -48 -152z " />
<glyph unicode="&#x2023;" horiz-adv-x="584" d="M81 557l463 -270l-463 -281v551z" />
<glyph unicode="&#x212b;" horiz-adv-x="660" d="M202 799c0 64 56 116 125 116c68 0 124 -52 124 -116c0 -45 -28 -84 -68 -103h6l270 -696h-162l-52 142h-233l-52 -142h-162l270 696h1c-40 19 -67 58 -67 103zM397 272l-26 80l-41 138h-4l-40 -136l-26 -82h137zM367 799c0 21 -18 37 -40 37c-23 0 -41 -16 -41 -37 s18 -38 41 -38c22 0 40 17 40 38z" />
<glyph unicode="&#x2117;" horiz-adv-x="820" d="M614 407c0 -85 -72 -146 -160 -146h-71v-145h-110v442h180c96 0 161 -57 161 -151zM506 411c0 32 -21 48 -58 48h-65v-98h69c29 0 54 19 54 50zM411 -16c-201 0 -355 145 -355 358c0 207 154 360 355 360s355 -149 355 -360c0 -208 -154 -358 -355 -358zM411 623 c-152 0 -267 -122 -267 -281s115 -280 267 -280s267 121 267 280c0 166 -115 281 -267 281z" />
<glyph unicode="&#x2103;" horiz-adv-x="942" d="M769 225l146 -56c-34 -109 -129 -175 -259 -175c-181 0 -269 113 -269 272v164c0 144 88 271 269 271c132 0 225 -71 259 -177l-146 -52c-11 48 -51 85 -114 85c-77 0 -113 -56 -113 -113v-189c0 -60 36 -117 113 -117c62 0 103 36 114 87zM360 548 c0 -85 -73 -154 -164 -154c-90 0 -163 69 -163 154c0 84 73 153 163 153c91 0 164 -69 164 -153zM261 548c0 34 -29 61 -65 61c-35 0 -65 -27 -65 -61s30 -62 65 -62c36 0 65 28 65 62z" />
<glyph unicode="&#x2109;" horiz-adv-x="915" d="M911 558h-338v-147h288v-133h-288v-278h-154v696h492v-138zM377 548c0 -85 -73 -154 -164 -154c-90 0 -163 69 -163 154c0 84 73 153 163 153c91 0 164 -69 164 -153zM278 548c0 34 -29 61 -65 61c-35 0 -65 -27 -65 -61s30 -62 65 -62c36 0 65 28 65 62z" />
<glyph unicode="&#x2190;" horiz-adv-x="829" d="M237 372h532v-99h-532l120 -116l-71 -71l-236 237l236 238l71 -71z" />
<glyph unicode="&#x2191;" horiz-adv-x="518" d="M310 516v-516h-99v516l-116 -119l-71 71l237 236l238 -236l-71 -71z" />
<glyph unicode="&#x2192;" horiz-adv-x="829" d="M51 372h533l-120 118l70 71l236 -238l-236 -237l-70 71l120 116h-533v99z" />
<glyph unicode="&#x2193;" horiz-adv-x="518" d="M310 704v-517l118 120l71 -71l-238 -236l-237 236l71 71l117 -120v517h98z" />
<glyph unicode="&#x2196;" horiz-adv-x="840" d="M289 546l486 -481l-69 -71l-486 484v-168h-99v334h336v-98h-168z" />
<glyph unicode="&#x2198;" horiz-adv-x="840" d="M607 94l-486 481l69 70l486 -483v167h99v-333h-336v98h168z" />
<glyph unicode="&#x21a9;" horiz-adv-x="867" d="M330 490l-120 -119h443c55 0 75 37 75 84v76c0 44 -23 70 -75 70h-103v96h107c124 0 169 -73 169 -170v-72c0 -110 -58 -182 -181 -182h-435l120 -117l-69 -69l-235 236l235 236z" />
<glyph unicode="&#x21aa;" horiz-adv-x="863" d="M643 371l-121 119l70 69l234 -236l-234 -236l-70 69l121 117h-434c-124 0 -182 72 -182 182v72c0 97 44 170 169 170h107v-96h-102c-54 0 -76 -26 -76 -70v-76c0 -47 20 -84 76 -84h442z" />
<glyph unicode="&#x21b3;" horiz-adv-x="854" d="M187 693v-322h454l-120 119l70 69l234 -236l-234 -236l-70 69l120 118h-553v419h99z" />
<glyph unicode="&#x21b5;" horiz-adv-x="854" d="M717 371v322h98v-419h-552l119 -118l-69 -69l-235 236l235 236l69 -69l-119 -119h454z" />
<glyph unicode="&#x21de;" horiz-adv-x="510" d="M99 274v92h103v151l-110 -103l-71 72l229 218l234 -218l-71 -72l-114 103v-151h101v-92h-101v-54h101v-90h-101v-130h-97v130h-103v90h103v54h-103z" />
<glyph unicode="&#x21df;" horiz-adv-x="510" d="M99 338v91h102v55h-102v89h102v131h98v-131h101v-89h-101v-55h101v-91h-101v-153l114 104l71 -71l-234 -218l-229 218l71 71l109 -104v153h-102z" />
<glyph unicode="&#x21e0;" horiz-adv-x="836" d="M391 273v97h99v-97h-99zM529 273v97h99v-97h-99zM669 273v97h99v-97h-99zM236 370h117v-97h-117l121 -118l-71 -70l-235 236l235 238l71 -70z" />
<glyph unicode="&#x21e1;" horiz-adv-x="522" d="M309 511v-116h-98v116l-117 -120l-71 70l237 236l238 -236l-70 -70zM211 357h98v-99h-98v99zM211 219h98v-99h-98v99zM211 79h98v-99h-98v99z" />
<glyph unicode="&#x21e2;" horiz-adv-x="836" d="M467 371h117l-121 118l70 71l236 -238l-236 -237l-70 71l121 117h-117v98zM429 371v-98h-99v98h99zM291 371v-98h-99v98h99zM152 371v-98h-100v98h100z" />
<glyph unicode="&#x21e3;" horiz-adv-x="522" d="M308 282v-116l119 120c23 -23 46 -47 70 -70c-79 -78 -158 -157 -238 -234l-236 234l70 70l118 -120v116h97zM308 320h-97v99h97v-99zM308 598h-97v99h97v-99zM308 459h-97v98h97v-98z" />
<glyph unicode="&#x21e4;" horiz-adv-x="871" d="M172 104h-106v435h106v-435zM398 372h431v-99h-431l120 -116l-71 -71l-235 237l235 238l71 -71z" />
<glyph unicode="&#x21e5;" horiz-adv-x="871" d="M830 104h-106v435h106v-435zM67 372h431l-120 118l71 71l235 -238l-235 -237l-71 71l120 116h-431v99z" />
<glyph unicode="&#x21e7;" horiz-adv-x="840" d="M630 378l-207 215l-207 -215h94v-301h227v301h93zM232 306h-195l386 397l386 -397h-195v-306h-382v306z" />
<glyph unicode="&#x21ea;" horiz-adv-x="840" d="M531 -45h-228v-67h228v67zM225 -181v207h382v-207h-382zM624 378l-207 215l-208 -215h94v-200h228v200h93zM225 306h-195l387 397l386 -397h-195v-206h-383v206z" />
<glyph unicode="&#x2303;" horiz-adv-x="745" d="M140 344l-67 68l296 296l297 -296l-66 -68l-231 226z" />
<glyph unicode="&#x2318;" horiz-adv-x="824" d="M211 498h56v56c0 32 -25 57 -56 57c-32 0 -58 -24 -58 -57c0 -32 25 -56 58 -56zM566 554v-56h56c32 0 57 25 57 56c0 32 -25 57 -57 57c-31 0 -56 -24 -56 -57zM267 143v56h-56c-33 0 -58 -26 -58 -56c0 -33 25 -58 58 -58c32 0 56 25 56 58zM622 199h-56v-56 c0 -33 25 -58 56 -58c32 0 57 25 57 58c0 30 -25 56 -57 56zM360 292h113v113h-113v-113zM566 405v-113h56c100 0 150 -70 150 -149c0 -80 -50 -150 -150 -150c-95 0 -149 69 -149 150v56h-113v-56c0 -78 -50 -150 -149 -150c-92 0 -150 67 -150 150c0 80 55 149 150 149h56 v113h-56c-81 0 -150 69 -150 149c0 82 61 150 150 150c99 0 149 -68 149 -150v-56h113v56c0 82 60 150 149 150c97 0 150 -69 150 -150c0 -78 -67 -149 -150 -149h-56z" />
<glyph unicode="&#x2324;" horiz-adv-x="775" d="M91 696h585v-96h-585v96zM154 206l-68 68l297 312l296 -312l-67 -68l-229 245c-48 -52 -181 -195 -229 -245z" />
<glyph unicode="&#x2325;" horiz-adv-x="1188" d="M570 584v97h564v-97h-564zM57 584v97h293l324 -586h460v-95h-532l-324 584h-221z" />
<glyph unicode="&#x2326;" horiz-adv-x="1168" d="M633 137l-142 142l-141 -142l-61 61l142 141l-142 142l61 61l141 -141l142 141l61 -61l-142 -142l142 -141zM703 92l251 255l-251 255h-511v-510h511zM1087 347l-337 -347h-650v695h650z" />
<glyph unicode="&#x232b;" horiz-adv-x="1168" d="M698 279l-142 -142l-61 61l141 141l-141 142l61 61l142 -141l140 141l61 -61l-141 -142l141 -141l-61 -61zM234 347l252 -255h511v510h-511zM439 0l-338 347l338 348h649v-695h-649z" />
<glyph unicode="&#x235f;" horiz-adv-x="804" d="M753 346h-1c0 -195 -158 -353 -354 -353c-195 0 -352 158 -352 354c0 195 158 353 354 353c195 0 353 -158 353 -354zM693 346c0 163 -132 295 -295 295s-295 -132 -295 -295s132 -294 295 -294s295 132 295 294zM634 414l-113 -113l26 -169l-157 76l-141 -76l21 165 l-118 117l163 32l75 148l80 -146z" />
<glyph unicode="&#x23cf;" horiz-adv-x="854" d="M66 227h702v-136h-702v136zM417 665l351 -351h-702z" />
<glyph unicode="&#x25a0;" horiz-adv-x="875" d="M756 673v-633h-633v633h633z" />
<glyph unicode="&#x25a1;" horiz-adv-x="841" d="M164 610v-527h522v527h-522zM768 0h-687v693h687v-693z" />
<glyph unicode="&#x25b2;" horiz-adv-x="820" d="M430 527l351 -351h-702z" />
<glyph unicode="&#x25b6;" horiz-adv-x="595" d="M138 0v701l351 -350z" />
<glyph unicode="&#x25bc;" horiz-adv-x="820" d="M781 527l-351 -351l-351 351h702z" />
<glyph unicode="&#x25c0;" horiz-adv-x="595" d="M452 701v-701l-351 351z" />
<glyph unicode="&#x25cf;" horiz-adv-x="843" d="M744 357c0 -170 -144 -317 -316 -317c-173 0 -317 144 -317 317c0 175 148 316 317 316c168 0 316 -144 316 -316z" />
<glyph unicode="&#x2605;" horiz-adv-x="814" d="M778 427l-173 -173l39 -258l-239 117l-214 -117l32 251l-181 180l249 48l114 226l123 -223z" />
<glyph unicode="&#x2606;" horiz-adv-x="838" d="M784 433l-176 -176l39 -259l-240 117l-218 -119l33 255l-183 182l254 49l113 225l124 -223zM578 267l149 148l-213 43l-107 193l-98 -196l-212 -40l153 -153l-27 -216l184 99l206 -99z" />
<glyph unicode="&#x2610;" horiz-adv-x="841" d="M164 610v-527h522v527h-522zM768 0h-687v693h687v-693z" />
<glyph unicode="&#x2611;" horiz-adv-x="850" d="M768 0h-687v693h687v-693zM163 610v-528h523v479c-115 -111 -244 -311 -303 -437c-37 -7 -65 -16 -84 -27c-22 82 -78 243 -119 272c33 27 68 35 87 35c25 0 72 -81 88 -164c62 98 186 243 285 325c14 16 28 32 42 45h-519z" />
<glyph unicode="&#x2612;" horiz-adv-x="850" d="M425 405l165 166l59 -58l-165 -166l168 -168l-61 -57l-166 166l-168 -169l-58 61l166 165l-166 167l59 59zM165 610v-527h522v527h-522zM769 0h-687v693h687v-693z" />
<glyph unicode="&#x2794;" horiz-adv-x="754" d="M442 54l-192 -1l224 224h-440v139h439l-224 223h194l291 -292z" />
<glyph unicode="%" horiz-adv-x="925" d="M850 125c0 -81 -73 -128 -150 -128c-75 0 -148 47 -148 128v166c0 82 73 129 148 129c77 0 150 -47 150 -129v-166zM739 126v165c0 25 -16 37 -39 37c-22 0 -38 -12 -38 -37v-165c0 -24 16 -36 38 -36c23 0 39 12 39 36zM372 404c0 -81 -73 -128 -150 -128 c-75 0 -148 47 -148 128v166c0 82 73 129 148 129c77 0 150 -47 150 -129v-166zM261 405v165c0 25 -16 37 -39 37c-22 0 -38 -12 -38 -37v-165c0 -24 16 -36 38 -36c23 0 39 12 39 36zM734 713l-426 -730h-117l425 730h118z" />
<glyph unicode="&#x2030;" horiz-adv-x="1248" d="M850 125c0 -81 -73 -128 -150 -128c-75 0 -148 47 -148 128v166c0 82 73 129 148 129c77 0 150 -47 150 -129v-166zM739 126v165c0 25 -16 37 -39 37c-22 0 -38 -12 -38 -37v-165c0 -24 16 -36 38 -36c23 0 39 12 39 36zM372 404c0 -81 -73 -128 -150 -128 c-75 0 -148 47 -148 128v166c0 82 73 129 148 129c77 0 150 -47 150 -129v-166zM261 405v165c0 25 -16 37 -39 37c-22 0 -38 -12 -38 -37v-165c0 -24 16 -36 38 -36c23 0 39 12 39 36zM734 713l-426 -730h-117l425 730h118zM1198 125c0 -81 -73 -128 -150 -128 c-75 0 -148 47 -148 128v166c0 82 73 129 148 129c77 0 150 -47 150 -129v-166zM1087 126v165c0 25 -16 37 -39 37c-22 0 -38 -12 -38 -37v-165c0 -24 16 -36 38 -36c23 0 39 12 39 36z" />
<glyph unicode="&#xe06c;" horiz-adv-x="356" d="M326 279h-108v35c-22 -32 -64 -39 -84 -39c-69 0 -113 33 -113 104c0 56 45 97 127 97h70v12c0 13 -14 33 -48 33c-32 0 -60 -7 -81 -28l-58 64c41 43 93 53 142 53c85 0 153 -25 153 -114v-217zM218 400v10h-58c-29 0 -34 -16 -34 -24c0 -6 5 -23 40 -23 c27 0 52 10 52 37z" />
<glyph unicode="&#xe06d;" horiz-adv-x="368" d="M342 450c0 -65 -6 -174 -128 -174c-22 0 -51 12 -68 38v-35h-109v477h109v-170c18 16 41 24 62 24c117 0 134 -92 134 -160zM231 443c0 32 -3 71 -43 71c-39 0 -42 -41 -42 -71c0 -28 2 -71 42 -71c41 0 43 42 43 71z" />
<glyph unicode="&#xe06f;" horiz-adv-x="368" d="M336 279h-108v35c-14 -24 -44 -38 -66 -38c-121 0 -131 103 -131 174c0 68 23 160 139 160c21 0 43 -8 58 -24v169h108v-476zM228 443c0 30 -4 71 -42 71c-40 0 -44 -39 -44 -71c0 -29 2 -71 44 -71c40 0 42 43 42 71z" />
<glyph unicode="&#xe070;" horiz-adv-x="368" d="M340 421h-206c0 -36 22 -52 50 -52c16 0 51 2 77 30l67 -70c-48 -41 -103 -54 -147 -54c-77 0 -160 35 -160 167c0 123 80 168 159 168c110 0 160 -69 160 -169v-20zM181 517c-20 0 -37 -13 -43 -34h84c-5 22 -21 34 -41 34z" />
<glyph unicode="&#xe073;" horiz-adv-x="380" d="M341 279h-108v193c0 27 -18 42 -43 42c-26 0 -43 -15 -43 -42v-193h-109v476h106v-171c18 17 47 26 71 26c65 0 126 -41 126 -120v-211z" />
<glyph unicode="&#xe074;" horiz-adv-x="186" d="M147 279h-109v328h109v-328zM147 644h-109v91h109v-91z" />
<glyph unicode="&#xe077;" horiz-adv-x="197" d="M193 279h-50c-58 0 -107 25 -107 89v387h109v-359c0 -23 21 -26 28 -26h20v-91z" />
<glyph unicode="&#xe078;" horiz-adv-x="586" d="M544 279h-108v194c0 28 -19 43 -44 43s-43 -15 -43 -43l-1 -194h-108v194c0 28 -19 43 -43 43c-26 0 -44 -15 -44 -43v-194h-109v328h109v-32c18 23 50 35 75 35c41 0 70 -12 95 -42c25 25 54 42 94 42c73 0 127 -41 127 -120v-211z" />
<glyph unicode="&#xe079;" horiz-adv-x="356" d="M184 611c53 0 101 -20 127 -57c18 -26 27 -67 27 -113c0 -41 -10 -74 -27 -101c-28 -44 -82 -66 -136 -66s-99 18 -125 54c-22 30 -30 68 -29 115c1 34 6 66 18 91c24 49 80 77 145 77zM181 517c-18 0 -32 -9 -40 -24c-6 -11 -9 -30 -9 -51c0 -20 3 -37 9 -49 c7 -15 19 -24 37 -24c22 0 35 13 42 31c3 9 6 25 6 43c0 24 -3 42 -7 51c-7 15 -22 23 -38 23z" />
<glyph unicode="&#xe07c;" horiz-adv-x="284" d="M190 517c-26 0 -44 -15 -44 -43v-195h-109v329h107v-36c18 25 47 39 71 39c29 0 50 -6 79 -23l-39 -90c-26 15 -48 19 -65 19z" />
<glyph unicode="&#xe07d;" horiz-adv-x="343" d="M329 384c0 -72 -76 -109 -156 -109c-57 0 -110 9 -167 56l58 71c36 -33 75 -40 113 -40c23 0 40 7 40 17c0 9 -12 18 -40 21c-79 9 -149 29 -149 102s65 108 142 108c58 0 104 -7 156 -43l-55 -74c-40 25 -79 28 -99 28c-32 0 -36 -7 -36 -13c0 -12 43 -19 67 -23 c71 -12 126 -31 126 -101z" />
<glyph unicode="&#xe07e;" horiz-adv-x="230" d="M212 525h-49v-128c0 -23 8 -27 24 -27h26v-91h-58c-57 0 -101 33 -101 90v156h-36v82h38v88h106v-88h50v-82z" />
<glyph unicode="&#x2070;" horiz-adv-x="346" d="M322 494c0 -81 -73 -128 -150 -128c-75 0 -148 47 -148 128v166c0 82 73 129 148 129c77 0 150 -47 150 -129v-166zM211 495v165c0 25 -16 37 -39 37c-22 0 -38 -12 -38 -37v-165c0 -24 16 -36 38 -36c23 0 39 12 39 36z" />
<glyph unicode="&#x2074;" horiz-adv-x="353" d="M341 425h-36v-56h-109v56h-188v76l156 285h123l-149 -268h58v74h109v-74h36v-93z" />
<glyph unicode="&#x2075;" horiz-adv-x="350" d="M26 485l108 18c6 -33 22 -42 42 -42c36 0 43 34 43 61c0 28 -10 53 -43 53c-13 0 -29 -9 -41 -34h-98v245h279v-93h-174v-41c18 10 41 13 59 13c94 0 127 -56 130 -135c0 -101 -50 -164 -152 -164c-62 0 -136 24 -153 119z" />
<glyph unicode="&#x2076;" horiz-adv-x="343" d="M324 507c0 -100 -80 -141 -156 -141c-73 0 -146 48 -146 135c0 25 6 51 19 72l124 213h124l-92 -158c82 3 127 -50 127 -121zM211 502c0 28 -17 41 -40 41c-21 0 -40 -13 -40 -41s17 -41 40 -41c18 0 40 13 40 41z" />
<glyph unicode="&#x2077;" horiz-adv-x="340" d="M320 706l-163 -337h-115l150 322h-61v-54h-109v149h298v-80z" />
<glyph unicode="&#x2078;" horiz-adv-x="354" d="M178 366c-84 0 -157 52 -157 131c0 31 15 68 49 89c-26 17 -41 49 -41 77c0 73 64 126 149 126c100 0 149 -53 149 -126c0 -28 -14 -58 -40 -78c33 -19 48 -56 48 -88c0 -79 -72 -131 -157 -131zM226 500c0 22 -17 41 -48 41c-29 0 -48 -19 -48 -41s20 -41 48 -41 c29 0 48 19 48 41zM219 660c0 21 -16 37 -41 37c-24 0 -40 -14 -40 -37c0 -21 18 -32 40 -32s41 13 41 32z" />
<glyph unicode="&#x2079;" horiz-adv-x="347" d="M20 649c0 99 79 140 155 140c77 0 147 -48 147 -135c0 -25 -7 -51 -20 -72l-125 -213h-123l92 157c-80 -1 -126 52 -126 123zM130 653c0 -29 18 -42 40 -42s40 13 40 42c0 28 -17 41 -40 41c-18 0 -40 -12 -40 -41z" />
<glyph unicode="&#x207a;" horiz-adv-x="358" d="M349 508h-123v-108h-95v108h-123v82h123v106h95v-106h123v-82z" />
<glyph unicode="&#x207b;" horiz-adv-x="286" d="M260 479h-234v92h234v-92z" />
<glyph unicode="&#x207c;" horiz-adv-x="358" d="M350 575h-342v79h342v-79zM350 443h-342v79h342v-79z" />
<glyph unicode="&#x207d;" horiz-adv-x="242" d="M239 329l-66 -45c-76 74 -138 170 -138 269c0 100 61 192 134 265l69 -39c-63 -75 -91 -158 -91 -223c0 -72 32 -155 92 -227z" />
<glyph unicode="&#x207e;" horiz-adv-x="242" d="M228 553c0 -99 -62 -195 -138 -269l-66 45c60 72 92 155 92 227c0 64 -28 148 -92 223l69 39c74 -73 135 -165 135 -265z" />
<glyph unicode="&#x207f;" horiz-adv-x="380" d="M341 279h-108v194c0 27 -18 42 -43 42c-26 0 -43 -15 -43 -42v-194h-109v329h109v-25c16 16 42 28 68 28c76 0 126 -41 126 -120v-212z" />
<glyph unicode="&#x2080;" horiz-adv-x="346" d="M322 35c0 -81 -73 -128 -150 -128c-75 0 -148 47 -148 128v166c0 82 73 129 148 129c77 0 150 -47 150 -129v-166zM211 36v165c0 25 -16 37 -39 37c-22 0 -38 -12 -38 -37v-165c0 -24 16 -36 38 -36c23 0 39 12 39 36z" />
<glyph unicode="&#x2081;" horiz-adv-x="285" d="M216 -90h-110v299l-65 -41v109l82 50h93v-417z" />
<glyph unicode="&#x2082;" horiz-adv-x="343" d="M139 183l-108 15c10 82 76 132 149 132c86 0 151 -41 151 -122c0 -32 -13 -64 -34 -86l-112 -117h145v-95h-299v83l179 186v-1c7 7 10 16 10 23c0 18 -14 34 -38 34c-21 0 -38 -15 -43 -52z" />
<glyph unicode="&#x2083;" horiz-adv-x="346" d="M19 26l106 14c5 -27 25 -39 47 -39c24 0 43 15 43 39s-16 43 -51 43h-36v81h37c35 0 48 18 48 36c0 19 -17 34 -41 34c-17 0 -37 -10 -43 -43l-105 16c17 77 83 122 152 122c106 0 152 -58 152 -124c0 -25 -13 -65 -50 -81c40 -16 53 -58 53 -85 c0 -78 -62 -133 -157 -133c-65 0 -137 33 -155 120z" />
<glyph unicode="&#x2084;" horiz-adv-x="353" d="M341 -34h-36v-56h-109v56h-188v76l156 285h123l-149 -268h58v74h109v-74h36v-93z" />
<glyph unicode="&#x2085;" horiz-adv-x="350" d="M26 26l108 18c6 -33 22 -42 42 -42c36 0 43 34 43 61c0 28 -10 53 -43 53c-13 0 -29 -9 -41 -34h-98v245h279v-93h-174v-41c18 10 41 13 59 13c94 0 127 -56 130 -135c0 -101 -50 -164 -152 -164c-62 0 -136 24 -153 119z" />
<glyph unicode="&#x2086;" horiz-adv-x="343" d="M324 48c0 -100 -80 -141 -156 -141c-73 0 -146 48 -146 135c0 25 6 51 19 72l124 213h124l-92 -158c82 3 127 -50 127 -121zM211 43c0 28 -17 41 -40 41c-21 0 -40 -13 -40 -41s17 -41 40 -41c18 0 40 13 40 41z" />
<glyph unicode="&#x2087;" horiz-adv-x="340" d="M320 247l-163 -337h-115l150 322h-61v-54h-109v149h298v-80z" />
<glyph unicode="&#x2088;" horiz-adv-x="354" d="M178 -94c-84 0 -157 52 -157 131c0 31 15 68 49 89c-26 17 -41 49 -41 77c0 73 64 126 149 126c100 0 149 -53 149 -126c0 -28 -14 -58 -40 -78c33 -19 48 -56 48 -88c0 -79 -72 -131 -157 -131zM226 40c0 22 -17 41 -48 41c-29 0 -48 -19 -48 -41s20 -41 48 -41 c29 0 48 19 48 41zM219 200c0 21 -16 37 -41 37c-24 0 -40 -14 -40 -37c0 -21 18 -32 40 -32s41 13 41 32z" />
<glyph unicode="&#x2089;" horiz-adv-x="347" d="M20 190c0 99 79 140 155 140c73 0 147 -48 147 -135c0 -25 -7 -51 -20 -72l-125 -213h-123l92 157c-80 -1 -126 52 -126 123zM130 194c0 -29 18 -42 40 -42s40 13 40 42c0 28 -17 41 -40 41c-18 0 -40 -12 -40 -41z" />
<glyph unicode="&#x208a;" horiz-adv-x="358" d="M349 49h-123v-108h-95v108h-123v82h123v106h95v-106h123v-82z" />
<glyph unicode="&#x208b;" horiz-adv-x="286" d="M260 20h-234v92h234v-92z" />
<glyph unicode="&#x208c;" horiz-adv-x="358" d="M350 116h-342v79h342v-79zM350 -16h-342v79h342v-79z" />
<glyph unicode="&#x208d;" horiz-adv-x="242" d="M239 -100l-66 -45c-76 74 -138 170 -138 269c0 100 61 192 134 265l69 -39c-63 -75 -91 -158 -91 -223c0 -72 32 -155 92 -227z" />
<glyph unicode="&#x208e;" horiz-adv-x="242" d="M228 124c0 -99 -62 -195 -138 -269l-66 45c60 72 92 155 92 227c0 64 -28 148 -92 223l69 39c74 -73 135 -165 135 -265z" />
<glyph unicode="&#x2153;" horiz-adv-x="925" d="M698 713l-426 -730h-117l425 730h118zM256 279h-110v299l-65 -41v109l82 50h93v-417zM531 116l106 14c5 -27 25 -39 47 -39c24 0 43 15 43 39s-16 43 -51 43h-36v81h37c35 0 48 18 48 36c0 19 -17 34 -41 34c-17 0 -37 -10 -43 -43l-105 16c17 77 83 122 152 122 c106 0 152 -58 152 -124c0 -25 -13 -65 -50 -81c40 -16 53 -58 53 -85c0 -78 -62 -133 -157 -133c-65 0 -137 33 -155 120z" />
<glyph unicode="&#x2154;" horiz-adv-x="925" d="M759 713l-426 -730h-117l425 730h118zM136 552l-108 15c10 82 79 132 152 132c86 0 149 -41 149 -122c0 -34 -14 -64 -35 -86l-112 -117h145v-95h-299v83l179 185c7 7 11 16 11 23c0 18 -13 34 -37 34c-19 0 -40 -15 -45 -52zM585 116l106 14c5 -27 25 -39 47 -39 c24 0 43 15 43 39s-16 43 -51 43h-36v81h37c35 0 48 18 48 36c0 19 -17 34 -41 34c-17 0 -37 -10 -43 -43l-105 16c17 77 83 122 152 122c106 0 152 -58 152 -124c0 -25 -13 -65 -50 -81c40 -16 53 -58 53 -85c0 -78 -62 -133 -157 -133c-65 0 -137 33 -155 120z" />
<glyph unicode="&#x2155;" horiz-adv-x="925" d="M683 713l-426 -730h-117l425 730h118zM248 279h-110v299l-65 -41v109l82 50h93v-417zM546 116l108 18c6 -33 22 -42 42 -42c36 0 43 34 43 61c0 28 -10 53 -43 53c-13 0 -29 -9 -41 -34h-98v245h279v-93h-174v-41c18 10 41 13 59 13c94 0 127 -56 130 -135 c0 -101 -50 -164 -152 -164c-62 0 -136 24 -153 119z" />
<glyph unicode="&#x2156;" horiz-adv-x="925" d="M740 713l-426 -730h-117l425 730h118zM143 552l-108 15c10 82 79 132 152 132c86 0 149 -41 149 -122c0 -34 -14 -64 -35 -86l-112 -117h145v-95h-299v83l179 185c7 7 11 16 11 23c0 18 -13 34 -37 34c-19 0 -40 -15 -45 -52zM585 116l108 18c6 -33 22 -42 42 -42 c36 0 43 34 43 61c0 28 -10 53 -43 53c-13 0 -29 -9 -41 -34h-98v245h279v-93h-174v-41c18 10 41 13 59 13c94 0 127 -56 130 -135c0 -101 -50 -164 -152 -164c-62 0 -136 24 -153 119z" />
<glyph unicode="&#x2157;" horiz-adv-x="925" d="M723 713l-426 -730h-117l425 730h118zM42 396l106 14c5 -27 25 -39 47 -39c24 0 43 15 43 39s-16 43 -51 43h-36v81h37c35 0 48 18 48 36c0 19 -17 34 -41 34c-17 0 -37 -10 -43 -43l-105 16c17 77 83 122 152 122c106 0 152 -58 152 -124c0 -25 -13 -65 -50 -81 c40 -16 53 -58 53 -85c0 -78 -62 -133 -157 -133c-65 0 -137 33 -155 120zM578 116l108 18c6 -33 22 -42 42 -42c36 0 43 34 43 61c0 28 -10 53 -43 53c-13 0 -29 -9 -41 -34h-98v245h279v-93h-174v-41c18 10 41 13 59 13c94 0 127 -56 130 -135c0 -101 -50 -164 -152 -164 c-62 0 -136 24 -153 119z" />
<glyph unicode="&#x2158;" horiz-adv-x="925" d="M747 713l-426 -730h-117l425 730h118zM360 335h-36v-56h-109v56h-188v76l156 285h123l-149 -268h58v74h109v-74h36v-93zM593 116l108 18c6 -33 22 -42 42 -42c36 0 43 34 43 61c0 28 -10 53 -43 53c-13 0 -29 -9 -41 -34h-98v245h279v-93h-174v-41c18 10 41 13 59 13 c94 0 127 -56 130 -135c0 -101 -50 -164 -152 -164c-62 0 -136 24 -153 119z" />
<glyph unicode="&#x2159;" horiz-adv-x="925" d="M721 713l-426 -730h-117l425 730h118zM275 279h-110v299l-65 -41v109l82 50h93v-417zM825 138c0 -100 -80 -141 -156 -141c-73 0 -146 48 -146 135c0 25 6 51 19 72l124 213h124l-92 -158c82 3 127 -50 127 -121zM712 133c0 28 -17 41 -40 41c-21 0 -40 -13 -40 -41 s17 -41 40 -41c18 0 40 13 40 41z" />
<glyph unicode="&#x215a;" horiz-adv-x="925" d="M766 713l-426 -730h-117l425 730h118zM66 395l108 18c6 -33 22 -42 42 -42c36 0 43 34 43 61c0 28 -10 53 -43 53c-13 0 -29 -9 -41 -34h-98v245h279v-93h-174v-41c18 10 41 13 59 13c94 0 127 -56 130 -135c0 -101 -50 -164 -152 -164c-62 0 -136 24 -153 119zM858 138 c0 -100 -80 -141 -156 -141c-73 0 -146 48 -146 135c0 25 6 51 19 72l124 213h124l-92 -158c82 3 127 -50 127 -121zM745 133c0 28 -17 41 -40 41c-21 0 -40 -13 -40 -41s17 -41 40 -41c18 0 40 13 40 41z" />
<glyph unicode="&#x215b;" horiz-adv-x="925" d="M695 713l-426 -730h-117l425 730h118zM251 279h-110v299l-65 -41v109l82 50h93v-417zM692 -4c-84 0 -157 52 -157 131c0 31 15 68 49 89c-26 17 -41 49 -41 77c0 73 64 126 149 126c100 0 149 -53 149 -126c0 -28 -14 -58 -40 -78c33 -19 48 -56 48 -88 c0 -79 -72 -131 -157 -131zM740 130c0 22 -17 41 -48 41c-29 0 -48 -19 -48 -41s20 -41 48 -41c29 0 48 19 48 41zM733 290c0 21 -16 37 -41 37c-24 0 -40 -14 -40 -37c0 -21 18 -32 40 -32s41 13 41 32z" />
<glyph unicode="&#x215c;" horiz-adv-x="925" d="M737 713l-426 -730h-117l425 730h118zM34 396l106 14c5 -27 25 -39 47 -39c24 0 43 15 43 39s-16 43 -51 43h-36v81h37c35 0 48 18 48 36c0 19 -17 34 -41 34c-17 0 -37 -10 -43 -43l-105 16c17 77 83 122 152 122c106 0 152 -58 152 -124c0 -25 -13 -65 -50 -81 c40 -16 53 -58 53 -85c0 -78 -62 -133 -157 -133c-65 0 -137 33 -155 120zM733 -4c-84 0 -157 52 -157 131c0 31 15 68 49 89c-26 17 -41 49 -41 77c0 73 64 126 149 126c100 0 149 -53 149 -126c0 -28 -14 -58 -40 -78c33 -19 48 -56 48 -88c0 -79 -72 -131 -157 -131z M781 130c0 22 -17 41 -48 41c-29 0 -48 -19 -48 -41s20 -41 48 -41c29 0 48 19 48 41zM774 290c0 21 -16 37 -41 37c-24 0 -40 -14 -40 -37c0 -21 18 -32 40 -32s41 13 41 32z" />
<glyph unicode="&#x215d;" horiz-adv-x="925" d="M730 713l-426 -730h-117l425 730h118zM38 395l108 18c6 -33 22 -42 42 -42c36 0 43 34 43 61c0 28 -10 53 -43 53c-13 0 -29 -9 -41 -34h-98v245h279v-93h-174v-41c18 10 41 13 59 13c94 0 127 -56 130 -135c0 -101 -50 -164 -152 -164c-62 0 -136 24 -153 119zM730 -4 c-84 0 -157 52 -157 131c0 31 15 68 49 89c-26 17 -41 49 -41 77c0 73 64 126 149 126c100 0 149 -53 149 -126c0 -28 -14 -58 -40 -78c33 -19 48 -56 48 -88c0 -79 -72 -131 -157 -131zM778 130c0 22 -17 41 -48 41c-29 0 -48 -19 -48 -41s20 -41 48 -41c29 0 48 19 48 41z M771 290c0 21 -16 37 -41 37c-24 0 -40 -14 -40 -37c0 -21 18 -32 40 -32s41 13 41 32z" />
<glyph unicode="&#x215e;" horiz-adv-x="925" d="M690 713l-426 -730h-117l425 730h118zM370 616l-163 -337h-115l150 322h-61v-54h-109v149h298v-80zM696 -4c-84 0 -157 52 -157 131c0 31 15 68 49 89c-26 17 -41 49 -41 77c0 73 64 126 149 126c100 0 149 -53 149 -126c0 -28 -14 -58 -40 -78c33 -19 48 -56 48 -88 c0 -79 -72 -131 -157 -131zM744 130c0 22 -17 41 -48 41c-29 0 -48 -19 -48 -41s20 -41 48 -41c29 0 48 19 48 41zM737 290c0 21 -16 37 -41 37c-24 0 -40 -14 -40 -37c0 -21 18 -32 40 -32s41 13 41 32z" />
<glyph unicode="&#x215f;" horiz-adv-x="483" d="M652 713l-426 -730h-117l425 730h118zM198 279h-110v299l-65 -41v109l82 50h93v-417z" />
<glyph unicode="&#xaa;" horiz-adv-x="356" d="M326 279h-108v35c-22 -32 -64 -39 -84 -39c-69 0 -113 33 -113 104c0 56 45 97 127 97h70v12c0 13 -14 33 -48 33c-32 0 -60 -7 -81 -28l-58 64c41 43 93 53 142 53c85 0 153 -25 153 -114v-217zM218 400v10h-58c-29 0 -34 -16 -34 -24c0 -6 5 -23 40 -23 c27 0 52 10 52 37z" />
<glyph unicode="&#xb2;" horiz-adv-x="343" d="M129 642l-108 15c10 82 79 132 152 132c86 0 149 -41 149 -122c0 -34 -14 -64 -35 -86l-112 -117h145v-95h-299v83l179 185c7 7 11 16 11 23c0 18 -13 34 -37 34c-19 0 -40 -15 -45 -52z" />
<glyph unicode="&#xb3;" horiz-adv-x="346" d="M19 486l106 14c5 -27 25 -39 47 -39c24 0 43 15 43 39s-16 43 -51 43h-36v81h37c35 0 48 18 48 36c0 19 -17 34 -41 34c-17 0 -37 -10 -43 -43l-105 16c17 77 83 122 152 122c106 0 152 -58 152 -124c0 -25 -13 -65 -50 -81c40 -16 53 -58 53 -85 c0 -78 -62 -133 -157 -133c-65 0 -137 33 -155 120z" />
<glyph unicode="&#xb9;" horiz-adv-x="285" d="M216 369h-110v299l-65 -41v109l82 50h93v-417z" />
<glyph unicode="&#xba;" horiz-adv-x="356" d="M184 611c53 0 101 -20 127 -57c18 -26 27 -67 27 -113c0 -41 -10 -74 -27 -101c-28 -44 -82 -66 -136 -66s-99 18 -125 54c-22 30 -30 68 -29 115c1 34 6 66 18 91c24 49 80 77 145 77zM181 517c-18 0 -32 -9 -40 -24c-6 -11 -9 -30 -9 -51c0 -20 3 -37 9 -49 c7 -15 19 -24 37 -24c22 0 35 13 42 31c3 9 6 25 6 43c0 24 -3 42 -7 51c-7 15 -22 23 -38 23z" />
<glyph unicode="&#xbc;" horiz-adv-x="925" d="M278 279h-110v299l-65 -41v109l82 50h93v-417zM720 713l-426 -730h-117l425 730h118zM822 56h-36v-56h-109v56h-188v76l156 285h123l-149 -268h58v74h109v-74h36v-93z" />
<glyph unicode="&#xbd;" horiz-adv-x="925" d="M255 279h-110v299l-65 -41v109l82 50h93v-417zM696 713l-426 -730h-117l425 730h118zM652 273l-108 15c10 82 76 132 149 132c86 0 151 -41 151 -122c0 -32 -13 -64 -34 -86l-112 -117h145v-95h-299v83l179 186v-1c7 7 10 16 10 23c0 18 -14 34 -38 34 c-21 0 -38 -15 -43 -52z" />
<glyph unicode="&#xbe;" horiz-adv-x="925" d="M62 396l106 14c5 -27 25 -39 47 -39c24 0 43 15 43 39s-16 43 -51 43h-36v81h37c35 0 48 18 48 36c0 19 -17 34 -41 34c-17 0 -37 -10 -43 -43l-105 16c17 77 83 122 152 122c106 0 152 -58 152 -124c0 -25 -13 -65 -50 -81c40 -16 53 -58 53 -85 c0 -78 -62 -133 -157 -133c-65 0 -137 33 -155 120zM758 713l-426 -730h-117l425 730h118zM863 56h-36v-56h-109v56h-188v76l156 285h123l-149 -268h58v74h109v-74h36v-93z" />
<glyph unicode="&#xe360;" horiz-adv-x="455" d="M460 279h-123l-36 96h-148c-12 -31 -26 -65 -37 -96h-122l188 455h89zM265 467l-17 53l-23 69c-8 -24 -13 -42 -20 -65l-17 -57h77z" />
<glyph unicode="&#xe361;" horiz-adv-x="440" d="M419 417c0 -84 -70 -138 -152 -138h-221v455h204c104 0 161 -53 161 -131c0 -32 -10 -66 -52 -88c38 -20 60 -64 60 -98zM306 421c0 23 -17 45 -57 45h-88v-88h88c40 0 57 20 57 43zM298 599c0 22 -16 41 -55 41h-82v-83h82c39 0 55 21 55 42z" />
<glyph unicode="&#xe362;" horiz-adv-x="453" d="M46 734h193c72 0 135 -24 166 -84c17 -36 19 -80 19 -135c0 -63 -2 -110 -17 -144c-32 -70 -101 -92 -179 -92h-182v455zM161 636v-258h63c66 0 86 35 86 90v81c0 59 -26 87 -88 87h-61z" />
<glyph unicode="&#xe363;" horiz-adv-x="404" d="M391 279h-346v455h346v-97h-230v-81h195v-95h-195v-83h230v-99z" />
<glyph unicode="&#xe364;" horiz-adv-x="465" d="M419 279h-113v182h-145v-182h-115v455h115v-178h145v178h113v-455z" />
<glyph unicode="&#xe365;" horiz-adv-x="203" d="M161 279h-115v455h115v-455z" />
<glyph unicode="&#xe366;" horiz-adv-x="404" d="M391 279h-346v455h116v-356h230v-99z" />
<glyph unicode="&#xe367;" horiz-adv-x="540" d="M499 279h-114l-2 195l-33 -70l-33 -66h-86l-35 69h-1c-14 29 -20 37 -33 65v-193h-116v455h103l66 -132l59 -122l55 122l63 132h107v-455z" />
<glyph unicode="&#xe368;" horiz-adv-x="490" d="M446 279h-101l-122 166l-62 93v-259h-115v455h101l101 -138l83 -119v257h115v-455z" />
<glyph unicode="&#xe369;" horiz-adv-x="431" d="M214 738c117 0 190 -75 190 -178v-106c0 -109 -75 -179 -190 -179c-126 0 -188 84 -188 179v106c0 95 62 178 188 178zM213 636c-49 0 -72 -34 -72 -67v-121c0 -36 23 -70 72 -70c47 0 75 30 75 70v121c0 35 -28 67 -75 67z" />
<glyph unicode="&#xe36a;" horiz-adv-x="450" d="M426 279h-128l-77 178h-60v-178h-115v455h219c86 0 153 -47 153 -136c0 -54 -31 -100 -84 -124zM307 598c0 30 -24 42 -56 42h-90v-88h87c34 0 59 16 59 46z" />
<glyph unicode="&#xe36b;" horiz-adv-x="435" d="M415 416c0 -90 -86 -140 -196 -140c-73 0 -131 15 -199 66l63 84c46 -33 92 -48 137 -48c44 0 64 13 64 32c0 27 -44 39 -102 49c-84 15 -143 59 -143 138c0 83 71 141 179 141c64 0 116 -12 179 -49l-58 -92c-48 28 -86 40 -124 40c-28 0 -57 -7 -57 -32 c0 -23 69 -40 110 -49c112 -24 147 -74 147 -140z" />
<glyph unicode="&#xe36c;" horiz-adv-x="384" d="M375 640h-129v-361h-113v361h-129v94h371v-94z" />
<glyph unicode="&#x1a0;" horiz-adv-x="634" d="M310 701c63 0 118 -17 161 -46c36 9 51 39 51 102v54h111v-84c0 -73 -31 -128 -85 -156c23 -41 35 -89 35 -141v-164c0 -166 -108 -272 -273 -272c-181 0 -269 127 -269 272v164c0 144 88 271 269 271zM309 557c-77 0 -113 -56 -113 -113v-189c0 -60 36 -117 113 -117 c74 0 117 51 117 117v189c0 61 -43 113 -117 113z" />
<glyph unicode="&#x1a1;" horiz-adv-x="559" d="M265 501c59 0 113 -18 151 -52c29 12 41 42 41 99v54h111v-84c0 -78 -36 -137 -97 -162c9 -33 12 -70 12 -111c0 -65 -14 -116 -38 -156c-41 -66 -115 -96 -193 -96c-77 0 -140 25 -177 79c-30 44 -43 104 -42 176c1 51 9 103 26 139c35 74 113 114 206 114zM260 373 c-28 0 -53 -16 -66 -43c-10 -21 -14 -50 -15 -84c0 -34 4 -62 14 -82c12 -25 34 -41 63 -41c34 0 60 19 71 54c4 14 9 38 9 71c1 37 -5 67 -12 82c-12 29 -37 43 -64 43z" />
<glyph unicode="&#x1af;" horiz-adv-x="733" d="M600 243c0 -149 -122 -248 -271 -248c-150 0 -271 102 -271 257v444h153v-433c0 -79 53 -125 118 -125c67 0 117 39 117 116v442h154v-36c36 8 51 37 51 100v51h111v-84c0 -103 -62 -172 -162 -176v-308z" />
<glyph unicode="&#x1b0;" horiz-adv-x="644" d="M61 495h143v-293c0 -50 29 -76 69 -76c42 0 76 26 76 76v293h143v-48c34 10 48 39 48 101v54h111v-84c0 -102 -61 -170 -159 -176v-342h-143v42h-2c-27 -31 -80 -48 -117 -48c-104 0 -169 62 -169 178v323z" />
<glyph unicode="&#x2602;" horiz-adv-x="780" d="M405 695c147 0 323 -160 324 -331c-21 24 -55 39 -90 39c-30 0 -61 -12 -86 -39h-2c-15 25 -41 39 -75 39c-18 0 -40 -5 -62 -14v-304c0 -55 -36 -93 -99 -93c-55 0 -97 31 -97 98v13h47v-13c0 -37 20 -54 48 -54c42 0 51 29 51 56v296c-19 9 -36 12 -52 12 c-34 0 -61 -15 -85 -37c-22 26 -55 39 -87 39c-33 0 -66 -13 -89 -39l-1 1c0 170 179 332 326 332v31h29v-32zM729 364l1 -1c-1 0 -1 1 -1 1z" />
<glyph unicode="&#x20ab;" d="M253 549v76h62v60h130v-60h37v-76h-37v-413h-130v23c-19 -16 -55 -26 -77 -26c-140 0 -152 120 -152 201c0 77 25 187 151 187c26 0 58 -6 78 -28v56h-62zM86 -4v105h364v-105h-364zM315 326c0 36 -4 82 -46 82c-45 0 -51 -44 -51 -82c0 -34 3 -81 51 -81 c43 0 46 49 46 81z" />
<glyph unicode="&#xe071;" horiz-adv-x="368" d="M340 421h-206c0 -36 22 -52 50 -52c16 0 51 2 77 30l67 -70c-48 -41 -103 -54 -147 -54c-77 0 -160 35 -160 167c0 123 80 168 159 168c110 0 160 -69 160 -169v-20zM181 517c-20 0 -37 -13 -43 -34h84c-5 22 -21 34 -41 34zM245 673l-60 -31l-112 143l91 44z" />
<glyph unicode="&#xe374;" horiz-adv-x="404" d="M290 813l-42 -50l-152 61l66 75zM391 279h-346v455h346v-97h-230v-81h195v-95h-195v-83h230v-99z" />
<glyph unicode="&#x21a;" horiz-adv-x="556" d="M541 558h-190v-558h-153v558h-190v138h533v-138zM265 -313h-67l35 108h-33v151h154v-143z" />
<glyph unicode="&#x21b;" horiz-adv-x="333" d="M302 384h-73v-209c0 -42 14 -51 43 -51h31v-124h-77c-80 0 -140 49 -140 133v251h-54v112h56v136h139v-136h75v-112zM158 -313h-67l35 108h-33v151h154v-143z" />
</font>
</defs>
</svg>
