<?xml version="1.0" standalone="no"?>
<!DOCTYPE svg PUBLIC "-//W3C//DTD SVG 1.1//EN" "http://www.w3.org/Graphics/SVG/1.1/DTD/svg11.dtd" >
<svg xmlns="http://www.w3.org/2000/svg" xmlns:xlink="http://www.w3.org/1999/xlink" version="1.1">
<metadata></metadata>
<defs>
<font id="pf_dintext_stditalic" horiz-adv-x="500" >
<font-face units-per-em="1000" ascent="750" descent="-250" />
<missing-glyph horiz-adv-x="224" />
<glyph unicode="fj" horiz-adv-x="478" d="M74 496h61l16 80c24 126 97 160 182 160c68 0 118 -21 146 -64l-56 -56c-17 26 -46 43 -99 43c-57 0 -80 -27 -90 -81l-16 -82h237l-105 -563c-16 -80 -60 -135 -149 -135h-49l15 75c4 0 28 -1 30 1c36 1 63 24 71 65l91 485h-155l-111 -573h-83l111 573h-61z" />
<glyph unicode="ffj" horiz-adv-x="727" d="M476 578l-16 -82h238l-106 -563c-16 -80 -55 -135 -156 -135h-42l15 75c4 0 28 -1 30 1c36 1 63 24 71 65l94 485h-158l-111 -573h-83l111 573h-158l-111 -573h-83l111 573h-61l14 72h61l12 60c24 126 106 159 190 159c41 0 89 -7 116 -23c40 33 76 44 128 44 c68 0 119 -20 150 -64l-61 -56c-21 27 -46 43 -99 43c-51 0 -86 -27 -96 -81zM331 639c-57 0 -89 -27 -100 -81l-12 -62h158l16 80c3 16 7 31 12 45c-18 11 -41 18 -74 18z" />
<glyph unicode="ff" horiz-adv-x="520" d="M541 731h73l-15 -76h-55c-43 0 -58 -29 -65 -64l-19 -95h104l-14 -72h-104l-111 -573h-83l111 573h-158l-111 -573h-82l110 573h-61l14 72h61l12 60c25 126 103 160 193 160c39 0 82 -7 108 -21c28 24 54 36 92 36zM231 558l-12 -62h158l21 105c1 7 2 14 5 21 c-17 11 -44 17 -75 17c-57 0 -86 -27 -97 -81z" />
<glyph unicode="fi" horiz-adv-x="478" d="M367 0h-83l82 424h-158l-111 -573h-83l111 573h-61l14 72h61l15 80c26 133 101 160 184 160c68 0 127 -21 156 -64l-67 -56c-17 26 -46 43 -99 43c-46 0 -80 -27 -90 -81l-16 -82h241z" />
<glyph unicode="fl" horiz-adv-x="495" d="M441 0h-34c-70 0 -115 40 -98 125l103 523c-18 6 -42 11 -74 11c-57 0 -90 -27 -100 -81l-16 -82h107l-14 -72h-107l-111 -573h-83l111 573h-61l14 72h61l15 80c25 126 104 160 194 160c27 0 79 -4 157 -29l-113 -577c-6 -30 3 -55 41 -55h23z" />
<glyph unicode="ffi" horiz-adv-x="727" d="M608 0h-83l82 424h-158l-111 -573h-83l111 573h-158l-111 -573h-83l111 573h-61l14 72h61l12 60c24 126 103 160 193 160c41 0 86 -8 113 -24c39 33 73 44 125 44c68 0 127 -21 156 -64l-67 -56c-17 26 -46 43 -99 43c-50 0 -83 -27 -93 -81l-16 -82h241zM334 639 c-57 0 -90 -27 -100 -81l-12 -62h158l15 80c4 16 7 31 13 45c-18 11 -41 18 -74 18z" />
<glyph unicode="ffl" horiz-adv-x="737" d="M334 639c-57 0 -90 -27 -100 -81l-12 -62h158l15 80c4 16 7 31 13 45c-18 11 -41 18 -74 18zM590 736c27 0 79 -4 157 -29l-113 -577c-6 -30 3 -55 41 -55h23l-15 -75h-34c-70 0 -115 40 -98 125l103 523c-18 6 -42 11 -75 11c-57 0 -89 -27 -100 -81l-16 -82h105 l-14 -72h-105l-111 -573h-83l111 573h-158l-111 -573h-83l111 573h-61l14 72h61l12 60c24 126 109 160 199 160c41 0 80 -8 107 -24c39 33 80 44 133 44z" />
<glyph unicode="ft" horiz-adv-x="512" d="M366 425l-158 -1l-111 -572h-83l111 572h-61l14 72h61l20 105c17 88 66 130 144 130h69l-15 -76h-51c-43 0 -59 -29 -66 -64l-18 -95h158l24 123h82l-24 -123h76l-14 -71h-76l-56 -289c-6 -31 -4 -62 37 -62h43l-14 -74h-59c-67 0 -108 41 -93 116z" />
<glyph unicode="&#x22;" horiz-adv-x="309" d="M302 494h-64l39 202h64zM181 494h-64l39 202h64z" />
<glyph unicode="#" d="M16 216l12 57h100l50 152h-92l11 57h100l70 212h61l-70 -212h113l70 212h61l-70 -212h99l-11 -57h-107l-50 -152h99l-12 -57h-107l-70 -216h-61l70 216h-113l-70 -216h-61l70 216h-92zM239 425l-50 -152h113l50 152h-113z" />
<glyph unicode="$" d="M165 -116l22 112c-62 7 -123 32 -171 78c18 20 35 42 52 62c37 -34 80 -59 133 -65l48 243c-62 28 -146 72 -146 170c0 118 99 201 219 207l16 81h50l-17 -84c53 -6 109 -25 143 -54c-16 -21 -31 -45 -46 -66c-30 22 -70 39 -111 45l-46 -233c76 -31 156 -66 156 -175 c0 -5 0 -11 -1 -17c-9 -117 -113 -188 -230 -193l-21 -111h-50zM379 196c0 53 -48 82 -84 99l-44 -224c71 9 128 54 128 125zM192 487c0 -42 40 -70 73 -87l42 215c-56 -8 -115 -51 -115 -128z" />
<glyph unicode="&#x26;" horiz-adv-x="542" d="M264 442c22 -52 96 -193 118 -245c27 36 41 74 53 108l71 -6c-18 -56 -47 -120 -89 -174l64 -125h-94l-34 65c-57 -50 -116 -71 -175 -71c-94 0 -139 61 -139 148c0 97 57 173 163 238c-18 44 -43 90 -43 153c0 94 72 170 181 170c57 0 110 -20 140 -69l-63 -47 c-19 29 -50 41 -89 41c-55 0 -87 -42 -87 -92c0 -26 8 -58 23 -94zM324 125c-31 64 -60 128 -91 192c-78 -52 -115 -108 -115 -167c0 -48 25 -83 82 -83c42 0 94 29 124 58z" />
<glyph unicode="'" horiz-adv-x="241" d="M204 494h-63l39 202h63z" />
<glyph unicode="(" horiz-adv-x="284" d="M170 -120c-68 96 -110 212 -110 330c0 204 127 388 272 520l39 -28c-126 -135 -223 -318 -223 -507c0 -97 23 -197 70 -283z" />
<glyph unicode=")" horiz-adv-x="284" d="M-22 -120l-35 32c125 133 224 320 224 506c0 97 -24 198 -71 284l50 28c67 -95 108 -207 108 -324c0 -207 -128 -392 -276 -526z" />
<glyph unicode="*" horiz-adv-x="361" d="M285 532l60 -90c-21 -15 -41 -29 -64 -43l-42 104c-26 -34 -57 -71 -83 -105c-15 14 -33 28 -48 43l96 91c-35 9 -72 21 -107 30l31 65l102 -47l14 120h68l-34 -120c39 15 81 31 120 47l7 -66z" />
<glyph unicode="+" d="M480 262h-188l-37 -192h-64l37 192h-189l13 64h189l37 190h64l-37 -190h188z" />
<glyph unicode="," horiz-adv-x="252" d="M131 2l-78 -115h-51l54 113h-28l21 111h103z" />
<glyph unicode="-" horiz-adv-x="392" d="M344 230h-288l15 75h288z" />
<glyph unicode="." horiz-adv-x="243" d="M133 0h-103l21 111h103z" />
<glyph unicode="/" horiz-adv-x="317" d="M415 725l-400 -767h-64l399 767h65z" />
<glyph unicode="0" d="M190 -6c-91 0 -165 58 -165 151c0 15 1 30 4 45l62 316c21 110 97 196 220 196c91 0 164 -59 164 -151c0 -15 -1 -30 -4 -45l-62 -316c-21 -110 -90 -196 -219 -196zM393 532c0 56 -36 93 -92 93c-73 0 -118 -57 -131 -125l-59 -304c-2 -11 -4 -22 -4 -32 c0 -56 34 -92 90 -92c72 0 120 56 133 124l59 304c2 11 4 21 4 32z" />
<glyph unicode="1" d="M358 696l-136 -696h-80l119 610l-102 -66l18 87l99 65h82z" />
<glyph unicode="2" d="M391 0h-386l15 82l334 341c38 39 58 77 58 114c0 47 -31 85 -96 85c-58 0 -107 -44 -129 -108l-85 16c37 108 125 170 223 170c100 0 175 -51 175 -154c1 -64 -31 -110 -78 -158l-301 -307h285z" />
<glyph unicode="3" d="M311 701c116 0 171 -66 171 -148c0 -62 -27 -135 -119 -187c50 -32 66 -78 66 -123c0 -149 -114 -250 -242 -250c-84 0 -169 37 -169 151l83 12c2 -59 40 -87 93 -87c82 0 151 65 151 163c0 63 -35 97 -95 97h-50l14 72h41c77 0 142 58 142 135c0 52 -37 87 -91 87 c-46 0 -102 -29 -125 -90l-79 14c28 97 116 154 209 154z" />
<glyph unicode="4" d="M449 106h-57l-21 -106h-79l20 106h-296l16 80l335 510h87l-336 -513h209l40 205h80l-40 -205h57z" />
<glyph unicode="5" d="M440 325c0 -169 -60 -332 -253 -332c-84 0 -169 37 -169 151l83 12c2 -59 40 -87 93 -87c123 0 160 120 160 230c0 52 -21 93 -93 93c-42 0 -81 -23 -111 -62h-81l72 366h363l-16 -81h-286l-37 -191c45 35 89 46 131 46c93 0 144 -57 144 -145z" />
<glyph unicode="6" d="M208 -6c-94 0 -162 67 -162 162c0 55 19 116 50 161l266 379h91l-212 -303l2 -1c20 8 46 12 67 12c92 0 139 -67 139 -154c0 -143 -94 -256 -241 -256zM363 237c0 58 -30 96 -90 96c-89 0 -141 -86 -141 -167c0 -57 31 -96 90 -96c86 0 141 89 141 167z" />
<glyph unicode="7" d="M464 611l-355 -611h-90l357 615h-212l-20 -104h-81l36 185h381z" />
<glyph unicode="8" d="M186 -6c-97 0 -169 65 -169 164c0 84 51 175 133 204c-39 26 -59 65 -59 111c0 126 109 229 233 229c92 0 158 -65 158 -157c0 -78 -46 -153 -117 -186c50 -22 68 -78 68 -129c0 -139 -112 -236 -247 -236zM400 535c0 56 -36 93 -91 93c-79 0 -137 -71 -137 -147 c0 -54 39 -87 92 -87c78 0 136 65 136 141zM353 224c0 59 -45 100 -103 100c-78 0 -152 -70 -152 -148c0 -59 44 -104 103 -104c81 0 152 72 152 152z" />
<glyph unicode="9" d="M291 702c102 0 167 -67 167 -162c0 -55 -21 -116 -52 -161l-267 -379h-93l216 309l-3 1c-19 -8 -39 -11 -60 -11c-92 0 -146 64 -146 151c0 143 88 252 238 252zM137 459c0 -58 30 -96 89 -96c89 0 141 86 141 167c0 57 -31 96 -90 96c-86 0 -140 -89 -140 -167z" />
<glyph unicode=":" horiz-adv-x="238" d="M127 0h-103l21 111h103zM182 285h-103l21 111h103z" />
<glyph unicode=";" horiz-adv-x="238" d="M185 285h-103l21 111h103zM130 2l-78 -115h-51l54 113h-28l21 111h103z" />
<glyph unicode="&#x3c;" d="M436 130l-14 -67l-368 202l12 60l446 203l-14 -75l-357 -162z" />
<glyph unicode="=" d="M499 357h-441l13 67h441zM462 165h-441l13 67h441z" />
<glyph unicode="&#x3e;" d="M16 63l14 74l357 161l-295 162l14 68l368 -203l-12 -60z" />
<glyph unicode="?" horiz-adv-x="497" d="M335 700c107 0 182 -64 182 -154c0 -101 -63 -149 -121 -198c-41 -35 -80 -70 -89 -114l-10 -50h-87l10 52c9 46 37 86 75 120c49 55 131 101 131 171c0 39 -25 91 -101 91c-94 0 -134 -79 -141 -125l-89 21c43 132 118 186 240 186zM262 0h-90l19 98h90z" />
<glyph unicode="@" horiz-adv-x="827" d="M617 520l-56 -280c-6 -32 11 -56 34 -56c47 0 148 49 148 241c0 143 -111 220 -238 220c-210 0 -365 -167 -365 -370c0 -157 90 -255 261 -255c61 0 134 17 209 48l17 -62c-72 -26 -151 -45 -232 -45c-193 0 -325 113 -325 305c0 247 189 439 435 439 c180 0 307 -111 307 -275c0 -212 -123 -307 -220 -307c-51 0 -88 24 -94 61h-5c-23 -29 -65 -57 -119 -57c-79 0 -116 54 -116 125c0 113 52 272 191 272c39 0 72 -16 93 -48l3 1l8 43h64zM326 264c0 -39 16 -73 71 -73c91 0 123 121 123 191c0 47 -17 79 -69 79 c-97 0 -125 -137 -125 -197z" />
<glyph unicode="A" horiz-adv-x="586" d="M540 0h-90l-24 160h-283l-86 -160h-93l385 696h77zM417 236l-28 195l-20 158h-2l-79 -154l-106 -199h235z" />
<glyph unicode="B" horiz-adv-x="586" d="M326 0h-292l136 696h238c104 0 186 -43 186 -157c0 -92 -51 -157 -139 -181l-1 -3c62 -21 97 -71 97 -136c0 -123 -105 -219 -225 -219zM392 619h-151l-44 -225h161c77 0 149 51 149 133c0 65 -58 92 -115 92zM358 318h-175l-47 -237h176c80 0 152 58 152 141 c0 62 -48 96 -106 96z" />
<glyph unicode="C" horiz-adv-x="543" d="M449 182l82 -40c-54 -98 -152 -148 -264 -148c-142 0 -212 93 -212 207c0 20 2 40 6 60l38 190c27 136 111 250 273 250c112 0 191 -59 220 -147l-84 -37c-14 52 -63 104 -137 104c-117 0 -169 -92 -186 -181l-36 -181c-3 -15 -4 -30 -4 -44c0 -74 25 -137 130 -137 c71 0 139 42 174 104z" />
<glyph unicode="D" horiz-adv-x="606" d="M169 696h224c118 0 215 -52 215 -183c0 -120 -48 -325 -81 -381c-63 -107 -152 -132 -248 -132h-245zM375 615h-135l-104 -534h135c131 0 192 78 215 198l26 133c5 26 7 49 7 69c0 100 -57 134 -144 134z" />
<glyph unicode="E" horiz-adv-x="532" d="M486 0h-452l136 696h421l-16 -81h-335l-43 -225h294l-15 -77h-294l-46 -232h365z" />
<glyph unicode="F" horiz-adv-x="514" d="M580 615h-340l-44 -230h294l-15 -77h-294l-60 -308h-87l136 696h426z" />
<glyph unicode="G" horiz-adv-x="586" d="M376 701c112 0 181 -53 214 -147l-86 -37c-12 57 -65 99 -126 99c-121 0 -178 -87 -195 -176l-35 -181c-3 -18 -5 -35 -5 -52c0 -72 33 -132 120 -132c95 0 173 72 193 169l10 49h-144l15 80h233l-27 -135c-28 -141 -138 -244 -286 -244c-140 0 -204 89 -204 201 c0 22 3 44 7 66l38 190c27 136 112 250 278 250z" />
<glyph unicode="H" horiz-adv-x="623" d="M509 0h-86l60 313h-301l-61 -313h-87l136 696h86l-59 -306h301l60 306h86z" />
<glyph unicode="I" horiz-adv-x="236" d="M121 0h-87l136 696h86z" />
<glyph unicode="J" horiz-adv-x="458" d="M486 696l-94 -484c-33 -172 -114 -218 -234 -218c-68 0 -133 29 -161 72l61 58c26 -30 66 -50 99 -50c74 0 128 30 153 157l90 465h86z" />
<glyph unicode="K" horiz-adv-x="606" d="M557 0h-96l-133 358l-171 -168l-36 -190h-87l136 696h86l-72 -376l3 1l156 161l217 214h105l-270 -270z" />
<glyph unicode="L" horiz-adv-x="532" d="M466 0h-432l136 696h86l-120 -615h345z" />
<glyph unicode="M" horiz-adv-x="733" d="M629 0h-86l97 494h-4l-78 -131l-168 -260h-76l-67 268l-27 123h-3l-96 -494h-87l136 696h86l81 -325l36 -162h3l98 161l206 326h85z" />
<glyph unicode="N" horiz-adv-x="660" d="M547 0h-84l-173 398l-61 152l-3 -1l-105 -549h-87l136 696h85l166 -384l67 -164l3 -1l106 549h85z" />
<glyph unicode="O" horiz-adv-x="579" d="M366 701c131 0 223 -85 223 -204c0 -64 -26 -166 -42 -245c-33 -155 -123 -258 -283 -258c-157 0 -218 92 -218 206c0 65 27 174 44 249c32 142 105 252 276 252zM360 622c-124 0 -172 -96 -188 -180l-36 -185c-18 -97 5 -185 135 -185c107 0 167 81 191 185 c17 72 40 166 40 225c0 82 -50 140 -142 140z" />
<glyph unicode="P" horiz-adv-x="561" d="M175 280l-54 -280h-87l136 696h245c111 0 191 -60 191 -177c0 -141 -117 -239 -253 -239h-178zM516 508c0 71 -48 107 -116 107h-160l-49 -254h169c85 0 156 62 156 147z" />
<glyph unicode="Q" horiz-adv-x="586" d="M366 701c131 0 223 -85 223 -204c0 -64 -26 -166 -42 -245c-12 -55 -31 -103 -57 -143l66 -64l-59 -60l-65 62c-44 -34 -100 -53 -168 -53c-157 0 -218 92 -218 206c0 65 27 174 44 249c32 142 105 252 276 252zM360 622c-124 0 -172 -96 -188 -180l-36 -185 c-18 -97 5 -185 135 -185c41 0 74 11 102 32l-89 87l62 59l83 -81c14 26 25 56 33 88c17 72 40 166 40 225c0 82 -50 140 -142 140z" />
<glyph unicode="R" horiz-adv-x="586" d="M522 0h-96l-91 306h-155l-59 -306h-87l136 696h271c111 0 180 -76 167 -190c-12 -107 -85 -169 -184 -191zM522 506c9 79 -40 113 -115 113h-166l-46 -236h173c74 0 145 42 154 123z" />
<glyph unicode="S" horiz-adv-x="534" d="M353 702c75 0 150 -22 202 -59l-52 -73c-42 30 -101 48 -160 48c-61 0 -151 -32 -151 -119c0 -66 81 -91 111 -99c101 -27 208 -65 208 -191c0 -142 -129 -215 -272 -215c-94 0 -182 31 -236 88l57 63c44 -41 109 -67 181 -67c90 0 175 41 175 124c0 68 -62 96 -121 111 c-88 22 -190 55 -190 170c0 130 98 219 248 219z" />
<glyph unicode="T" horiz-adv-x="476" d="M556 619h-194l-121 -619h-86l120 619h-194l15 77h475z" />
<glyph unicode="U" horiz-adv-x="606" d="M549 232c-28 -143 -119 -238 -277 -238c-135 0 -232 98 -203 248l88 454h86l-86 -442c-20 -104 15 -179 121 -179c95 0 167 64 187 169l88 452h86z" />
<glyph unicode="V" horiz-adv-x="532" d="M250 147h5l93 195l177 354h97l-364 -696h-70l-89 696h90l40 -356z" />
<glyph unicode="W" horiz-adv-x="807" d="M466 535h-3c-25 -58 -53 -119 -79 -177l-164 -358h-76l-36 696h87l19 -519h4c26 58 52 119 78 176l160 343h78l28 -350c5 -57 8 -113 13 -170h4l68 169l146 351h92l-306 -696h-76l-25 347z" />
<glyph unicode="X" horiz-adv-x="513" d="M474 0h-92l-105 289l-217 -289h-96l279 357l-130 339h91l94 -271l201 271h96l-262 -339z" />
<glyph unicode="Y" horiz-adv-x="498" d="M589 696l-286 -421l-54 -275h-82l54 275l-124 421h86l58 -201l34 -130l91 139l129 192h94z" />
<glyph unicode="Z" horiz-adv-x="495" d="M424 0h-432l15 77l438 542h-320l15 77h419l-14 -70l-440 -545h334z" />
<glyph unicode="[" horiz-adv-x="256" d="M177 -105h-166l156 803h166l-11 -56h-92l-134 -691h92z" />
<glyph unicode="\" horiz-adv-x="317" d="M201 -42l-102 767h65l102 -767h-65z" />
<glyph unicode="]" horiz-adv-x="256" d="M131 -105h-165l11 56h91l134 691h-91l11 56h165z" />
<glyph unicode="^" d="M117 328h-71l274 367h60l131 -367h-71l-105 293z" />
<glyph unicode="_" horiz-adv-x="490" d="M425 -129h-490l12 60h490z" />
<glyph unicode="`" horiz-adv-x="491" d="M365 569l-49 -15l-87 184l68 16z" />
<glyph unicode="a" horiz-adv-x="495" d="M277 501c48 0 100 -19 121 -61l3 1l13 54h77l-96 -495h-80l11 54l-3 2c-40 -45 -76 -62 -133 -62c-103 0 -146 75 -146 173c0 139 71 334 233 334zM125 165c0 -42 16 -101 87 -101c119 0 162 164 162 257c0 61 -22 106 -89 106c-125 0 -160 -164 -160 -262z" />
<glyph unicode="b" horiz-adv-x="486" d="M231 -6c-49 0 -93 18 -120 61h-2l-13 -55h-78l141 727h80l-55 -287h2c35 33 75 61 144 61c100 0 136 -64 136 -155c0 -142 -60 -352 -235 -352zM300 424c-123 0 -162 -156 -162 -249c0 -59 22 -107 86 -107c125 0 161 171 161 254c0 60 -22 102 -85 102z" />
<glyph unicode="c" horiz-adv-x="422" d="M387 62c-49 -42 -122 -68 -187 -68c-115 0 -170 82 -170 190c0 171 87 317 262 317c58 0 119 -23 156 -69l-60 -58c-25 29 -61 49 -101 49c-122 0 -174 -123 -174 -224c0 -74 23 -124 105 -124c48 0 93 28 121 48z" />
<glyph unicode="d" horiz-adv-x="486" d="M362 248c13 67 16 177 -81 177c-82 0 -116 -71 -135 -139c-10 -37 -16 -78 -16 -107c0 -64 19 -104 87 -104c99 0 132 105 145 173zM394 0h-80l10 54l-2 1c-38 -42 -90 -61 -136 -61c-110 0 -141 72 -141 162c0 145 60 345 237 345c40 0 88 -14 117 -52h2l56 278h80z" />
<glyph unicode="e" horiz-adv-x="470" d="M285 501c108 0 171 -52 171 -135s-58 -166 -290 -166c-14 0 -28 0 -44 1c-2 -15 -2 -23 -2 -28c0 -75 33 -103 98 -103c39 0 99 24 130 46l40 -59c-49 -40 -119 -63 -182 -63c-113 0 -165 63 -165 180c0 150 70 327 244 327zM280 424c-94 0 -130 -74 -145 -151 c16 -1 30 -1 44 -1c170 0 196 55 196 85c0 42 -33 67 -95 67z" />
<glyph unicode="f" horiz-adv-x="270" d="M205 423l-97 -492c-15 -75 -64 -135 -154 -135c-15 0 -32 1 -49 5l15 76c13 -3 24 -4 34 -4c56 0 69 38 75 68l95 482h-68l14 72h68l21 102c16 76 59 135 155 134c15 0 31 -1 48 -4l-15 -76c-14 3 -26 4 -36 4c-57 0 -67 -38 -73 -68l-19 -92h92l-14 -72h-92z" />
<glyph unicode="g" horiz-adv-x="501" d="M163 -207c-53 0 -120 23 -155 64l51 60c33 -26 66 -47 109 -47c115 0 138 93 156 186h-2c-41 -43 -90 -61 -144 -61c-103 0 -134 72 -134 162c0 143 56 345 232 345c49 0 94 -18 121 -61h2l11 55h80l-94 -496c-25 -132 -87 -207 -233 -207zM127 163c0 -60 24 -98 88 -98 c117 0 158 167 158 260c0 58 -26 100 -90 100c-124 0 -156 -165 -156 -262z" />
<glyph unicode="h" horiz-adv-x="518" d="M412 0h-81l58 297c13 65 -1 123 -78 123c-64 0 -131 -47 -146 -123l-58 -297h-80l140 727h80l-56 -293h3c42 43 97 67 149 67c83 0 154 -58 130 -184z" />
<glyph unicode="i" horiz-adv-x="220" d="M229 614h-80l16 82h80zM110 0h-80l96 495h80z" />
<glyph unicode="j" horiz-adv-x="238" d="M240 614h-81l16 82h81zM217 495l-109 -562c-16 -80 -55 -135 -145 -135h-49l14 77h30c36 0 62 23 70 64l108 556h81z" />
<glyph unicode="k" horiz-adv-x="496" d="M448 0h-89l-112 248l-113 -107l-27 -141h-80l141 727h80l-91 -472l3 1l253 239h98l-202 -195z" />
<glyph unicode="l" horiz-adv-x="238" d="M180 0h-34c-70 0 -115 40 -98 125l120 602h80l-117 -597c-6 -30 7 -55 41 -55h23z" />
<glyph unicode="m" horiz-adv-x="830" d="M721 0h-80l58 297c15 76 -1 123 -78 123c-65 0 -131 -47 -146 -123l-57 -297h-82l58 297c15 76 -5 124 -88 124c-65 0 -121 -48 -135 -124l-58 -297h-81l96 495h81l-11 -58h2c40 43 96 64 147 64c66 0 105 -27 131 -71c0 1 1 0 1 0c56 56 110 71 173 71 c93 0 154 -72 133 -182z" />
<glyph unicode="n" horiz-adv-x="514" d="M409 0h-81l58 297c13 65 8 127 -81 127c-64 0 -128 -54 -142 -127l-58 -297h-81l96 495h81l-11 -59h3c40 43 102 65 154 65c90 0 147 -61 126 -171z" />
<glyph unicode="o" horiz-adv-x="495" d="M287 500c106 0 175 -69 175 -175c0 -153 -59 -331 -239 -331c-116 0 -181 61 -181 170c0 177 78 336 245 336zM278 427c-119 0 -156 -156 -156 -256c0 -40 17 -103 99 -103c119 0 159 136 159 252c0 73 -43 107 -102 107z" />
<glyph unicode="p" horiz-adv-x="501" d="M123 495h80l-11 -54l3 -1c39 38 89 61 144 61c102 0 133 -76 133 -165c0 -144 -63 -342 -237 -342c-51 0 -93 20 -116 62l-2 -1l-49 -256h-81zM148 185c0 -57 20 -109 85 -109c120 0 154 147 154 243c0 59 -22 101 -87 101c-110 0 -152 -146 -152 -235z" />
<glyph unicode="q" horiz-adv-x="501" d="M286 501c47 0 94 -23 119 -64l2 1l12 57h80l-130 -696h-87l51 256l-2 1c-41 -38 -80 -62 -137 -62c-102 0 -144 78 -144 169c0 144 59 338 236 338zM139 176c0 -59 22 -100 87 -100c111 0 152 150 152 239c0 58 -19 108 -85 108c-121 0 -154 -151 -154 -247z" />
<glyph unicode="r" horiz-adv-x="363" d="M413 482l-44 -81c-18 13 -50 19 -67 19c-65 0 -122 -46 -137 -125l-58 -295h-81l96 495h82l-14 -67h4c38 56 95 74 150 73c32 -1 58 -10 69 -19z" />
<glyph unicode="s" horiz-adv-x="439" d="M194 -6c-67 0 -153 25 -201 76l53 62c35 -42 96 -62 149 -62c69 0 120 22 120 70c0 47 -36 62 -81 74c-70 18 -160 27 -160 135c0 112 99 152 196 152c57 0 118 -14 161 -56l-50 -64c-36 29 -74 44 -119 44c-49 0 -105 -17 -105 -76c0 -42 49 -51 103 -64 c66 -16 138 -37 138 -131c0 -116 -101 -160 -204 -160z" />
<glyph unicode="t" horiz-adv-x="274" d="M210 0h-57c-65 0 -105 41 -90 116l60 307h-59l14 72h59l24 124h80l-24 -124h75l-14 -72h-75l-56 -287c-6 -31 -4 -62 36 -62h42z" />
<glyph unicode="u" horiz-adv-x="518" d="M411 0h-81l11 56h-3c-40 -43 -95 -62 -145 -62c-98 0 -157 61 -135 171l64 330h80l-57 -297c-15 -76 -5 -126 88 -126c63 0 121 50 136 126l58 297h80z" />
<glyph unicode="v" horiz-adv-x="428" d="M389 494h86c-89 -192 -178 -352 -278 -494h-65l-83 494h84l32 -205c9 -59 17 -119 20 -180h3c79 125 136 238 201 385z" />
<glyph unicode="w" horiz-adv-x="705" d="M369 395h-5c-62 -155 -113 -258 -190 -395h-76l-58 496h82l22 -267c3 -37 6 -79 7 -123h4c65 121 116 241 181 390h91l28 -262c4 -39 8 -66 10 -119h3c68 125 125 251 179 381h84c-79 -191 -151 -327 -254 -496h-75l-24 234c-3 33 -9 101 -9 161z" />
<glyph unicode="x" horiz-adv-x="454" d="M381 0h-93l-76 191l-150 -191h-100l216 255c-35 78 -74 163 -110 241h91l71 -184l142 184h100l-207 -244c36 -79 80 -172 116 -252z" />
<glyph unicode="y" horiz-adv-x="413" d="M373 495h83c-75 -209 -151 -383 -230 -513c-60 -96 -136 -180 -278 -186l-2 70c69 6 129 34 184 111l-81 518h86l29 -226c8 -60 19 -144 19 -219h3c78 138 137 300 187 445z" />
<glyph unicode="z" horiz-adv-x="425" d="M341 0h-359l14 68l333 355h-250l14 72h344l-13 -70l-326 -349h258z" />
<glyph unicode="{" horiz-adv-x="256" d="M188 -103h-57c-51 0 -92 42 -79 107l27 139c14 70 -1 122 -52 128l10 51c54 7 90 66 102 130l26 136c13 66 61 108 112 108h66l-10 -54h-40c-36 0 -55 -47 -62 -87l-25 -125c-16 -86 -77 -124 -99 -131v-3c19 -7 64 -46 48 -129l-25 -130c-8 -40 -7 -87 28 -87h40z" />
<glyph unicode="|" horiz-adv-x="204" d="M135 -162h-65v878h65v-878z" />
<glyph unicode="}" horiz-adv-x="256" d="M257 271c-53 -6 -87 -58 -101 -128l-27 -139c-12 -65 -60 -107 -111 -107h-67l10 53h41c35 0 54 47 62 87l25 130c17 83 76 122 99 129l1 3c-21 7 -65 45 -48 131l24 125c8 40 17 87 -28 87h-41l9 50h65c62 0 85 -44 73 -104l-27 -136c-12 -64 0 -123 51 -130z" />
<glyph unicode="~" d="M452 352l47 -35c-38 -66 -80 -96 -141 -96c-53 0 -130 65 -185 65c-35 0 -53 -16 -85 -50l-46 34c46 66 94 90 146 90c62 0 124 -65 180 -65c31 0 54 17 84 57z" />
<glyph unicode="&#xc4;" horiz-adv-x="586" d="M540 0h-90l-24 160h-283l-86 -160h-93l385 696h77zM417 236l-28 195l-20 158h-2l-79 -154l-106 -199h235zM533 750h-88l17 88h88zM353 750h-88l17 88h88z" />
<glyph unicode="&#xc9;" horiz-adv-x="532" d="M369 738l-29 42l172 122l47 -61zM486 0h-452l136 696h421l-16 -81h-335l-43 -225h294l-15 -77h-294l-46 -232h365z" />
<glyph unicode="&#xd6;" horiz-adv-x="579" d="M366 701c131 0 223 -85 223 -204c0 -64 -26 -166 -42 -245c-33 -155 -123 -258 -283 -258c-157 0 -218 92 -218 206c0 65 27 174 44 249c32 142 105 252 276 252zM360 622c-124 0 -172 -96 -188 -180l-36 -185c-18 -97 5 -185 135 -185c107 0 167 81 191 185 c17 72 40 166 40 225c0 82 -50 140 -142 140zM534 750h-88l17 88h88zM354 750h-88l17 88h88z" />
<glyph unicode="&#xdc;" horiz-adv-x="606" d="M549 232c-28 -143 -119 -238 -277 -238c-135 0 -232 98 -203 248l88 454h86l-86 -442c-20 -104 15 -179 121 -179c95 0 167 64 187 169l88 452h86zM533 750h-88l17 88h88zM353 750h-88l17 88h88z" />
<glyph unicode="&#x385;" horiz-adv-x="383" d="M446 589h-85l17 89h85zM167 589h-86l18 89h85zM243 551l-50 20l107 177l76 -25z" />
<glyph unicode="&#xe0;" horiz-adv-x="495" d="M277 501c48 0 100 -19 121 -61l3 1l13 54h77l-96 -495h-80l11 54l-3 2c-40 -45 -76 -62 -133 -62c-103 0 -146 75 -146 173c0 139 71 334 233 334zM125 165c0 -42 16 -101 87 -101c119 0 162 164 162 257c0 61 -22 106 -89 106c-125 0 -160 -164 -160 -262zM365 569 l-49 -15l-87 184l68 16z" />
<glyph unicode="&#xe2;" horiz-adv-x="495" d="M277 501c48 0 100 -19 121 -61l3 1l13 54h77l-96 -495h-80l11 54l-3 2c-40 -45 -76 -62 -133 -62c-103 0 -146 75 -146 173c0 139 71 334 233 334zM125 165c0 -42 16 -101 87 -101c119 0 162 164 162 257c0 61 -22 106 -89 106c-125 0 -160 -164 -160 -262zM452 553 l-103 109l-164 -110l-32 38l180 153h53l114 -151z" />
<glyph unicode="&#xe4;" horiz-adv-x="495" d="M277 501c48 0 100 -19 121 -61l3 1l13 54h77l-96 -495h-80l11 54l-3 2c-40 -45 -76 -62 -133 -62c-103 0 -146 75 -146 173c0 139 71 334 233 334zM125 165c0 -42 16 -101 87 -101c119 0 162 164 162 257c0 61 -22 106 -89 106c-125 0 -160 -164 -160 -262zM456 597h-87 l17 88h87zM279 597h-86l17 88h86z" />
<glyph unicode="&#x384;" horiz-adv-x="491" d="M313 551l-50 20l107 177l76 -25z" />
<glyph unicode="&#xa8;" horiz-adv-x="481" d="M446 597h-87l17 88h87zM269 597h-86l17 88h86z" />
<glyph unicode="&#xe7;" horiz-adv-x="422" d="M387 62c-47 -40 -116 -66 -179 -68l-15 -33c68 -4 89 -42 89 -73c0 -46 -39 -98 -124 -98c-13 0 -62 0 -95 16l20 46c26 -12 58 -15 77 -15c25 0 58 13 58 42c0 26 -19 42 -54 42h-12l-17 16l28 60c-90 15 -133 91 -133 187c0 171 87 317 262 317c58 0 119 -23 156 -69 l-60 -58c-25 29 -61 49 -101 49c-122 0 -174 -123 -174 -224c0 -74 23 -124 105 -124c48 0 93 28 121 48z" />
<glyph unicode="&#xe9;" horiz-adv-x="470" d="M285 501c108 0 171 -52 171 -135s-58 -166 -290 -166c-14 0 -28 0 -44 1c-2 -15 -2 -23 -2 -28c0 -75 33 -103 98 -103c39 0 99 24 130 46l40 -59c-49 -40 -119 -63 -182 -63c-113 0 -165 63 -165 180c0 150 70 327 244 327zM280 424c-94 0 -130 -74 -145 -151 c16 -1 30 -1 44 -1c170 0 196 55 196 85c0 42 -33 67 -95 67zM299 551l-49 20l107 177l76 -25z" />
<glyph unicode="&#xe8;" horiz-adv-x="470" d="M285 501c108 0 171 -52 171 -135s-58 -166 -290 -166c-14 0 -28 0 -44 1c-2 -15 -2 -23 -2 -28c0 -75 33 -103 98 -103c39 0 99 24 130 46l40 -59c-49 -40 -119 -63 -182 -63c-113 0 -165 63 -165 180c0 150 70 327 244 327zM280 424c-94 0 -130 -74 -145 -151 c16 -1 30 -1 44 -1c170 0 196 55 196 85c0 42 -33 67 -95 67zM337 569l-49 -15l-87 184l68 16z" />
<glyph unicode="&#xea;" horiz-adv-x="470" d="M285 501c108 0 171 -52 171 -135s-58 -166 -290 -166c-14 0 -28 0 -44 1c-2 -15 -2 -23 -2 -28c0 -75 33 -103 98 -103c39 0 99 24 130 46l40 -59c-49 -40 -119 -63 -182 -63c-113 0 -165 63 -165 180c0 150 70 327 244 327zM280 424c-94 0 -130 -74 -145 -151 c16 -1 30 -1 44 -1c170 0 196 55 196 85c0 42 -33 67 -95 67zM434 553l-103 109l-164 -110l-32 38l180 153h53l114 -151z" />
<glyph unicode="&#xeb;" horiz-adv-x="470" d="M285 501c108 0 171 -52 171 -135s-58 -166 -290 -166c-14 0 -28 0 -44 1c-2 -15 -2 -23 -2 -28c0 -75 33 -103 98 -103c39 0 99 24 130 46l40 -59c-49 -40 -119 -63 -182 -63c-113 0 -165 63 -165 180c0 150 70 327 244 327zM280 424c-94 0 -130 -74 -145 -151 c16 -1 30 -1 44 -1c170 0 196 55 196 85c0 42 -33 67 -95 67zM446 597h-87l17 88h87zM269 597h-86l17 88h86z" />
<glyph unicode="&#xa3;" d="M383 294h-143c-18 -81 -48 -155 -103 -218h300l-14 -76h-406l13 64c61 65 111 143 131 230h-93l13 65h79c-3 43 -15 84 -15 128c0 114 79 213 201 213c86 0 147 -23 183 -106l-72 -38c-23 50 -58 67 -112 67c-72 0 -111 -74 -111 -138c0 -43 13 -84 13 -126h150z" />
<glyph unicode="&#x2122;" horiz-adv-x="844" d="M786 292h-63l-1 254l-99 -195h-53l-100 195v-254h-62v403h62l129 -258l126 258h61v-403zM348 638h-124v-345h-63v345h-124v58h311v-58z" />
<glyph unicode="&#x2022;" horiz-adv-x="408" d="M338 266c0 -72 -59 -131 -132 -131s-131 59 -131 131s58 131 131 131s132 -59 132 -131z" />
<glyph unicode="&#x2030;" horiz-adv-x="1110" d="M581 -4c-63 0 -114 37 -115 95c0 9 1 19 3 27c12 61 24 122 35 183c12 66 63 119 145 119c62 0 113 -38 114 -95c0 -9 -2 -19 -3 -27c-13 -74 -23 -122 -35 -182c-14 -67 -59 -120 -144 -120zM696 315c0 28 -20 47 -52 47c-43 0 -68 -31 -75 -67l-34 -178 c-1 -5 -2 -11 -2 -15c0 -28 19 -47 51 -47c42 0 68 31 77 67c11 57 23 117 33 175c1 5 2 13 2 18zM197 275c-63 0 -114 37 -115 95c0 9 1 19 3 27c12 61 24 122 35 183c12 66 63 119 145 119c62 0 113 -38 114 -95c0 -9 -2 -19 -3 -27c-13 -74 -23 -122 -35 -182 c-14 -67 -59 -120 -144 -120zM312 594c0 28 -20 47 -52 47c-43 0 -67 -31 -75 -67l-34 -178c-1 -5 -2 -11 -2 -15c0 -28 19 -47 51 -47c42 0 68 31 77 67c11 57 23 117 33 175c1 5 2 13 2 18zM754 713l-568 -730h-71l567 730h72zM903 -4c-63 0 -114 37 -115 95 c0 9 1 19 3 27c12 61 24 122 35 183c12 66 63 119 145 119c62 0 113 -38 114 -95c0 -9 -2 -19 -3 -27c-13 -74 -23 -122 -35 -182c-14 -67 -59 -120 -144 -120zM1018 315c0 28 -20 47 -52 47c-43 0 -68 -31 -75 -67l-34 -178c-1 -5 -2 -11 -2 -15c0 -28 19 -47 51 -47 c42 0 68 31 77 67c11 57 23 117 33 175c1 5 2 13 2 18z" />
<glyph unicode="&#xf4;" horiz-adv-x="495" d="M287 500c106 0 175 -69 175 -175c0 -153 -59 -331 -239 -331c-116 0 -181 61 -181 170c0 177 78 336 245 336zM278 427c-119 0 -156 -156 -156 -256c0 -40 17 -103 99 -103c119 0 159 136 159 252c0 73 -43 107 -102 107zM452 553l-103 109l-164 -110l-32 38l180 153h53 l114 -151z" />
<glyph unicode="&#xf6;" horiz-adv-x="495" d="M287 500c106 0 175 -69 175 -175c0 -153 -59 -331 -239 -331c-116 0 -181 61 -181 170c0 177 78 336 245 336zM278 427c-119 0 -156 -156 -156 -256c0 -40 17 -103 99 -103c119 0 159 136 159 252c0 73 -43 107 -102 107zM436 597h-87l17 88h87zM259 597h-86l17 88h86z " />
<glyph unicode="&#xad;" horiz-adv-x="392" d="M344 230h-288l15 75h288z" />
<glyph unicode="&#xf9;" horiz-adv-x="518" d="M354 569l-49 -15l-87 184l68 16zM411 0h-81l11 56h-3c-40 -43 -95 -62 -145 -62c-98 0 -157 61 -135 171l64 330h80l-57 -297c-15 -76 -5 -126 88 -126c63 0 121 50 136 126l58 297h80z" />
<glyph unicode="&#xfb;" horiz-adv-x="518" d="M411 0h-81l11 56h-3c-40 -43 -95 -62 -145 -62c-98 0 -157 61 -135 171l64 330h80l-57 -297c-15 -76 -5 -126 88 -126c63 0 121 50 136 126l58 297h80zM453 553l-103 109l-164 -110l-32 38l180 153h53l114 -151z" />
<glyph unicode="&#xfc;" horiz-adv-x="518" d="M411 0h-81l11 56h-3c-40 -43 -95 -62 -145 -62c-98 0 -157 61 -135 171l64 330h80l-57 -297c-15 -76 -5 -126 88 -126c63 0 121 50 136 126l58 297h80zM463 597h-87l17 88h87zM286 597h-86l17 88h86z" />
<glyph unicode="&#x2020;" horiz-adv-x="457" d="M470 390h-167l-112 -576h-78l112 576h-167l13 66h167l46 240h79l-47 -240h167z" />
<glyph unicode="&#x2206;" horiz-adv-x="586" d="M540 0h-574l385 696h75zM440 77l-50 351l-20 161h-2l-83 -162l-186 -350h341z" />
<glyph unicode="&#xdf;" horiz-adv-x="507" d="M105 0h-82l103 530c23 119 87 190 213 190c116 0 158 -83 158 -153c0 -59 -33 -134 -101 -158c55 -20 73 -67 73 -125c0 -134 -76 -290 -232 -290c-18 0 -35 3 -52 8l11 74c10 -4 23 -6 37 -6c112 0 154 146 154 218c0 46 -19 84 -78 84h-36l14 71h22 c75 0 106 73 106 114c0 39 -21 92 -87 92c-83 0 -110 -67 -119 -115z" />
<glyph unicode="&#xae;" horiz-adv-x="560" d="M488 492c0 -119 -90 -207 -209 -207c-118 0 -209 88 -209 207c0 120 91 210 209 210c119 0 209 -90 209 -210zM448 492c0 99 -73 172 -169 172s-169 -73 -169 -172c0 -97 73 -170 169 -170s169 73 169 170zM335 371l-51 101h-42v-101h-41v242h100c40 0 72 -27 72 -69 c0 -31 -19 -55 -47 -66l56 -107h-47zM295 576h-53v-66h52c22 0 38 13 38 34c0 22 -14 32 -37 32z" />
<glyph unicode="&#xa9;" horiz-adv-x="803" d="M493 243l60 -28c-24 -61 -75 -98 -146 -98c-102 0 -154 74 -154 161v116c0 85 52 160 154 160c71 0 122 -38 145 -97l-59 -26c-15 36 -45 62 -85 62c-62 0 -92 -50 -92 -102v-109c0 -52 30 -105 92 -105c41 0 71 27 85 66zM404 -8c-202 0 -348 150 -348 349 c0 201 151 351 348 351c198 0 349 -150 349 -351c0 -199 -151 -349 -349 -349zM404 631c-162 0 -285 -124 -285 -290c0 -164 123 -288 285 -288c163 0 285 124 285 288c0 166 -122 290 -285 290z" />
<glyph unicode="&#xa7;" horiz-adv-x="466" d="M327 702c68 0 132 -19 171 -60l-50 -58c-39 36 -81 47 -121 47c-65 0 -114 -37 -114 -88c0 -44 57 -70 114 -90c59 -20 135 -55 135 -143c0 -60 -31 -98 -70 -133c10 -19 18 -44 18 -71c0 -101 -89 -182 -217 -182c-74 0 -148 32 -180 78l51 52c32 -43 81 -59 131 -59 c73 0 134 35 134 100c0 42 -40 69 -105 92c-87 31 -140 67 -140 135c0 58 24 102 73 138c-16 22 -28 40 -28 75c0 112 102 167 198 167zM269 390c-20 8 -37 19 -57 31c-28 -16 -52 -51 -52 -80c0 -68 122 -83 182 -119c25 18 43 48 43 81c0 44 -48 63 -116 87z" />
<glyph unicode="&#xb0;" horiz-adv-x="385" d="M326 568c0 -74 -60 -134 -134 -134s-134 60 -134 134s60 134 134 134c81 0 134 -60 134 -134zM272 568c0 44 -35 80 -80 80c-44 0 -80 -36 -80 -80s33 -80 80 -80c45 0 80 36 80 80z" />
<glyph unicode="&#xb7;" horiz-adv-x="238" d="M191 207h-103l21 111h103z" />
<glyph unicode="&#xb1;" d="M485 291h-183l-34 -174h-64l34 174h-184l13 64h184l33 174h64l-33 -174h183zM429 0h-431l12 64h431z" />
<glyph unicode="&#xa5;" d="M566 696l-229 -334h117l-11 -54h-142l-15 -21l-14 -75h153l-11 -54h-153l-31 -158h-78l31 158h-152l10 54h152l15 75l-6 21h-142l11 54h115l-98 334h86l53 -197l34 -141l87 140l131 198h87z" />
<glyph unicode="&#xab;" horiz-adv-x="459" d="M389 46h-78l-90 186l159 186h82l-159 -186zM217 46h-78l-90 186l159 186h82l-160 -186z" />
<glyph unicode="&#xbb;" horiz-adv-x="459" d="M91 46h-78l160 186l-87 186h78l91 -186zM263 46h-78l161 186l-88 186h78l91 -186z" />
<glyph unicode="&#x2026;" horiz-adv-x="809" d="M146 0h-103l21 111h103zM409 0h-103l21 111h103zM679 0h-103l21 111h103z" />
<glyph unicode="&#x153;" horiz-adv-x="800" d="M615 501c108 0 171 -52 171 -135s-58 -166 -290 -166c-14 0 -28 0 -44 1c-2 -15 -2 -23 -2 -28c0 -75 33 -103 98 -103c39 0 99 24 130 46l40 -59c-49 -40 -119 -63 -182 -63c-74 0 -121 26 -146 77c-43 -57 -102 -77 -167 -77c-116 0 -181 61 -181 170 c0 177 82 336 245 336c66 0 127 -33 154 -82c0 -1 1 -2 1 -3c39 51 96 86 173 86zM278 427c-118 0 -156 -156 -156 -256c0 -40 20 -103 95 -103c130 0 163 141 163 252c0 73 -43 107 -102 107zM610 424c-99 0 -130 -74 -145 -151c16 -1 30 -1 44 -1c170 0 196 55 196 85 c0 42 -33 67 -95 67z" />
<glyph unicode="&#x2013;" horiz-adv-x="490" d="M475 230h-451l15 77h451z" />
<glyph unicode="&#x2015;" horiz-adv-x="876" d="M838 230h-826l15 77h826z" />
<glyph unicode="&#x201c;" horiz-adv-x="307" d="M108 622l79 115h51l-54 -113h28l-22 -111h-103zM251 622l79 115h51l-54 -113h28l-22 -111h-103z" />
<glyph unicode="&#x201d;" horiz-adv-x="307" d="M370 628l-79 -115h-51l54 113h-28l22 111h103zM227 628l-79 -115h-51l54 113h-28l22 111h103z" />
<glyph unicode="&#x2018;" horiz-adv-x="220" d="M138 622l79 115h51l-54 -113h28l-22 -111h-103z" />
<glyph unicode="&#x2019;" horiz-adv-x="220" d="M247 628l-79 -115h-51l54 113h-28l22 111h103z" />
<glyph unicode="&#xf7;" d="M317 530c27 0 46 -20 46 -46c0 -36 -34 -68 -69 -68c-28 0 -47 20 -47 46c0 36 34 68 70 68zM489 262h-451l13 63h451zM247 172c28 0 47 -19 47 -45c0 -37 -35 -68 -69 -68c-28 0 -47 20 -47 46c0 36 33 67 69 67z" />
<glyph unicode="&#xb5;" horiz-adv-x="512" d="M412 0h-81l11 56h-3c-40 -43 -95 -62 -146 -62c-28 0 -57 9 -79 27l-3 -1l-43 -220h-80l135 695h80l-58 -297c-14 -76 18 -127 89 -127c64 0 121 51 136 127l58 297h80z" />
<glyph unicode=" "  horiz-adv-x="224" />
<glyph unicode="&#x09;" horiz-adv-x="224" />
<glyph unicode="&#xa0;" horiz-adv-x="224" />
<glyph unicode="&#x20ac;" d="M387 375h-210l-10 -56h210l-11 -54h-210l-5 -26c-17 -86 7 -168 105 -168c69 0 123 47 159 107l77 -37c-51 -89 -143 -147 -245 -147c-150 0 -208 112 -181 251l3 20h-44l11 54h44l10 56h-44l11 54h44l4 23c27 136 113 249 263 249c102 0 164 -59 188 -147l-83 -33 c-11 51 -54 101 -110 101c-105 0 -155 -85 -172 -174l-3 -19h210z" />
<glyph unicode="&#xa6;" horiz-adv-x="204" d="M135 304h-65v412h65v-412zM70 246h65v-408h-65v408z" />
<glyph unicode="&#xac;" d="M493 326l-51 -256h-77l37 192h-363l13 64h441z" />
<glyph unicode="!" horiz-adv-x="241" d="M255 696l-111 -519h-60l92 519h79zM127 0h-90l19 98h90z" />
<glyph unicode="&#xb8;" horiz-adv-x="431" d="M186 44l44 -4l-37 -79c68 -4 89 -42 89 -73c0 -46 -39 -98 -124 -98c-13 0 -62 0 -95 16l20 46c26 -12 58 -15 77 -15c25 0 58 13 58 42c0 26 -19 42 -54 42h-12l-17 16z" />
<glyph unicode="&#xc6;" horiz-adv-x="977" d="M902 0h-441l28 204h-259l-158 -204h-92l541 696h478l-11 -81h-352l-32 -225h300l-11 -77h-300l-32 -232h352zM551 617l-262 -337h211z" />
<glyph unicode="&#xc7;" horiz-adv-x="543" d="M449 182l82 -40c-53 -96 -147 -145 -255 -148l-15 -33c68 -4 89 -42 89 -73c0 -46 -39 -98 -124 -98c-13 0 -62 0 -95 16l20 46c26 -12 58 -15 77 -15c25 0 58 13 58 42c0 26 -19 42 -54 42h-12l-17 16l28 59c-118 14 -176 101 -176 205c0 20 2 40 6 60l38 190 c27 136 111 250 273 250c112 0 191 -59 220 -147l-84 -37c-14 52 -63 104 -137 104c-117 0 -169 -92 -186 -181l-36 -181c-3 -15 -4 -30 -4 -44c0 -74 25 -137 130 -137c71 0 139 42 174 104z" />
<glyph unicode="&#xd1;" horiz-adv-x="660" d="M547 0h-84l-173 398l-61 152l-3 -1l-105 -549h-87l136 696h85l166 -384l67 -164l3 -1l106 549h85zM385 859c48 0 101 -47 136 -47c20 0 37 13 64 45l46 -29c-34 -66 -76 -89 -118 -89c-48 0 -100 45 -139 45c-23 0 -35 -10 -66 -40l-43 26c37 64 80 89 120 89z" />
<glyph unicode="&#xe6;" horiz-adv-x="799" d="M609 501c109 0 172 -53 171 -137c-1 -89 -67 -174 -334 -163c-2 -15 -2 -23 -2 -28c0 -84 33 -103 98 -103c39 0 99 24 130 46l40 -59c-49 -40 -119 -63 -182 -63c-82 0 -130 30 -151 87l-2 -9c-41 -51 -112 -78 -198 -78c-102 0 -155 61 -147 147c8 85 80 151 186 149 c69 -1 84 -4 156 -12l11 65c11 54 -18 81 -98 81c-62 0 -99 -17 -126 -43l-47 55c46 43 112 65 180 65s139 -14 168 -58c37 35 85 58 147 58zM604 424c-99 0 -130 -74 -145 -151c209 -10 240 43 240 84c0 42 -33 67 -95 67zM111 146c-9 -47 20 -77 93 -77 c64 0 134 34 146 92l11 51c-63 8 -79 10 -136 12c-64 0 -105 -32 -114 -78z" />
<glyph unicode="&#xf0;" horiz-adv-x="493" d="M291 552l69 44c-27 36 -66 60 -118 65l23 67c76 -9 130 -41 164 -88l82 52l20 -32l-81 -52c22 -44 32 -95 32 -147c0 -153 -27 -467 -275 -467c-110 0 -177 61 -177 176c0 177 87 306 231 306c58 0 116 -33 136 -77h4c3 17 4 34 4 50c0 41 -8 81 -25 115l-69 -44z M262 403c-114 0 -153 -125 -153 -231c0 -65 37 -104 102 -104c97 0 162 83 162 233c0 69 -54 102 -111 102z" />
<glyph unicode="&#xf5;" horiz-adv-x="495" d="M287 500c106 0 175 -69 175 -175c0 -153 -59 -331 -239 -331c-116 0 -181 61 -181 170c0 177 78 336 245 336zM278 427c-119 0 -156 -156 -156 -256c0 -40 17 -103 99 -103c119 0 159 136 159 252c0 73 -43 107 -102 107zM264 699c48 0 101 -47 136 -47c20 0 37 13 64 45 l46 -29c-34 -66 -76 -89 -118 -89c-48 0 -100 45 -139 45c-23 0 -35 -10 -66 -40l-43 26c37 64 80 89 120 89z" />
<glyph unicode="&#x192;" d="M146 351l7 73h98l16 69c21 92 73 207 205 207c30 0 59 -6 79 -14c-9 -26 -18 -48 -26 -75c-18 7 -45 10 -64 10c-61 0 -91 -59 -106 -123l-16 -74h106l-7 -73h-117l-52 -228c-28 -127 -78 -213 -188 -213c-28 0 -67 8 -93 19c11 27 19 41 30 67c22 -9 42 -13 59 -13 c56 0 84 56 103 139l53 229h-87z" />
<glyph unicode="&#x2c6;" horiz-adv-x="491" d="M452 553l-103 109l-164 -110l-32 38l180 153h53l114 -151z" />
<glyph unicode="&#x2c7;" horiz-adv-x="491" d="M332 633l157 110l32 -39l-172 -151h-53l-120 153l46 38z" />
<glyph unicode="&#x2d8;" horiz-adv-x="511" d="M204 707h71c-3 -27 13 -68 61 -68s78 35 84 68h77c-17 -63 -63 -135 -166 -135c-98 0 -135 54 -127 135z" />
<glyph unicode="&#xd7;" horiz-adv-x="587" d="M540 393l-195 -158l134 -175l-51 -38l-134 174l-196 -159l-38 50l195 159l-127 166l51 38l128 -165l195 158z" />
<glyph unicode="&#xb4;" horiz-adv-x="491" d="M358 551l-49 20l107 177l76 -25z" />
<glyph unicode="&#x2dc;" horiz-adv-x="491" d="M274 699c48 0 101 -47 136 -47c20 0 37 13 64 45l46 -29c-34 -66 -76 -89 -118 -89c-48 0 -100 45 -139 45c-23 0 -35 -10 -66 -40l-43 26c37 64 80 89 120 89z" />
<glyph unicode="&#xf6cb;" horiz-adv-x="532" d="M534 750h-88l17 88h88zM354 750h-88l17 88h88z" />
<glyph unicode="&#xf6c0;" horiz-adv-x="532" d="M536 742l-117 86l-170 -89l-22 38l176 131h53l118 -129z" />
<glyph unicode="&#xf6c3;" horiz-adv-x="592" d="M353 -167l-74 -90h-51l56 88h-35l22 111h103z" />
<glyph unicode="&#xf6ca;" horiz-adv-x="598" d="M264 904l117 -84l172 89l22 -38l-176 -131h-53l-118 129z" />
<glyph unicode="&#xf6cc;" horiz-adv-x="532" d="M582 774h-87l17 89h87zM297 774h-86l16 89h87zM367 734l-42 28l114 178l66 -40z" />
<glyph unicode="&#xf6cd;" horiz-adv-x="532" d="M576 774h-87l17 89h87zM291 774h-86l16 89h87zM479 762l-42 -28l-138 166l66 40z" />
<glyph unicode="&#xf6ce;" horiz-adv-x="532" d="M410 780l-29 -42l-190 103l47 61z" />
<glyph unicode="&#xf6cf;" horiz-adv-x="579" d="M283 738l-37 42l148 122l59 -61zM438 738l-29 42l172 122l47 -61z" />
<glyph unicode="&#xf6d0;" horiz-adv-x="586" d="M531 769h-268l15 75h268z" />
<glyph unicode="&#xf6d1;" horiz-adv-x="586" d="M274 870h72c-6 -34 13 -63 56 -63c53 0 79 36 84 63h75c-10 -58 -59 -129 -168 -129c-104 0 -128 77 -119 129z" />
<glyph unicode="&#xf6d4;" horiz-adv-x="495" d="M211 707h73c-6 -34 13 -63 56 -63c42 0 81 36 86 63h72c-14 -59 -59 -129 -168 -129c-104 0 -128 77 -119 129z" />
<glyph unicode="&#xf6da;" horiz-adv-x="495" d="M314 554l-144 209l99 17l91 -210z" />
<glyph unicode="&#xf6db;" horiz-adv-x="495" d="M487 761l-172 -209l-43 16l123 210z" />
<glyph unicode="&#xf6dc;" horiz-adv-x="495" d="M262 707c48 0 101 -47 136 -47c20 0 37 13 64 45l46 -29c-34 -66 -76 -89 -118 -89c-48 0 -100 45 -139 45c-23 0 -35 -10 -66 -40l-43 26c37 64 80 89 120 89z" />
<glyph unicode="&#xaf;" horiz-adv-x="495" d="M451 600h-268l15 75h268z" />
<glyph unicode="&#x2044;" horiz-adv-x="150" d="M379 713l-568 -730h-71l567 730h72z" />
<glyph unicode="&#x2215;" horiz-adv-x="150" d="M379 713l-568 -730h-71l567 730h72z" />
<glyph unicode="&#x2105;" horiz-adv-x="765" d="M590 357c77 0 128 -50 128 -128c0 -107 -43 -233 -172 -233c-84 0 -130 45 -130 124c0 125 55 237 174 237zM584 293c-77 0 -101 -103 -101 -168c0 -25 11 -64 62 -64c77 0 102 89 102 165c0 46 -26 67 -63 67zM286 710c41 0 86 -19 115 -56l-54 -50 c-19 22 -44 37 -68 37c-80 0 -112 -76 -112 -146c0 -50 20 -78 71 -78c23 0 58 21 79 36l39 -51c-40 -36 -86 -54 -131 -54c-88 0 -128 56 -128 140c0 115 63 222 189 222zM712 713l-568 -730h-65l567 730h66z" />
<glyph unicode="&#x2113;" horiz-adv-x="504" d="M395 160l49 -23c-55 -89 -127 -147 -207 -147c-81 0 -131 57 -131 132c0 11 1 23 14 91l-66 -39l-17 35l92 58l45 227c31 158 109 217 196 217c52 0 97 -30 97 -94c0 -134 -110 -229 -268 -366c-11 -53 -16 -90 -16 -103c0 -70 39 -94 77 -94c42 0 91 35 135 106z M250 511l-37 -190c106 110 192 189 192 288c0 24 -11 50 -49 50c-37 0 -86 -44 -106 -148z" />
<glyph unicode="&#x2116;" horiz-adv-x="920" d="M874 266h-250l12 61h250zM488 0h-86l-128 392l-44 146h-3l-104 -538h-88l135 696h87l131 -379l44 -140h3l101 519h87zM812 706c75 0 125 -46 126 -117c2 -100 -38 -217 -164 -217c-82 0 -129 41 -130 114c-2 117 51 220 168 220zM807 650c-77 0 -100 -98 -99 -160 c0 -23 12 -61 63 -61c78 0 103 85 101 157c0 43 -28 64 -65 64z" />
<glyph unicode="&#x212e;" horiz-adv-x="817" d="M763 316h-568c0 -59 1 -124 1 -184c43 -69 132 -115 217 -115c87 0 167 42 220 108h62c-68 -83 -172 -136 -283 -136c-193 0 -351 155 -351 340c0 184 158 332 351 332c197 0 344 -145 351 -345zM627 342v179c-40 68 -133 112 -214 112c-76 0 -157 -46 -217 -116 c0 -44 -1 -131 -1 -175h432z" />
<glyph unicode="&#x2202;" horiz-adv-x="530" d="M125 218c-15 -89 16 -159 100 -159c108 0 172 127 198 238c-44 60 -96 83 -138 83c-80 0 -145 -83 -160 -162zM45 216c28 139 133 226 246 226c52 0 99 -18 147 -65c4 32 7 61 7 87c0 126 -50 193 -155 193c-21 0 -44 -2 -68 -8l12 63c27 6 52 9 77 9 c159 0 213 -131 213 -267c0 -266 -151 -464 -316 -464c-129 0 -187 98 -163 226z" />
<glyph unicode="&#x2207;" horiz-adv-x="598" d="M101 696h586l-390 -696h-76zM364 268l188 351h-347l52 -350l20 -162h3z" />
<glyph unicode="&#x220f;" horiz-adv-x="636" d="M503 -83h-88l137 702h-308l-137 -702h-88l152 779h484z" />
<glyph unicode="&#x2211;" horiz-adv-x="505" d="M417 -81h-440l15 77l228 311l-105 319l14 70h427l-15 -77h-324l106 -312l-228 -307h338z" />
<glyph unicode="&#x2212;" d="M479 262h-441l13 64h441z" />
<glyph unicode="&#x221a;" horiz-adv-x="562" d="M669 797l-381 -878h-68l-78 413l-75 -23l-10 57l147 45l68 -375l322 761h75z" />
<glyph unicode="&#x221e;" horiz-adv-x="728" d="M196 426c73 0 137 -60 171 -113c47 62 100 113 179 113c84 0 147 -64 147 -154c0 -83 -68 -155 -156 -155c-68 0 -127 59 -170 112c-48 -58 -99 -112 -179 -112c-83 0 -148 64 -148 155c0 83 70 154 156 154zM196 364c-49 0 -94 -42 -94 -92c0 -53 43 -93 92 -93 c55 0 103 42 132 92c-25 42 -75 93 -130 93zM542 364c-55 0 -97 -40 -136 -92c39 -48 77 -93 133 -93c49 0 92 43 92 93c0 53 -41 92 -89 92z" />
<glyph unicode="&#x2227;" horiz-adv-x="530" d="M359 523l96 -523h-74l-74 417l-237 -417h-72l298 523h63z" />
<glyph unicode="&#x2228;" horiz-adv-x="530" d="M482 523h74l-298 -523h-63l-96 523h72l75 -420z" />
<glyph unicode="&#x2229;" horiz-adv-x="530" d="M513 314l-61 -314h-72l61 314c14 73 -31 143 -129 143c-97 0 -166 -63 -181 -143l-61 -314h-69l61 314c21 110 112 208 253 208s221 -88 198 -208z" />
<glyph unicode="&#x222a;" horiz-adv-x="530" d="M553 522l-61 -314c-23 -120 -117 -208 -258 -208s-214 98 -193 208l61 314h69l-61 -314c-16 -80 29 -142 126 -142c98 0 170 70 184 142l61 314h72z" />
<glyph unicode="&#x222b;" horiz-adv-x="316" d="M91 79c20 79 44 195 75 362c11 60 22 109 33 149c33 125 79 185 172 185c18 0 51 -5 69 -13l-21 -59c-19 6 -36 8 -46 8c-45 0 -78 -32 -112 -167c-18 -74 -47 -262 -70 -363c-12 -56 -23 -105 -37 -148c-42 -141 -87 -185 -177 -185c-19 0 -45 4 -62 12l19 58 c26 -6 37 -6 47 -6c44 0 77 32 110 167z" />
<glyph unicode="&#x2248;" d="M509 389c-48 -59 -92 -91 -153 -91c-53 0 -115 65 -170 65c-36 0 -53 -17 -86 -51l-49 39c48 61 98 86 150 86c62 0 115 -65 171 -65c33 0 55 24 88 60zM479 233c-49 -59 -92 -91 -153 -91c-53 0 -115 65 -170 65c-36 0 -54 -17 -86 -51l-50 39c48 61 99 86 151 86 c62 0 114 -65 170 -65c33 0 56 24 89 60z" />
<glyph unicode="&#x2260;" d="M83 45l-70 2l104 118h-96l13 67h142l110 125h-228l13 67h274l101 114h72l-101 -114h95l-13 -67h-141l-110 -125h227l-13 -67h-273z" />
<glyph unicode="&#x2264;" horiz-adv-x="530" d="M440 1h-441l12 64h441zM522 483l-14 -71l-383 -121l336 -122l-14 -71l-408 163l11 60z" />
<glyph unicode="&#x2265;" horiz-adv-x="530" d="M29 97l14 71l383 121l-336 122l14 71l408 -163l-11 -60zM457 1h-441l12 64h441z" />
<glyph unicode="&#x25ca;" horiz-adv-x="530" d="M470 316l-172 -335h-69c-53 104 -120 231 -174 335c54 106 120 231 174 337h70zM382 316l-119 241l-118 -240c38 -75 83 -163 119 -239c40 79 78 159 118 238z" />
<glyph unicode="&#xe000;" horiz-adv-x="483" d="M210 -6c-91 0 -165 58 -165 151c0 15 1 30 4 45l62 316c21 110 97 196 220 196c91 0 164 -59 164 -151c0 -15 -1 -30 -4 -45l-62 -316c-21 -110 -90 -196 -219 -196zM413 532c0 56 -36 93 -92 93c-73 0 -118 -57 -131 -125l-59 -304c-2 -11 -4 -22 -4 -32 c0 -56 34 -92 90 -92c72 0 120 56 133 124l59 304c2 11 4 21 4 32z" />
<glyph unicode="&#xe001;" horiz-adv-x="417" d="M348 696l-136 -696h-80l119 610l-102 -66l18 87l99 65h82z" />
<glyph unicode="&#xe002;" horiz-adv-x="478" d="M382 0h-386l15 82l334 341c38 39 58 77 58 114c0 47 -31 85 -96 85c-58 0 -107 -44 -129 -108l-85 16c37 108 125 170 223 170c100 0 175 -51 175 -154c1 -64 -31 -110 -78 -158l-301 -307h285z" />
<glyph unicode="&#xe003;" horiz-adv-x="484" d="M320 701c116 0 171 -66 171 -148c0 -62 -27 -135 -119 -187c50 -32 66 -78 66 -123c0 -149 -114 -250 -242 -250c-84 0 -169 37 -169 151l83 12c2 -59 40 -87 93 -87c82 0 151 65 151 163c0 63 -35 97 -95 97h-50l14 72h41c77 0 142 58 142 135c0 52 -37 87 -91 87 c-46 0 -102 -29 -125 -90l-79 14c28 97 116 154 209 154z" />
<glyph unicode="&#xe004;" horiz-adv-x="495" d="M447 106h-57l-21 -106h-79l20 106h-296l16 80l335 510h87l-336 -513h209l40 205h80l-40 -205h57z" />
<glyph unicode="&#xe005;" horiz-adv-x="473" d="M440 325c0 -169 -60 -332 -253 -332c-84 0 -169 37 -169 151l83 12c2 -59 40 -87 93 -87c123 0 160 120 160 230c0 52 -21 93 -93 93c-42 0 -81 -23 -111 -62h-81l72 366h363l-16 -81h-286l-37 -191c45 35 89 46 131 46c93 0 144 -57 144 -145z" />
<glyph unicode="&#xe006;" horiz-adv-x="478" d="M196 -6c-94 0 -162 67 -162 162c0 55 19 116 50 161l266 379h91l-212 -303l2 -1c20 8 46 12 67 12c92 0 139 -67 139 -154c0 -143 -94 -256 -241 -256zM351 237c0 58 -30 96 -90 96c-89 0 -141 -86 -141 -167c0 -57 31 -96 90 -96c86 0 141 89 141 167z" />
<glyph unicode="&#xe007;" horiz-adv-x="437" d="M486 611l-355 -611h-90l357 615h-212l-20 -104h-81l36 185h381z" />
<glyph unicode="&#xe008;" horiz-adv-x="484" d="M199 -6c-97 0 -169 65 -169 164c0 84 51 175 133 204c-39 26 -59 65 -59 111c0 126 109 229 233 229c92 0 158 -65 158 -157c0 -78 -46 -153 -117 -186c50 -22 68 -78 68 -129c0 -139 -112 -236 -247 -236zM413 535c0 56 -36 93 -91 93c-79 0 -137 -71 -137 -147 c0 -54 39 -87 92 -87c78 0 136 65 136 141zM366 224c0 59 -45 100 -103 100c-78 0 -152 -70 -152 -148c0 -59 44 -104 103 -104c81 0 152 72 152 152z" />
<glyph unicode="&#xe009;" horiz-adv-x="473" d="M326 702c102 0 167 -67 167 -162c0 -55 -21 -116 -52 -161l-267 -379h-93l216 309l-3 1c-19 -8 -39 -11 -60 -11c-92 0 -146 64 -146 151c0 143 88 252 238 252zM172 459c0 -58 30 -96 89 -96c89 0 141 86 141 167c0 57 -31 96 -90 96c-86 0 -140 -89 -140 -167z" />
<glyph unicode="&#xe00a;" horiz-adv-x="484" d="M7 216l12 57h100l50 152h-92l11 57h100l70 212h61l-70 -212h113l70 212h61l-70 -212h99l-11 -57h-107l-50 -152h99l-12 -57h-107l-70 -216h-61l70 216h-113l-70 -216h-61l70 216h-92zM230 425l-50 -152h113l50 152h-113z" />
<glyph unicode="&#xe00b;" horiz-adv-x="467" d="M140 -116l22 112c-62 7 -123 32 -171 78c18 20 35 42 52 62c37 -34 80 -59 133 -65l48 243c-62 28 -146 72 -146 170c0 118 99 201 219 207l16 81h50l-17 -84c53 -6 109 -25 143 -54c-16 -21 -31 -45 -46 -66c-30 22 -70 39 -111 45l-46 -233c76 -31 156 -66 156 -175 c0 -5 0 -11 -1 -17c-9 -117 -113 -188 -230 -193l-21 -111h-50zM354 196c0 53 -48 82 -84 99l-44 -224c71 9 128 54 128 125zM167 487c0 -42 40 -70 73 -87l42 215c-56 -8 -115 -51 -115 -128z" />
<glyph unicode="&#xe00c;" horiz-adv-x="489" d="M376 375h-210l-10 -56h210l-11 -54h-210l-5 -26c-17 -86 7 -168 105 -168c69 0 123 47 159 107l77 -37c-51 -89 -143 -147 -245 -147c-150 0 -208 112 -181 251l3 20h-44l11 54h44l10 56h-44l11 54h44l4 23c27 136 113 249 263 249c102 0 164 -59 188 -147l-83 -33 c-11 51 -54 101 -110 101c-105 0 -155 -85 -172 -174l-3 -19h210z" />
<glyph unicode="&#xe00d;" horiz-adv-x="461" d="M106 351l7 73h98l16 69c21 92 73 207 205 207c30 0 59 -6 79 -14c-9 -26 -18 -48 -26 -75c-18 7 -45 10 -64 10c-61 0 -91 -59 -106 -123l-16 -74h106l-7 -73h-117l-52 -228c-28 -127 -78 -213 -188 -213c-28 0 -67 8 -93 19c11 27 19 41 30 67c22 -9 42 -13 59 -13 c56 0 84 56 103 139l53 229h-87z" />
<glyph unicode="&#xe00e;" horiz-adv-x="476" d="M382 294h-143c-18 -81 -48 -155 -103 -218h300l-14 -76h-406l13 64c61 65 111 143 131 230h-93l13 65h79c-3 43 -15 84 -15 128c0 114 79 213 201 213c86 0 147 -23 183 -106l-72 -38c-23 50 -58 67 -112 67c-72 0 -111 -74 -111 -138c0 -43 13 -84 13 -126h150z" />
<glyph unicode="&#xe00f;" horiz-adv-x="422" d="M197 -117h-45l22 114c-98 12 -143 86 -143 192c0 153 81 298 240 311l20 101h45l-20 -101c51 -5 102 -28 135 -68l-64 -60c-22 25 -52 44 -86 48l-67 -345c35 4 79 29 105 48l45 -60c-46 -40 -105 -66 -166 -69zM113 199c0 -66 22 -109 77 -121l65 340 c-101 -17 -142 -122 -142 -219z" />
<glyph unicode="&#xe010;" horiz-adv-x="478" d="M573 696l-229 -334h117l-11 -54h-142l-15 -21l-14 -75h153l-11 -54h-153l-31 -158h-78l31 158h-152l10 54h152l15 75l-6 21h-142l11 54h115l-98 334h86l53 -197l34 -141l87 140l131 198h87z" />
<glyph unicode="&#xe024;" d="M309 501c105 0 165 -63 165 -151c0 -14 -2 -28 -5 -43l-25 -117c-21 -110 -75 -196 -213 -196c-102 0 -171 58 -171 151c0 15 1 30 4 45l25 117c21 110 84 194 220 194zM299 424c-87 0 -119 -65 -131 -123l-22 -105c-2 -11 -4 -22 -4 -32c0 -56 34 -94 90 -94 c91 0 119 58 133 126l22 105c2 12 4 24 4 35c0 50 -24 88 -92 88z" />
<glyph unicode="&#xe025;" d="M90 0l14 75h120l65 335l-104 -66l18 87l102 65h83l-82 -421h123l-14 -75h-325z" />
<glyph unicode="&#xe026;" d="M326 501c80 0 153 -39 153 -127c0 -62 -26 -111 -130 -180l-178 -117h270l-14 -77h-386l14 76l267 183c49 34 71 68 71 100c0 36 -26 65 -81 65c-59 0 -112 -36 -128 -102l-81 20c33 110 125 159 223 159z" />
<glyph unicode="&#xe027;" d="M307 501c113 0 166 -62 166 -140c0 -60 -26 -127 -114 -175c48 -30 63 -73 63 -116c0 -141 -110 -235 -236 -235c-81 0 -164 34 -164 143l82 12c2 -56 39 -82 89 -82c79 0 146 61 146 152c0 58 -34 90 -91 90h-50l14 69h40c74 0 137 54 137 126c0 48 -36 81 -87 81 c-44 0 -98 -28 -120 -85l-79 13c28 92 113 147 204 147z" />
<glyph unicode="&#xe028;" d="M445 0h-55l-31 -158h-79l31 158h-286l15 76l290 419h86l-291 -421h200l39 192h79l-38 -192h54z" />
<glyph unicode="&#xe029;" d="M445 148c0 -160 -58 -313 -247 -313c-81 0 -164 34 -164 143l82 12c2 -56 39 -82 89 -82c118 0 154 112 154 215c0 48 -20 86 -89 86c-40 0 -77 -21 -106 -58h-80l69 345h353l-16 -78h-276l-35 -175c43 32 84 41 125 41c91 0 141 -54 141 -136z" />
<glyph unicode="&#xe02a;" d="M219 -6c-92 0 -157 63 -157 154c0 51 18 109 47 151l258 355h90l-200 -283c19 7 41 10 61 10c90 0 135 -63 135 -146c0 -134 -91 -241 -234 -241zM368 223c0 53 -29 89 -86 89c-86 0 -136 -80 -136 -155c0 -53 30 -89 86 -89c83 0 136 82 136 155z" />
<glyph unicode="&#xe02b;" d="M487 414l-343 -572h-90l346 576h-203l-19 -98h-80l34 176h371z" />
<glyph unicode="&#xe02c;" d="M218 -6c-95 0 -164 61 -164 156c0 77 50 161 127 190c-37 25 -56 61 -56 105c0 118 106 215 227 215c91 0 154 -61 154 -148c0 -73 -44 -144 -112 -175c49 -20 64 -72 64 -121c0 -130 -108 -222 -240 -222zM379 211c0 54 -43 93 -98 93c-75 0 -147 -66 -147 -138 c0 -54 43 -96 99 -96c78 0 146 67 146 141zM425 503c0 51 -35 85 -87 85c-76 0 -132 -65 -132 -136c0 -50 38 -81 88 -81c75 0 131 61 131 132z" />
<glyph unicode="&#xe02d;" d="M327 496c100 0 162 -63 162 -153c0 -53 -20 -111 -49 -152l-259 -355h-92l208 290h-1c-17 -6 -39 -10 -58 -10c-90 0 -142 60 -142 142c0 135 85 238 231 238zM179 266c0 -53 29 -88 85 -88c86 0 136 79 136 155c0 53 -30 89 -86 89c-83 0 -135 -82 -135 -156z" />
<glyph unicode="&#xe02e;" d="M48 184l11 48h90l45 129h-83l10 49h90l63 180h55l-63 -180h102l63 180h55l-63 -180h89l-10 -49h-96l-45 -129h89l-11 -48h-96l-63 -184h-55l63 184h-102l-63 -184h-55l63 184h-83zM249 361l-45 -129h102l45 129h-102z" />
<glyph unicode="&#xe02f;" d="M161 -99l19 96c-55 6 -110 28 -154 67l49 55c34 -30 72 -52 118 -57l43 204c-56 24 -131 64 -131 145c0 101 90 169 197 176l14 69h47l-15 -71c48 -5 97 -21 129 -47l-44 -57c-27 20 -63 34 -98 39l-41 -196c64 -25 139 -62 139 -149c0 -103 -102 -174 -207 -179l-18 -95 h-47zM353 168c0 42 -41 67 -73 82l-40 -188c61 9 113 48 113 106zM187 414c0 -35 35 -59 64 -73l37 181c-49 -8 -101 -46 -101 -108z" />
<glyph unicode="&#xe030;" d="M387 318h-189l-9 -46h189l-10 -48h-189c-4 -19 -8 -43 -8 -61c0 -55 27 -101 97 -101c62 0 110 40 143 91l71 -32c-45 -77 -129 -126 -222 -126c-115 0 -169 67 -169 160c0 17 2 35 9 69h-39l9 48h40l9 46h-40l10 48h39l4 18c24 117 101 212 237 212 c92 0 147 -51 169 -126l-75 -28c-10 43 -49 85 -98 85c-95 0 -139 -72 -154 -146l-3 -15h189z" />
<glyph unicode="&#xe031;" d="M141 292l6 69h95l16 65c20 86 71 194 199 194c29 0 57 -5 76 -13l-25 -70c-17 6 -43 9 -62 9c-59 0 -88 -55 -103 -115l-15 -70h103l-7 -69h-114l-50 -214c-27 -119 -76 -200 -182 -200c-28 0 -65 7 -91 18l29 63c22 -9 41 -13 58 -13c54 0 81 53 100 131l51 215h-84z " />
<glyph unicode="&#xe032;" d="M380 249h-129c-16 -67 -44 -131 -91 -182h268l-12 -67h-367l12 56c53 56 99 122 117 193h-83l11 57h71c-3 37 -13 71 -13 108c0 98 71 181 181 181c78 0 132 -20 165 -90l-65 -33c-20 42 -52 56 -100 56c-64 0 -99 -61 -99 -116c0 -35 12 -71 11 -106h135z" />
<glyph unicode="&#xe033;" d="M248 -59h-42l20 96c-88 12 -128 75 -128 165c0 128 75 250 215 264l18 86h42l-18 -86c46 -4 92 -24 122 -59l-59 -53c-19 22 -46 39 -76 42l-60 -290c30 3 70 25 93 42l43 -53c-42 -33 -97 -57 -151 -60zM173 210c0 -54 20 -91 67 -102l59 286 c-88 -16 -126 -103 -126 -184z" />
<glyph unicode="&#xe034;" d="M551 592l-205 -283h105l-10 -48h-128l-14 -21l-12 -59h138l-10 -47h-138l-28 -134h-72l28 134h-136l9 47h136l13 60l-5 20h-127l10 48h102l-87 283h79l47 -168l30 -117l77 117l118 168h80z" />
<glyph unicode="&#xe048;" horiz-adv-x="438" d="M275 501c105 0 165 -63 165 -151c0 -14 -2 -28 -5 -43l-25 -117c-21 -110 -75 -196 -213 -196c-102 0 -171 58 -171 151c0 15 1 30 4 45l25 117c21 110 84 194 220 194zM265 424c-87 0 -119 -65 -131 -123l-22 -105c-2 -11 -4 -22 -4 -32c0 -56 34 -94 90 -94 c91 0 119 58 133 126l22 105c2 12 4 24 4 35c0 50 -24 88 -92 88z" />
<glyph unicode="&#xe049;" horiz-adv-x="405" d="M25 0l14 75h120l65 335l-104 -66l18 87l102 65h83l-82 -421h123l-14 -75h-325z" />
<glyph unicode="&#xe04a;" horiz-adv-x="439" d="M285 501c80 0 153 -39 153 -127c0 -62 -26 -111 -130 -180l-178 -117h270l-14 -77h-386l14 76l267 183c49 34 71 68 71 100c0 36 -26 65 -81 65c-59 0 -112 -36 -128 -102l-81 20c33 110 125 159 223 159z" />
<glyph unicode="&#xe04b;" horiz-adv-x="439" d="M269 501c113 0 166 -62 166 -140c0 -60 -26 -127 -114 -175c48 -30 63 -73 63 -116c0 -141 -110 -235 -236 -235c-81 0 -164 34 -164 143l82 12c2 -56 39 -82 89 -82c79 0 146 61 146 152c0 58 -34 90 -91 90h-50l14 69h40c74 0 137 54 137 126c0 48 -36 81 -87 81 c-44 0 -98 -28 -120 -85l-79 13c28 92 113 147 204 147z" />
<glyph unicode="&#xe04c;" horiz-adv-x="461" d="M422 0h-55l-31 -158h-79l31 158h-286l15 76l290 419h86l-291 -421h200l39 192h79l-38 -192h54z" />
<glyph unicode="&#xe04d;" horiz-adv-x="461" d="M413 148c0 -160 -58 -313 -247 -313c-81 0 -164 34 -164 143l82 12c2 -56 39 -82 89 -82c118 0 154 112 154 215c0 48 -20 86 -89 86c-40 0 -77 -21 -106 -58h-80l69 345h353l-16 -78h-276l-35 -175c43 32 84 41 125 41c91 0 141 -54 141 -136z" />
<glyph unicode="&#xe04e;" horiz-adv-x="461" d="M194 -6c-92 0 -157 63 -157 154c0 51 18 109 47 151l258 355h90l-200 -283c19 7 41 10 61 10c90 0 135 -63 135 -146c0 -134 -91 -241 -234 -241zM343 223c0 53 -29 89 -86 89c-86 0 -136 -80 -136 -155c0 -53 30 -89 86 -89c83 0 136 82 136 155z" />
<glyph unicode="&#xe04f;" horiz-adv-x="467" d="M452 414l-343 -572h-90l346 576h-203l-19 -98h-80l34 176h371z" />
<glyph unicode="&#xe050;" horiz-adv-x="478" d="M196 -6c-95 0 -164 61 -164 156c0 77 50 161 127 190c-37 25 -56 61 -56 105c0 118 106 215 227 215c91 0 154 -61 154 -148c0 -73 -44 -144 -112 -175c49 -20 64 -72 64 -121c0 -130 -108 -222 -240 -222zM357 211c0 54 -43 93 -98 93c-75 0 -147 -66 -147 -138 c0 -54 43 -96 99 -96c78 0 146 67 146 141zM403 503c0 51 -35 85 -87 85c-76 0 -132 -65 -132 -136c0 -50 38 -81 88 -81c75 0 131 61 131 132z" />
<glyph unicode="&#xe051;" horiz-adv-x="439" d="M269 496c100 0 162 -63 162 -153c0 -53 -20 -111 -49 -152l-259 -355h-92l208 290h-1c-17 -6 -39 -10 -58 -10c-90 0 -142 60 -142 142c0 135 85 238 231 238zM121 266c0 -53 29 -88 85 -88c86 0 136 79 136 155c0 53 -30 89 -86 89c-83 0 -135 -82 -135 -156z" />
<glyph unicode="&#xe052;" horiz-adv-x="478" d="M28 184l11 48h90l45 129h-83l10 49h90l63 180h55l-63 -180h102l63 180h55l-63 -180h89l-10 -49h-96l-45 -129h89l-11 -48h-96l-63 -184h-55l63 184h-102l-63 -184h-55l63 184h-83zM229 361l-45 -129h102l45 129h-102z" />
<glyph unicode="&#xe053;" horiz-adv-x="467" d="M140 -99l19 96c-55 6 -110 28 -154 67l49 55c34 -30 72 -52 118 -57l43 204c-56 24 -131 64 -131 145c0 101 90 169 197 176l14 69h47l-15 -71c48 -5 97 -21 129 -47l-44 -57c-27 20 -63 34 -98 39l-41 -196c64 -25 139 -62 139 -149c0 -103 -102 -174 -207 -179l-18 -95 h-47zM332 168c0 42 -41 67 -73 82l-40 -188c61 9 113 48 113 106zM166 414c0 -35 35 -59 64 -73l37 181c-49 -8 -101 -46 -101 -108z" />
<glyph unicode="&#xe054;" horiz-adv-x="455" d="M351 318h-189l-9 -46h189l-10 -48h-189c-4 -19 -8 -43 -8 -61c0 -55 27 -101 97 -101c62 0 110 40 143 91l71 -32c-45 -77 -129 -126 -222 -126c-115 0 -169 67 -169 160c0 17 2 35 9 69h-39l9 48h40l9 46h-40l10 48h39l4 18c24 117 101 212 237 212 c92 0 147 -51 169 -126l-75 -28c-10 43 -49 85 -98 85c-95 0 -139 -72 -154 -146l-3 -15h189z" />
<glyph unicode="&#xe055;" horiz-adv-x="444" d="M105 292l6 69h95l16 65c20 86 71 194 199 194c29 0 57 -5 76 -13l-25 -70c-17 6 -43 9 -62 9c-59 0 -88 -55 -103 -115l-15 -70h103l-7 -69h-114l-50 -214c-27 -119 -76 -200 -182 -200c-28 0 -65 7 -91 18l29 63c22 -9 41 -13 58 -13c54 0 81 53 100 131l51 215h-84z " />
<glyph unicode="&#xe056;" horiz-adv-x="444" d="M344 249h-129c-16 -67 -44 -131 -91 -182h268l-12 -67h-367l12 56c53 56 99 122 117 193h-83l11 57h71c-3 37 -13 71 -13 108c0 98 71 181 181 181c78 0 132 -20 165 -90l-65 -33c-20 42 -52 56 -100 56c-64 0 -99 -61 -99 -116c0 -35 12 -71 11 -106h135z" />
<glyph unicode="&#xe057;" horiz-adv-x="444" d="M222 -59h-42l20 96c-88 12 -128 75 -128 165c0 128 75 250 215 264l18 86h42l-18 -86c46 -4 92 -24 122 -59l-59 -53c-19 22 -46 39 -76 42l-60 -290c30 3 70 25 93 42l43 -53c-42 -33 -97 -57 -151 -60zM147 210c0 -54 20 -91 67 -102l59 286 c-88 -16 -126 -103 -126 -184z" />
<glyph unicode="&#xe058;" horiz-adv-x="428" d="M506 592l-205 -283h105l-10 -48h-128l-14 -21l-12 -59h138l-10 -47h-138l-28 -134h-72l28 134h-136l9 47h136l13 60l-5 20h-127l10 48h102l-87 283h79l47 -168l30 -117l77 117l118 168h80z" />
<glyph unicode="&#xe059;" horiz-adv-x="709" d="M169 233c-57 0 -103 31 -104 82c0 7 2 16 3 22c7 36 9 49 31 156c11 56 57 101 131 101c56 0 102 -32 103 -81c0 -5 -1 -14 -3 -23c-14 -78 -19 -99 -31 -154c-12 -56 -55 -103 -130 -103zM655 606l-511 -620h-59l511 620h59zM271 505c0 22 -18 38 -46 38 c-36 0 -59 -26 -65 -55c-13 -62 -20 -103 -31 -151c-1 -4 -2 -10 -2 -13c0 -23 17 -39 45 -39c36 0 59 27 67 56c12 47 22 101 30 149c1 4 2 11 2 15zM514 -3c-57 0 -103 31 -104 82c0 7 2 16 3 22c7 36 9 49 31 156c11 56 57 101 131 101c56 0 102 -32 103 -81 c0 -5 -1 -14 -3 -23c-14 -78 -19 -99 -31 -154c-12 -56 -55 -103 -130 -103zM616 269c0 22 -18 38 -46 38c-36 0 -59 -26 -65 -55c-13 -62 -20 -103 -31 -151c-1 -4 -2 -10 -2 -13c0 -23 17 -39 45 -39c36 0 59 27 67 56c12 47 22 101 30 149c1 4 2 11 2 15z" />
<glyph unicode="&#xe05a;" horiz-adv-x="995" d="M169 233c-57 0 -103 31 -104 82c0 7 2 16 3 22c7 36 9 49 31 156c11 56 57 101 131 101c56 0 102 -32 103 -81c0 -5 -1 -14 -3 -23c-14 -78 -19 -99 -31 -154c-12 -56 -55 -103 -130 -103zM655 606l-511 -620h-59l511 620h59zM271 505c0 22 -18 38 -46 38 c-36 0 -59 -26 -65 -55c-13 -62 -20 -103 -31 -151c-1 -4 -2 -10 -2 -13c0 -23 17 -39 45 -39c36 0 59 27 67 56c12 47 22 101 30 149c1 4 2 11 2 15zM514 -3c-57 0 -103 31 -104 82c0 7 2 16 3 22c7 36 9 49 31 156c11 56 57 101 131 101c56 0 102 -32 103 -81 c0 -5 -1 -14 -3 -23c-14 -78 -19 -99 -31 -154c-12 -56 -55 -103 -130 -103zM616 269c0 22 -18 38 -46 38c-36 0 -59 -26 -65 -55c-13 -62 -20 -103 -31 -151c-1 -4 -2 -10 -2 -13c0 -23 17 -39 45 -39c36 0 59 27 67 56c12 47 22 101 30 149c1 4 2 11 2 15zM800 -3 c-57 0 -103 31 -104 82c0 7 2 16 3 22c7 36 9 49 31 156c11 56 57 101 131 101c56 0 102 -32 103 -81c0 -5 -1 -14 -3 -23c-14 -78 -19 -99 -31 -154c-12 -56 -55 -103 -130 -103zM902 269c0 22 -18 38 -46 38c-36 0 -59 -26 -65 -55c-13 -62 -20 -103 -31 -151 c-1 -4 -2 -10 -2 -13c0 -23 17 -39 45 -39c36 0 59 27 67 56c12 47 22 101 30 149c1 4 2 11 2 15z" />
<glyph unicode="&#xe0d8;" horiz-adv-x="284" d="M170 -90c-68 96 -110 212 -110 330c0 204 127 388 272 520l39 -28c-126 -135 -223 -318 -223 -507c0 -97 23 -197 70 -283z" />
<glyph unicode="&#xe0d9;" horiz-adv-x="284" d="M-22 -90l-35 32c125 133 224 320 224 506c0 97 -24 198 -71 284l50 28c67 -95 108 -207 108 -324c0 -207 -128 -392 -276 -526z" />
<glyph unicode="&#xe0da;" horiz-adv-x="392" d="M344 260h-288l15 75h288z" />
<glyph unicode="&#xe0db;" horiz-adv-x="256" d="M177 -75h-166l156 803h166l-11 -56h-92l-134 -691h92z" />
<glyph unicode="&#xe0dc;" horiz-adv-x="256" d="M131 -75h-165l11 56h91l134 691h-91l11 56h165z" />
<glyph unicode="&#xe0dd;" horiz-adv-x="256" d="M188 -73h-57c-51 0 -92 42 -79 107l27 139c14 70 -1 122 -52 128l10 51c54 7 90 66 102 130l26 136c13 66 61 108 112 108h66l-10 -54h-40c-36 0 -55 -47 -62 -87l-25 -125c-16 -86 -77 -124 -99 -131v-3c19 -7 64 -46 48 -129l-25 -130c-8 -40 -7 -87 28 -87h40z" />
<glyph unicode="&#xe0de;" horiz-adv-x="256" d="M257 301c-53 -6 -87 -58 -101 -128l-27 -139c-12 -65 -60 -107 -111 -107h-67l10 53h41c35 0 54 47 62 87l25 130c17 83 76 122 99 129l1 3c-21 7 -65 45 -48 131l24 125c8 40 17 87 -28 87h-41l9 50h65c62 0 85 -44 73 -104l-27 -136c-12 -64 0 -123 51 -130z" />
<glyph unicode="&#xe0df;" horiz-adv-x="490" d="M475 260h-451l15 77h451z" />
<glyph unicode="&#xe0e0;" horiz-adv-x="1000" d="M972 260h-960l15 77h960z" />
<glyph unicode="&#xe0e1;" horiz-adv-x="241" d="M37 -172l111 519h60l-92 -519h-79zM165 524h90l-19 -98h-90z" />
<glyph unicode="&#xe0e2;" horiz-adv-x="497" d="M273 -172c-107 0 -182 64 -182 154c0 101 63 149 121 198c41 35 80 70 89 114l10 50h87l-10 -52c-9 -46 -37 -86 -75 -120c-49 -55 -131 -101 -131 -171c0 -39 25 -91 101 -91c94 0 134 79 141 125l89 -21c-37 -141 -118 -186 -240 -186zM346 528h90l-19 -98h-90z" />
<glyph unicode="&#xe0e3;" horiz-adv-x="459" d="M389 76h-78l-90 186l159 186h82l-159 -186zM217 76h-78l-90 186l159 186h82l-160 -186z" />
<glyph unicode="&#xe0e4;" horiz-adv-x="459" d="M91 76h-78l160 186l-87 186h78l91 -186zM263 76h-78l161 186l-88 186h78l91 -186z" />
<glyph unicode="&#xe23f;" d="M190 -6c-91 0 -165 58 -165 151c0 15 1 30 4 45l62 316c21 110 97 196 220 196c91 0 164 -59 164 -151c0 -15 -1 -30 -4 -45l-62 -316c-21 -110 -90 -196 -219 -196zM111 196c-2 -10 -4 -20 -4 -30l273 417c-15 26 -43 42 -79 42c-73 0 -118 -57 -131 -125zM389 500v2 l-263 -400c16 -19 40 -30 71 -30c72 0 120 56 133 124z" />
<glyph unicode="&#xe2d0;" horiz-adv-x="314" d="M173 275c-63 0 -114 37 -115 95c0 9 1 19 3 27c12 61 24 122 35 183c12 66 63 119 145 119c62 0 113 -38 114 -95c0 -9 -2 -19 -3 -27c-13 -74 -23 -122 -35 -182c-14 -67 -59 -120 -144 -120zM288 594c0 28 -20 47 -52 47c-43 0 -67 -31 -75 -67l-34 -178 c-1 -5 -2 -11 -2 -15c0 -28 19 -47 51 -47c42 0 68 31 77 67c11 57 23 117 33 175c1 5 2 13 2 18z" />
<glyph unicode="&#xe2d1;" horiz-adv-x="271" d="M260 696l-81 -417h-65l68 346l-66 -39l16 69l66 41h62z" />
<glyph unicode="&#xe2d2;" horiz-adv-x="311" d="M287 279h-261l11 58l211 199c23 21 34 41 34 61c0 23 -19 42 -55 42c-34 0 -64 -27 -77 -65l-69 14c27 68 84 110 150 110c68 0 121 -31 121 -95c0 -40 -20 -69 -50 -98c-63 -58 -113 -106 -176 -165h173z" />
<glyph unicode="&#xe2d3;" horiz-adv-x="315" d="M234 699c79 0 117 -42 118 -94c1 -35 -14 -78 -69 -107c27 -18 39 -46 39 -72c2 -90 -73 -151 -159 -151c-56 0 -115 25 -116 100l67 9c1 -35 23 -51 53 -51c48 0 88 34 87 87c0 32 -21 49 -55 49h-40l11 56h32c45 0 83 30 82 71c0 26 -21 44 -52 44 c-27 0 -60 -18 -73 -54l-65 11c20 63 78 102 140 102z" />
<glyph unicode="&#xe2d4;" horiz-adv-x="322" d="M328 341h-36c-4 -19 -11 -44 -13 -62h-64l12 62h-190l12 56l209 299h74l-209 -297h114c7 37 17 82 22 118h66l-23 -118h37z" />
<glyph unicode="&#xe2d5;" horiz-adv-x="307" d="M322 472c0 -102 -37 -197 -164 -197c-58 0 -116 25 -117 100l67 9c1 -35 23 -51 53 -51c73 0 93 66 93 125c0 24 -13 47 -53 47c-25 0 -52 -10 -68 -35h-63l45 226h246l-13 -61h-183l-17 -88c26 14 49 17 74 17c64 0 100 -37 100 -92z" />
<glyph unicode="&#xe2d6;" horiz-adv-x="311" d="M163 275c-64 0 -112 40 -112 101c0 32 12 70 31 97c54 72 115 151 168 223h75l-127 -172c9 1 16 2 25 2c64 0 97 -41 97 -95c0 -91 -59 -156 -157 -156zM252 423c0 30 -18 48 -51 48c-53 0 -82 -45 -82 -89c0 -32 19 -49 52 -49c50 0 81 45 81 90z" />
<glyph unicode="&#xe2d7;" horiz-adv-x="284" d="M348 636l-222 -357h-74l221 356h-117l-12 -61h-66l24 122h256z" />
<glyph unicode="&#xe2d8;" horiz-adv-x="315" d="M165 275c-66 0 -115 41 -116 102c-1 49 25 98 75 120c-21 15 -31 37 -31 62c-2 77 69 140 152 140c63 0 109 -41 110 -97c1 -43 -26 -86 -65 -108c27 -17 37 -47 37 -75c2 -84 -72 -144 -162 -144zM262 415c0 31 -27 51 -60 51c-46 0 -89 -37 -88 -78 c0 -31 26 -54 60 -54c48 0 89 39 88 81zM288 596c0 28 -20 47 -52 47c-46 0 -79 -39 -78 -79c0 -27 22 -44 52 -44c46 0 79 35 78 76z" />
<glyph unicode="&#xe2d9;" horiz-adv-x="307" d="M238 699c69 0 114 -42 115 -100c1 -35 -12 -71 -31 -97l-169 -223h-76l127 174c-6 -1 -13 -1 -19 -1c-63 0 -101 40 -102 95c-2 86 55 152 155 152zM150 552c0 -30 18 -49 51 -49c53 0 82 46 81 90c0 28 -19 48 -51 48c-51 0 -82 -47 -81 -89z" />
<glyph unicode="&#xe2da;" horiz-adv-x="185" d="M187 233l-39 -26c-51 63 -80 131 -82 200c-2 120 80 230 176 309l36 -23c-82 -81 -143 -188 -141 -294c0 -54 17 -113 50 -166z" />
<glyph unicode="&#xe2db;" horiz-adv-x="185" d="M23 208l-32 27c80 79 142 187 140 293c-1 55 -18 114 -52 167l45 22c46 -58 75 -125 76 -196c3 -122 -80 -232 -177 -313z" />
<glyph unicode="&#xe2dc;" horiz-adv-x="164" d="M126 284l-52 -71h-47l33 66h-15l14 77h81z" />
<glyph unicode="&#xe2dd;" horiz-adv-x="158" d="M126 279h-79l14 77h80z" />
<glyph unicode="&#xe2f4;" horiz-adv-x="314" d="M133 -4c-63 0 -114 37 -115 95c0 9 1 19 3 27c12 61 24 122 35 183c12 66 63 119 145 119c62 0 113 -38 114 -95c0 -9 -2 -19 -3 -27c-13 -74 -23 -122 -35 -182c-14 -67 -59 -120 -144 -120zM248 315c0 28 -20 47 -52 47c-43 0 -68 -31 -75 -67l-34 -178 c-1 -5 -2 -11 -2 -15c0 -28 19 -47 51 -47c42 0 68 31 77 67c11 57 23 117 33 175c1 5 2 13 2 18z" />
<glyph unicode="&#xe2f5;" horiz-adv-x="271" d="M220 417l-81 -417h-65l68 346l-66 -39l16 69l66 41h62z" />
<glyph unicode="&#xe2f6;" horiz-adv-x="311" d="M247 0h-261l11 58l211 199c23 21 34 41 34 61c0 23 -19 42 -55 42c-34 0 -64 -27 -77 -65l-69 14c27 68 84 110 150 110c68 0 121 -31 121 -95c0 -40 -20 -69 -50 -98c-63 -58 -113 -106 -176 -165h173z" />
<glyph unicode="&#xe2f7;" horiz-adv-x="315" d="M194 420c79 0 117 -42 118 -94c1 -35 -14 -78 -69 -107c27 -18 39 -46 39 -72c2 -90 -73 -151 -159 -151c-56 0 -115 25 -116 100l67 9c1 -35 23 -51 53 -51c48 0 88 34 87 87c0 32 -21 49 -55 49h-40l11 56h32c45 0 83 30 82 71c0 26 -21 44 -52 44 c-27 0 -60 -18 -73 -54l-65 11c20 63 78 102 140 102z" />
<glyph unicode="&#xe2f8;" horiz-adv-x="322" d="M288 62h-36c-4 -19 -11 -44 -13 -62h-64l12 62h-190l12 56l209 299h74l-209 -297h114c7 37 17 82 22 118h66l-23 -118h37z" />
<glyph unicode="&#xe2f9;" horiz-adv-x="307" d="M282 193c0 -102 -37 -197 -164 -197c-58 0 -116 25 -117 100l67 9c1 -35 23 -51 53 -51c73 0 93 66 93 125c0 24 -13 47 -53 47c-25 0 -52 -10 -68 -35h-63l45 226h246l-13 -61h-183l-17 -88c26 14 49 17 74 17c64 0 100 -37 100 -92z" />
<glyph unicode="&#xe2fa;" horiz-adv-x="311" d="M123 -4c-64 0 -112 40 -112 101c0 32 12 70 31 97c54 72 115 151 168 223h75l-127 -172c9 1 16 2 25 2c64 0 97 -41 97 -95c0 -91 -59 -156 -157 -156zM212 144c0 30 -18 48 -51 48c-53 0 -82 -45 -82 -89c0 -32 19 -49 52 -49c50 0 81 45 81 90z" />
<glyph unicode="&#xe2fb;" horiz-adv-x="284" d="M308 357l-222 -357h-74l221 356h-117l-12 -61h-66l24 122h256z" />
<glyph unicode="&#xe2fc;" horiz-adv-x="315" d="M125 -4c-66 0 -115 41 -116 102c-1 49 25 98 75 120c-21 15 -31 37 -31 62c-2 77 69 140 152 140c63 0 109 -41 110 -97c1 -43 -26 -86 -65 -108c27 -17 37 -47 37 -75c2 -84 -72 -144 -162 -144zM222 136c0 31 -27 51 -60 51c-46 0 -89 -37 -88 -78c0 -31 26 -54 60 -54 c48 0 89 39 88 81zM248 317c0 28 -20 47 -52 47c-46 0 -79 -39 -78 -79c0 -27 22 -44 52 -44c46 0 79 35 78 76z" />
<glyph unicode="&#xe2fd;" horiz-adv-x="307" d="M198 420c69 0 114 -42 115 -100c1 -35 -12 -71 -31 -97l-169 -223h-76l127 174c-6 -1 -13 -1 -19 -1c-63 0 -101 40 -102 95c-2 86 55 152 155 152zM110 273c0 -30 18 -49 51 -49c53 0 82 46 81 90c0 28 -19 48 -51 48c-51 0 -82 -47 -81 -89z" />
<glyph unicode="&#xe2fe;" horiz-adv-x="185" d="M147 -46l-39 -26c-51 63 -80 131 -82 200c-2 120 80 230 176 309l36 -23c-82 -81 -143 -188 -141 -294c0 -54 17 -113 50 -166z" />
<glyph unicode="&#xe2ff;" horiz-adv-x="185" d="M-17 -71l-32 27c80 79 142 187 140 293c-1 55 -18 114 -52 167l45 22c46 -58 75 -125 76 -196c3 -122 -80 -232 -177 -313z" />
<glyph unicode="&#xe300;" horiz-adv-x="164" d="M86 5l-52 -71h-47l33 66h-15l14 77h81z" />
<glyph unicode="&#xe301;" horiz-adv-x="158" d="M86 0h-79l14 77h80z" />
<glyph unicode="&#xa2;" horiz-adv-x="422" d="M197 -117h-45l22 114c-98 12 -143 86 -143 192c0 153 81 298 240 311l20 101h45l-20 -101c51 -5 102 -28 135 -68l-64 -60c-22 25 -52 44 -86 48l-67 -345c35 4 79 29 105 48l45 -60c-46 -40 -105 -66 -166 -69zM113 199c0 -66 22 -109 77 -121l65 340 c-101 -17 -142 -122 -142 -219z" />
<glyph unicode="&#x201a;" horiz-adv-x="252" d="M131 2l-78 -115h-51l54 113h-28l21 111h103z" />
<glyph unicode="&#x201e;" horiz-adv-x="396" d="M275 2l-79 -115h-51l54 113h-28l22 111h103zM132 2l-79 -115h-51l54 113h-28l22 111h103z" />
<glyph unicode="&#x203a;" horiz-adv-x="292" d="M91 46h-78l160 186l-87 186h78l91 -186z" />
<glyph unicode="&#x2039;" horiz-adv-x="292" d="M177 418h78l-160 -186l87 -186h-78l-91 186z" />
<glyph unicode="&#xa1;" horiz-adv-x="241" d="M37 -202l111 519h60l-92 -519h-79zM165 494h90l-19 -98h-90z" />
<glyph unicode="&#xbf;" horiz-adv-x="497" d="M231 -202c-107 0 -182 64 -182 154c0 101 63 149 121 198c41 35 80 70 89 114l10 50h87l-10 -52c-9 -46 -37 -86 -75 -120c-49 -55 -131 -101 -131 -171c0 -39 25 -91 101 -91c94 0 134 79 141 125l89 -21c-37 -141 -118 -186 -240 -186zM304 498h90l-19 -98h-90z" />
<glyph unicode="&#x2021;" horiz-adv-x="466" d="M192 200l37 190h-170l13 66h170l46 240h80l-46 -240h170l-13 -66h-170l-37 -190h170l-13 -66h-170l-62 -320h-80l62 320h-169l12 66h170z" />
<glyph unicode="&#xa4;" horiz-adv-x="556" d="M109 437l-69 68c17 18 32 32 49 49l68 -68c38 25 76 38 119 38s81 -13 119 -38l67 68l49 -50l-68 -67c25 -38 38 -77 38 -118s-13 -79 -38 -118c21 -20 47 -44 68 -66l-49 -50l-67 68c-37 -26 -76 -39 -119 -39s-82 13 -119 39l-68 -68c-13 14 -37 37 -49 49l69 67 c-25 39 -38 77 -38 118s13 80 38 118zM142 319c0 -73 59 -133 133 -133c75 0 134 60 134 133c0 75 -59 134 -134 134c-74 0 -133 -60 -133 -134z" />
<glyph unicode="&#xb6;" horiz-adv-x="563" d="M180 -82l78 406h-39c-84 0 -122 64 -122 139c0 108 82 242 222 242h291l-13 -65h-43l-140 -722h-74l140 722h-85l-140 -722h-75z" />
<glyph unicode="&#x2014;" horiz-adv-x="876" d="M838 230h-826l15 77h826z" />
<glyph unicode="&#x160;" horiz-adv-x="534" d="M353 702c75 0 150 -22 202 -59l-52 -73c-42 30 -101 48 -160 48c-61 0 -151 -32 -151 -119c0 -66 81 -91 111 -99c101 -27 208 -65 208 -191c0 -142 -129 -215 -272 -215c-94 0 -182 31 -236 88l57 63c44 -41 109 -67 181 -67c90 0 175 41 175 124c0 68 -62 96 -121 111 c-88 22 -190 55 -190 170c0 130 98 219 248 219zM264 904l117 -84l172 89l22 -38l-176 -131h-53l-118 129z" />
<glyph unicode="&#x17d;" horiz-adv-x="495" d="M424 0h-432l15 77l438 542h-320l15 77h419l-14 -70l-440 -545h334zM264 904l117 -84l172 89l22 -38l-176 -131h-53l-118 129z" />
<glyph unicode="&#x161;" horiz-adv-x="439" d="M194 -6c-67 0 -153 25 -201 76l53 62c35 -42 96 -62 149 -62c69 0 120 22 120 70c0 47 -36 62 -81 74c-70 18 -160 27 -160 135c0 112 99 152 196 152c57 0 118 -14 161 -56l-50 -64c-36 29 -74 44 -119 44c-49 0 -105 -17 -105 -76c0 -42 49 -51 103 -64 c66 -16 138 -37 138 -131c0 -116 -101 -160 -204 -160zM302 633l157 110l32 -39l-172 -151h-53l-120 153l46 38z" />
<glyph unicode="&#x17e;" horiz-adv-x="425" d="M352 0h-359l14 68l333 355h-250l14 72h344l-13 -70l-326 -349h258zM279 633l157 110l32 -39l-172 -151h-53l-120 153l46 38z" />
<glyph unicode="&#x178;" horiz-adv-x="498" d="M589 696l-286 -421l-54 -275h-82l54 275l-124 421h86l58 -201l34 -130l91 139l129 192h94zM488 750h-88l17 88h88zM308 750h-88l17 88h88z" />
<glyph unicode="&#xc0;" horiz-adv-x="586" d="M540 0h-90l-24 160h-283l-86 -160h-93l385 696h77zM417 236l-28 195l-20 158h-2l-79 -154l-106 -199h235zM430 780l-29 -42l-190 103l47 61z" />
<glyph unicode="&#xc1;" horiz-adv-x="586" d="M540 0h-90l-24 160h-283l-86 -160h-93l385 696h77zM417 236l-28 195l-20 158h-2l-79 -154l-106 -199h235zM371 738l-29 42l172 122l47 -61z" />
<glyph unicode="&#xc2;" horiz-adv-x="586" d="M540 0h-90l-24 160h-283l-86 -160h-93l385 696h77zM417 236l-28 195l-20 158h-2l-79 -154l-106 -199h235zM519 742l-117 86l-170 -89l-22 38l176 131h53l118 -129z" />
<glyph unicode="&#xc3;" horiz-adv-x="586" d="M540 0h-90l-24 160h-283l-86 -160h-93l385 696h77zM417 236l-28 195l-20 158h-2l-79 -154l-106 -199h235zM331 859c48 0 101 -47 136 -47c20 0 37 13 64 45l46 -29c-34 -66 -76 -89 -118 -89c-48 0 -100 45 -139 45c-23 0 -35 -10 -66 -40l-43 26c37 64 80 89 120 89z " />
<glyph unicode="&#xc8;" horiz-adv-x="532" d="M486 0h-452l136 696h421l-16 -81h-335l-43 -225h294l-15 -77h-294l-46 -232h365zM441 780l-29 -42l-190 103l47 61z" />
<glyph unicode="&#xca;" horiz-adv-x="532" d="M486 0h-452l136 696h421l-16 -81h-335l-43 -225h294l-15 -77h-294l-46 -232h365zM528 742l-117 86l-170 -89l-22 38l176 131h53l118 -129z" />
<glyph unicode="&#xcb;" horiz-adv-x="532" d="M486 0h-452l136 696h421l-16 -81h-335l-43 -225h294l-15 -77h-294l-46 -232h365zM522 750h-88l17 88h88zM342 750h-88l17 88h88z" />
<glyph unicode="&#xcc;" horiz-adv-x="236" d="M121 0h-87l136 696h86zM262 780l-29 -42l-190 103l47 61z" />
<glyph unicode="&#xcd;" horiz-adv-x="236" d="M217 738l-29 42l172 122l47 -61zM121 0h-87l136 696h86z" />
<glyph unicode="&#xce;" horiz-adv-x="236" d="M121 0h-87l136 696h86zM359 742l-117 86l-170 -89l-22 38l176 131h53l118 -129z" />
<glyph unicode="&#xcf;" horiz-adv-x="236" d="M121 0h-87l136 696h86zM356 767h-87l17 88h87zM179 767h-86l17 88h86z" />
<glyph unicode="&#xd0;" horiz-adv-x="606" d="M16 330l12 63h82l59 303h224c118 0 215 -52 215 -183c0 -120 -48 -325 -81 -381c-63 -107 -152 -132 -248 -132h-245l64 330h-82zM375 615h-135l-43 -222h134l-13 -63h-134l-48 -249h135c131 0 192 78 215 198l26 133c5 26 7 49 7 69c0 100 -57 134 -144 134z" />
<glyph unicode="&#xd2;" horiz-adv-x="579" d="M366 701c131 0 223 -85 223 -204c0 -64 -26 -166 -42 -245c-33 -155 -123 -258 -283 -258c-157 0 -218 92 -218 206c0 65 27 174 44 249c32 142 105 252 276 252zM360 622c-124 0 -172 -96 -188 -180l-36 -185c-18 -97 5 -185 135 -185c107 0 167 81 191 185 c17 72 40 166 40 225c0 82 -50 140 -142 140zM490 780l-29 -42l-190 103l47 61z" />
<glyph unicode="&#xd3;" horiz-adv-x="579" d="M379 738l-29 42l172 122l47 -61zM366 701c131 0 223 -85 223 -204c0 -64 -26 -166 -42 -245c-33 -155 -123 -258 -283 -258c-157 0 -218 92 -218 206c0 65 27 174 44 249c32 142 105 252 276 252zM360 622c-124 0 -172 -96 -188 -180l-36 -185c-18 -97 5 -185 135 -185 c107 0 167 81 191 185c17 72 40 166 40 225c0 82 -50 140 -142 140z" />
<glyph unicode="&#xd4;" horiz-adv-x="579" d="M366 701c131 0 223 -85 223 -204c0 -64 -26 -166 -42 -245c-33 -155 -123 -258 -283 -258c-157 0 -218 92 -218 206c0 65 27 174 44 249c32 142 105 252 276 252zM360 622c-124 0 -172 -96 -188 -180l-36 -185c-18 -97 5 -185 135 -185c107 0 167 81 191 185 c17 72 40 166 40 225c0 82 -50 140 -142 140zM536 742l-117 86l-170 -89l-22 38l176 131h53l118 -129z" />
<glyph unicode="&#xd5;" horiz-adv-x="579" d="M366 701c131 0 223 -85 223 -204c0 -64 -26 -166 -42 -245c-33 -155 -123 -258 -283 -258c-157 0 -218 92 -218 206c0 65 27 174 44 249c32 142 105 252 276 252zM360 622c-124 0 -172 -96 -188 -180l-36 -185c-18 -97 5 -185 135 -185c107 0 167 81 191 185 c17 72 40 166 40 225c0 82 -50 140 -142 140zM352 859c48 0 101 -47 136 -47c20 0 37 13 64 45l46 -29c-34 -66 -76 -89 -118 -89c-48 0 -100 45 -139 45c-23 0 -35 -10 -66 -40l-43 26c37 64 80 89 120 89z" />
<glyph unicode="&#xd8;" horiz-adv-x="579" d="M366 701c63 0 116 -20 155 -53l40 52l33 -29l-43 -56c24 -32 38 -73 38 -118c0 -64 -26 -166 -42 -245c-33 -155 -123 -258 -283 -258c-68 0 -118 17 -153 46l-34 -45l-31 29l36 47c-25 35 -36 80 -36 129c0 65 27 174 44 249c32 142 105 252 276 252zM360 622 c-124 0 -172 -96 -188 -180l-36 -185c-8 -40 -8 -79 3 -110l330 432c-24 27 -61 43 -109 43zM502 482c0 20 -3 40 -9 57l-330 -431c22 -23 57 -36 108 -36c107 0 167 81 191 185c17 72 40 166 40 225z" />
<glyph unicode="&#xd9;" horiz-adv-x="606" d="M549 232c-28 -143 -119 -238 -277 -238c-135 0 -232 98 -203 248l88 454h86l-86 -442c-20 -104 15 -179 121 -179c95 0 167 64 187 169l88 452h86zM484 780l-29 -42l-190 103l47 61z" />
<glyph unicode="&#xda;" horiz-adv-x="606" d="M369 738l-29 42l172 122l47 -61zM549 232c-28 -143 -119 -238 -277 -238c-135 0 -232 98 -203 248l88 454h86l-86 -442c-20 -104 15 -179 121 -179c95 0 167 64 187 169l88 452h86z" />
<glyph unicode="&#xdb;" horiz-adv-x="606" d="M549 232c-28 -143 -119 -238 -277 -238c-135 0 -232 98 -203 248l88 454h86l-86 -442c-20 -104 15 -179 121 -179c95 0 167 64 187 169l88 452h86zM548 742l-117 86l-170 -89l-22 38l176 131h53l118 -129z" />
<glyph unicode="&#xdd;" horiz-adv-x="498" d="M322 738l-29 42l172 122l47 -61zM589 696l-286 -421l-54 -275h-82l54 275l-124 421h86l58 -201l34 -130l91 139l129 192h94z" />
<glyph unicode="&#xe1;" horiz-adv-x="495" d="M277 501c48 0 100 -19 121 -61l3 1l13 54h77l-96 -495h-80l11 54l-3 2c-40 -45 -76 -62 -133 -62c-103 0 -146 75 -146 173c0 139 71 334 233 334zM125 165c0 -42 16 -101 87 -101c119 0 162 164 162 257c0 61 -22 106 -89 106c-125 0 -160 -164 -160 -262zM319 551 l-49 20l107 177l76 -25z" />
<glyph unicode="&#xe3;" horiz-adv-x="495" d="M277 501c48 0 100 -19 121 -61l3 1l13 54h77l-96 -495h-80l11 54l-3 2c-40 -45 -76 -62 -133 -62c-103 0 -146 75 -146 173c0 139 71 334 233 334zM125 165c0 -42 16 -101 87 -101c119 0 162 164 162 257c0 61 -22 106 -89 106c-125 0 -160 -164 -160 -262zM285 699 c48 0 101 -47 136 -47c20 0 37 13 64 45l46 -29c-34 -66 -76 -89 -118 -89c-48 0 -100 45 -139 45c-23 0 -35 -10 -66 -40l-43 26c37 64 80 89 120 89z" />
<glyph unicode="&#xf1;" horiz-adv-x="514" d="M409 0h-81l58 297c13 65 8 127 -81 127c-64 0 -128 -54 -142 -127l-58 -297h-81l96 495h81l-11 -59h3c40 43 102 65 154 65c90 0 147 -61 126 -171zM270 699c48 0 101 -47 136 -47c20 0 37 13 64 45l46 -29c-34 -66 -76 -89 -118 -89c-48 0 -100 45 -139 45 c-23 0 -35 -10 -66 -40l-43 26c37 64 80 89 120 89z" />
<glyph unicode="&#xf2;" horiz-adv-x="495" d="M287 500c106 0 175 -69 175 -175c0 -153 -59 -331 -239 -331c-116 0 -181 61 -181 170c0 177 78 336 245 336zM278 427c-119 0 -156 -156 -156 -256c0 -40 17 -103 99 -103c119 0 159 136 159 252c0 73 -43 107 -102 107zM345 569l-49 -15l-87 184l68 16z" />
<glyph unicode="&#xf3;" horiz-adv-x="495" d="M287 500c106 0 175 -69 175 -175c0 -153 -59 -331 -239 -331c-116 0 -181 61 -181 170c0 177 78 336 245 336zM278 427c-119 0 -156 -156 -156 -256c0 -40 17 -103 99 -103c119 0 159 136 159 252c0 73 -43 107 -102 107zM324 551l-49 20l107 177l76 -25z" />
<glyph unicode="&#xfa;" horiz-adv-x="518" d="M411 0h-81l11 56h-3c-40 -43 -95 -62 -145 -62c-98 0 -157 61 -135 171l64 330h80l-57 -297c-15 -76 -5 -126 88 -126c63 0 121 50 136 126l58 297h80zM318 551l-49 20l107 177l76 -25z" />
<glyph unicode="&#xfd;" horiz-adv-x="413" d="M373 495h83c-75 -209 -151 -383 -230 -513c-60 -96 -136 -180 -278 -186l-2 70c69 6 129 34 184 111l-81 518h86l29 -226c8 -60 19 -144 19 -219h3c78 138 137 300 187 445zM272 551l-49 20l107 177l76 -25z" />
<glyph unicode="&#xff;" horiz-adv-x="413" d="M373 495h83c-75 -209 -151 -383 -230 -513c-60 -96 -136 -180 -278 -186l-2 70c69 6 129 34 184 111l-81 518h86l29 -226c8 -60 19 -144 19 -219h3c78 138 137 300 187 445zM383 597h-87l17 88h87zM206 597h-86l17 88h86z" />
<glyph unicode="&#xde;" horiz-adv-x="572" d="M36 0l133 693h89l-24 -126h167c102 0 184 -59 184 -174c0 -106 -84 -242 -251 -242h-181l-29 -151h-88zM342 232c93 0 150 81 150 147c0 64 -37 107 -105 107h-169l-49 -254h173z" />
<glyph unicode="&#xf8;" horiz-adv-x="495" d="M287 500c43 0 80 -12 109 -33l43 57l36 -27l-47 -62c22 -29 34 -66 34 -110c0 -153 -59 -331 -239 -331c-45 0 -82 9 -110 26l-38 -50l-35 28l38 51c-24 28 -36 67 -36 115c0 177 78 336 245 336zM278 427c-119 0 -156 -156 -156 -256c0 -16 2 -34 10 -52l216 285 c-18 15 -42 23 -70 23zM380 320c0 16 -2 31 -6 44l-213 -280c15 -10 34 -16 60 -16c119 0 159 136 159 252z" />
<glyph unicode="&#xfe;" horiz-adv-x="501" d="M161 696h81l-50 -255l3 -1c39 38 89 61 144 61c102 0 133 -76 133 -165c0 -144 -63 -342 -237 -342c-51 0 -86 21 -116 62l-2 -1l-49 -256h-81zM148 185c0 -57 20 -109 85 -109c120 0 154 147 154 243c0 59 -22 101 -87 101c-110 0 -152 -146 -152 -235z" />
<glyph unicode="&#x2da;" horiz-adv-x="495" d="M328 546c-48 0 -83 34 -83 79c0 62 49 117 119 117c48 0 83 -36 83 -82c0 -71 -60 -114 -119 -114zM355 699c-35 0 -65 -31 -65 -66c0 -26 18 -44 45 -44c34 0 67 30 67 66c0 25 -20 44 -47 44z" />
<glyph unicode="&#xc5;" horiz-adv-x="586" d="M540 0h-90l-24 160h-283l-86 -160h-93l385 696h77zM417 236l-28 195l-20 158h-2l-79 -154l-106 -199h235zM398 714c-48 0 -83 34 -83 79c0 62 49 117 119 117c48 0 83 -36 83 -82c0 -71 -60 -114 -119 -114zM425 867c-35 0 -65 -31 -65 -66c0 -26 18 -44 45 -44 c34 0 67 30 67 66c0 25 -20 44 -47 44z" />
<glyph unicode="&#xe5;" horiz-adv-x="495" d="M277 501c48 0 100 -19 121 -61l3 1l13 54h77l-96 -495h-80l11 54l-3 2c-40 -45 -76 -62 -133 -62c-103 0 -146 75 -146 173c0 139 71 334 233 334zM125 165c0 -42 16 -101 87 -101c119 0 162 164 162 257c0 61 -22 106 -89 106c-125 0 -160 -164 -160 -262zM318 546 c-48 0 -83 34 -83 79c0 62 49 117 119 117c48 0 83 -36 83 -82c0 -71 -60 -114 -119 -114zM345 699c-35 0 -65 -31 -65 -66c0 -26 18 -44 45 -44c34 0 67 30 67 66c0 25 -20 44 -47 44z" />
<glyph unicode="&#x2db;" horiz-adv-x="281" d="M138 -180c-50 0 -81 31 -81 72c0 32 16 64 57 110h58l1 -2c-32 -36 -48 -65 -48 -92c0 -20 15 -32 40 -32c16 0 37 5 60 18l11 -49c-29 -16 -65 -25 -98 -25z" />
<glyph unicode="&#x2d9;" horiz-adv-x="470" d="M335 597h-88l17 88h88z" />
<glyph unicode="&#x2dd;" horiz-adv-x="495" d="M378 551l-49 20l107 177l76 -25zM249 551l-49 20l107 177l76 -25z" />
<glyph unicode="&#xec;" horiz-adv-x="220" d="M110 0h-80l96 495h80zM196 569l-49 -15l-87 184l68 16z" />
<glyph unicode="&#xed;" horiz-adv-x="220" d="M110 0h-80l96 495h80zM195 551l-49 20l107 177l76 -25z" />
<glyph unicode="&#xee;" horiz-adv-x="266" d="M140 0h-80l96 495h80zM337 553l-103 109l-164 -110l-32 38l180 153h53l114 -151z" />
<glyph unicode="&#xef;" horiz-adv-x="268" d="M140 0h-80l96 495h80zM342 597h-87l17 88h87zM165 597h-86l17 88h86z" />
<glyph unicode="&#x100;" horiz-adv-x="586" d="M540 0h-90l-24 160h-283l-86 -160h-93l385 696h77zM417 236l-28 195l-20 158h-2l-79 -154l-106 -199h235zM531 769h-268l15 75h268z" />
<glyph unicode="&#x101;" horiz-adv-x="495" d="M277 501c48 0 100 -19 121 -61l3 1l13 54h77l-96 -495h-80l11 54l-3 2c-40 -45 -76 -62 -133 -62c-103 0 -146 75 -146 173c0 139 71 334 233 334zM125 165c0 -42 16 -101 87 -101c119 0 162 164 162 257c0 61 -22 106 -89 106c-125 0 -160 -164 -160 -262zM451 600h-268 l15 75h268z" />
<glyph unicode="&#x102;" horiz-adv-x="586" d="M540 0h-90l-24 160h-283l-86 -160h-93l385 696h77zM417 236l-28 195l-20 158h-2l-79 -154l-106 -199h235zM275 870h72c-6 -34 13 -63 56 -63c53 0 79 36 84 63h75c-10 -58 -59 -129 -168 -129c-104 0 -128 77 -119 129z" />
<glyph unicode="&#x103;" horiz-adv-x="495" d="M277 501c48 0 100 -19 121 -61l3 1l13 54h77l-96 -495h-80l11 54l-3 2c-40 -45 -76 -62 -133 -62c-103 0 -146 75 -146 173c0 139 71 334 233 334zM125 165c0 -42 16 -101 87 -101c119 0 162 164 162 257c0 61 -22 106 -89 106c-125 0 -160 -164 -160 -262zM204 707h71 c-3 -27 13 -68 61 -68s78 35 84 68h77c-17 -63 -63 -135 -166 -135c-98 0 -135 54 -127 135z" />
<glyph unicode="&#x104;" horiz-adv-x="586" d="M476 -180c-50 0 -81 31 -81 72c0 32 15 63 55 108l-24 160h-283l-86 -160h-93l385 696h77l114 -696h-29c-32 -36 -48 -65 -48 -92c0 -20 15 -32 40 -32c16 0 37 5 60 18l11 -49c-29 -16 -65 -25 -98 -25zM417 236l-28 195l-20 158h-2l-79 -154l-106 -199h235z" />
<glyph unicode="&#x105;" horiz-adv-x="495" d="M340 -180c-50 0 -81 31 -81 72c0 32 15 64 56 109l11 53l-3 2c-40 -45 -76 -62 -133 -62c-103 0 -146 75 -146 173c0 139 71 334 233 334c48 0 100 -19 121 -61l3 1l13 54h77l-96 -495h-20c-32 -36 -48 -65 -48 -92c0 -20 15 -32 40 -32c16 0 37 5 60 18l11 -49 c-29 -16 -65 -25 -98 -25zM125 165c0 -42 16 -101 87 -101c119 0 162 164 162 257c0 61 -22 106 -89 106c-125 0 -160 -164 -160 -262z" />
<glyph unicode="&#x106;" horiz-adv-x="543" d="M360 738l-29 42l172 122l47 -61zM449 182l82 -40c-54 -98 -152 -148 -264 -148c-142 0 -212 93 -212 207c0 20 2 40 6 60l38 190c27 136 111 250 273 250c112 0 191 -59 220 -147l-84 -37c-14 52 -63 104 -137 104c-117 0 -169 -92 -186 -181l-36 -181 c-3 -15 -4 -30 -4 -44c0 -74 25 -137 130 -137c71 0 139 42 174 104z" />
<glyph unicode="&#x107;" horiz-adv-x="422" d="M387 62c-49 -42 -122 -68 -187 -68c-115 0 -170 82 -170 190c0 171 87 317 262 317c58 0 119 -23 156 -69l-60 -58c-25 29 -61 49 -101 49c-122 0 -174 -123 -174 -224c0 -74 23 -124 105 -124c48 0 93 28 121 48zM291 551l-49 20l107 177l76 -25z" />
<glyph unicode="&#x108;" horiz-adv-x="543" d="M449 182l82 -40c-54 -98 -152 -148 -264 -148c-142 0 -212 93 -212 207c0 20 2 40 6 60l38 190c27 136 111 250 273 250c112 0 191 -59 220 -147l-84 -37c-14 52 -63 104 -137 104c-117 0 -169 -92 -186 -181l-36 -181c-3 -15 -4 -30 -4 -44c0 -74 25 -137 130 -137 c71 0 139 42 174 104zM533 742l-117 86l-170 -89l-22 38l176 131h53l118 -129z" />
<glyph unicode="&#x109;" horiz-adv-x="422" d="M387 62c-49 -42 -122 -68 -187 -68c-115 0 -170 82 -170 190c0 171 87 317 262 317c58 0 119 -23 156 -69l-60 -58c-25 29 -61 49 -101 49c-122 0 -174 -123 -174 -224c0 -74 23 -124 105 -124c48 0 93 28 121 48zM422 553l-103 109l-164 -110l-32 38l180 153h53 l114 -151z" />
<glyph unicode="&#x10a;" horiz-adv-x="543" d="M449 182l82 -40c-54 -98 -152 -148 -264 -148c-142 0 -212 93 -212 207c0 20 2 40 6 60l38 190c27 136 111 250 273 250c112 0 191 -59 220 -147l-84 -37c-14 52 -63 104 -137 104c-117 0 -169 -92 -186 -181l-36 -181c-3 -15 -4 -30 -4 -44c0 -74 25 -137 130 -137 c71 0 139 42 174 104zM457 747h-88l17 88h88z" />
<glyph unicode="&#x10b;" horiz-adv-x="422" d="M387 62c-49 -42 -122 -68 -187 -68c-115 0 -170 82 -170 190c0 171 87 317 262 317c58 0 119 -23 156 -69l-60 -58c-25 29 -61 49 -101 49c-122 0 -174 -123 -174 -224c0 -74 23 -124 105 -124c48 0 93 28 121 48zM348 597h-88l17 88h88z" />
<glyph unicode="&#x10c;" horiz-adv-x="543" d="M449 182l82 -40c-54 -98 -152 -148 -264 -148c-142 0 -212 93 -212 207c0 20 2 40 6 60l38 190c27 136 111 250 273 250c112 0 191 -59 220 -147l-84 -37c-14 52 -63 104 -137 104c-117 0 -169 -92 -186 -181l-36 -181c-3 -15 -4 -30 -4 -44c0 -74 25 -137 130 -137 c71 0 139 42 174 104zM282 904l117 -84l172 89l22 -38l-176 -131h-53l-118 129z" />
<glyph unicode="&#x10d;" horiz-adv-x="422" d="M387 62c-49 -42 -122 -68 -187 -68c-115 0 -170 82 -170 190c0 171 87 317 262 317c58 0 119 -23 156 -69l-60 -58c-25 29 -61 49 -101 49c-122 0 -174 -123 -174 -224c0 -74 23 -124 105 -124c48 0 93 28 121 48zM316 633l157 110l32 -39l-172 -151h-53l-120 153l46 38z " />
<glyph unicode="&#x10e;" horiz-adv-x="606" d="M169 696h224c118 0 215 -52 215 -183c0 -120 -48 -325 -81 -381c-63 -107 -152 -132 -248 -132h-245zM375 615h-135l-104 -534h135c131 0 192 78 215 198l26 133c5 26 7 49 7 69c0 100 -57 134 -144 134zM255 904l117 -84l172 89l22 -38l-176 -131h-53l-118 129z" />
<glyph unicode="&#x10f;" horiz-adv-x="601" d="M689 615l-74 -90h-51l56 88h-35l22 111h103zM362 248c13 67 16 177 -81 177c-82 0 -116 -71 -135 -139c-10 -37 -16 -78 -16 -107c0 -64 19 -104 87 -104c99 0 132 105 145 173zM394 0h-80l10 54l-2 1c-38 -42 -90 -61 -136 -61c-110 0 -141 72 -141 162 c0 145 60 345 237 345c40 0 88 -14 117 -52h2l56 278h80z" />
<glyph unicode="&#x110;" horiz-adv-x="606" d="M16 330l12 63h82l59 303h224c118 0 215 -52 215 -183c0 -120 -48 -325 -81 -381c-63 -107 -152 -132 -248 -132h-245l64 330h-82zM375 615h-135l-43 -222h134l-13 -63h-134l-48 -249h135c131 0 192 78 215 198l26 133c5 26 7 49 7 69c0 100 -57 134 -144 134z" />
<glyph unicode="&#x111;" horiz-adv-x="486" d="M347 567l11 57h78l21 103h80l-21 -103h64l-11 -57h-64l-111 -567h-80l10 54l-2 1c-38 -42 -90 -61 -136 -61c-110 0 -141 72 -141 162c0 145 60 345 237 345c40 0 88 -14 117 -52h2l24 118h-78zM362 248c13 67 16 177 -81 177c-82 0 -116 -71 -135 -139 c-10 -37 -16 -78 -16 -107c0 -64 19 -104 87 -104c99 0 132 105 145 173z" />
<glyph unicode="&#x112;" horiz-adv-x="532" d="M486 0h-452l136 696h421l-16 -81h-335l-43 -225h294l-15 -77h-294l-46 -232h365zM525 769h-268l15 75h268z" />
<glyph unicode="&#x113;" horiz-adv-x="470" d="M285 501c108 0 171 -52 171 -135s-58 -166 -290 -166c-14 0 -28 0 -44 1c-2 -15 -2 -23 -2 -28c0 -75 33 -103 98 -103c39 0 99 24 130 46l40 -59c-49 -40 -119 -63 -182 -63c-113 0 -165 63 -165 180c0 150 70 327 244 327zM280 424c-94 0 -130 -74 -145 -151 c16 -1 30 -1 44 -1c170 0 196 55 196 85c0 42 -33 67 -95 67zM431 600h-268l15 75h268z" />
<glyph unicode="&#x114;" horiz-adv-x="532" d="M486 0h-452l136 696h421l-16 -81h-335l-43 -225h294l-15 -77h-294l-46 -232h365zM263 870h72c-6 -34 13 -63 56 -63c53 0 79 36 84 63h75c-10 -58 -59 -129 -168 -129c-104 0 -128 77 -119 129z" />
<glyph unicode="&#x115;" horiz-adv-x="470" d="M285 501c108 0 171 -52 171 -135s-58 -166 -290 -166c-14 0 -28 0 -44 1c-2 -15 -2 -23 -2 -28c0 -75 33 -103 98 -103c39 0 99 24 130 46l40 -59c-49 -40 -119 -63 -182 -63c-113 0 -165 63 -165 180c0 150 70 327 244 327zM280 424c-94 0 -130 -74 -145 -151 c16 -1 30 -1 44 -1c170 0 196 55 196 85c0 42 -33 67 -95 67zM176 707h71c-3 -27 13 -68 61 -68s78 35 84 68h77c-17 -63 -63 -135 -166 -135c-98 0 -135 54 -127 135z" />
<glyph unicode="&#x116;" horiz-adv-x="532" d="M486 0h-452l136 696h421l-16 -81h-335l-43 -225h294l-15 -77h-294l-46 -232h365zM431 762h-88l17 88h88z" />
<glyph unicode="&#x117;" horiz-adv-x="470" d="M285 501c108 0 171 -52 171 -135s-58 -166 -290 -166c-14 0 -28 0 -44 1c-2 -15 -2 -23 -2 -28c0 -75 33 -103 98 -103c39 0 99 24 130 46l40 -59c-49 -40 -119 -63 -182 -63c-113 0 -165 63 -165 180c0 150 70 327 244 327zM280 424c-94 0 -130 -74 -145 -151 c16 -1 30 -1 44 -1c170 0 196 55 196 85c0 42 -33 67 -95 67zM335 597h-88l17 88h88z" />
<glyph unicode="&#x118;" horiz-adv-x="532" d="M431 -180c-50 0 -81 31 -81 72c0 32 15 63 55 108h-371l136 696h421l-16 -81h-335l-43 -225h294l-15 -77h-294l-46 -232h365l-15 -81h-20c-32 -36 -48 -65 -48 -92c0 -20 15 -32 40 -32c16 0 37 5 60 18l11 -49c-29 -16 -65 -25 -98 -25z" />
<glyph unicode="&#x119;" horiz-adv-x="470" d="M306 -153c-50 0 -81 31 -81 72c0 25 9 49 32 80c-17 -3 -35 -5 -51 -5c-113 0 -165 63 -165 180c0 150 70 327 244 327c108 0 171 -52 171 -135s-58 -166 -290 -166c-14 0 -28 0 -44 1c-2 -15 -2 -23 -2 -28c0 -75 33 -103 98 -103c39 0 99 24 130 46l40 -59 c-14 -12 -30 -22 -47 -30c-32 -36 -48 -65 -48 -92c0 -20 15 -32 40 -32c16 0 37 5 60 18l11 -49c-29 -16 -65 -25 -98 -25zM280 424c-94 0 -130 -74 -145 -151c16 -1 30 -1 44 -1c170 0 196 55 196 85c0 42 -33 67 -95 67z" />
<glyph unicode="&#x11a;" horiz-adv-x="532" d="M486 0h-452l136 696h421l-16 -81h-335l-43 -225h294l-15 -77h-294l-46 -232h365zM258 904l117 -84l172 89l22 -38l-176 -131h-53l-118 129z" />
<glyph unicode="&#x11b;" horiz-adv-x="470" d="M285 501c108 0 171 -52 171 -135s-58 -166 -290 -166c-14 0 -28 0 -44 1c-2 -15 -2 -23 -2 -28c0 -75 33 -103 98 -103c39 0 99 24 130 46l40 -59c-49 -40 -119 -63 -182 -63c-113 0 -165 63 -165 180c0 150 70 327 244 327zM280 424c-94 0 -130 -74 -145 -151 c16 -1 30 -1 44 -1c170 0 196 55 196 85c0 42 -33 67 -95 67zM303 633l157 110l32 -39l-172 -151h-53l-120 153l46 38z" />
<glyph unicode="&#x11c;" horiz-adv-x="586" d="M376 701c112 0 181 -53 214 -147l-86 -37c-12 57 -65 99 -126 99c-121 0 -178 -87 -195 -176l-35 -181c-3 -18 -5 -35 -5 -52c0 -72 33 -132 120 -132c95 0 173 72 193 169l10 49h-144l15 80h233l-27 -135c-28 -141 -138 -244 -286 -244c-140 0 -204 89 -204 201 c0 22 3 44 7 66l38 190c27 136 112 250 278 250zM518 742l-117 86l-170 -89l-22 38l176 131h53l118 -129z" />
<glyph unicode="&#x11d;" horiz-adv-x="501" d="M163 -207c-53 0 -120 23 -155 64l51 60c33 -26 66 -47 109 -47c115 0 138 93 156 186h-2c-41 -43 -90 -61 -144 -61c-103 0 -134 72 -134 162c0 143 56 345 232 345c49 0 94 -18 121 -61h2l11 55h80l-94 -496c-25 -132 -87 -207 -233 -207zM127 163c0 -60 24 -98 88 -98 c117 0 158 167 158 260c0 58 -26 100 -90 100c-124 0 -156 -165 -156 -262zM435 553l-103 109l-164 -110l-32 38l180 153h53l114 -151z" />
<glyph unicode="&#x11e;" horiz-adv-x="586" d="M376 701c112 0 181 -53 214 -147l-86 -37c-12 57 -65 99 -126 99c-121 0 -178 -87 -195 -176l-35 -181c-3 -18 -5 -35 -5 -52c0 -72 33 -132 120 -132c95 0 173 72 193 169l10 49h-144l15 80h233l-27 -135c-28 -141 -138 -244 -286 -244c-140 0 -204 89 -204 201 c0 22 3 44 7 66l38 190c27 136 112 250 278 250zM270 870h72c-6 -34 13 -63 56 -63c53 0 79 36 84 63h75c-10 -58 -59 -129 -168 -129c-104 0 -128 77 -119 129z" />
<glyph unicode="&#x11f;" horiz-adv-x="501" d="M163 -207c-53 0 -120 23 -155 64l51 60c33 -26 66 -47 109 -47c115 0 138 93 156 186h-2c-41 -43 -90 -61 -144 -61c-103 0 -134 72 -134 162c0 143 56 345 232 345c49 0 94 -18 121 -61h2l11 55h80l-94 -496c-25 -132 -87 -207 -233 -207zM127 163c0 -60 24 -98 88 -98 c117 0 158 167 158 260c0 58 -26 100 -90 100c-124 0 -156 -165 -156 -262zM188 707h71c-3 -27 13 -68 61 -68s78 35 84 68h77c-17 -63 -63 -135 -166 -135c-98 0 -135 54 -127 135z" />
<glyph unicode="&#x120;" horiz-adv-x="586" d="M376 701c112 0 181 -53 214 -147l-86 -37c-12 57 -65 99 -126 99c-121 0 -178 -87 -195 -176l-35 -181c-3 -18 -5 -35 -5 -52c0 -72 33 -132 120 -132c95 0 173 72 193 169l10 49h-144l15 80h233l-27 -135c-28 -141 -138 -244 -286 -244c-140 0 -204 89 -204 201 c0 22 3 44 7 66l38 190c27 136 112 250 278 250zM425 747h-88l17 88h88z" />
<glyph unicode="&#x121;" horiz-adv-x="501" d="M163 -207c-53 0 -120 23 -155 64l51 60c33 -26 66 -47 109 -47c115 0 138 93 156 186h-2c-41 -43 -90 -61 -144 -61c-103 0 -134 72 -134 162c0 143 56 345 232 345c49 0 94 -18 121 -61h2l11 55h80l-94 -496c-25 -132 -87 -207 -233 -207zM127 163c0 -60 24 -98 88 -98 c117 0 158 167 158 260c0 58 -26 100 -90 100c-124 0 -156 -165 -156 -262zM365 597h-88l17 88h88z" />
<glyph unicode="&#x122;" horiz-adv-x="586" d="M376 701c112 0 181 -53 214 -147l-86 -37c-12 57 -65 99 -126 99c-121 0 -178 -87 -195 -176l-35 -181c-3 -18 -5 -35 -5 -52c0 -72 33 -132 120 -132c95 0 173 72 193 169l10 49h-144l15 80h233l-27 -135c-28 -141 -138 -244 -286 -244c-140 0 -204 89 -204 201 c0 22 3 44 7 66l38 190c27 136 112 250 278 250zM275 -167l-74 -90h-51l56 88h-35l22 111h103z" />
<glyph unicode="&#x123;" horiz-adv-x="501" d="M283 680l74 90h51l-56 -88h35l-22 -111h-103zM163 -207c-53 0 -120 23 -155 64l51 60c33 -26 66 -47 109 -47c115 0 138 93 156 186h-2c-41 -43 -90 -61 -144 -61c-103 0 -134 72 -134 162c0 143 56 345 232 345c49 0 94 -18 121 -61h2l11 55h80l-94 -496 c-25 -132 -87 -207 -233 -207zM127 163c0 -60 24 -98 88 -98c117 0 158 167 158 260c0 58 -26 100 -90 100c-124 0 -156 -165 -156 -262z" />
<glyph unicode="&#x124;" horiz-adv-x="623" d="M509 0h-86l60 313h-301l-61 -313h-87l136 696h86l-59 -306h301l60 306h86zM552 742l-117 86l-170 -89l-22 38l176 131h53l118 -129z" />
<glyph unicode="&#x125;" horiz-adv-x="518" d="M412 0h-81l58 297c13 65 -1 123 -78 123c-64 0 -131 -47 -146 -123l-58 -297h-80l140 727h80l-56 -293h3c42 43 97 67 149 67c83 0 154 -58 130 -184zM346 742l-117 86l-170 -89l-22 38l176 131h53l118 -129z" />
<glyph unicode="&#x126;" horiz-adv-x="623" d="M509 0h-86l60 313h-301l-61 -313h-87l104 535h-58l11 60h59l20 101h86l-20 -101h302l20 101h86l-20 -101h52l-11 -60h-52zM197 390h301l28 145h-301z" />
<glyph unicode="&#x127;" horiz-adv-x="518" d="M412 0h-81l58 297c13 65 -1 123 -78 123c-64 0 -131 -47 -146 -123l-58 -297h-80l112 583h-75l12 62h75l16 82h80l-16 -82h213l-13 -62h-212l-28 -149h3c42 43 97 67 149 67c83 0 154 -58 130 -184z" />
<glyph unicode="&#x128;" horiz-adv-x="236" d="M121 0h-87l136 696h86zM163 859c48 0 101 -47 136 -47c20 0 37 13 64 45l46 -29c-34 -66 -76 -89 -118 -89c-48 0 -100 45 -139 45c-23 0 -35 -10 -66 -40l-43 26c37 64 80 89 120 89z" />
<glyph unicode="&#x129;" horiz-adv-x="308" d="M170 0h-80l96 495h80zM177 699c48 0 101 -47 136 -47c20 0 37 13 64 45l46 -29c-34 -66 -76 -89 -118 -89c-48 0 -100 45 -139 45c-23 0 -35 -10 -66 -40l-43 26c37 64 80 89 120 89z" />
<glyph unicode="&#x12a;" horiz-adv-x="236" d="M121 0h-87l136 696h86zM355 769h-268l15 75h268z" />
<glyph unicode="&#x12b;" horiz-adv-x="238" d="M120 0h-80l96 495h80zM339 600h-268l15 75h268z" />
<glyph unicode="&#x12c;" horiz-adv-x="271" d="M113 870h72c-6 -34 13 -63 56 -63c53 0 79 36 84 63h75c-10 -58 -59 -129 -168 -129c-104 0 -128 77 -119 129zM137 0h-87l136 696h86z" />
<glyph unicode="&#x12d;" horiz-adv-x="258" d="M148 0h-80l96 495h80zM86 713h71c-3 -27 13 -68 61 -68s78 35 84 68h77c-17 -63 -63 -135 -166 -135c-98 0 -135 54 -127 135z" />
<glyph unicode="&#x12e;" horiz-adv-x="236" d="M73 -180c-50 0 -81 31 -81 72c0 32 15 63 55 108h-13l136 696h86l-135 -696h-13c-32 -36 -48 -65 -48 -92c0 -20 15 -32 40 -32c16 0 37 5 60 18l11 -49c-29 -16 -65 -25 -98 -25z" />
<glyph unicode="&#x12f;" horiz-adv-x="220" d="M66 -179c-50 0 -81 31 -81 72c0 32 15 63 54 107h-9l96 495h80l-96 -495h-10c-32 -35 -47 -64 -47 -91c0 -20 15 -32 40 -32c16 0 37 5 60 18l11 -49c-29 -16 -65 -25 -98 -25zM229 614h-80l16 82h80z" />
<glyph unicode="&#x130;" horiz-adv-x="236" d="M121 0h-87l136 696h86zM265 747h-88l17 88h88z" />
<glyph unicode="&#x131;" horiz-adv-x="220" d="M110 0h-80l96 495h80z" />
<glyph unicode="&#x132;" horiz-adv-x="667" d="M122 0h-87l136 696h86zM695 696l-94 -484c-33 -172 -114 -218 -234 -218c-68 0 -133 29 -161 72l61 58c26 -30 66 -50 99 -50c74 0 128 30 153 157l90 465h86z" />
<glyph unicode="&#x133;" horiz-adv-x="452" d="M229 614h-80l16 82h80zM110 0h-80l96 495h80zM454 614h-81l16 82h81zM431 495l-109 -562c-16 -80 -55 -135 -145 -135h-49l14 77h30c36 0 62 23 70 64l108 556h81z" />
<glyph unicode="&#x134;" horiz-adv-x="458" d="M486 697l-94 -484c-33 -172 -114 -218 -234 -218c-68 0 -133 29 -161 72l61 58c26 -30 66 -50 99 -50c74 0 128 30 153 157l90 465h86zM589 744l-117 86l-170 -89l-22 38l176 131h53l118 -129z" />
<glyph unicode="&#x135;" horiz-adv-x="287" d="M241 495l-109 -562c-16 -80 -73 -135 -155 -135h-39l14 75c4 0 28 -1 30 1c36 1 62 24 70 65l108 556h81zM341 553l-103 109l-164 -110l-32 38l180 153h53l114 -151z" />
<glyph unicode="&#x136;" horiz-adv-x="606" d="M557 0h-96l-133 358l-171 -168l-36 -190h-87l136 696h86l-72 -376l3 1l156 161l217 214h105l-270 -270zM321 -153l-74 -90h-51l56 88h-35l22 111h103z" />
<glyph unicode="&#x137;" horiz-adv-x="496" d="M448 0h-89l-112 248l-113 -107l-27 -141h-80l141 727h80l-91 -472l3 1l253 239h98l-202 -195zM247 -167l-74 -90h-51l56 88h-35l22 111h103z" />
<glyph unicode="&#x138;" horiz-adv-x="490" d="M447 0h-91l-109 247l-113 -106l-27 -141h-80l96 495h80l-46 -231l3 1l248 230h103l-204 -193z" />
<glyph unicode="&#x139;" horiz-adv-x="532" d="M209 738l-29 42l172 122l47 -61zM466 0h-432l136 696h86l-120 -615h345z" />
<glyph unicode="&#x13a;" horiz-adv-x="238" d="M199 748l-29 42l172 122l47 -61zM180 0h-34c-70 0 -115 40 -98 125l120 602h80l-117 -597c-6 -30 7 -55 41 -55h23z" />
<glyph unicode="&#x13b;" horiz-adv-x="532" d="M466 0h-432l136 696h86l-120 -615h345zM283 -167l-74 -90h-51l56 88h-35l22 111h103z" />
<glyph unicode="&#x13c;" horiz-adv-x="238" d="M180 0h-34c-70 0 -115 40 -98 125l120 602h80l-117 -597c-6 -30 7 -55 41 -55h23zM140 -167l-74 -90h-51l56 88h-35l22 111h103z" />
<glyph unicode="&#x13d;" horiz-adv-x="532" d="M466 0h-432l136 696h86l-120 -615h345zM444 587l-74 -90h-51l56 88h-35l22 111h103z" />
<glyph unicode="&#x13e;" horiz-adv-x="313" d="M403 619l-74 -90h-51l56 88h-35l22 111h103zM180 0h-34c-70 0 -115 40 -98 125l120 602h80l-117 -597c-6 -30 7 -55 41 -55h23z" />
<glyph unicode="&#x13f;" horiz-adv-x="532" d="M466 0h-432l136 696h86l-120 -615h345zM441 311h-88l17 88h88z" />
<glyph unicode="&#x140;" horiz-adv-x="287" d="M321 338h-88l17 88h88zM180 0h-34c-70 0 -115 40 -98 125l120 602h80l-117 -597c-6 -30 7 -55 41 -55h23z" />
<glyph unicode="&#x141;" horiz-adv-x="565" d="M499 0h-432l47 244l-93 -49l-21 58l129 68l74 375h86l-64 -325l142 74l22 -58l-179 -93l-41 -213h345z" />
<glyph unicode="&#x142;" horiz-adv-x="238" d="M180 0h-34c-70 0 -115 40 -98 125l33 164l-69 -35l-20 58l104 54l72 361h80l-62 -315l94 49l21 -58l-130 -67l-40 -206c-6 -30 7 -55 41 -55h23z" />
<glyph unicode="&#x143;" horiz-adv-x="660" d="M419 738l-29 42l172 122l47 -61zM547 0h-84l-173 398l-61 152l-3 -1l-105 -549h-87l136 696h85l166 -384l67 -164l3 -1l106 549h85z" />
<glyph unicode="&#x144;" horiz-adv-x="514" d="M409 0h-81l58 297c13 65 8 127 -81 127c-64 0 -128 -54 -142 -127l-58 -297h-81l96 495h81l-11 -59h3c40 43 102 65 154 65c90 0 147 -61 126 -171zM308 551l-49 20l107 177l76 -25z" />
<glyph unicode="&#x145;" horiz-adv-x="660" d="M547 0h-84l-173 398l-61 152l-3 -1l-105 -549h-87l136 696h85l166 -384l67 -164l3 -1l106 549h85zM333 -147l-74 -90h-51l56 88h-35l22 111h103z" />
<glyph unicode="&#x146;" horiz-adv-x="514" d="M409 0h-81l58 297c13 65 8 127 -81 127c-64 0 -128 -54 -142 -127l-58 -297h-81l96 495h81l-11 -59h3c40 43 102 65 154 65c90 0 147 -61 126 -171zM243 -167l-74 -90h-51l56 88h-35l22 111h103z" />
<glyph unicode="&#x147;" horiz-adv-x="660" d="M547 0h-84l-173 398l-61 152l-3 -1l-105 -549h-87l136 696h85l166 -384l67 -164l3 -1l106 549h85zM322 904l117 -84l172 89l22 -38l-176 -131h-53l-118 129z" />
<glyph unicode="&#x148;" horiz-adv-x="514" d="M409 0h-81l58 297c13 65 8 127 -81 127c-64 0 -128 -54 -142 -127l-58 -297h-81l96 495h81l-11 -59h3c40 43 102 65 154 65c90 0 147 -61 126 -171zM311 633l157 110l32 -39l-172 -151h-53l-120 153l46 38z" />
<glyph unicode="&#x149;" horiz-adv-x="598" d="M493 0h-81l58 297c13 65 8 127 -81 127c-64 0 -128 -54 -142 -127l-58 -297h-81l96 495h81l-11 -59h3c40 43 102 65 154 65c90 0 147 -61 126 -171zM180 560l-74 -90h-51l56 88h-35l22 111h103z" />
<glyph unicode="&#x14a;" horiz-adv-x="660" d="M683 696l-149 -768c-15 -75 -54 -106 -110 -106c-27 0 -62 7 -89 21l28 59c21 -6 38 -11 51 -11c22 0 36 15 41 41l12 63l-176 403l-61 152l-3 -1l-105 -549h-87l136 696h85l166 -384l67 -164l3 -1l106 549h85z" />
<glyph unicode="&#x14b;" horiz-adv-x="504" d="M473 330l-79 -402c-15 -75 -54 -106 -110 -106c-27 0 -62 7 -89 21l28 59c21 -6 36 -11 49 -11c22 0 36 15 41 41l73 365c13 65 6 124 -88 124c-64 0 -121 -51 -135 -124l-58 -297h-81l96 495h81l-11 -59h3c40 43 95 65 147 65c83 0 154 -61 133 -171z" />
<glyph unicode="&#x14c;" horiz-adv-x="579" d="M366 701c131 0 223 -85 223 -204c0 -64 -26 -166 -42 -245c-33 -155 -123 -258 -283 -258c-157 0 -218 92 -218 206c0 65 27 174 44 249c32 142 105 252 276 252zM360 622c-124 0 -172 -96 -188 -180l-36 -185c-18 -97 5 -185 135 -185c107 0 167 81 191 185 c17 72 40 166 40 225c0 82 -50 140 -142 140zM535 769h-268l15 75h268z" />
<glyph unicode="&#x14d;" horiz-adv-x="495" d="M287 500c106 0 175 -69 175 -175c0 -153 -59 -331 -239 -331c-116 0 -181 61 -181 170c0 177 78 336 245 336zM278 427c-119 0 -156 -156 -156 -256c0 -40 17 -103 99 -103c119 0 159 136 159 252c0 73 -43 107 -102 107zM451 600h-268l15 75h268z" />
<glyph unicode="&#x14e;" horiz-adv-x="579" d="M366 701c131 0 223 -85 223 -204c0 -64 -26 -166 -42 -245c-33 -155 -123 -258 -283 -258c-157 0 -218 92 -218 206c0 65 27 174 44 249c32 142 105 252 276 252zM360 622c-124 0 -172 -96 -188 -180l-36 -185c-18 -97 5 -185 135 -185c107 0 167 81 191 185 c17 72 40 166 40 225c0 82 -50 140 -142 140zM269 870h72c-6 -34 13 -63 56 -63c53 0 79 36 84 63h75c-10 -58 -59 -129 -168 -129c-104 0 -128 77 -119 129z" />
<glyph unicode="&#x14f;" horiz-adv-x="495" d="M287 500c106 0 175 -69 175 -175c0 -153 -59 -331 -239 -331c-116 0 -181 61 -181 170c0 177 78 336 245 336zM278 427c-119 0 -156 -156 -156 -256c0 -40 17 -103 99 -103c119 0 159 136 159 252c0 73 -43 107 -102 107zM194 707h71c-3 -27 13 -68 61 -68s78 35 84 68 h77c-17 -63 -63 -135 -166 -135c-98 0 -135 54 -127 135z" />
<glyph unicode="&#x150;" horiz-adv-x="579" d="M366 701c131 0 223 -85 223 -204c0 -64 -26 -166 -42 -245c-33 -155 -123 -258 -283 -258c-157 0 -218 92 -218 206c0 65 27 174 44 249c32 142 105 252 276 252zM360 622c-124 0 -172 -96 -188 -180l-36 -185c-18 -97 5 -185 135 -185c107 0 167 81 191 185 c17 72 40 166 40 225c0 82 -50 140 -142 140zM293 738l-37 42l148 122l59 -61zM448 738l-29 42l172 122l47 -61z" />
<glyph unicode="&#x151;" horiz-adv-x="495" d="M287 500c106 0 175 -69 175 -175c0 -153 -59 -331 -239 -331c-116 0 -181 61 -181 170c0 177 78 336 245 336zM278 427c-119 0 -156 -156 -156 -256c0 -40 17 -103 99 -103c119 0 159 136 159 252c0 73 -43 107 -102 107zM375 551l-49 20l107 177l76 -25zM246 551l-49 20 l107 177l76 -25z" />
<glyph unicode="&#x154;" horiz-adv-x="586" d="M349 738l-29 42l172 122l47 -61zM522 0h-96l-91 306h-155l-59 -306h-87l136 696h271c111 0 180 -76 167 -190c-12 -107 -85 -169 -184 -191zM522 506c9 79 -40 113 -115 113h-166l-46 -236h173c74 0 145 42 154 123z" />
<glyph unicode="&#x155;" horiz-adv-x="363" d="M413 482l-44 -81c-18 13 -50 19 -67 19c-65 0 -122 -46 -137 -125l-58 -295h-81l96 495h82l-14 -67h4c38 56 95 74 150 73c32 -1 58 -10 69 -19zM242 551l-49 20l107 177l76 -25z" />
<glyph unicode="&#x156;" horiz-adv-x="586" d="M522 0h-96l-91 306h-155l-59 -306h-87l136 696h271c111 0 180 -76 167 -190c-12 -107 -85 -169 -184 -191zM522 506c9 79 -40 113 -115 113h-166l-46 -236h173c74 0 145 42 154 123zM304 -147l-74 -90h-51l56 88h-35l22 111h103z" />
<glyph unicode="&#x157;" horiz-adv-x="363" d="M413 482l-44 -81c-18 13 -50 19 -67 19c-65 0 -122 -46 -137 -125l-58 -295h-81l96 495h82l-14 -67h4c38 56 95 74 150 73c32 -1 58 -10 69 -19zM93 -167l-74 -90h-51l56 88h-35l22 111h103z" />
<glyph unicode="&#x158;" horiz-adv-x="586" d="M522 0h-96l-91 306h-155l-59 -306h-87l136 696h271c111 0 180 -76 167 -190c-12 -107 -85 -169 -184 -191zM522 506c9 79 -40 113 -115 113h-166l-46 -236h173c74 0 145 42 154 123zM244 904l117 -84l172 89l22 -38l-176 -131h-53l-118 129z" />
<glyph unicode="&#x159;" horiz-adv-x="363" d="M413 482l-44 -81c-18 13 -50 19 -67 19c-65 0 -122 -46 -137 -125l-58 -295h-81l96 495h82l-14 -67h4c38 56 95 74 150 73c32 -1 58 -10 69 -19zM249 633l157 110l32 -39l-172 -151h-53l-120 153l46 38z" />
<glyph unicode="&#x15a;" horiz-adv-x="534" d="M339 738l-29 42l172 122l47 -61zM353 702c75 0 150 -22 202 -59l-52 -73c-42 30 -101 48 -160 48c-61 0 -151 -32 -151 -119c0 -66 81 -91 111 -99c101 -27 208 -65 208 -191c0 -142 -129 -215 -272 -215c-94 0 -182 31 -236 88l57 63c44 -41 109 -67 181 -67 c90 0 175 41 175 124c0 68 -62 96 -121 111c-88 22 -190 55 -190 170c0 130 98 219 248 219z" />
<glyph unicode="&#x15b;" horiz-adv-x="439" d="M194 -6c-67 0 -153 25 -201 76l53 62c35 -42 96 -62 149 -62c69 0 120 22 120 70c0 47 -36 62 -81 74c-70 18 -160 27 -160 135c0 112 99 152 196 152c57 0 118 -14 161 -56l-50 -64c-36 29 -74 44 -119 44c-49 0 -105 -17 -105 -76c0 -42 49 -51 103 -64 c66 -16 138 -37 138 -131c0 -116 -101 -160 -204 -160zM288 551l-49 20l107 177l76 -25z" />
<glyph unicode="&#x15c;" horiz-adv-x="534" d="M353 702c75 0 150 -22 202 -59l-52 -73c-42 30 -101 48 -160 48c-61 0 -151 -32 -151 -119c0 -66 81 -91 111 -99c101 -27 208 -65 208 -191c0 -142 -129 -215 -272 -215c-94 0 -182 31 -236 88l57 63c44 -41 109 -67 181 -67c90 0 175 41 175 124c0 68 -62 96 -121 111 c-88 22 -190 55 -190 170c0 130 98 219 248 219zM506 742l-117 86l-170 -89l-22 38l176 131h53l118 -129z" />
<glyph unicode="&#x15d;" horiz-adv-x="439" d="M194 -6c-67 0 -153 25 -201 76l53 62c35 -42 96 -62 149 -62c69 0 120 22 120 70c0 47 -36 62 -81 74c-70 18 -160 27 -160 135c0 112 99 152 196 152c57 0 118 -14 161 -56l-50 -64c-36 29 -74 44 -119 44c-49 0 -105 -17 -105 -76c0 -42 49 -51 103 -64 c66 -16 138 -37 138 -131c0 -116 -101 -160 -204 -160zM412 553l-103 109l-164 -110l-32 38l180 153h53l114 -151z" />
<glyph unicode="&#x15e;" horiz-adv-x="534" d="M353 702c75 0 150 -22 202 -59l-52 -73c-42 30 -101 48 -160 48c-61 0 -151 -32 -151 -119c0 -66 81 -91 111 -99c101 -27 208 -65 208 -191c0 -136 -118 -208 -253 -214l-15 -34c68 -4 89 -42 89 -73c0 -46 -39 -98 -124 -98c-13 0 -62 0 -95 16l20 46 c26 -12 58 -15 77 -15c25 0 58 13 58 42c0 26 -19 42 -54 42h-12l-17 16l27 58c-84 5 -160 35 -209 87l57 63c44 -41 109 -67 181 -67c90 0 175 41 175 124c0 68 -62 96 -121 111c-88 22 -190 55 -190 170c0 130 98 219 248 219z" />
<glyph unicode="&#x15f;" horiz-adv-x="439" d="M398 154c0 -108 -88 -154 -183 -159l-16 -34c68 -4 89 -42 89 -73c0 -46 -39 -98 -124 -98c-13 0 -62 0 -95 16l20 46c26 -12 58 -15 77 -15c25 0 58 13 58 42c0 26 -19 42 -54 42h-12l-17 16l27 58c-62 5 -133 30 -175 75l53 62c35 -42 96 -62 149 -62 c69 0 120 22 120 70c0 47 -36 62 -81 74c-70 18 -160 27 -160 135c0 112 99 152 196 152c57 0 118 -14 161 -56l-50 -64c-36 29 -74 44 -119 44c-49 0 -105 -17 -105 -76c0 -42 49 -51 103 -64c66 -16 138 -37 138 -131z" />
<glyph unicode="&#x162;" horiz-adv-x="476" d="M556 619h-194l-121 -619h-22l-23 -50c68 -4 89 -42 89 -73c0 -46 -39 -98 -124 -98c-13 0 -62 0 -95 16l20 46c26 -12 58 -15 77 -15c25 0 58 13 58 42c0 26 -19 42 -54 42h-12l-17 16l35 74h-18l120 619h-194l15 77h475z" />
<glyph unicode="&#x163;" horiz-adv-x="274" d="M210 0h-57c-9 0 -16 0 -24 2l-19 -42c68 -4 89 -42 89 -73c0 -46 -39 -98 -124 -98c-13 0 -62 0 -95 16l20 46c26 -12 58 -15 77 -15c25 0 58 13 58 42c0 26 -19 42 -54 42h-12l-17 16l39 81c-26 19 -38 52 -28 99l60 307h-59l14 72h59l24 124h80l-24 -124h75l-14 -72 h-75l-56 -287c-6 -31 -4 -62 36 -62h42z" />
<glyph unicode="&#x164;" horiz-adv-x="476" d="M556 619h-194l-121 -619h-86l120 619h-194l15 77h475zM229 904l117 -84l172 89l22 -38l-176 -131h-53l-118 129z" />
<glyph unicode="&#x165;" horiz-adv-x="326" d="M420 642l-74 -90h-51l56 88h-35l22 111h103zM212 0h-57c-65 0 -105 41 -90 116l60 307h-59l14 72h59l24 124h80l-24 -124h75l-14 -72h-75l-56 -287c-6 -31 -4 -62 36 -62h42z" />
<glyph unicode="&#x166;" horiz-adv-x="476" d="M556 619h-194l-43 -216h144l-13 -70h-144l-65 -333h-86l64 333h-147l13 70h148l42 216h-194l15 77h475z" />
<glyph unicode="&#x167;" horiz-adv-x="274" d="M210 0h-57c-65 0 -105 41 -90 116l25 128h-70l13 67h70l22 112h-59l14 72h59l24 124h80l-24 -124h75l-14 -72h-75l-22 -112h67l-13 -67h-67l-21 -108c-6 -31 -4 -62 36 -62h42z" />
<glyph unicode="&#x168;" horiz-adv-x="606" d="M549 232c-28 -143 -119 -238 -277 -238c-135 0 -232 98 -203 248l88 454h86l-86 -442c-20 -104 15 -179 121 -179c95 0 167 64 187 169l88 452h86zM348 859c48 0 101 -47 136 -47c20 0 37 13 64 45l46 -29c-34 -66 -76 -89 -118 -89c-48 0 -100 45 -139 45 c-23 0 -35 -10 -66 -40l-43 26c37 64 80 89 120 89z" />
<glyph unicode="&#x169;" horiz-adv-x="518" d="M411 0h-81l11 56h-3c-40 -43 -95 -62 -145 -62c-98 0 -157 61 -135 171l64 330h80l-57 -297c-15 -76 -5 -126 88 -126c63 0 121 50 136 126l58 297h80zM274 699c48 0 101 -47 136 -47c20 0 37 13 64 45l46 -29c-34 -66 -76 -89 -118 -89c-48 0 -100 45 -139 45 c-23 0 -35 -10 -66 -40l-43 26c37 64 80 89 120 89z" />
<glyph unicode="&#x16a;" horiz-adv-x="606" d="M549 232c-28 -143 -119 -238 -277 -238c-135 0 -232 98 -203 248l88 454h86l-86 -442c-20 -104 15 -179 121 -179c95 0 167 64 187 169l88 452h86zM531 769h-268l15 75h268z" />
<glyph unicode="&#x16b;" horiz-adv-x="518" d="M411 0h-81l11 56h-3c-40 -43 -95 -62 -145 -62c-98 0 -157 61 -135 171l64 330h80l-57 -297c-15 -76 -5 -126 88 -126c63 0 121 50 136 126l58 297h80zM451 600h-268l15 75h268z" />
<glyph unicode="&#x16c;" horiz-adv-x="606" d="M549 232c-28 -143 -119 -238 -277 -238c-135 0 -232 98 -203 248l88 454h86l-86 -442c-20 -104 15 -179 121 -179c95 0 167 64 187 169l88 452h86zM279 857h71c-3 -27 13 -68 61 -68s78 35 84 68h77c-17 -63 -63 -135 -166 -135c-98 0 -135 54 -127 135z" />
<glyph unicode="&#x16d;" horiz-adv-x="518" d="M411 0h-81l11 56h-3c-40 -43 -95 -62 -145 -62c-98 0 -157 61 -135 171l64 330h80l-57 -297c-15 -76 -5 -126 88 -126c63 0 121 50 136 126l58 297h80zM198 707h71c-3 -27 13 -68 61 -68s78 35 84 68h77c-17 -63 -63 -135 -166 -135c-98 0 -135 54 -127 135z" />
<glyph unicode="&#x16e;" horiz-adv-x="606" d="M549 232c-28 -143 -119 -238 -277 -238c-135 0 -232 98 -203 248l88 454h86l-86 -442c-20 -104 15 -179 121 -179c95 0 167 64 187 169l88 452h86zM392 708c-48 0 -83 34 -83 79c0 62 49 117 119 117c48 0 83 -36 83 -82c0 -71 -60 -114 -119 -114zM419 861 c-35 0 -65 -31 -65 -66c0 -26 18 -44 45 -44c34 0 67 30 67 66c0 25 -20 44 -47 44z" />
<glyph unicode="&#x16f;" horiz-adv-x="518" d="M411 0h-81l11 56h-3c-40 -43 -95 -62 -145 -62c-98 0 -157 61 -135 171l64 330h80l-57 -297c-15 -76 -5 -126 88 -126c63 0 121 50 136 126l58 297h80zM321 546c-48 0 -83 34 -83 79c0 62 49 117 119 117c48 0 83 -36 83 -82c0 -71 -60 -114 -119 -114zM348 699 c-35 0 -65 -31 -65 -66c0 -26 18 -44 45 -44c34 0 67 30 67 66c0 25 -20 44 -47 44z" />
<glyph unicode="&#x170;" horiz-adv-x="606" d="M549 232c-28 -143 -119 -238 -277 -238c-135 0 -232 98 -203 248l88 454h86l-86 -442c-20 -104 15 -179 121 -179c95 0 167 64 187 169l88 452h86zM312 738l-37 42l148 122l59 -61zM467 738l-29 42l172 122l47 -61z" />
<glyph unicode="&#x171;" horiz-adv-x="518" d="M411 0h-81l11 56h-3c-40 -43 -95 -62 -145 -62c-98 0 -157 61 -135 171l64 330h80l-57 -297c-15 -76 -5 -126 88 -126c63 0 121 50 136 126l58 297h80zM412 551l-49 20l107 177l76 -25zM283 551l-49 20l107 177l76 -25z" />
<glyph unicode="&#x172;" horiz-adv-x="606" d="M271 -178c-50 0 -81 31 -81 72c0 30 14 61 49 102c-117 14 -197 108 -170 246l88 454h86l-86 -442c-20 -104 15 -179 121 -179c95 0 167 64 187 169l88 452h86l-90 -464c-27 -135 -109 -227 -250 -237c-28 -32 -41 -60 -41 -85c0 -20 15 -32 40 -32c16 0 37 5 60 18 l11 -49c-29 -16 -65 -25 -98 -25z" />
<glyph unicode="&#x173;" horiz-adv-x="518" d="M355 -179c-50 0 -81 31 -81 72c0 32 16 64 56 109l11 54h-3c-40 -43 -95 -62 -145 -62c-98 0 -157 61 -135 171l64 330h80l-57 -297c-15 -76 -5 -126 88 -126c63 0 121 50 136 126l58 297h80l-96 -495h-22c-32 -35 -47 -64 -47 -91c0 -20 15 -32 40 -32c16 0 37 5 60 18 l11 -49c-29 -16 -65 -25 -98 -25z" />
<glyph unicode="&#x174;" horiz-adv-x="807" d="M466 535h-3c-25 -58 -53 -119 -79 -177l-164 -358h-76l-36 696h87l19 -519h4c26 58 52 119 78 176l160 343h78l28 -350c5 -57 8 -113 13 -170h4l68 169l146 351h92l-306 -696h-76l-25 347zM650 742l-117 86l-170 -89l-22 38l176 131h53l118 -129z" />
<glyph unicode="&#x175;" horiz-adv-x="705" d="M369 395h-5c-62 -155 -113 -258 -190 -395h-76l-58 496h82l22 -267c3 -37 6 -79 7 -123h4c65 121 116 241 181 390h91l28 -262c4 -39 8 -66 10 -119h3c68 125 125 251 179 381h84c-79 -191 -151 -327 -254 -496h-75l-24 234c-3 33 -9 101 -9 161zM528 553l-103 109 l-164 -110l-32 38l180 153h53l114 -151z" />
<glyph unicode="&#x176;" horiz-adv-x="498" d="M589 696l-286 -421l-54 -275h-82l54 275l-124 421h86l58 -201l34 -130l91 139l129 192h94zM492 742l-117 86l-170 -89l-22 38l176 131h53l118 -129z" />
<glyph unicode="&#x177;" horiz-adv-x="413" d="M373 495h83c-75 -209 -151 -383 -230 -513c-60 -96 -136 -180 -278 -186l-2 70c69 6 129 34 184 111l-81 518h86l29 -226c8 -60 19 -144 19 -219h3c78 138 137 300 187 445zM383 553l-103 109l-164 -110l-32 38l180 153h53l114 -151z" />
<glyph unicode="&#x179;" horiz-adv-x="495" d="M324 738l-29 42l172 122l47 -61zM424 0h-432l15 77l438 542h-320l15 77h419l-14 -70l-440 -545h334z" />
<glyph unicode="&#x17a;" horiz-adv-x="425" d="M352 0h-359l14 68l333 355h-250l14 72h344l-13 -70l-326 -349h258zM286 551l-49 20l107 177l76 -25z" />
<glyph unicode="&#x17b;" horiz-adv-x="495" d="M424 0h-432l15 77l438 542h-320l15 77h419l-14 -70l-440 -545h334zM402 747h-88l17 88h88z" />
<glyph unicode="&#x17c;" horiz-adv-x="425" d="M352 0h-359l14 68l333 355h-250l14 72h344l-13 -70l-326 -349h258zM345 597h-88l17 88h88z" />
<glyph unicode="&#x1fc;" horiz-adv-x="977" d="M688 738l-29 42l172 122l47 -61zM902 0h-441l28 204h-259l-158 -204h-92l541 696h478l-11 -81h-352l-32 -225h300l-11 -77h-300l-32 -232h352zM551 617l-262 -337h211z" />
<glyph unicode="&#x1fd;" horiz-adv-x="799" d="M609 501c109 0 172 -53 171 -137c-1 -89 -67 -174 -334 -163c-2 -15 -2 -23 -2 -28c0 -84 33 -103 98 -103c39 0 99 24 130 46l40 -59c-49 -40 -119 -63 -182 -63c-82 0 -130 30 -151 87l-2 -9c-41 -51 -112 -78 -198 -78c-102 0 -155 61 -147 147c8 85 80 151 186 149 c69 -1 84 -4 156 -12l11 65c11 54 -18 81 -98 81c-62 0 -99 -17 -126 -43l-47 55c46 43 112 65 180 65s139 -14 168 -58c37 35 85 58 147 58zM604 424c-99 0 -130 -74 -145 -151c209 -10 240 43 240 84c0 42 -33 67 -95 67zM111 146c-9 -47 20 -77 93 -77 c64 0 134 34 146 92l11 51c-63 8 -79 10 -136 12c-64 0 -105 -32 -114 -78zM508 551l-49 20l107 177l76 -25z" />
<glyph unicode="&#x1fe;" horiz-adv-x="579" d="M366 701c63 0 116 -20 155 -53l40 52l33 -29l-43 -56c24 -32 38 -73 38 -118c0 -64 -26 -166 -42 -245c-33 -155 -123 -258 -283 -258c-68 0 -118 17 -153 46l-34 -45l-31 29l36 47c-25 35 -36 80 -36 129c0 65 27 174 44 249c32 142 105 252 276 252zM360 622 c-124 0 -172 -96 -188 -180l-36 -185c-8 -40 -8 -79 3 -110l330 432c-24 27 -61 43 -109 43zM502 482c0 20 -3 40 -9 57l-330 -431c22 -23 57 -36 108 -36c107 0 167 81 191 185c17 72 40 166 40 225zM379 738l-29 42l172 122l47 -61z" />
<glyph unicode="&#x1ff;" horiz-adv-x="495" d="M287 500c43 0 80 -12 109 -33l43 57l36 -27l-47 -62c22 -29 34 -66 34 -110c0 -153 -59 -331 -239 -331c-45 0 -82 9 -110 26l-38 -50l-35 28l38 51c-24 28 -36 67 -36 115c0 177 78 336 245 336zM278 427c-119 0 -156 -156 -156 -256c0 -16 2 -34 10 -52l216 285 c-18 15 -42 23 -70 23zM380 320c0 16 -2 31 -6 44l-213 -280c15 -10 34 -16 60 -16c119 0 159 136 159 252zM344 551l-49 20l107 177l76 -25z" />
<glyph unicode="&#x152;" horiz-adv-x="826" d="M760 0h-424c-20 -4 -41 -6 -64 -6c-142 0 -214 92 -214 206c0 65 23 172 40 247c30 133 108 257 269 257c30 0 67 -2 97 -9l431 1l-16 -81h-345l-43 -225h294l-15 -77h-294l-46 -232h345zM282 72c22 0 43 4 62 11l104 530c-20 9 -44 12 -73 12c-123 0 -176 -99 -192 -183 l-36 -185c-1 -13 -4 -27 -4 -40c0 -85 45 -145 139 -145z" />
<glyph unicode="&#xf6c9;" horiz-adv-x="543" d="M379 738l-29 42l172 122l47 -61z" />
<glyph unicode="&#xe0fb;" horiz-adv-x="523" d="M373 0l-36 51c-47 -33 -103 -55 -155 -55c-98 0 -143 48 -143 108c0 75 49 132 142 183c-20 28 -40 59 -40 95c0 78 60 144 169 144c46 0 99 -12 138 -47l-56 -59c-36 29 -65 35 -93 35c-50 0 -74 -31 -74 -64c0 -12 6 -24 18 -43c22 -34 113 -169 120 -181 c19 26 34 51 48 81l77 -11c-22 -49 -49 -95 -85 -133l73 -104h-103zM199 69c33 0 74 19 100 38l-81 126c-57 -28 -95 -66 -95 -110c0 -31 25 -54 76 -54z" />
<glyph unicode="&#xe0fc;" horiz-adv-x="198" d="M199 520l-83 -392h-65l68 392h80zM106 0h-89l16 89h90z" />
<glyph unicode="&#xe0fd;" horiz-adv-x="409" d="M271 523c92 0 144 -52 144 -124c-1 -120 -149 -148 -164 -222l-9 -44h-87l9 46c7 36 29 68 60 93v-1c60 49 100 80 100 120c0 25 -14 55 -74 55c-61 0 -100 -53 -106 -90l-79 22c35 106 113 145 206 145zM218 0h-91l17 89h90z" />
<glyph unicode="&#xe0fe;" horiz-adv-x="475" d="M436 0h-84l-23 115h-209l-64 -115h-91l294 520h70zM317 188l-23 129l-19 87l-45 -84l-73 -132h160z" />
<glyph unicode="&#xe0ff;" horiz-adv-x="467" d="M250 0h-231l94 520h209c95 0 141 -44 141 -111c0 -41 -14 -101 -88 -139c40 -17 58 -56 58 -96c0 -104 -94 -174 -183 -174zM271 229h-128l-27 -153h127c69 0 106 46 106 91c0 34 -23 62 -78 62zM300 447h-118l-25 -145h117c64 0 103 40 103 86c0 33 -25 59 -77 59z" />
<glyph unicode="&#xe100;" horiz-adv-x="425" d="M332 152l71 -36c-45 -76 -119 -120 -207 -120c-132 0 -182 90 -163 194l25 140c18 102 86 194 218 194c88 0 160 -47 178 -119l-83 -34c-13 43 -48 74 -99 74c-81 0 -119 -59 -130 -118l-24 -131c-11 -61 10 -122 92 -122c49 0 93 31 122 78z" />
<glyph unicode="&#xe101;" horiz-adv-x="484" d="M364 210l18 96c19 103 -18 138 -105 138h-95l-66 -368h94c95 0 140 53 154 134zM114 520h178c93 0 155 -34 175 -109c10 -36 3 -86 -7 -147c-10 -65 -23 -129 -46 -166c-52 -86 -125 -98 -218 -98h-178z" />
<glyph unicode="&#xe102;" horiz-adv-x="425" d="M370 0h-351l94 520h351l-15 -76h-267l-25 -145h228l-14 -73h-228l-27 -150h267z" />
<glyph unicode="&#xe103;" horiz-adv-x="409" d="M449 444h-267l-26 -149h228l-13 -73h-228l-40 -222h-84l94 520h351z" />
<glyph unicode="&#xe104;" horiz-adv-x="467" d="M209 69c70 0 121 54 133 111l7 32h-113l13 75h196l-19 -107c-20 -113 -102 -185 -226 -185c-134 0 -187 91 -167 195l25 140c18 102 87 194 218 194c89 0 160 -48 177 -120l-83 -33c-10 43 -42 74 -94 74c-86 0 -124 -59 -135 -118l-24 -136c-11 -61 14 -122 92 -122z " />
<glyph unicode="&#xe105;" horiz-adv-x="497" d="M404 0h-84l40 226h-217l-40 -226h-84l94 520h84l-40 -221h217l40 221h84z" />
<glyph unicode="&#xe106;" horiz-adv-x="188" d="M99 0h-84l94 520h84z" />
<glyph unicode="&#xe107;" horiz-adv-x="365" d="M373 520l-65 -358c-23 -130 -102 -166 -196 -166c-56 0 -102 24 -128 62l63 53c16 -19 39 -37 67 -37c59 0 97 16 112 96l64 350h83z" />
<glyph unicode="&#xe108;" horiz-adv-x="490" d="M451 0h-97l-114 250l-112 -107l-24 -143h-84l94 520h86l-47 -259l101 97l171 162h101l-221 -208z" />
<glyph unicode="&#xe109;" horiz-adv-x="425" d="M370 0h-351l94 520h84l-81 -444h267z" />
<glyph unicode="&#xe10a;" horiz-adv-x="584" d="M499 0h-83l60 332l-41 -65l-129 -193h-68l-58 199l-18 56l-58 -329h-83l94 520h79l65 -243l31 -101l63 100l162 244h78z" />
<glyph unicode="&#xe10b;" horiz-adv-x="526" d="M434 0h-78l-144 292l-43 86l-66 -378h-83l94 520h78l139 -285l47 -97l68 382h82z" />
<glyph unicode="&#xe10c;" horiz-adv-x="466" d="M273 524c123 0 199 -83 179 -194l-25 -140c-22 -118 -81 -194 -218 -194c-136 0 -193 90 -175 194l24 140c18 102 84 194 215 194zM266 446c-82 0 -115 -59 -126 -118l-24 -134c-11 -61 10 -122 98 -122c82 0 118 53 130 122l24 134c12 65 -21 118 -102 118z" />
<glyph unicode="&#xe10d;" horiz-adv-x="448" d="M315 520c85 0 156 -38 156 -133c0 -91 -76 -185 -203 -185h-129l-36 -202h-84l94 520h202zM303 444h-121l-29 -166h123c71 0 110 48 110 100c0 44 -34 66 -83 66z" />
<glyph unicode="&#xe10e;" horiz-adv-x="478" d="M273 524c123 0 199 -83 179 -194l-25 -140c-7 -37 -17 -70 -33 -97l58 -51l-57 -56l-53 47c-33 -24 -76 -37 -133 -37c-136 0 -193 90 -175 194l24 140c18 102 84 194 215 194zM266 446c-82 0 -115 -59 -126 -118l-24 -134c-11 -61 10 -122 98 -122c27 0 48 6 66 16 l-61 55l55 57l57 -51c6 14 10 29 13 45l24 134c12 65 -21 118 -102 118z" />
<glyph unicode="&#xe10f;" horiz-adv-x="467" d="M337 520c93 0 138 -47 138 -119c0 -100 -64 -155 -139 -171c28 -74 60 -157 87 -230h-95l-79 220h-107l-39 -220h-83l94 520h223zM312 447h-130l-27 -154h126c64 0 109 37 109 96c0 40 -31 58 -78 58z" />
<glyph unicode="&#xe110;" horiz-adv-x="426" d="M145 373c0 -44 47 -57 101 -73c72 -21 153 -47 153 -143c0 -112 -94 -161 -223 -161c-63 0 -142 20 -190 64l55 64c38 -33 88 -53 141 -53c67 0 127 24 127 77c0 48 -52 65 -107 82c-64 20 -140 49 -140 129c0 108 82 164 195 164c62 0 124 -18 170 -50l-41 -67 c-41 24 -91 42 -138 42c-42 0 -103 -18 -103 -75z" />
<glyph unicode="&#xe111;" horiz-adv-x="388" d="M429 447h-151l-79 -447h-84l80 447h-151l14 73h385z" />
<glyph unicode="&#xe112;" horiz-adv-x="484" d="M412 520h84l-60 -330c-22 -118 -103 -194 -222 -194c-133 0 -192 90 -173 194l61 330h82l-59 -324c-11 -61 17 -122 93 -122c70 0 121 44 135 122z" />
<glyph unicode="&#xe113;" horiz-adv-x="435" d="M202 140l4 -1l57 120l133 261h91l-276 -520h-65l-87 520h88l34 -247z" />
<glyph unicode="&#xe114;" horiz-adv-x="643" d="M352 366h-5l-45 -101l-123 -265h-72l-43 520h90l13 -253l6 -100h5l44 99l121 254h67l30 -258l8 -99h5l36 96l110 261h91l-233 -520h-70l-24 229z" />
<glyph unicode="&#xe115;" horiz-adv-x="441" d="M405 0h-97l-82 209l-161 -209h-103l217 266l-111 254h97l74 -192l146 192h102l-204 -254z" />
<glyph unicode="&#xe116;" horiz-adv-x="412" d="M467 520l-219 -317l-37 -203h-84l37 203l-106 317h87l46 -155l25 -79l59 83l104 151h88z" />
<glyph unicode="&#xe117;" horiz-adv-x="395" d="M336 0h-351l11 66l319 381h-240l14 73h341l-11 -62l-322 -382h253z" />
<glyph unicode="&#xe118;" horiz-adv-x="426" d="M145 373c0 -44 47 -57 101 -73c72 -21 153 -47 153 -143c0 -112 -94 -161 -223 -161c-63 0 -142 20 -190 64l55 64c38 -33 88 -53 141 -53c67 0 127 24 127 77c0 48 -52 65 -107 82c-64 20 -140 49 -140 129c0 108 82 164 195 164c62 0 124 -18 170 -50l-41 -67 c-41 24 -91 42 -138 42c-42 0 -103 -18 -103 -75zM295 633l157 110l32 -39l-172 -151h-53l-120 153l46 38z" />
<glyph unicode="&#xe119;" horiz-adv-x="667" d="M608 0h-357c-15 -3 -34 -4 -50 -4c-140 0 -191 90 -172 194l26 140c19 102 72 194 238 194c15 0 39 -2 52 -4h362l-15 -76h-283l-28 -145h241l-14 -73h-241l-29 -150h283zM216 72c12 0 24 1 35 4l69 366c-9 2 -22 4 -33 4c-93 0 -133 -59 -144 -118l-25 -134 c-12 -61 16 -122 98 -122z" />
<glyph unicode="&#xe11a;" horiz-adv-x="395" d="M336 0h-351l11 66l319 381h-240l14 73h341l-11 -62l-322 -382h253zM286 633l157 110l32 -39l-172 -151h-53l-120 153l46 38z" />
<glyph unicode="&#xe11b;" horiz-adv-x="412" d="M467 520l-219 -317l-37 -203h-84l37 203l-106 317h87l46 -155l25 -79l59 83l104 151h88zM411 597h-87l17 88h87zM234 597h-86l17 88h86z" />
<glyph unicode="&#xe11c;" horiz-adv-x="475" d="M436 0h-84l-23 115h-209l-64 -115h-91l294 520h70zM317 188l-23 129l-19 87l-45 -84l-73 -132h160zM337 569l-49 -15l-87 184l68 16z" />
<glyph unicode="&#xe11d;" horiz-adv-x="475" d="M436 0h-84l-23 115h-209l-64 -115h-91l294 520h70zM317 188l-23 129l-19 87l-45 -84l-73 -132h160zM327 551l-49 20l107 177l76 -25z" />
<glyph unicode="&#xe11e;" horiz-adv-x="475" d="M436 0h-84l-23 115h-209l-64 -115h-91l294 520h70zM317 188l-23 129l-19 87l-45 -84l-73 -132h160zM425 553l-103 109l-164 -110l-32 38l180 153h53l114 -151z" />
<glyph unicode="&#xe11f;" horiz-adv-x="475" d="M436 0h-84l-23 115h-209l-64 -115h-91l294 520h70zM317 188l-23 129l-19 87l-45 -84l-73 -132h160zM244 699c48 0 101 -47 136 -47c20 0 37 13 64 45l46 -29c-34 -66 -76 -89 -118 -89c-48 0 -100 45 -139 45c-23 0 -35 -10 -66 -40l-43 26c37 64 80 89 120 89z" />
<glyph unicode="&#xe120;" horiz-adv-x="475" d="M436 0h-84l-23 115h-209l-64 -115h-91l294 520h70zM317 188l-23 129l-19 87l-45 -84l-73 -132h160zM442 597h-87l17 88h87zM265 597h-86l17 88h86z" />
<glyph unicode="&#xe121;" horiz-adv-x="475" d="M436 0h-84l-23 115h-209l-64 -115h-91l294 520h70zM317 188l-23 129l-19 87l-45 -84l-73 -132h160zM303 546c-48 0 -83 34 -83 79c0 62 49 117 119 117c48 0 83 -36 83 -82c0 -71 -60 -114 -119 -114zM330 699c-35 0 -65 -31 -65 -66c0 -26 18 -44 45 -44 c34 0 67 30 67 66c0 25 -20 44 -47 44z" />
<glyph unicode="&#xe122;" horiz-adv-x="805" d="M727 0h-369l20 147h-199l-120 -147h-95l424 520h410l-11 -76h-283l-19 -145h241l-11 -73h-241l-20 -150h283zM420 442h-2l-180 -223h150z" />
<glyph unicode="&#xe123;" horiz-adv-x="425" d="M332 152l71 -36c-45 -76 -118 -119 -205 -120l-16 -35c68 -4 89 -42 89 -73c0 -46 -39 -98 -124 -98c-13 0 -62 0 -95 16l20 46c26 -12 58 -15 77 -15c25 0 58 13 58 42c0 26 -19 42 -54 42h-12l-17 16l30 63c-101 17 -138 98 -121 190l25 140c18 102 86 194 218 194 c88 0 160 -47 178 -119l-83 -34c-13 43 -48 74 -99 74c-81 0 -119 -59 -130 -118l-24 -131c-11 -61 10 -122 92 -122c49 0 93 31 122 78z" />
<glyph unicode="&#xe124;" horiz-adv-x="425" d="M370 0h-351l94 520h351l-15 -76h-267l-25 -145h228l-14 -73h-228l-27 -150h267zM331 569l-49 -15l-87 184l68 16z" />
<glyph unicode="&#xe125;" horiz-adv-x="425" d="M370 0h-351l94 520h351l-15 -76h-267l-25 -145h228l-14 -73h-228l-27 -150h267zM285 551l-49 20l107 177l76 -25z" />
<glyph unicode="&#xe126;" horiz-adv-x="425" d="M370 0h-351l94 520h351l-15 -76h-267l-25 -145h228l-14 -73h-228l-27 -150h267zM415 553l-103 109l-164 -110l-32 38l180 153h53l114 -151z" />
<glyph unicode="&#xe127;" horiz-adv-x="425" d="M370 0h-351l94 520h351l-15 -76h-267l-25 -145h228l-14 -73h-228l-27 -150h267zM411 597h-87l17 88h87zM234 597h-86l17 88h86z" />
<glyph unicode="&#xe128;" horiz-adv-x="188" d="M99 0h-84l94 520h84zM190 569l-49 -15l-87 184l68 16z" />
<glyph unicode="&#xe129;" horiz-adv-x="188" d="M99 0h-84l94 520h84zM172 551l-49 20l107 177l76 -25z" />
<glyph unicode="&#xe12a;" horiz-adv-x="188" d="M99 0h-84l94 520h84zM285 553l-103 109l-164 -110l-32 38l180 153h53l114 -151z" />
<glyph unicode="&#xe12b;" horiz-adv-x="188" d="M99 0h-84l94 520h84zM306 597h-87l17 88h87zM129 597h-86l17 88h86z" />
<glyph unicode="&#xe12c;" horiz-adv-x="484" d="M114 520h178c93 0 155 -34 175 -109c10 -36 3 -86 -7 -147c-10 -65 -23 -129 -46 -166c-52 -86 -125 -98 -218 -98h-178l43 233h-63l12 62h62zM364 210l18 96c19 103 -18 138 -105 138h-95l-27 -149h84l-13 -62h-82l-28 -157h94c95 0 140 53 154 134z" />
<glyph unicode="&#xe12d;" horiz-adv-x="526" d="M434 0h-78l-144 292l-43 86l-66 -378h-83l94 520h78l139 -285l47 -97l68 382h82zM267 699c48 0 101 -47 136 -47c20 0 37 13 64 45l46 -29c-34 -66 -76 -89 -118 -89c-48 0 -100 45 -139 45c-23 0 -35 -10 -66 -40l-43 26c37 64 80 89 120 89z" />
<glyph unicode="&#xe12e;" horiz-adv-x="466" d="M273 524c123 0 199 -83 179 -194l-25 -140c-22 -118 -81 -194 -218 -194c-136 0 -193 90 -175 194l24 140c18 102 84 194 215 194zM266 446c-82 0 -115 -59 -126 -118l-24 -134c-11 -61 10 -122 98 -122c82 0 118 53 130 122l24 134c12 65 -21 118 -102 118zM338 569 l-49 -15l-87 184l68 16z" />
<glyph unicode="&#xe12f;" horiz-adv-x="466" d="M273 524c123 0 199 -83 179 -194l-25 -140c-22 -118 -81 -194 -218 -194c-136 0 -193 90 -175 194l24 140c18 102 84 194 215 194zM266 446c-82 0 -115 -59 -126 -118l-24 -134c-11 -61 10 -122 98 -122c82 0 118 53 130 122l24 134c12 65 -21 118 -102 118zM322 551 l-49 20l107 177l76 -25z" />
<glyph unicode="&#xe130;" horiz-adv-x="466" d="M273 524c123 0 199 -83 179 -194l-25 -140c-22 -118 -81 -194 -218 -194c-136 0 -193 90 -175 194l24 140c18 102 84 194 215 194zM266 446c-82 0 -115 -59 -126 -118l-24 -134c-11 -61 10 -122 98 -122c82 0 118 53 130 122l24 134c12 65 -21 118 -102 118zM429 553 l-103 109l-164 -110l-32 38l180 153h53l114 -151z" />
<glyph unicode="&#xe131;" horiz-adv-x="466" d="M273 524c123 0 199 -83 179 -194l-25 -140c-22 -118 -81 -194 -218 -194c-136 0 -193 90 -175 194l24 140c18 102 84 194 215 194zM266 446c-82 0 -115 -59 -126 -118l-24 -134c-11 -61 10 -122 98 -122c82 0 118 53 130 122l24 134c12 65 -21 118 -102 118zM247 699 c48 0 101 -47 136 -47c20 0 37 13 64 45l46 -29c-34 -66 -76 -89 -118 -89c-48 0 -100 45 -139 45c-23 0 -35 -10 -66 -40l-43 26c37 64 80 89 120 89z" />
<glyph unicode="&#xe132;" horiz-adv-x="466" d="M273 524c123 0 199 -83 179 -194l-25 -140c-22 -118 -81 -194 -218 -194c-136 0 -193 90 -175 194l24 140c18 102 84 194 215 194zM266 446c-82 0 -115 -59 -126 -118l-24 -134c-11 -61 10 -122 98 -122c82 0 118 53 130 122l24 134c12 65 -21 118 -102 118zM438 597h-87 l17 88h87zM261 597h-86l17 88h86z" />
<glyph unicode="&#xe133;" horiz-adv-x="466" d="M273 524c57 0 104 -18 136 -49l54 57l38 -37l-60 -63c13 -29 18 -64 11 -102l-25 -140c-22 -118 -81 -194 -218 -194c-62 0 -107 18 -137 48l-51 -54l-38 35l60 63c-13 30 -16 65 -9 102l24 140c18 102 84 194 215 194zM368 328c2 10 3 20 2 29l-239 -252 c15 -20 42 -33 83 -33c82 0 118 53 130 122zM266 446c-82 0 -115 -59 -126 -118l-24 -134c-2 -11 -3 -21 -3 -31l237 250c-17 20 -45 33 -84 33z" />
<glyph unicode="&#xe134;" horiz-adv-x="484" d="M412 520h84l-60 -330c-22 -118 -103 -194 -222 -194c-133 0 -192 90 -173 194l61 330h82l-59 -324c-11 -61 17 -122 93 -122c70 0 121 44 135 122zM339 569l-49 -15l-87 184l68 16z" />
<glyph unicode="&#xe135;" horiz-adv-x="484" d="M412 520h84l-60 -330c-22 -118 -103 -194 -222 -194c-133 0 -192 90 -173 194l61 330h82l-59 -324c-11 -61 17 -122 93 -122c70 0 121 44 135 122zM312 551l-49 20l107 177l76 -25z" />
<glyph unicode="&#xe136;" horiz-adv-x="484" d="M412 520h84l-60 -330c-22 -118 -103 -194 -222 -194c-133 0 -192 90 -173 194l61 330h82l-59 -324c-11 -61 17 -122 93 -122c70 0 121 44 135 122zM436 553l-103 109l-164 -110l-32 38l180 153h53l114 -151z" />
<glyph unicode="&#xe137;" horiz-adv-x="484" d="M412 520h84l-60 -330c-22 -118 -103 -194 -222 -194c-133 0 -192 90 -173 194l61 330h82l-59 -324c-11 -61 17 -122 93 -122c70 0 121 44 135 122zM447 597h-87l17 88h87zM270 597h-86l17 88h86z" />
<glyph unicode="&#xe138;" horiz-adv-x="412" d="M467 520l-219 -317l-37 -203h-84l37 203l-106 317h87l46 -155l25 -79l59 83l104 151h88zM271 551l-49 20l107 177l76 -25z" />
<glyph unicode="&#xe139;" horiz-adv-x="470" d="M124 109l-20 -109h-88l97 518h89l-17 -91h120c87 0 162 -39 162 -129c0 -92 -72 -189 -212 -189h-131zM138 185h125c76 0 115 50 115 101c0 44 -35 65 -86 65h-121z" />
<glyph unicode="&#xe13a;" horiz-adv-x="475" d="M436 0h-84l-23 115h-209l-64 -115h-91l294 520h70zM317 188l-23 129l-19 87l-45 -84l-73 -132h160zM447 600h-268l15 75h268z" />
<glyph unicode="&#xe13b;" horiz-adv-x="475" d="M436 0h-84l-23 115h-209l-64 -115h-91l294 520h70zM317 188l-23 129l-19 87l-45 -84l-73 -132h160zM178 707h71c-3 -27 13 -68 61 -68s78 35 84 68h77c-17 -63 -63 -135 -166 -135c-98 0 -135 54 -127 135z" />
<glyph unicode="&#xe13c;" horiz-adv-x="475" d="M379 -180c-50 0 -81 31 -81 72c0 32 15 63 55 108h-1l-23 115h-209l-64 -115h-91l294 520h70l107 -520h-22c-32 -36 -48 -65 -48 -92c0 -20 15 -32 40 -32c16 0 37 5 60 18l11 -49c-29 -16 -65 -25 -98 -25zM317 188l-23 129l-19 87l-45 -84l-73 -132h160z" />
<glyph unicode="&#xe13d;" horiz-adv-x="425" d="M332 152l71 -36c-45 -76 -119 -120 -207 -120c-132 0 -182 90 -163 194l25 140c18 102 86 194 218 194c88 0 160 -47 178 -119l-83 -34c-13 43 -48 74 -99 74c-81 0 -119 -59 -130 -118l-24 -131c-11 -61 10 -122 92 -122c49 0 93 31 122 78zM308 551l-49 20l107 177 l76 -25z" />
<glyph unicode="&#xe13e;" horiz-adv-x="425" d="M332 152l71 -36c-45 -76 -119 -120 -207 -120c-132 0 -182 90 -163 194l25 140c18 102 86 194 218 194c88 0 160 -47 178 -119l-83 -34c-13 43 -48 74 -99 74c-81 0 -119 -59 -130 -118l-24 -131c-11 -61 10 -122 92 -122c49 0 93 31 122 78zM414 553l-103 109l-164 -110 l-32 38l180 153h53l114 -151z" />
<glyph unicode="&#xe13f;" horiz-adv-x="425" d="M332 152l71 -36c-45 -76 -119 -120 -207 -120c-132 0 -182 90 -163 194l25 140c18 102 86 194 218 194c88 0 160 -47 178 -119l-83 -34c-13 43 -48 74 -99 74c-81 0 -119 -59 -130 -118l-24 -131c-11 -61 10 -122 92 -122c49 0 93 31 122 78zM343 597h-88l17 88h88z" />
<glyph unicode="&#xe140;" horiz-adv-x="425" d="M332 152l71 -36c-45 -76 -119 -120 -207 -120c-132 0 -182 90 -163 194l25 140c18 102 86 194 218 194c88 0 160 -47 178 -119l-83 -34c-13 43 -48 74 -99 74c-81 0 -119 -59 -130 -118l-24 -131c-11 -61 10 -122 92 -122c49 0 93 31 122 78zM299 633l157 110l32 -39 l-172 -151h-53l-120 153l46 38z" />
<glyph unicode="&#xe141;" horiz-adv-x="484" d="M364 210l18 96c19 103 -18 138 -105 138h-95l-66 -368h94c95 0 140 53 154 134zM114 520h178c93 0 155 -34 175 -109c10 -36 3 -86 -7 -147c-10 -65 -23 -129 -46 -166c-52 -86 -125 -98 -218 -98h-178zM294 633l157 110l32 -39l-172 -151h-53l-120 153l46 38z" />
<glyph unicode="&#xe142;" horiz-adv-x="484" d="M114 520h178c93 0 155 -34 175 -109c10 -36 3 -86 -7 -147c-10 -65 -23 -129 -46 -166c-52 -86 -125 -98 -218 -98h-178l43 233h-63l12 62h62zM364 210l18 96c19 103 -18 138 -105 138h-95l-27 -149h84l-13 -62h-82l-28 -157h94c95 0 140 53 154 134z" />
<glyph unicode="&#xe143;" horiz-adv-x="425" d="M370 0h-351l94 520h351l-15 -76h-267l-25 -145h228l-14 -73h-228l-27 -150h267zM430 600h-268l15 75h268z" />
<glyph unicode="&#xe144;" horiz-adv-x="425" d="M370 0h-351l94 520h351l-15 -76h-267l-25 -145h228l-14 -73h-228l-27 -150h267zM164 707h71c-3 -27 13 -68 61 -68s78 35 84 68h77c-17 -63 -63 -135 -166 -135c-98 0 -135 54 -127 135z" />
<glyph unicode="&#xe145;" horiz-adv-x="425" d="M370 0h-351l94 520h351l-15 -76h-267l-25 -145h228l-14 -73h-228l-27 -150h267zM345 597h-88l17 88h88z" />
<glyph unicode="&#xe146;" horiz-adv-x="425" d="M336 -180c-50 0 -81 31 -81 72c0 32 15 63 55 108h-291l94 520h351l-15 -76h-267l-25 -145h228l-14 -73h-228l-27 -150h267l-13 -75l1 -1c-32 -36 -48 -65 -48 -92c0 -20 15 -32 40 -32c16 0 37 5 60 18l11 -49c-29 -16 -65 -25 -98 -25z" />
<glyph unicode="&#xe147;" horiz-adv-x="425" d="M370 0h-351l94 520h351l-15 -76h-267l-25 -145h228l-14 -73h-228l-27 -150h267zM298 633l157 110l32 -39l-172 -151h-53l-120 153l46 38z" />
<glyph unicode="&#xe148;" horiz-adv-x="467" d="M209 69c70 0 121 54 133 111l7 32h-113l13 75h196l-19 -107c-20 -113 -102 -185 -226 -185c-134 0 -187 91 -167 195l25 140c18 102 87 194 218 194c89 0 160 -48 177 -120l-83 -33c-10 43 -42 74 -94 74c-86 0 -124 -59 -135 -118l-24 -136c-11 -61 14 -122 92 -122z M412 553l-103 109l-164 -110l-32 38l180 153h53l114 -151z" />
<glyph unicode="&#xe149;" horiz-adv-x="467" d="M209 69c70 0 121 54 133 111l7 32h-113l13 75h196l-19 -107c-20 -113 -102 -185 -226 -185c-134 0 -187 91 -167 195l25 140c18 102 87 194 218 194c89 0 160 -48 177 -120l-83 -33c-10 43 -42 74 -94 74c-86 0 -124 -59 -135 -118l-24 -136c-11 -61 14 -122 92 -122z M159 707h71c-3 -27 13 -68 61 -68s78 35 84 68h77c-17 -63 -63 -135 -166 -135c-98 0 -135 54 -127 135z" />
<glyph unicode="&#xe14a;" horiz-adv-x="467" d="M209 69c70 0 121 54 133 111l7 32h-113l13 75h196l-19 -107c-20 -113 -102 -185 -226 -185c-134 0 -187 91 -167 195l25 140c18 102 87 194 218 194c89 0 160 -48 177 -120l-83 -33c-10 43 -42 74 -94 74c-86 0 -124 -59 -135 -118l-24 -136c-11 -61 14 -122 92 -122z M334 597h-88l17 88h88z" />
<glyph unicode="&#xe14b;" horiz-adv-x="467" d="M209 69c70 0 121 54 133 111l7 32h-113l13 75h196l-19 -107c-20 -113 -102 -185 -226 -185c-134 0 -187 91 -167 195l25 140c18 102 87 194 218 194c89 0 160 -48 177 -120l-83 -33c-10 43 -42 74 -94 74c-86 0 -124 -59 -135 -118l-24 -136c-11 -61 14 -122 92 -122z M221 -167l-74 -90h-51l56 88h-35l22 111h103z" />
<glyph unicode="&#xe14c;" horiz-adv-x="497" d="M404 0h-84l40 226h-217l-40 -226h-84l94 520h84l-40 -221h217l40 221h84zM439 553l-103 109l-164 -110l-32 38l180 153h53l114 -151z" />
<glyph unicode="&#xe14d;" horiz-adv-x="497" d="M404 0h-84l40 226h-217l-40 -226h-84l70 386h-59l12 61h58l13 73h84l-14 -73h217l14 73h84l-13 -73h44l-12 -61h-43zM157 299h217l15 87h-217z" />
<glyph unicode="&#xe14e;" horiz-adv-x="188" d="M99 0h-84l94 520h84zM115 699c48 0 101 -47 136 -47c20 0 37 13 64 45l46 -29c-34 -66 -76 -89 -118 -89c-48 0 -100 45 -139 45c-23 0 -35 -10 -66 -40l-43 26c37 64 80 89 120 89z" />
<glyph unicode="&#xe14f;" horiz-adv-x="188" d="M99 0h-84l94 520h84zM300 600h-268l15 75h268z" />
<glyph unicode="&#xe150;" horiz-adv-x="188" d="M99 0h-84l94 520h84zM45 707h71c-3 -27 13 -68 61 -68s78 35 84 68h77c-17 -63 -63 -135 -166 -135c-98 0 -135 54 -127 135z" />
<glyph unicode="&#xe151;" horiz-adv-x="188" d="M56 -180c-50 0 -81 31 -81 72c0 32 16 63 55 108h-15l94 520h84l-94 -520h-8c-32 -36 -48 -65 -48 -92c0 -20 15 -32 40 -32c16 0 37 5 60 18l11 -49c-29 -16 -65 -25 -98 -25z" />
<glyph unicode="&#xe152;" horiz-adv-x="188" d="M99 0h-84l94 520h84zM213 597h-88l17 88h88z" />
<glyph unicode="&#xe153;" horiz-adv-x="559" d="M99 0h-84l94 520h84zM567 520l-65 -358c-23 -130 -102 -166 -196 -166c-56 0 -102 24 -128 62l63 53c16 -19 39 -37 67 -37c59 0 97 16 112 96l64 350h83z" />
<glyph unicode="&#xe154;" horiz-adv-x="365" d="M373 520l-65 -358c-23 -130 -102 -166 -196 -166c-56 0 -102 24 -128 62l63 53c16 -19 39 -37 67 -37c59 0 97 16 112 96l64 350h83zM461 553l-103 109l-164 -110l-32 38l180 153h53l114 -151z" />
<glyph unicode="&#xe155;" horiz-adv-x="490" d="M451 0h-97l-114 250l-112 -107l-24 -143h-84l94 520h86l-47 -259l101 97l171 162h101l-221 -208zM249 -167l-74 -90h-51l56 88h-35l22 111h103z" />
<glyph unicode="&#xe156;" horiz-adv-x="425" d="M370 0h-351l94 520h84l-81 -444h267zM181 551l-49 20l107 177l76 -25z" />
<glyph unicode="&#xe157;" horiz-adv-x="425" d="M370 0h-351l94 520h84l-81 -444h267zM219 -167l-74 -90h-51l56 88h-35l22 111h103z" />
<glyph unicode="&#xe158;" horiz-adv-x="425" d="M370 0h-351l94 520h84l-81 -444h267zM383 411l-74 -90h-51l56 88h-35l22 111h103z" />
<glyph unicode="&#xe159;" horiz-adv-x="425" d="M370 0h-351l94 520h84l-81 -444h267zM354 240h-88l17 88h88z" />
<glyph unicode="&#xe15a;" horiz-adv-x="425" d="M370 0h-351l31 173l-79 -42l-21 54l113 60l50 275h84l-42 -226l98 52l21 -54l-132 -70l-26 -146h267z" />
<glyph unicode="&#xe15b;" horiz-adv-x="526" d="M434 0h-78l-144 292l-43 86l-66 -378h-83l94 520h78l139 -285l47 -97l68 382h82zM329 551l-49 20l107 177l76 -25z" />
<glyph unicode="&#xe15c;" horiz-adv-x="526" d="M434 0h-78l-144 292l-43 86l-66 -378h-83l94 520h78l139 -285l47 -97l68 382h82zM259 -167l-74 -90h-51l56 88h-35l22 111h103z" />
<glyph unicode="&#xe15d;" horiz-adv-x="526" d="M434 0h-78l-144 292l-43 86l-66 -378h-83l94 520h78l139 -285l47 -97l68 382h82zM332 633l157 110l32 -39l-172 -151h-53l-120 153l46 38z" />
<glyph unicode="&#xe15e;" horiz-adv-x="526" d="M528 520l-108 -592c-14 -75 -54 -106 -110 -106c-27 0 -58 7 -85 21l24 59c15 -6 30 -10 44 -10c23 0 40 11 46 40l14 73l-141 287l-43 86l-66 -378h-83l94 520h78l139 -285l47 -97l68 382h82z" />
<glyph unicode="&#xe15f;" horiz-adv-x="466" d="M273 524c123 0 199 -83 179 -194l-25 -140c-22 -118 -81 -194 -218 -194c-136 0 -193 90 -175 194l24 140c18 102 84 194 215 194zM266 446c-82 0 -115 -59 -126 -118l-24 -134c-11 -61 10 -122 98 -122c82 0 118 53 130 122l24 134c12 65 -21 118 -102 118zM439 600 h-268l15 75h268z" />
<glyph unicode="&#xe160;" horiz-adv-x="466" d="M273 524c123 0 199 -83 179 -194l-25 -140c-22 -118 -81 -194 -218 -194c-136 0 -193 90 -175 194l24 140c18 102 84 194 215 194zM266 446c-82 0 -115 -59 -126 -118l-24 -134c-11 -61 10 -122 98 -122c82 0 118 53 130 122l24 134c12 65 -21 118 -102 118zM181 707h71 c-3 -27 13 -68 61 -68s78 35 84 68h77c-17 -63 -63 -135 -166 -135c-98 0 -135 54 -127 135z" />
<glyph unicode="&#xe161;" horiz-adv-x="466" d="M273 524c123 0 199 -83 179 -194l-25 -140c-22 -118 -81 -194 -218 -194c-136 0 -193 90 -175 194l24 140c18 102 84 194 215 194zM266 446c-82 0 -115 -59 -126 -118l-24 -134c-11 -61 10 -122 98 -122c82 0 118 53 130 122l24 134c12 65 -21 118 -102 118zM378 551 l-49 20l107 177l76 -25zM249 551l-49 20l107 177l76 -25z" />
<glyph unicode="&#xe162;" horiz-adv-x="467" d="M337 520c93 0 138 -47 138 -119c0 -100 -64 -155 -139 -171c28 -74 60 -157 87 -230h-95l-79 220h-107l-39 -220h-83l94 520h223zM312 447h-130l-27 -154h126c64 0 109 37 109 96c0 40 -31 58 -78 58zM285 551l-49 20l107 177l76 -25z" />
<glyph unicode="&#xe163;" horiz-adv-x="467" d="M337 520c93 0 138 -47 138 -119c0 -100 -64 -155 -139 -171c28 -74 60 -157 87 -230h-95l-79 220h-107l-39 -220h-83l94 520h223zM312 447h-130l-27 -154h126c64 0 109 37 109 96c0 40 -31 58 -78 58zM234 -167l-74 -90h-51l56 88h-35l22 111h103z" />
<glyph unicode="&#xe164;" horiz-adv-x="467" d="M337 520c93 0 138 -47 138 -119c0 -100 -64 -155 -139 -171c28 -74 60 -157 87 -230h-95l-79 220h-107l-39 -220h-83l94 520h223zM312 447h-130l-27 -154h126c64 0 109 37 109 96c0 40 -31 58 -78 58zM287 633l157 110l32 -39l-172 -151h-53l-120 153l46 38z" />
<glyph unicode="&#xe165;" horiz-adv-x="426" d="M145 373c0 -44 47 -57 101 -73c72 -21 153 -47 153 -143c0 -112 -94 -161 -223 -161c-63 0 -142 20 -190 64l55 64c38 -33 88 -53 141 -53c67 0 127 24 127 77c0 48 -52 65 -107 82c-64 20 -140 49 -140 129c0 108 82 164 195 164c62 0 124 -18 170 -50l-41 -67 c-41 24 -91 42 -138 42c-42 0 -103 -18 -103 -75zM270 551l-49 20l107 177l76 -25z" />
<glyph unicode="&#xe166;" horiz-adv-x="426" d="M145 373c0 -44 47 -57 101 -73c72 -21 153 -47 153 -143c0 -112 -94 -161 -223 -161c-63 0 -142 20 -190 64l55 64c38 -33 88 -53 141 -53c67 0 127 24 127 77c0 48 -52 65 -107 82c-64 20 -140 49 -140 129c0 108 82 164 195 164c62 0 124 -18 170 -50l-41 -67 c-41 24 -91 42 -138 42c-42 0 -103 -18 -103 -75zM402 553l-103 109l-164 -110l-32 38l180 153h53l114 -151z" />
<glyph unicode="&#xe167;" horiz-adv-x="426" d="M145 373c0 -44 47 -57 101 -73c72 -21 153 -47 153 -143c0 -107 -85 -156 -204 -160l-16 -36c68 -4 89 -42 89 -73c0 -46 -39 -98 -124 -98c-13 0 -62 0 -95 16l20 46c26 -12 58 -15 77 -15c25 0 58 13 58 42c0 26 -19 42 -54 42h-12l-17 16l28 60c-57 4 -122 25 -163 63 l55 64c38 -33 88 -53 141 -53c67 0 127 24 127 77c0 48 -52 65 -107 82c-64 20 -140 49 -140 129c0 108 82 164 195 164c62 0 124 -18 170 -50l-41 -67c-41 24 -91 42 -138 42c-42 0 -103 -18 -103 -75z" />
<glyph unicode="&#xe168;" horiz-adv-x="388" d="M429 447h-151l-79 -447h-84l80 447h-151l14 73h385zM177 -167l-74 -90h-51l56 88h-35l22 111h103z" />
<glyph unicode="&#xe169;" horiz-adv-x="388" d="M429 447h-151l-79 -447h-84l80 447h-151l14 73h385zM262 633l157 110l32 -39l-172 -151h-53l-120 153l46 38z" />
<glyph unicode="&#xe16a;" horiz-adv-x="388" d="M429 447h-151l-25 -139h124l-13 -68h-123l-42 -240h-84l43 240h-115l13 68h114l25 139h-151l14 73h385z" />
<glyph unicode="&#xe16b;" horiz-adv-x="484" d="M412 520h84l-60 -330c-22 -118 -103 -194 -222 -194c-133 0 -192 90 -173 194l61 330h82l-59 -324c-11 -61 17 -122 93 -122c70 0 121 44 135 122zM242 699c48 0 101 -47 136 -47c20 0 37 13 64 45l46 -29c-34 -66 -76 -89 -118 -89c-48 0 -100 45 -139 45 c-23 0 -35 -10 -66 -40l-43 26c37 64 80 89 120 89z" />
<glyph unicode="&#xe16c;" horiz-adv-x="484" d="M412 520h84l-60 -330c-22 -118 -103 -194 -222 -194c-133 0 -192 90 -173 194l61 330h82l-59 -324c-11 -61 17 -122 93 -122c70 0 121 44 135 122zM439 600h-268l15 75h268z" />
<glyph unicode="&#xe16d;" horiz-adv-x="484" d="M412 520h84l-60 -330c-22 -118 -103 -194 -222 -194c-133 0 -192 90 -173 194l61 330h82l-59 -324c-11 -61 17 -122 93 -122c70 0 121 44 135 122zM175 707h71c-3 -27 13 -68 61 -68s78 35 84 68h77c-17 -63 -63 -135 -166 -135c-98 0 -135 54 -127 135z" />
<glyph unicode="&#xe16e;" horiz-adv-x="484" d="M412 520h84l-60 -330c-22 -118 -103 -194 -222 -194c-133 0 -192 90 -173 194l61 330h82l-59 -324c-11 -61 17 -122 93 -122c70 0 121 44 135 122zM294 546c-48 0 -83 34 -83 79c0 62 49 117 119 117c48 0 83 -36 83 -82c0 -71 -60 -114 -119 -114zM321 699 c-35 0 -65 -31 -65 -66c0 -26 18 -44 45 -44c34 0 67 30 67 66c0 25 -20 44 -47 44z" />
<glyph unicode="&#xe16f;" horiz-adv-x="484" d="M412 520h84l-60 -330c-22 -118 -103 -194 -222 -194c-133 0 -192 90 -173 194l61 330h82l-59 -324c-11 -61 17 -122 93 -122c70 0 121 44 135 122zM365 551l-49 20l107 177l76 -25zM236 551l-49 20l107 177l76 -25z" />
<glyph unicode="&#xe170;" horiz-adv-x="484" d="M204 -180c-50 0 -81 31 -81 72c0 31 15 63 54 107c-107 15 -153 97 -136 191l61 330h82l-59 -324c-11 -61 17 -122 93 -122c70 0 121 44 135 122l59 324h84l-60 -330c-21 -111 -93 -184 -200 -193c-30 -34 -45 -63 -45 -89c0 -20 15 -32 40 -32c16 0 37 5 60 18l11 -49 c-29 -16 -65 -25 -98 -25z" />
<glyph unicode="&#xe171;" horiz-adv-x="643" d="M352 366h-5l-45 -101l-123 -265h-72l-43 520h90l13 -253l6 -100h5l44 99l121 254h67l30 -258l8 -99h5l36 96l110 261h91l-233 -520h-70l-24 229zM511 553l-103 109l-164 -110l-32 38l180 153h53l114 -151z" />
<glyph unicode="&#xe172;" horiz-adv-x="412" d="M467 520l-219 -317l-37 -203h-84l37 203l-106 317h87l46 -155l25 -79l59 83l104 151h88zM398 553l-103 109l-164 -110l-32 38l180 153h53l114 -151z" />
<glyph unicode="&#xe173;" horiz-adv-x="395" d="M336 0h-351l11 66l319 381h-240l14 73h341l-11 -62l-322 -382h253zM270 551l-49 20l107 177l76 -25z" />
<glyph unicode="&#xe174;" horiz-adv-x="395" d="M336 0h-351l11 66l319 381h-240l14 73h341l-11 -62l-322 -382h253zM310 597h-88l17 88h88z" />
<glyph unicode="&#xe175;" horiz-adv-x="805" d="M727 0h-369l20 147h-199l-120 -147h-95l424 520h410l-11 -76h-283l-19 -145h241l-11 -73h-241l-20 -150h283zM420 442h-2l-180 -223h150zM539 551l-49 20l107 177l76 -25z" />
<glyph unicode="&#xe176;" horiz-adv-x="490" d="M273 524c59 0 107 -20 139 -52l56 60l38 -37l-64 -67c13 -28 16 -62 10 -98l-25 -140c-22 -118 -81 -194 -218 -194c-60 0 -105 17 -134 45l-49 -51l-38 35l56 60c-13 30 -17 67 -10 105l24 140c18 102 84 194 215 194zM266 446c-82 0 -115 -59 -126 -118l-24 -134 c-2 -12 -3 -25 -3 -36l240 252c-17 22 -46 36 -87 36zM368 328c1 8 2 16 2 24l-237 -249c15 -19 42 -31 81 -31c82 0 118 53 130 122zM321 551l-49 20l107 177l76 -25z" />
<glyph unicode="&#xe177;" horiz-adv-x="198" d="M4 0l79 392h73l-72 -392h-80zM97 519h89l-16 -88h-89z" />
<glyph unicode="&#xe178;" horiz-adv-x="369" d="M139 -4c-92 0 -144 52 -144 124c1 120 149 148 164 222l9 44h87l-9 -46c-7 -36 -29 -68 -60 -93v1c-60 -49 -100 -80 -100 -120c0 -25 14 -55 74 -55c61 0 100 53 106 90l79 -22c-35 -106 -113 -145 -206 -145zM192 519h91l-17 -89h-90z" />
<glyph unicode="&#x218;" horiz-adv-x="534" d="M353 702c75 0 150 -22 202 -59l-52 -73c-42 30 -101 48 -160 48c-61 0 -151 -32 -151 -119c0 -66 81 -91 111 -99c101 -27 208 -65 208 -191c0 -142 -129 -215 -272 -215c-94 0 -182 31 -236 88l57 63c44 -41 109 -67 181 -67c90 0 175 41 175 124c0 68 -62 96 -121 111 c-88 22 -190 55 -190 170c0 130 98 219 248 219zM256 -167l-74 -90h-51l56 88h-35l22 111h103z" />
<glyph unicode="&#x219;" horiz-adv-x="439" d="M194 -6c-67 0 -153 25 -201 76l53 62c35 -42 96 -62 149 -62c69 0 120 22 120 70c0 47 -36 62 -81 74c-70 18 -160 27 -160 135c0 112 99 152 196 152c57 0 118 -14 161 -56l-50 -64c-36 29 -74 44 -119 44c-49 0 -105 -17 -105 -76c0 -42 49 -51 103 -64 c66 -16 138 -37 138 -131c0 -116 -101 -160 -204 -160zM212 -167l-74 -90h-51l56 88h-35l22 111h103z" />
<glyph unicode="&#x1e80;" horiz-adv-x="807" d="M466 535h-3c-25 -58 -53 -119 -79 -177l-164 -358h-76l-36 696h87l19 -519h4c26 58 52 119 78 176l160 343h78l28 -350c5 -57 8 -113 13 -170h4l68 169l146 351h92l-306 -696h-76l-25 347zM539 780l-29 -42l-190 103l47 61z" />
<glyph unicode="&#x1e81;" horiz-adv-x="705" d="M369 395h-5c-62 -155 -113 -258 -190 -395h-76l-58 496h82l22 -267c3 -37 6 -79 7 -123h4c65 121 116 241 181 390h91l28 -262c4 -39 8 -66 10 -119h3c68 125 125 251 179 381h84c-79 -191 -151 -327 -254 -496h-75l-24 234c-3 33 -9 101 -9 161zM418 569l-49 -15 l-87 184l68 16z" />
<glyph unicode="&#x1e82;" horiz-adv-x="807" d="M466 535h-3c-25 -58 -53 -119 -79 -177l-164 -358h-76l-36 696h87l19 -519h4c26 58 52 119 78 176l160 343h78l28 -350c5 -57 8 -113 13 -170h4l68 169l146 351h92l-306 -696h-76l-25 347zM486 738l-29 42l172 122l47 -61z" />
<glyph unicode="&#x1e83;" horiz-adv-x="705" d="M369 395h-5c-62 -155 -113 -258 -190 -395h-76l-58 496h82l22 -267c3 -37 6 -79 7 -123h4c65 121 116 241 181 390h91l28 -262c4 -39 8 -66 10 -119h3c68 125 125 251 179 381h84c-79 -191 -151 -327 -254 -496h-75l-24 234c-3 33 -9 101 -9 161zM417 551l-49 20l107 177 l76 -25z" />
<glyph unicode="&#x1e84;" horiz-adv-x="807" d="M466 535h-3c-25 -58 -53 -119 -79 -177l-164 -358h-76l-36 696h87l19 -519h4c26 58 52 119 78 176l160 343h78l28 -350c5 -57 8 -113 13 -170h4l68 169l146 351h92l-306 -696h-76l-25 347zM463 750h-88l17 88h88zM643 750h-88l17 88h88z" />
<glyph unicode="&#x1e85;" horiz-adv-x="705" d="M369 395h-5c-62 -155 -113 -258 -190 -395h-76l-58 496h82l22 -267c3 -37 6 -79 7 -123h4c65 121 116 241 181 390h91l28 -262c4 -39 8 -66 10 -119h3c68 125 125 251 179 381h84c-79 -191 -151 -327 -254 -496h-75l-24 234c-3 33 -9 101 -9 161zM542 597h-87l17 88h87z M365 597h-86l17 88h86z" />
<glyph unicode="&#x1ef2;" horiz-adv-x="498" d="M589 696l-286 -421l-54 -275h-82l54 275l-124 421h86l58 -201l34 -130l91 139l129 192h94zM377 780l-29 -42l-190 103l47 61z" />
<glyph unicode="&#x1ef3;" horiz-adv-x="413" d="M373 495h83c-75 -209 -151 -383 -230 -513c-60 -96 -136 -180 -278 -186l-2 70c69 6 129 34 184 111l-81 518h86l29 -226c8 -60 19 -144 19 -219h3c78 138 137 300 187 445zM289 569l-49 -15l-87 184l68 16z" />
<glyph unicode="&#xe179;" horiz-adv-x="426" d="M145 373c0 -44 47 -57 101 -73c72 -21 153 -47 153 -143c0 -112 -94 -161 -223 -161c-63 0 -142 20 -190 64l55 64c38 -33 88 -53 141 -53c67 0 127 24 127 77c0 48 -52 65 -107 82c-64 20 -140 49 -140 129c0 108 82 164 195 164c62 0 124 -18 170 -50l-41 -67 c-41 24 -91 42 -138 42c-42 0 -103 -18 -103 -75zM216 -167l-74 -90h-51l56 88h-35l22 111h103z" />
<glyph unicode="&#xe17a;" horiz-adv-x="643" d="M352 366h-5l-45 -101l-123 -265h-72l-43 520h90l13 -253l6 -100h5l44 99l121 254h67l30 -258l8 -99h5l36 96l110 261h91l-233 -520h-70l-24 229zM401 551l-49 20l107 177l76 -25z" />
<glyph unicode="&#xe17b;" horiz-adv-x="643" d="M352 366h-5l-45 -101l-123 -265h-72l-43 520h90l13 -253l6 -100h5l44 99l121 254h67l30 -258l8 -99h5l36 96l110 261h91l-233 -520h-70l-24 229zM407 569l-49 -15l-87 184l68 16z" />
<glyph unicode="&#xe17c;" horiz-adv-x="643" d="M352 366h-5l-45 -101l-123 -265h-72l-43 520h90l13 -253l6 -100h5l44 99l121 254h67l30 -258l8 -99h5l36 96l110 261h91l-233 -520h-70l-24 229zM536 597h-87l17 88h87zM359 597h-86l17 88h86z" />
<glyph unicode="&#xe17d;" horiz-adv-x="412" d="M467 520l-219 -317l-37 -203h-84l37 203l-106 317h87l46 -155l25 -79l59 83l104 151h88zM286 569l-49 -15l-87 184l68 16z" />
<glyph unicode="&#x2b9;" horiz-adv-x="270" d="M232 694l93 -24l-181 -266l-54 18z" />
<glyph unicode="&#x2023;" horiz-adv-x="506" d="M81 477l393 -200l-393 -211v411z" />
<glyph unicode="&#x2103;" horiz-adv-x="865" d="M771 182l82 -40c-54 -98 -152 -148 -264 -148c-142 0 -212 93 -212 207c0 20 2 40 6 60l38 190c27 136 111 250 273 250c112 0 191 -59 220 -147l-84 -37c-14 52 -63 104 -137 104c-117 0 -169 -92 -186 -181l-36 -181c-3 -15 -4 -30 -4 -44c0 -74 25 -137 130 -137 c71 0 139 42 174 104zM346 568c0 -74 -60 -134 -134 -134s-134 60 -134 134s60 134 134 134c81 0 134 -60 134 -134zM292 568c0 44 -35 80 -80 80c-44 0 -80 -36 -80 -80s33 -80 80 -80c45 0 80 36 80 80z" />
<glyph unicode="&#x2109;" horiz-adv-x="826" d="M882 615h-340l-44 -230h294l-15 -77h-294l-60 -308h-87l136 696h426zM346 568c0 -74 -60 -134 -134 -134s-134 60 -134 134s60 134 134 134c81 0 134 -60 134 -134zM292 568c0 44 -35 80 -80 80c-44 0 -80 -36 -80 -80s33 -80 80 -80c45 0 80 36 80 80z" />
<glyph unicode="&#x2117;" horiz-adv-x="803" d="M585 412c0 -61 -50 -130 -137 -130h-104v-171h-64v434h160c74 0 145 -38 145 -133zM519 414c0 48 -33 72 -77 72h-98v-145h100c51 0 75 38 75 73zM404 -8c-202 0 -348 150 -348 349c0 201 151 351 348 351c198 0 349 -150 349 -351c0 -199 -151 -349 -349 -349zM404 631 c-162 0 -285 -124 -285 -290c0 -164 123 -288 285 -288c163 0 285 124 285 288c0 166 -122 290 -285 290z" />
<glyph unicode="&#x2126;" horiz-adv-x="580" d="M322 95c70 23 117 92 134 175l35 166c19 90 -18 190 -135 190c-113 0 -170 -94 -188 -183l-34 -173c-3 -15 -4 -30 -4 -45c0 -57 24 -108 76 -130l-19 -95h-205l15 81h104c-42 28 -56 78 -56 132c0 24 3 49 7 72l30 160c26 136 104 257 277 257c171 0 243 -123 217 -260 l-32 -167c-16 -82 -40 -157 -108 -194h85l-15 -81h-202z" />
<glyph unicode="&#x212b;" horiz-adv-x="598" d="M540 0h-90l-24 160h-283l-86 -160h-93l385 696h77zM417 236l-28 195l-20 158h-2l-79 -154l-106 -199h235zM392 702c-48 0 -83 34 -83 79c0 62 49 117 119 117c48 0 83 -36 83 -82c0 -71 -60 -114 -119 -114zM419 855c-35 0 -65 -31 -65 -66c0 -26 18 -44 45 -44 c34 0 67 30 67 66c0 25 -20 44 -47 44z" />
<glyph unicode="&#x259;" horiz-adv-x="470" d="M213 -5c-108 0 -171 52 -171 135s58 166 290 166c14 0 28 0 44 -1c2 15 2 23 2 28c0 75 -33 103 -98 103c-39 0 -99 -24 -130 -46l-40 59c49 40 119 63 182 63c113 0 165 -63 165 -180c0 -150 -70 -327 -244 -327zM218 72c94 0 130 74 145 151c-16 1 -30 1 -44 1 c-170 0 -196 -55 -196 -85c0 -42 33 -67 95 -67z" />
<glyph unicode="&#x2190;" horiz-adv-x="840" d="M202 353h577v-64l-577 1l146 -145l-46 -45l-220 221l220 222l46 -45z" />
<glyph unicode="&#x2191;" horiz-adv-x="485" d="M279 574v-573h-64v573l-144 -142l-45 46l221 220l222 -220l-45 -46z" />
<glyph unicode="&#x2192;" horiz-adv-x="840" d="M83 353h577l-146 145l46 45l220 -222l-220 -221l-46 45l146 145l-577 -1v64z" />
<glyph unicode="&#x2193;" horiz-adv-x="485" d="M279 699v-577l145 146l45 -46l-222 -220l-221 220l45 46l145 -146l-1 577h64z" />
<glyph unicode="&#x2196;" horiz-adv-x="840" d="M437 580l-206 1l535 -536l-44 -45l-535 536l1 -205h-65l1 312l312 1z" />
<glyph unicode="&#x2198;" horiz-adv-x="840" d="M451 64l206 -1l-535 536l44 45l535 -536l-1 205h65l-1 -312l-312 -1z" />
<glyph unicode="&#x21a9;" horiz-adv-x="840" d="M300 498l-146 -145h485c74 0 100 47 100 108v80c0 59 -30 94 -100 94h-74v62h79c117 0 159 -69 159 -160v-76c0 -104 -55 -172 -172 -172l-477 1l146 -145l-46 -45l-220 221l220 222z" />
<glyph unicode="&#x21aa;" horiz-adv-x="828" d="M684 353l-146 145l46 45l220 -222l-220 -221l-46 45l146 145l-477 -1c-117 0 -172 68 -172 172v76c0 91 42 160 159 160h79v-62h-74c-70 0 -100 -35 -100 -94v-80c0 -61 26 -108 100 -108h485z" />
<glyph unicode="&#x21b3;" horiz-adv-x="840" d="M177 692v-339h511l-146 145l46 45l220 -222l-220 -221l-46 45l146 145l-576 -1v403h65z" />
<glyph unicode="&#x21b5;" horiz-adv-x="840" d="M713 353v339h65v-403l-576 1l146 -145l-46 -45l-220 221l220 222l46 -45l-146 -145h511z" />
<glyph unicode="&#x21de;" horiz-adv-x="485" d="M279 574l1 -198h110v-64h-110v-76h110v-64h-110v-172h-65v172h-110v64h110v76h-110v64h110l1 198l-145 -142l-45 46l221 220l222 -220l-45 -46z" />
<glyph unicode="&#x21df;" horiz-adv-x="485" d="M280 322l-1 -201l145 145l45 -46l-222 -220l-221 220l45 46l145 -145l-1 201h-110v64h110v76h-110v64h110v172h65v-172h110v-64h-110v-76h110v-64h-110z" />
<glyph unicode="&#x21e0;" horiz-adv-x="840" d="M381 289v64h80v-64h-80zM529 289v64h81v-64h-81zM678 289v64h81v-64h-81zM181 353h133v-64l-133 1l148 -145l-46 -45l-220 221l220 222l46 -45z" />
<glyph unicode="&#x21e1;" horiz-adv-x="485" d="M213 379h64v-80h-64v80zM213 231h64v-81h-64v81zM213 82h64v-81h-64v81zM277 577v-131h-64l1 131l-145 -146l-45 46l221 220l222 -220l-45 -46z" />
<glyph unicode="&#x21e2;" horiz-adv-x="840" d="M441 353v-64h-80v64h80zM293 353v-64h-81v64h81zM144 353v-64h-81v64h81zM508 353h133l-148 145l46 45l220 -222l-220 -221l-46 45l148 145l-133 -1v64z" />
<glyph unicode="&#x21e3;" horiz-adv-x="485" d="M277 319h-64v80h64v-80zM277 467h-64v81h64v-81zM277 616h-64v81h64v-81zM277 252v-131l145 146l45 -46l-222 -220l-221 220l45 46l145 -146l-1 131h64z" />
<glyph unicode="&#x21e4;" horiz-adv-x="840" d="M140 104h-65v435h65v-435zM323 353h493v-64l-493 1l146 -145l-46 -45l-220 221l220 222l46 -45z" />
<glyph unicode="&#x21e5;" horiz-adv-x="840" d="M817 104h-65v435h65v-435zM76 353h493l-146 145l46 45l220 -222l-220 -221l-46 45l146 145l-493 -1v64z" />
<glyph unicode="&#x21e7;" horiz-adv-x="840" d="M240 318h-185l370 379l370 -379h-185v-318h-370v318zM671 366l-246 255l-246 -255h115v-313h263v313h114z" />
<glyph unicode="&#x21ea;" horiz-adv-x="840" d="M230 -188v188h370v-188h-370zM547 -53h-263v-81h263v81zM230 318h-185l370 379l370 -379h-185v-217h-370v217zM661 366l-246 255l-246 -255h115v-210h263v210h114z" />
<glyph unicode="&#x2303;" horiz-adv-x="795" d="M160 362l-52 52l289 289l290 -289l-51 -52l-239 239z" />
<glyph unicode="&#x2318;" horiz-adv-x="846" d="M208 490h71v72c0 40 -32 72 -71 72c-41 0 -73 -31 -73 -72s31 -72 73 -72zM563 562v-72h72c40 0 72 32 72 72s-32 72 -72 72s-72 -31 -72 -72zM279 135v72h-71c-42 0 -73 -33 -73 -72c0 -41 31 -73 73 -73c40 0 71 32 71 73zM635 207h-72v-72c0 -41 32 -73 72 -73 s72 32 72 73c0 39 -32 72 -72 72zM349 276h144v145h-144v-145zM563 421v-145h72c95 0 141 -66 141 -141c0 -76 -46 -142 -141 -142c-90 0 -142 65 -142 142v72h-144v-72c0 -74 -47 -142 -141 -142c-88 0 -143 63 -143 142c0 76 53 141 143 141h71v145h-71 c-77 0 -143 65 -143 141c0 78 59 142 143 142c94 0 141 -64 141 -142v-72h144v72c0 78 58 142 142 142c91 0 141 -65 141 -142c0 -74 -63 -141 -141 -141h-72z" />
<glyph unicode="&#x2324;" horiz-adv-x="795" d="M160 246l-52 52l289 304l290 -304l-51 -52l-239 254zM108 696h580v-73h-580v73z" />
<glyph unicode="&#x2525;" horiz-adv-x="1188" d="M44 607v73h283l285 -608h524v-72h-583l-285 607h-224zM528 607v73h608v-73h-608z" />
<glyph unicode="&#x2326;" horiz-adv-x="1137" d="M1089 347l-337 -347h-656v695h656zM714 69l274 278l-274 278h-549v-556h549zM614 143l-156 156l-154 -156l-49 49l155 155l-155 156l49 49l154 -155l156 155l49 -49l-155 -156l155 -155z" />
<glyph unicode="&#x232b;" horiz-adv-x="1165" d="M414 0l-337 347l337 348h656v-695h-656zM178 347l274 -278h549v556h-549zM698 299l-156 -156l-49 49l155 155l-155 156l49 49l156 -155l154 155l49 -49l-155 -156l155 -155l-49 -49z" />
<glyph unicode="&#x235f;" horiz-adv-x="804" d="M753 346h-1c0 -195 -158 -353 -354 -353c-195 0 -352 158 -352 354c0 195 158 353 354 353c195 0 353 -158 353 -354zM693 346c0 163 -132 295 -295 295s-295 -132 -295 -295s132 -294 295 -294s295 132 295 294zM634 414l-113 -113l26 -169l-157 76l-141 -76l21 165 l-118 117l163 32l75 148l80 -146z" />
<glyph unicode="&#x23cf;" horiz-adv-x="854" d="M66 227h702v-136h-702v136zM417 665l351 -351h-702z" />
<glyph unicode="&#x25a0;" horiz-adv-x="875" d="M756 673v-633h-633v633h633z" />
<glyph unicode="&#x25a1;" horiz-adv-x="841" d="M143 633v-574h568v574h-568zM770 0h-687v693h687v-693z" />
<glyph unicode="&#x25b2;" horiz-adv-x="820" d="M430 527l351 -351h-702z" />
<glyph unicode="&#x25b6;" horiz-adv-x="595" d="M138 0v701l351 -350z" />
<glyph unicode="&#x25bc;" horiz-adv-x="820" d="M781 527l-351 -351l-351 351h702z" />
<glyph unicode="&#x25c0;" horiz-adv-x="595" d="M452 701v-701l-351 351z" />
<glyph unicode="&#x25cf;" horiz-adv-x="843" d="M744 357c0 -170 -144 -317 -316 -317c-173 0 -317 144 -317 317c0 175 148 316 317 316c168 0 316 -144 316 -316z" />
<glyph unicode="&#x2605;" horiz-adv-x="814" d="M778 427l-173 -173l39 -258l-239 117l-214 -117l32 251l-181 180l249 48l114 226l123 -223z" />
<glyph unicode="&#x2606;" horiz-adv-x="838" d="M784 433l-176 -176l39 -259l-240 117l-218 -119l33 255l-183 182l254 49l113 225l124 -223zM578 267l149 148l-213 43l-107 193l-98 -196l-212 -40l153 -153l-27 -216l184 99l206 -99z" />
<glyph unicode="&#x2610;" horiz-adv-x="841" d="M143 633v-574h568v574h-568zM770 0h-687v693h687v-693z" />
<glyph unicode="&#x2794;" horiz-adv-x="736" d="M424 59l-147 -2l236 236h-492v107h491l-236 235h149l288 -288z" />
<glyph unicode="&#x2070;" horiz-adv-x="314" d="M163 365c-63 0 -114 37 -115 95c0 9 1 19 3 27c12 61 24 122 35 183c12 66 63 119 145 119c62 0 113 -38 114 -95c0 -9 -2 -19 -3 -27c-13 -74 -23 -122 -35 -182c-14 -67 -59 -120 -144 -120zM278 684c0 28 -20 47 -52 47c-43 0 -67 -31 -75 -67l-34 -178 c-1 -5 -2 -11 -2 -15c0 -28 19 -47 51 -47c42 0 68 31 77 67c11 57 23 117 33 175c1 5 2 13 2 18z" />
<glyph unicode="&#x2074;" horiz-adv-x="322" d="M329 431h-36c-4 -19 -11 -44 -13 -62h-64l12 62h-190l12 56l209 299h74l-209 -297h114c7 37 17 82 22 118h66l-23 -118h37z" />
<glyph unicode="&#x2075;" horiz-adv-x="307" d="M332 562c0 -102 -37 -197 -164 -197c-58 0 -116 25 -117 100l67 9c1 -35 23 -51 53 -51c73 0 93 66 93 125c0 24 -13 47 -53 47c-25 0 -52 -10 -68 -35h-63l45 226h246l-13 -61h-183l-17 -88c26 14 49 17 74 17c64 0 100 -37 100 -92z" />
<glyph unicode="&#x2076;" horiz-adv-x="311" d="M168 365c-64 0 -112 40 -112 101c0 32 12 70 31 97c54 72 115 151 168 223h75l-127 -172c9 1 16 2 25 2c64 0 97 -41 97 -95c0 -91 -59 -156 -157 -156zM257 513c0 30 -18 48 -51 48c-53 0 -82 -45 -82 -89c0 -32 19 -49 52 -49c50 0 81 45 81 90z" />
<glyph unicode="&#x2077;" horiz-adv-x="284" d="M358 726l-222 -357h-74l221 356h-117l-12 -61h-66l24 122h256z" />
<glyph unicode="&#x2078;" horiz-adv-x="315" d="M165 365c-66 0 -115 41 -116 102c-1 49 25 98 75 120c-21 15 -31 37 -31 62c-2 77 69 140 152 140c63 0 109 -41 110 -97c1 -43 -26 -86 -65 -108c27 -17 37 -47 37 -75c2 -84 -72 -144 -162 -144zM262 505c0 31 -27 51 -60 51c-46 0 -89 -37 -88 -78 c0 -31 26 -54 60 -54c48 0 89 39 88 81zM288 686c0 28 -20 47 -52 47c-46 0 -79 -39 -78 -79c0 -27 22 -44 52 -44c46 0 79 35 78 76z" />
<glyph unicode="&#x2079;" horiz-adv-x="307" d="M236 789c69 0 114 -42 115 -100c1 -35 -12 -71 -31 -97l-169 -223h-76l127 174c-6 -1 -13 -1 -19 -1c-63 0 -101 40 -102 95c-2 86 55 152 155 152zM148 642c0 -30 18 -49 51 -49c53 0 82 46 81 90c0 28 -19 48 -51 48c-51 0 -82 -47 -81 -89z" />
<glyph unicode="&#x207a;" horiz-adv-x="325" d="M347 521h-121l-22 -112h-53l22 112h-121l10 50h121l21 110h53l-21 -110h121z" />
<glyph unicode="&#x207b;" horiz-adv-x="255" d="M280 502h-197l11 57h197z" />
<glyph unicode="&#x207c;" horiz-adv-x="325" d="M335 464h-294l9 53h295zM356 576h-295l10 52h295z" />
<glyph unicode="&#x207d;" horiz-adv-x="189" d="M177 323l-39 -26c-51 63 -80 131 -82 200c-2 120 80 230 176 309l36 -23c-82 -81 -143 -188 -141 -294c0 -54 17 -113 50 -166z" />
<glyph unicode="&#x207e;" horiz-adv-x="189" d="M53 298l-32 27c80 79 142 187 140 293c-1 55 -18 114 -52 167l45 22c46 -58 75 -125 76 -196c3 -122 -80 -232 -177 -313z" />
<glyph unicode="&#x207f;" horiz-adv-x="355" d="M330 279l-65 -1c37 197 38 199 38 200c2 12 2 19 2 25c0 29 -17 46 -59 46c-43 0 -77 -30 -86 -76l-38 -194h-64l61 327h65l-6 -36c26 26 64 40 95 40c52 0 99 -32 100 -90c0 -9 -5 -33 -6 -41z" />
<glyph unicode="&#x2080;" horiz-adv-x="314" d="M113 -94c-63 0 -114 37 -115 95c0 9 1 19 3 27c12 61 24 122 35 183c12 66 63 119 145 119c62 0 113 -38 114 -95c0 -9 -2 -19 -3 -27c-13 -74 -23 -122 -35 -182c-14 -67 -59 -120 -144 -120zM228 225c0 28 -20 47 -52 47c-43 0 -68 -31 -75 -67l-34 -178 c-1 -5 -2 -11 -2 -15c0 -28 19 -47 51 -47c42 0 68 31 77 67c11 57 23 117 33 175c1 5 2 13 2 18z" />
<glyph unicode="&#x2081;" horiz-adv-x="271" d="M214 327l-81 -417h-65l68 346l-66 -39l16 69l66 41h62z" />
<glyph unicode="&#x2082;" horiz-adv-x="311" d="M237 -90h-261l11 58l211 199c23 21 34 41 34 61c0 23 -19 42 -55 42c-34 0 -64 -27 -77 -65l-69 14c27 68 84 110 150 110c68 0 121 -31 121 -95c0 -40 -20 -69 -50 -98c-63 -58 -113 -106 -176 -165h173z" />
<glyph unicode="&#x2083;" horiz-adv-x="315" d="M174 330c79 0 117 -42 118 -94c1 -35 -14 -78 -69 -107c27 -18 39 -46 39 -72c2 -90 -73 -151 -159 -151c-56 0 -115 25 -116 100l67 9c1 -35 23 -51 53 -51c48 0 88 34 87 87c0 32 -21 49 -55 49h-40l11 56h32c45 0 83 30 82 71c0 26 -21 44 -52 44 c-27 0 -60 -18 -73 -54l-65 11c20 63 78 102 140 102z" />
<glyph unicode="&#x2084;" horiz-adv-x="322" d="M269 -28h-36c-4 -19 -11 -44 -13 -62h-64l12 62h-190l12 56l209 299h74l-209 -297h114c7 37 17 82 22 118h66l-23 -118h37z" />
<glyph unicode="&#x2085;" horiz-adv-x="307" d="M273 103c0 -102 -37 -197 -164 -197c-58 0 -116 25 -117 100l67 9c1 -35 23 -51 53 -51c73 0 93 66 93 125c0 24 -13 47 -53 47c-25 0 -52 -10 -68 -35h-63l45 226h246l-13 -61h-183l-17 -88c26 14 49 17 74 17c64 0 100 -37 100 -92z" />
<glyph unicode="&#x2086;" horiz-adv-x="311" d="M103 -94c-64 0 -112 40 -112 101c0 32 12 70 31 97c54 72 115 151 168 223h75l-127 -172c9 1 16 2 25 2c64 0 97 -41 97 -95c0 -91 -59 -156 -157 -156zM192 54c0 30 -18 48 -51 48c-53 0 -82 -45 -82 -89c0 -32 19 -49 52 -49c50 0 81 45 81 90z" />
<glyph unicode="&#x2087;" horiz-adv-x="284" d="M298 267l-222 -357h-74l221 356h-117l-12 -61h-66l24 122h256z" />
<glyph unicode="&#x2088;" horiz-adv-x="315" d="M115 -94c-66 0 -115 41 -116 102c-1 49 25 98 75 120c-21 15 -31 37 -31 62c-2 77 69 140 152 140c63 0 109 -41 110 -97c1 -43 -26 -86 -65 -108c27 -17 37 -47 37 -75c2 -84 -72 -144 -162 -144zM212 46c0 31 -27 51 -60 51c-46 0 -89 -37 -88 -78c0 -31 26 -54 60 -54 c48 0 89 39 88 81zM238 227c0 28 -20 47 -52 47c-46 0 -79 -39 -78 -79c0 -27 22 -44 52 -44c46 0 79 35 78 76z" />
<glyph unicode="&#x2089;" horiz-adv-x="307" d="M189 330c69 0 114 -42 115 -100c1 -35 -12 -71 -31 -97l-169 -223h-76l127 174c-6 -1 -13 -1 -19 -1c-63 0 -101 40 -102 95c-2 86 55 152 155 152zM101 183c0 -30 18 -49 51 -49c53 0 82 46 81 90c0 28 -19 48 -51 48c-51 0 -82 -47 -81 -89z" />
<glyph unicode="&#x208a;" horiz-adv-x="325" d="M295 62h-121l-22 -112h-53l22 112h-121l10 50h121l21 110h53l-21 -110h121z" />
<glyph unicode="&#x208b;" horiz-adv-x="255" d="M200 43h-197l11 57h197z" />
<glyph unicode="&#x208c;" horiz-adv-x="325" d="M283 5h-294l9 53h295zM304 117h-295l10 52h295z" />
<glyph unicode="&#x208d;" horiz-adv-x="189" d="M137 -106l-39 -26c-51 63 -80 131 -82 200c-2 120 80 230 176 309l36 -23c-82 -81 -143 -188 -141 -294c0 -54 17 -113 50 -166z" />
<glyph unicode="&#x208e;" horiz-adv-x="189" d="M3 -131l-32 27c80 79 142 187 140 293c-1 55 -18 114 -52 167l45 22c46 -58 75 -125 76 -196c3 -122 -80 -232 -177 -313z" />
<glyph unicode="&#xe06c;" horiz-adv-x="342" d="M218 610c29 0 62 -12 84 -33l6 29h62l-61 -327h-65l7 39c-24 -28 -52 -43 -86 -43c-74 0 -106 50 -107 116c-1 91 47 219 160 219zM127 392c1 -24 11 -55 54 -55c69 0 98 91 98 152c0 35 -15 59 -54 59c-79 0 -97 -109 -98 -156z" />
<glyph unicode="&#xe06d;" horiz-adv-x="335" d="M192 275c-30 0 -61 14 -79 43l-9 -39h-63l91 476h64l-32 -176c22 16 49 31 90 31c72 0 99 -43 100 -104c2 -93 -39 -231 -162 -231zM229 549c-75 0 -98 -95 -97 -153c1 -35 15 -61 55 -61c76 0 99 104 98 155c0 35 -14 59 -56 59z" />
<glyph unicode="&#xe06f;" horiz-adv-x="335" d="M308 279h-64l8 39c-26 -27 -56 -43 -96 -43c-73 0 -96 48 -97 109c-1 95 38 226 163 226c33 0 55 -11 77 -33c11 58 25 120 35 178h66zM274 444c3 12 5 28 4 42c0 32 -12 61 -54 61c-64 0 -86 -61 -93 -105c-2 -16 -4 -33 -4 -47c1 -31 12 -58 56 -58c63 0 84 65 91 107z " />
<glyph unicode="&#xe070;" horiz-adv-x="324" d="M244 610c76 0 122 -35 123 -91c1 -57 -39 -112 -200 -112h-27c-1 -8 0 -9 0 -13c1 -43 22 -60 62 -60c25 0 67 16 90 31l34 -46c-36 -27 -86 -44 -131 -44c-79 0 -118 42 -119 120c-2 99 45 215 168 215zM241 551c-58 0 -81 -41 -91 -88h25c111 0 127 33 127 50 c0 23 -22 38 -61 38z" />
<glyph unicode="&#xe073;" horiz-adv-x="357" d="M329 279h-65l38 196c7 39 -2 73 -50 73c-39 0 -84 -32 -92 -75l-38 -194h-64l89 476h64l-31 -179c27 22 61 34 93 34c51 0 97 -30 98 -92c0 -11 -1 -21 -3 -32z" />
<glyph unicode="&#xe074;" horiz-adv-x="152" d="M123 279h-64l61 327h64zM197 672h-64l12 62h64z" />
<glyph unicode="&#xe077;" horiz-adv-x="164" d="M162 279h-27c-50 0 -84 30 -73 86c23 125 52 265 76 390h64l-74 -388c-2 -16 5 -30 24 -30h21z" />
<glyph unicode="&#xe078;" horiz-adv-x="573" d="M542 279h-64l37 196c2 12 3 21 3 29c0 27 -16 44 -53 44c-38 0 -84 -32 -92 -75l-37 -194h-65l37 196c8 45 -6 74 -57 74c-40 0 -74 -33 -85 -76l-37 -194h-65l61 327h65l-6 -35c23 23 58 39 94 39c43 0 73 -17 92 -42c36 32 73 42 116 42c66 0 111 -48 97 -123z" />
<glyph unicode="&#xe079;" horiz-adv-x="342" d="M232 609c75 0 125 -46 126 -117c2 -100 -38 -217 -164 -217c-82 0 -129 41 -130 114c-2 117 51 220 168 220zM227 553c-77 0 -100 -98 -99 -160c0 -23 12 -61 63 -61c78 0 103 85 101 157c0 43 -28 64 -65 64z" />
<glyph unicode="&#xe07c;" horiz-adv-x="250" d="M317 594l-32 -60c-16 9 -38 14 -50 14c-41 0 -78 -28 -86 -76l-37 -193h-65l61 327h66l-8 -45c24 35 63 49 97 49c22 0 43 -9 54 -16z" />
<glyph unicode="&#xe07d;" horiz-adv-x="319" d="M173 275c-49 0 -94 17 -134 54l44 47c27 -28 64 -42 100 -42c32 0 81 11 80 47c0 26 -33 31 -70 36c-51 6 -109 13 -110 80c-1 75 72 113 142 113c42 0 88 -10 124 -41l-41 -47c-28 19 -56 29 -87 29c-33 0 -71 -13 -71 -48c0 -20 30 -24 66 -29c53 -6 115 -15 116 -83 c2 -84 -83 -116 -159 -116z" />
<glyph unicode="&#xe07e;" horiz-adv-x="189" d="M191 279h-43c-47 0 -78 29 -68 80l37 191h-41l11 56h40c5 25 10 56 15 79h64l-14 -79h50l-10 -56h-51l-35 -180c-2 -16 0 -34 21 -34h34z" />
<glyph unicode="&#xaa;" horiz-adv-x="342" d="M218 610c29 0 62 -12 84 -33l6 29h62l-61 -327h-65l7 39c-24 -28 -52 -43 -86 -43c-74 0 -106 50 -107 116c-1 91 47 219 160 219zM127 392c1 -24 11 -55 54 -55c69 0 98 91 98 152c0 35 -15 59 -54 59c-79 0 -97 -109 -98 -156z" />
<glyph unicode="&#xb2;" horiz-adv-x="311" d="M296 369h-261l11 58l211 199c23 21 34 41 34 61c0 23 -19 42 -55 42c-34 0 -64 -27 -77 -65l-69 14c27 68 84 110 150 110c68 0 121 -31 121 -95c0 -40 -20 -69 -50 -98c-63 -58 -113 -106 -176 -165h173z" />
<glyph unicode="&#xb3;" horiz-adv-x="315" d="M242 789c79 0 117 -42 118 -94c1 -35 -14 -78 -69 -107c27 -18 39 -46 39 -72c2 -90 -73 -151 -159 -151c-56 0 -115 25 -116 100l67 9c1 -35 23 -51 53 -51c48 0 88 34 87 87c0 32 -21 49 -55 49h-40l11 56h32c45 0 83 30 82 71c0 26 -21 44 -52 44 c-27 0 -60 -18 -73 -54l-65 11c20 63 78 102 140 102z" />
<glyph unicode="&#xb9;" horiz-adv-x="271" d="M264 786l-81 -417h-65l68 346l-66 -39l16 69l66 41h62z" />
<glyph unicode="&#xba;" horiz-adv-x="342" d="M232 609c75 0 125 -46 126 -117c2 -100 -38 -217 -164 -217c-82 0 -129 41 -130 114c-2 117 51 220 168 220zM227 553c-77 0 -100 -98 -99 -160c0 -23 12 -61 63 -61c78 0 103 85 101 157c0 43 -28 64 -65 64z" />
<glyph unicode="&#x2153;" horiz-adv-x="788" d="M694 713l-568 -730h-71l567 730h72zM282 696l-81 -417h-65l68 346l-66 -39l16 69l66 41h62zM630 420c79 0 117 -42 118 -94c1 -35 -14 -78 -69 -107c27 -18 39 -46 39 -72c2 -90 -73 -151 -159 -151c-56 0 -115 25 -116 100l67 9c1 -35 23 -51 53 -51c48 0 88 34 87 87 c0 32 -21 49 -55 49h-40l11 56h32c45 0 83 30 82 71c0 26 -21 44 -52 44c-27 0 -60 -18 -73 -54l-65 11c20 63 78 102 140 102z" />
<glyph unicode="&#x2154;" horiz-adv-x="788" d="M759 713l-568 -730h-71l567 730h72zM292 279h-261l11 58l211 199c23 21 34 41 34 61c0 23 -19 42 -55 42c-34 0 -64 -27 -77 -65l-69 14c27 68 84 110 150 110c68 0 121 -31 121 -95c0 -40 -20 -69 -50 -98c-63 -58 -113 -106 -176 -165h173zM684 420 c79 0 117 -42 118 -94c1 -35 -14 -78 -69 -107c27 -18 39 -46 39 -72c2 -90 -73 -151 -159 -151c-56 0 -115 25 -116 100l67 9c1 -35 23 -51 53 -51c48 0 88 34 87 87c0 32 -21 49 -55 49h-40l11 56h32c45 0 83 30 82 71c0 26 -21 44 -52 44c-27 0 -60 -18 -73 -54l-65 11 c20 63 78 102 140 102z" />
<glyph unicode="&#x2155;" horiz-adv-x="788" d="M692 713l-568 -730h-71l567 730h72zM294 696l-81 -417h-65l68 346l-66 -39l16 69l66 41h62zM735 193c0 -102 -37 -197 -164 -197c-58 0 -116 25 -117 100l67 9c1 -35 23 -51 53 -51c73 0 93 66 93 125c0 24 -13 47 -53 47c-25 0 -52 -10 -68 -35h-63l45 226h246l-13 -61 h-183l-17 -88c26 14 49 17 74 17c64 0 100 -37 100 -92z" />
<glyph unicode="&#x2156;" horiz-adv-x="788" d="M717 713l-568 -730h-71l567 730h72zM259 279h-261l11 58l211 199c23 21 34 41 34 61c0 23 -19 42 -55 42c-34 0 -64 -27 -77 -65l-69 14c27 68 84 110 150 110c68 0 121 -31 121 -95c0 -40 -20 -69 -50 -98c-63 -58 -113 -106 -176 -165h173zM748 193 c0 -102 -37 -197 -164 -197c-58 0 -116 25 -117 100l67 9c1 -35 23 -51 53 -51c73 0 93 66 93 125c0 24 -13 47 -53 47c-25 0 -52 -10 -68 -35h-63l45 226h246l-13 -61h-183l-17 -88c26 14 49 17 74 17c64 0 100 -37 100 -92z" />
<glyph unicode="&#x2157;" horiz-adv-x="788" d="M700 713l-568 -730h-71l567 730h72zM200 699c79 0 117 -42 118 -94c1 -35 -14 -78 -69 -107c27 -18 39 -46 39 -72c2 -90 -73 -151 -159 -151c-56 0 -115 25 -116 100l67 9c1 -35 23 -51 53 -51c48 0 88 34 87 87c0 32 -21 49 -55 49h-40l11 56h32c45 0 83 30 82 71 c0 26 -21 44 -52 44c-27 0 -60 -18 -73 -54l-65 11c20 63 78 102 140 102zM740 193c0 -102 -37 -197 -164 -197c-58 0 -116 25 -117 100l67 9c1 -35 23 -51 53 -51c73 0 93 66 93 125c0 24 -13 47 -53 47c-25 0 -52 -10 -68 -35h-63l45 226h246l-13 -61h-183l-17 -88 c26 14 49 17 74 17c64 0 100 -37 100 -92z" />
<glyph unicode="&#x2158;" horiz-adv-x="788" d="M722 713l-568 -730h-71l567 730h72zM291 341h-36c-4 -19 -11 -44 -13 -62h-64l12 62h-190l12 56l209 299h74l-209 -297h114c7 37 17 82 22 118h66l-23 -118h37zM751 193c0 -102 -37 -197 -164 -197c-58 0 -116 25 -117 100l67 9c1 -35 23 -51 53 -51c73 0 93 66 93 125 c0 24 -13 47 -53 47c-25 0 -52 -10 -68 -35h-63l45 226h246l-13 -61h-183l-17 -88c26 14 49 17 74 17c64 0 100 -37 100 -92z" />
<glyph unicode="&#x2159;" horiz-adv-x="788" d="M697 713l-568 -730h-71l567 730h72zM265 696l-81 -417h-65l68 346l-66 -39l16 69l66 41h62zM542 -4c-64 0 -112 40 -112 101c0 32 12 70 31 97c54 72 115 151 168 223h75l-127 -172c9 1 16 2 25 2c64 0 97 -41 97 -95c0 -91 -59 -156 -157 -156zM631 144 c0 30 -18 48 -51 48c-53 0 -82 -45 -82 -89c0 -32 19 -49 52 -49c50 0 81 45 81 90z" />
<glyph unicode="&#x215a;" horiz-adv-x="788" d="M753 713l-568 -730h-71l567 730h72zM325 472c0 -102 -37 -197 -164 -197c-58 0 -116 25 -117 100l67 9c1 -35 23 -51 53 -51c73 0 93 66 93 125c0 24 -13 47 -53 47c-25 0 -52 -10 -68 -35h-63l45 226h246l-13 -61h-183l-17 -88c26 14 49 17 74 17c64 0 100 -37 100 -92z M604 -4c-64 0 -112 40 -112 101c0 32 12 70 31 97c54 72 115 151 168 223h75l-127 -172c9 1 16 2 25 2c64 0 97 -41 97 -95c0 -91 -59 -156 -157 -156zM693 144c0 30 -18 48 -51 48c-53 0 -82 -45 -82 -89c0 -32 19 -49 52 -49c50 0 81 45 81 90z" />
<glyph unicode="&#x215b;" horiz-adv-x="788" d="M682 713l-568 -730h-71l567 730h72zM261 696l-81 -417h-65l68 346l-66 -39l16 69l66 41h62zM541 -4c-66 0 -115 41 -116 102c-1 49 25 98 75 120c-21 15 -31 37 -31 62c-2 77 69 140 152 140c63 0 109 -41 110 -97c1 -43 -26 -86 -65 -108c27 -17 37 -47 37 -75 c2 -84 -72 -144 -162 -144zM638 136c0 31 -27 51 -60 51c-46 0 -89 -37 -88 -78c0 -31 26 -54 60 -54c48 0 89 39 88 81zM664 317c0 28 -20 47 -52 47c-46 0 -79 -39 -78 -79c0 -27 22 -44 52 -44c46 0 79 35 78 76z" />
<glyph unicode="&#x215c;" horiz-adv-x="788" d="M715 713l-568 -730h-71l567 730h72zM201 699c79 0 117 -42 118 -94c1 -35 -14 -78 -69 -107c27 -18 39 -46 39 -72c2 -90 -73 -151 -159 -151c-56 0 -115 25 -116 100l67 9c1 -35 23 -51 53 -51c48 0 88 34 87 87c0 32 -21 49 -55 49h-40l11 56h32c45 0 83 30 82 71 c0 26 -21 44 -52 44c-27 0 -60 -18 -73 -54l-65 11c20 63 78 102 140 102zM571 -4c-66 0 -115 41 -116 102c-1 49 25 98 75 120c-21 15 -31 37 -31 62c-2 77 69 140 152 140c63 0 109 -41 110 -97c1 -43 -26 -86 -65 -108c27 -17 37 -47 37 -75c2 -84 -72 -144 -162 -144z M668 136c0 31 -27 51 -60 51c-46 0 -89 -37 -88 -78c0 -31 26 -54 60 -54c48 0 89 39 88 81zM694 317c0 28 -20 47 -52 47c-46 0 -79 -39 -78 -79c0 -27 22 -44 52 -44c46 0 79 35 78 76z" />
<glyph unicode="&#x215d;" horiz-adv-x="788" d="M722 713l-568 -730h-71l567 730h72zM304 472c0 -102 -37 -197 -164 -197c-58 0 -116 25 -117 100l67 9c1 -35 23 -51 53 -51c73 0 93 66 93 125c0 24 -13 47 -53 47c-25 0 -52 -10 -68 -35h-63l45 226h246l-13 -61h-183l-17 -88c26 14 49 17 74 17c64 0 100 -37 100 -92z M586 -4c-66 0 -115 41 -116 102c-1 49 25 98 75 120c-21 15 -31 37 -31 62c-2 77 69 140 152 140c63 0 109 -41 110 -97c1 -43 -26 -86 -65 -108c27 -17 37 -47 37 -75c2 -84 -72 -144 -162 -144zM683 136c0 31 -27 51 -60 51c-46 0 -89 -37 -88 -78c0 -31 26 -54 60 -54 c48 0 89 39 88 81zM709 317c0 28 -20 47 -52 47c-46 0 -79 -39 -78 -79c0 -27 22 -44 52 -44c46 0 79 35 78 76z" />
<glyph unicode="&#x215e;" horiz-adv-x="788" d="M679 713l-568 -730h-71l567 730h72zM326 636l-222 -357h-74l221 356h-117l-12 -61h-66l24 122h256zM577 -4c-66 0 -115 41 -116 102c-1 49 25 98 75 120c-21 15 -31 37 -31 62c-2 77 69 140 152 140c63 0 109 -41 110 -97c1 -43 -26 -86 -65 -108c27 -17 37 -47 37 -75 c2 -84 -72 -144 -162 -144zM674 136c0 31 -27 51 -60 51c-46 0 -89 -37 -88 -78c0 -31 26 -54 60 -54c48 0 89 39 88 81zM700 317c0 28 -20 47 -52 47c-46 0 -79 -39 -78 -79c0 -27 22 -44 52 -44c46 0 79 35 78 76z" />
<glyph unicode="&#x215f;" horiz-adv-x="380" d="M657 713l-568 -730h-71l567 730h72zM250 696l-81 -417h-65l68 346l-66 -39l16 69l66 41h62z" />
<glyph unicode="%" horiz-adv-x="788" d="M561 -4c-63 0 -114 37 -115 95c0 9 1 19 3 27c12 61 24 122 35 183c12 66 63 119 145 119c62 0 113 -38 114 -95c0 -9 -2 -19 -3 -27c-13 -74 -23 -122 -35 -182c-14 -67 -59 -120 -144 -120zM676 315c0 28 -20 47 -52 47c-43 0 -68 -31 -75 -67l-34 -178 c-1 -5 -2 -11 -2 -15c0 -28 19 -47 51 -47c42 0 68 31 77 67c11 57 23 117 33 175c1 5 2 13 2 18zM177 275c-63 0 -114 37 -115 95c0 9 1 19 3 27c12 61 24 122 35 183c12 66 63 119 145 119c62 0 113 -38 114 -95c0 -9 -2 -19 -3 -27c-13 -74 -23 -122 -35 -182 c-14 -67 -59 -120 -144 -120zM292 594c0 28 -20 47 -52 47c-43 0 -67 -31 -75 -67l-34 -178c-1 -5 -2 -11 -2 -15c0 -28 19 -47 51 -47c42 0 68 31 77 67c11 57 23 117 33 175c1 5 2 13 2 18zM724 713l-568 -730h-71l567 730h72z" />
<glyph unicode="&#xbd;" horiz-adv-x="788" d="M268 696l-81 -417h-65l68 346l-66 -39l16 69l66 41h62zM670 713l-568 -730h-71l567 730h72zM667 0h-261l11 58l211 199c23 21 34 41 34 61c0 23 -19 42 -55 42c-34 0 -64 -27 -77 -65l-69 14c27 68 84 110 150 110c68 0 121 -31 121 -95c0 -40 -20 -69 -50 -98 c-63 -58 -113 -106 -176 -165h173z" />
<glyph unicode="&#xbc;" horiz-adv-x="788" d="M271 696l-81 -417h-65l68 346l-66 -39l16 69l66 41h62zM699 713l-568 -730h-71l567 730h72zM676 62h-36c-4 -19 -11 -44 -13 -62h-64l12 62h-190l12 56l209 299h74l-209 -297h114c7 37 17 82 22 118h66l-23 -118h37z" />
<glyph unicode="&#xbe;" horiz-adv-x="788" d="M237 699c79 0 117 -42 118 -94c1 -35 -14 -78 -69 -107c27 -18 39 -46 39 -72c2 -90 -73 -151 -159 -151c-56 0 -115 25 -116 100l67 9c1 -35 23 -51 53 -51c48 0 88 34 87 87c0 32 -21 49 -55 49h-40l11 56h32c45 0 83 30 82 71c0 26 -21 44 -52 44 c-27 0 -60 -18 -73 -54l-65 11c20 63 78 102 140 102zM757 713l-568 -730h-71l567 730h72zM740 62h-36c-4 -19 -11 -44 -13 -62h-64l12 62h-190l12 56l209 299h74l-209 -297h114c7 37 17 82 22 118h66l-23 -118h37z" />
<glyph unicode="&#xe360;" horiz-adv-x="404" d="M419 279h-71l-19 103h-184c-20 -34 -38 -69 -58 -103h-75l261 455h59zM322 440l-21 119l-15 90c-15 -30 -30 -58 -44 -88l-66 -121h146z" />
<glyph unicode="&#xe361;" horiz-adv-x="404" d="M268 279h-205l87 455h167c72 0 132 -28 132 -105c0 -55 -28 -97 -82 -117c38 -17 57 -47 57 -88c0 -82 -70 -145 -156 -145zM287 483h-116l-27 -142h113c51 0 98 34 98 84c0 38 -32 58 -68 58zM306 675h-98c-9 -44 -17 -89 -25 -134h103c49 0 94 31 94 80 c0 39 -35 54 -74 54z" />
<glyph unicode="&#xe362;" horiz-adv-x="418" d="M151 734h155c83 0 154 -33 154 -122c0 -79 -30 -210 -52 -246c-43 -71 -105 -87 -172 -87h-173zM295 673h-87c-22 -112 -43 -219 -64 -332h85c86 0 124 47 139 122l17 86c3 17 4 32 4 44c-1 60 -37 80 -94 80z" />
<glyph unicode="&#xe363;" horiz-adv-x="367" d="M367 279h-304l87 455h304l-12 -61h-234c-9 -44 -17 -89 -25 -134h199l-12 -60h-199c-9 -47 -17 -90 -27 -138h234z" />
<glyph unicode="&#xe364;" horiz-adv-x="430" d="M396 279h-68l38 200h-195l-39 -200h-69l88 455h69l-38 -195h195l38 195h68z" />
<glyph unicode="&#xe365;" horiz-adv-x="163" d="M130 279h-69l88 455h69z" />
<glyph unicode="&#xe366;" horiz-adv-x="367" d="M367 279h-305l88 455h69l-76 -393h235z" />
<glyph unicode="&#xe367;" horiz-adv-x="506" d="M479 279h-68l54 298c-12 -21 -26 -43 -39 -63l-112 -169h-58l-50 176l-16 55c-19 -99 -39 -199 -57 -297h-69l87 455h67l60 -211l25 -91c19 31 40 61 58 92l138 210h67z" />
<glyph unicode="&#xe368;" horiz-adv-x="455" d="M422 279h-65l-122 258l-38 80c-20 -111 -43 -227 -65 -338h-69l88 455h66l117 -248l43 -90c20 111 43 228 65 338h68z" />
<glyph unicode="&#xe369;" horiz-adv-x="400" d="M289 738c92 0 155 -57 157 -136c0 -33 -14 -101 -22 -144c-23 -119 -88 -183 -199 -183c-100 0 -153 61 -154 137c-1 44 15 116 26 161c21 92 68 165 192 165zM284 677c-80 0 -111 -64 -121 -116l-22 -113c-12 -60 17 -113 88 -113c65 0 110 49 124 115 c11 46 25 106 24 143c-1 50 -33 84 -93 84z" />
<glyph unicode="&#xe36a;" horiz-adv-x="404" d="M410 279h-78l-65 196h-98l-37 -196h-69l88 455h188c76 0 122 -44 122 -114c0 -75 -55 -122 -122 -138zM317 675h-108c-10 -49 -19 -91 -28 -141h112c50 0 99 30 99 84c0 41 -31 57 -75 57z" />
<glyph unicode="&#xe36b;" horiz-adv-x="379" d="M286 738c52 0 105 -14 144 -41l-41 -55c-30 21 -71 33 -110 33s-98 -19 -98 -72c0 -38 53 -53 72 -58c70 -18 145 -42 145 -127c0 -95 -89 -143 -190 -143c-65 0 -128 22 -168 61l46 48c30 -28 76 -46 124 -46c58 0 114 25 114 75c0 40 -40 56 -79 66 c-62 15 -133 37 -133 115c0 85 69 144 174 144z" />
<glyph unicode="&#xe36c;" horiz-adv-x="328" d="M423 675h-132c-26 -131 -52 -265 -77 -396h-68l76 396h-133l11 59h334z" />
<glyph unicode="&#x1a0;" horiz-adv-x="610" d="M366 701c59 0 111 -18 149 -48h2c56 0 75 22 90 100l4 21h75l-6 -33c-17 -87 -45 -139 -111 -155c13 -26 20 -57 20 -89c0 -64 -26 -166 -42 -245c-33 -155 -123 -258 -283 -258c-157 0 -218 92 -218 206c0 65 27 174 44 249c32 142 105 252 276 252zM360 622 c-124 0 -172 -96 -188 -180l-36 -185c-18 -97 5 -185 135 -185c107 0 167 81 191 185c17 72 40 166 40 225c0 82 -50 140 -142 140z" />
<glyph unicode="&#x1a1;" horiz-adv-x="520" d="M287 500c50 0 92 -16 122 -43c51 1 69 25 84 100l4 21h75l-6 -33c-18 -88 -45 -140 -114 -155c6 -20 10 -42 10 -65c0 -153 -59 -331 -239 -331c-116 0 -181 61 -181 170c0 177 78 336 245 336zM278 427c-119 0 -156 -156 -156 -256c0 -40 17 -103 99 -103 c119 0 159 136 159 252c0 73 -43 107 -102 107z" />
<glyph unicode="&#x1af;" horiz-adv-x="658" d="M549 232c-28 -143 -119 -238 -277 -238c-135 0 -232 98 -203 248l88 454h86l-86 -442c-20 -104 15 -179 121 -179c95 0 167 64 187 169l88 452h86l-9 -43c47 4 64 28 78 100l4 21h75l-6 -33c-21 -106 -57 -160 -162 -160h-3z" />
<glyph unicode="&#x1b0;" horiz-adv-x="574" d="M411 0h-81l11 56h-3c-40 -43 -95 -62 -145 -62c-98 0 -157 61 -135 171l64 330h80l-57 -297c-15 -76 -5 -126 88 -126c63 0 121 50 136 126l58 297h80l-8 -38c48 3 66 27 80 100l4 21h75l-6 -33c-21 -106 -57 -160 -162 -160h-5z" />
<glyph unicode="&#x20ab;" d="M308 563l10 52h70l16 82h77l-16 -82h43l-10 -52h-43l-84 -435h-77l8 42c-33 -34 -81 -47 -119 -47c-84 0 -117 63 -117 139c0 113 45 259 202 259c39 0 77 -16 94 -41l16 83h-70zM264 453c-106 0 -119 -130 -119 -182c0 -43 13 -80 72 -80c101 0 120 133 120 177 s-16 85 -73 85zM10 0l13 69h356l-13 -69h-356z" />
<glyph unicode="&#x2602;" horiz-adv-x="780" d="M405 695c147 0 323 -160 324 -331c-21 24 -55 39 -90 39c-30 0 -61 -12 -86 -39h-2c-15 25 -41 39 -75 39c-18 0 -40 -5 -62 -14v-304c0 -55 -36 -93 -99 -93c-55 0 -97 31 -97 98v13h47v-13c0 -37 20 -54 48 -54c42 0 51 29 51 56v296c-19 9 -36 12 -52 12 c-34 0 -61 -15 -85 -37c-22 26 -55 39 -87 39c-33 0 -66 -13 -89 -39l-1 1c0 170 179 332 326 332v31h29v-32zM729 364l1 -1c-1 0 -1 1 -1 1z" />
<glyph unicode="&#x2611;" horiz-adv-x="850" d="M691 592l11 -10c-106 -78 -260 -339 -321 -462c-36 -7 -61 -14 -74 -21c-21 81 -76 239 -113 265c23 19 55 25 73 25c24 0 74 -100 86 -187c76 127 221 315 338 390zM143 633v-574h568v574h-568zM770 0h-687v693h687v-693z" />
<glyph unicode="&#x2612;" horiz-adv-x="850" d="M423 395l189 192l47 -47l-189 -189l192 -192l-49 -47l-191 192l-191 -194l-46 49l190 190l-190 190l47 48zM143 633v-574h568v574h-568zM770 0h-687v693h687v-693z" />
<glyph unicode="&#xe071;" horiz-adv-x="324" d="M244 610c76 0 122 -35 123 -91c1 -57 -39 -112 -200 -112h-27c-1 -8 0 -9 0 -13c1 -43 22 -60 62 -60c25 0 67 16 90 31l34 -46c-36 -27 -86 -44 -131 -44c-79 0 -118 42 -119 120c-2 99 45 215 168 215zM241 551c-58 0 -81 -41 -91 -88h25c111 0 127 33 127 50 c0 23 -22 38 -61 38zM299 669l-34 -24l-86 116l49 33z" />
<glyph unicode="&#xe374;" horiz-adv-x="367" d="M350 790l-23 -32l-135 69l36 44zM367 279h-304l87 455h304l-12 -61h-234c-9 -44 -17 -89 -25 -134h199l-12 -60h-199c-9 -47 -17 -90 -27 -138h234z" />
<glyph unicode="&#x21a;" horiz-adv-x="476" d="M556 619h-194l-121 -619h-86l120 619h-194l15 77h475zM221 -167l-74 -90h-51l56 88h-35l22 111h103z" />
<glyph unicode="&#x21b;" horiz-adv-x="274" d="M210 0h-57c-65 0 -105 41 -90 116l60 307h-59l14 72h59l24 124h80l-24 -124h75l-14 -72h-75l-56 -287c-6 -31 -4 -62 36 -62h42zM139 -167l-74 -90h-51l56 88h-35l22 111h103z" />
</font>
</defs>
</svg>
